<svg
  id="图层_2"
  data-name="图层 2"
  xmlns="http://www.w3.org/2000/svg"
  viewBox="0 0 1000 1000"
>
  <defs>
    <style>
      .cls-1 {
        fill: {{color[0]}};
        stroke: #000;
        stroke-miterlimit: 10;
        stroke-width: 4px;
      }
      .cls-2 {
        fill: #ffd6c0;
      }
    </style>
  </defs>
  <path
    class="cls-1"
    d="M714.41,881.51c-5.45-14-19-23.32-32.91-28.92s-28.91-8.37-42.78-14.16c-15.22-6.35-29.14-16.56-38.09-30.42a85.47,85.47,0,0,1-11.11-27.53,116.36,116.36,0,0,1,.83-54.78c-20-17.71-46.5-27.19-73.14-27.49A121,121,0,0,0,442.78,723c10.43,25.3,5.43,55.48-9.75,78.25S393.5,839.76,367.56,847a85.8,85.8,0,0,0-45.66,46.28c19.5,16.39,45.26,23,70.3,27.58a653.9,653.9,0,0,0,231.22,1c20.25-3.56,40.4-8.09,59.72-15.13C696.71,901.71,711.16,894.13,714.41,881.51Z"
  />
  <path
    class="cls-1"
    d="M735.15,414.44c-.18,28.93-4.41,39.54-6.46,60.29a260,260,0,0,0-1,32.86c.87,56.23,1.3,84.35-3.7,104.41-12.3,49.32-52.49,78.85-84,102-27.92,20.52-49.53,36.39-82,40-21.27,2.36-53.77-10-119-34-2.78-1-34.75-13-55-31a241.77,241.77,0,0,1-17.64-17.56c-.08-.11-.21-.26-.36-.44-14.53-17.65-24.2-35.38-34-58-11.12-25.69-24.21-55.9-33-94-17.11-74.14-34.65-150.15,2.38-218.76,46.72-86.59,154.94-114.55,226.45-113.19,23.42.45,101.27,1.94,154.16,55.1C735.87,296.3,735.38,375.47,735.15,414.44Z"
  />
  <path
    class="cls-2"
    d="M558.4,511.68a155,155,0,0,0-59.27,22.56,8.14,8.14,0,0,0-3.37,3.28c-1.73,4,3.06,7.58,7.16,9,20.45,6.92,42.75,3.94,64.12.89l55.9-8a174.34,174.34,0,0,0-66.68-26.62"
  />
</svg>
