<svg
  id="图层_2"
  data-name="图层 2"
  xmlns="http://www.w3.org/2000/svg"
  viewBox="0 0 1000 1000"
>
  <defs>
    <style>
      .cls-1 {
        fill: {{color[0]}};
        stroke: #000;
        stroke-miterlimit: 10;
        stroke-width: 4px;
      }
      .cls-2 {
        fill: #ffd6c0;
      }
    </style>
  </defs>
  <path
    class="cls-1"
    d="M714.41,881.51c-5.45-14-19-23.32-32.91-28.92s-28.91-8.37-42.78-14.16c-15.22-6.35-29.14-16.56-38.09-30.42a85.47,85.47,0,0,1-11.11-27.53,116.36,116.36,0,0,1,.83-54.78c-20-17.71-46.5-27.19-73.14-27.49A121,121,0,0,0,442.78,723c10.43,25.3,5.43,55.48-9.75,78.25S393.5,839.76,367.56,847a85.8,85.8,0,0,0-45.66,46.28c19.5,16.39,45.26,23,70.3,27.58a653.9,653.9,0,0,0,231.22,1c20.25-3.56,40.4-8.09,59.72-15.13C696.71,901.71,711.16,894.13,714.41,881.51Z"
  />
  <path
    class="cls-1"
    d="M737,409a172.12,172.12,0,0,0,7,87c11.2,34.1,5.75,91.34-12.17,130.8C690.41,718,573.08,734.6,562,736c-82.52,10.43-145.88-27.49-166.66-41.55a220.92,220.92,0,0,1-39.71-34C326.54,627.57,310.22,585,297,525.63c-20.72-93-36-161.65,6.38-230.39,47.56-77.11,143.35-114.78,226.45-113.19,28.93.56,104.26,1.49,154.16,55.1C731.84,288.55,742.55,373.46,737,409Z"
  />
  <path
    class="cls-2"
    d="M558.4,511.68a155,155,0,0,0-59.27,22.56,8.14,8.14,0,0,0-3.37,3.28c-1.73,4,3.06,7.58,7.16,9,20.45,6.92,42.75,3.94,64.12.89l55.9-8a174.34,174.34,0,0,0-66.68-26.62"
  />
</svg>
