<svg id="图层_2" data-name="图层 2" xmlns="http://www.w3.org/2000/svg" viewBox="0 0 1000 1000"><defs><style>.cls-1{fill:#fff;}.cls-1,.cls-2{stroke:#000;stroke-linecap:round;stroke-miterlimit:10;stroke-width:4px;}.cls-2{fill:none;}</style></defs><path class="cls-1" d="M616.22,614c-11.76.94-21.2,1.11-27.09,1.12-50,.06-75,.09-89.65-3.12-3-.65-10.56-2.43-15.88,2S478,627.14,478,629c-.24,16.49,14.83,28.18,18.39,31,3.94,3,18.25,14.32,35.36,10.53,11.69-2.6,20.87-10.85,32.55-13.51,8.08-1.85,16.51-.83,24.8-.67s17.35-.81,23.51-5.63c5.27-4.13,7.36-10.26,8.84-16.09,1-4.12,2.25-7.66,1-11.91A16.33,16.33,0,0,0,616.22,614Z"/><path class="cls-2" d="M508,637.78l6.17,6.29a4.68,4.68,0,0,0,2.38,1.57,4.1,4.1,0,0,0,2.44-.42c3.72-1.7,5.93-5.82,10.23-5.92,4.74-.12,8.22,4.9,12.95,4.71a14,14,0,0,0,4.68-1.42c6.42-2.6,13.85-2.94,21.07-3.25l22.94-1"/></svg>