<svg
  id="图层_2"
  data-name="图层 2"
  xmlns="http://www.w3.org/2000/svg"
  viewBox="0 0 1000 1000"
>
  <defs>
    <style>
      .cls-1 {
        fill: #a84e45;
      }
      .cls-2 {
        fill: #ff8271;
      }
      .cls-3 {
        fill: none;
        stroke: #000;
        stroke-linejoin: round;
        stroke-width: 4px;
      }
      .cls-4 {
        fill: #ffa59c;
      }
    </style>
  </defs>
  <path
    class="cls-1"
    d="M624.82,623.4a72.36,72.36,0,0,1-17,33l-.92-2c-27.37-13.75-61.51-13.47-88.71.54-4.66-6.08-8.79-13.14-13.56-20.92A1018.47,1018.47,0,0,0,624.82,623.4Z"
  />
  <path
    class="cls-2"
    d="M606.88,654.36l.92,2a64,64,0,0,1-20.59,15.17c-19.38,8.85-44.12,6.61-60.24-7.19a61.43,61.43,0,0,1-8.8-9.46C545.37,640.89,579.51,640.61,606.88,654.36Z"
  />
  <path
    class="cls-3"
    d="M518.17,654.9c-4.66-6.08-8.79-13.14-13.56-20.92A1018.47,1018.47,0,0,0,624.82,623.4a72.36,72.36,0,0,1-17,33,64,64,0,0,1-20.59,15.17c-19.38,8.85-44.12,6.61-60.24-7.19A61.43,61.43,0,0,1,518.17,654.9Z"
  />
  <path class="cls-3" d="M518,655l.21-.11c27.2-14,61.34-14.29,88.71-.54" />
  <ellipse class="cls-4" cx="403" cy="579.5" rx="43" ry="25.5" />
  <ellipse class="cls-4" cx="711" cy="578.5" rx="43" ry="25.5" />
</svg>
