<svg
  id="图层_2"
  data-name="图层 2"
  xmlns="http://www.w3.org/2000/svg"
  viewBox="0 0 1000 1000"
>
  <defs>
    <style>
      .cls-1 {
        fill: none;
        stroke-linecap: round;
      }
      .cls-1,
      .cls-2 {
        stroke: #000;
        stroke-miterlimit: 10;
        stroke-width: 4px;
      }
      .cls-2 {
        fill: #f0cdd2;
      }
    </style>
  </defs>
  <path
    class="cls-1"
    d="M555,619c5.76-4.57,13.09-5.29,18-2,4.56,3,7.54,9.89,5.38,14-.47.88-1.14,1.59-3,2.79A37.21,37.21,0,0,1,562,638.92c3.24-1.1,6.57-2.21,10-2.14s7,1.55,8.72,4.54a10.51,10.51,0,0,1,1.17,5.13,18.14,18.14,0,0,1-8.07,15c-7.83,5.08-16.3,1.6-17,1.31"
  />
  <path
    class="cls-2"
    d="M572.53,636.53c7.24-1.47,12.44-8,15.25-14.82s3.88-14.26,6.54-21.15c6.57-17,32-35.67,57.6-29.42C674.84,576.75,686.3,599.46,689,616c.73,4.47,4.11,28.59-13,46-12.35,12.57-27.93,14.06-32.55,14.44-3.36.27-24.53,2.34-37.13-11-5.35-5.67-8.87-12.83-14-18.72S579.58,636.05,572.53,636.53Z"
  />
</svg>
