<svg id="图层_2" data-name="图层 2" xmlns="http://www.w3.org/2000/svg" viewBox="0 0 1000 1000"><defs><style>.cls-1{fill:#fff;}.cls-1,.cls-2,.cls-3{stroke:#000;stroke-linecap:round;stroke-miterlimit:10;}.cls-1,.cls-3{stroke-width:4px;}.cls-2,.cls-3{fill:none;}.cls-2{stroke-width:2px;}</style></defs><path class="cls-1" d="M418.9,597a106.19,106.19,0,0,0-39,27.65c-3.79,4.27-7.29,8.9-11.92,12.24s-10.75,5.25-16.1,3.28c-4.38-1.62-7.58-5.62-9.14-10s-1.68-9.18-1.15-14.28c7.57-14,18.16-26.49,31.41-35.29s29.21-13.77,45.09-12.89c4.68.26,9.81,1.29,12.63,5a12,12,0,0,1,2.16,5.59C434.07,586.8,427.21,593.57,418.9,597Z"/><path class="cls-2" d="M349.12,606.11c6,9.81,12.49,20.12,22.75,25.3"/><path class="cls-2" d="M398.41,569.8a60.75,60.75,0,0,1,17.51,28.47"/><path class="cls-3" d="M370.21,599.21l7.94,10a143.54,143.54,0,0,1,16.38-11.67l-6.48-10a2,2,0,0,0-.87-.86,1.89,1.89,0,0,0-1.43.26A48.72,48.72,0,0,0,370.21,599.21Z"/></svg>