<svg
  id="图层_2"
  data-name="图层 2"
  xmlns="http://www.w3.org/2000/svg"
  viewBox="0 0 1000 1000"
>
  <defs>
    <style>
      .cls-1 {
        fill: {{color[0]}};
        stroke: #120d0d;
        stroke-miterlimit: 10;
        stroke-width: 4px;
      }
    </style>
  </defs>
  <path
    class="cls-1"
    d="M468,150c-31.58,8.66-94.61,25.94-147,83-16.35,17.81-53.43,58.19-59,117-1.39,14.69-3.65,42.25,11,72a120.94,120.94,0,0,0,32,40c3.74-20.22,13.36-56.18,41.39-89.71,35.19-42.11,79.72-54.54,114.48-67.44,26.69-9.89,102.46-15.74,130.91-13.44,25.8,2.08,43.59,3.49,61,10.37C655.9,303,675,311.24,690.91,326,737.55,369.1,724.68,438.63,738,440c14.06,1.45,50.62-73.8,28.93-144-9.53-30.83-27.47-51.61-42.57-69.09a258.85,258.85,0,0,0-89.2-66.5c-36-16.21-66-19.72-72.16-20.38C521.87,135.55,490.41,143.85,468,150Z"
  />
  <path
    class="cls-1"
    d="M365,352.71c-13.82,3.58-30.77,6.39-40.58-3.61-3.53-3.59-5.47-8.35-6.86-13.1-8.82-30.22,4.43-61,6-64.86,10-24.75,25.84-41.65,37.26-51.67"
  />
  <path
    class="cls-1"
    d="M711.77,340.92c15.87-1.67,28-12.31,32.32-23.81s2.44-23.77-.12-35.57c-3.36-15.5-8.07-31.39-20.41-44.12"
  />
  <path
    class="cls-1"
    d="M513.25,149.51c-17.18,2.44-35.72,5.22-57.45,15.66A158.35,158.35,0,0,0,392.89,220c-11.78,17.86-21.54,68.26-12.69,88.07,4.28,9.6,12.39,16.55,21.15,21.15,21.66,11.39,47.11,9.78,70.55,4.11s46.12-15.11,69.87-18.83a148.62,148.62,0,0,1,64.13,4.07c12.63,3.65,24.92,9,37.85,11s27.11.19,37.16-9c9-8.19,16.76-10.39,25.61-34.86,6.13-16.93,11.17-56.38-9.21-81.19-5.89-7.17-10.79-11.51-19.24-18-33.69-25.94-73.27-34.11-73.27-34.11A272.23,272.23,0,0,0,513.25,149.51Z"
  />
</svg>
