<svg
  id="图层_2"
  data-name="图层 2"
  xmlns="http://www.w3.org/2000/svg"
  viewBox="0 0 1000 1000"
>
  <defs>
    <style>
      .cls-1 {
        fill: {{color[0]}};
      }
      .cls-2 {
        fill: none;
        stroke: #fff;
        stroke-linecap: round;
        stroke-miterlimit: 10;
        stroke-width: 4px;
      }
    </style>
  </defs>
  <path
    class="cls-1"
    d="M262.74,252.19c-12.84,10.42-26.13,21.4-32.92,36.49A11.46,11.46,0,0,0,228.5,294c.24,3.83,3.73,6.58,7.09,8.43a56.68,56.68,0,0,0,40.72,5.35,58.18,58.18,0,0,0-23.61,34.86c-.76,3.38-1.12,7.24,1,10,3.11,4.2,9.54,3.46,14.55,1.93a149.28,149.28,0,0,0,24.67-10.3,93.25,93.25,0,0,0-3.78,19.23,12,12,0,0,0,.62,6.17c1.54,3.25,5.64,4.6,9.19,4.05s6.66-2.59,10.13-4.58A70.6,70.6,0,0,0,302.66,394c-.29,4.06-.08,8.51,2.56,11.6s7.2,4,11.13,3.05,7.34-3.43,10.24-6.25c4.38-4.24,7.93-9.34,9-15,4.48,7.31,12.24,12.23,20.5,14.53s17,2.2,25.54,1.17c17.49-2.12,34.5-8.15,50.55-17.43a107.11,107.11,0,0,0-4.73,28c-.07,2-.06,4.18,1,5.93,2.69,4.58,9.9,3.19,13.93-.27s7-8.42,12-10.24c-1.41,7.13,5,14,12.1,15.5s14.46-1.05,21-4.24a104.3,104.3,0,0,0,49.2-51.21c5.05,9.9,19,12.41,29.16,7.83s17-14.28,22.08-24.14a31.88,31.88,0,0,0,24.18,23.4c11.62,2.34,24.39-2.64,31.85-11.63-1.45,5.24-2.91,10.64-2.22,16s4.09,10.8,9.35,12.16c2.84.72,5.84.21,8.7-.47a78.13,78.13,0,0,0,25.32-11.1c-4.14,8.18.35,19.51,9,22.62s19.32-2.72,21.37-11.66c0,6.42,6.6,11.36,13,11.49s12.37-3.33,17.4-7.32a76.36,76.36,0,0,0,23.35-31.21c2.57-6.39,4.27-13.56,2.19-20.12s-9.06-11.93-15.71-10.15c13.27-9.18,14.83-31.12,3-42.1,25-21.37,27.8-62.4,9.49-89.74s-53.59-40.57-86.3-37a62.16,62.16,0,0,0,1-35.69c-1.32-4.84-5-10.52-9.85-9.28-2.22.57-3.8,2.48-5.22,4.28L649,149.12a88.75,88.75,0,0,0-37.53-43.48c-4.33-2.52-10.44-4.42-13.82-.73-2.35,2.57-2,6.54-1.32,10A87.86,87.86,0,0,0,609.26,146c-11.12-1.63-16.34-14.14-23.18-23.05-13.38-17.44-36.74-23.13-58.26-27.64-24.69-5.18-51.71-10-74.1,1.59-10.29,5.35-19.25,14.92-20.24,26.47-12.47-11.15-31.16-13-47.33-8.78s-30.35,13.84-43.9,23.64c-20.59,14.89-42,33.21-45.67,58.36a23,23,0,0,0-27.82,35A12.57,12.57,0,0,0,254,240.29C252.4,246.45,256.59,253.48,262.74,252.19Z"
  />
  <path
    class="cls-1"
    d="M269,348.33l2.57,67.82c.22,5.77.46,11.65,2.36,17.12,2,5.86,5.88,10.93,10.05,15.53A112.32,112.32,0,0,0,308.23,469l36.1-103.17c4.14-11.83,8.34-24.13,7.11-36.61s-7.72-23.7-14.56-34.18c-11.77-18.07-26.3-36.15-46.82-42.77-5.12-1.65-11.12-2.4-15.56.64-5.11,3.51-6.13,10.52-6.52,16.7C266.38,294.89,267.9,320.34,269,348.33Z"
  />
  <path
    class="cls-2"
    d="M351.12,285.17c-2.07,7.77-3.86,16.05-1.57,23.76,2.13,7.16,7.59,12.93,13.8,17.08a52.47,52.47,0,0,0,23.06,8.47"
  />
  <path
    class="cls-2"
    d="M363.8,229.63c-3.31-10.4-2.35-22.85,5.16-30.76,6.83-7.19,17.32-9.22,27.09-10.87"
  />
  <path class="cls-2" d="M426,248.79a39.88,39.88,0,0,0,35.19,56.78" />
  <path
    class="cls-2"
    d="M473.07,328.48c9.06,2.18,18.29-2.85,25.45-8.8,9.4-7.82,17.3-17.86,20.8-29.57"
  />
  <path class="cls-2" d="M528.48,222.58a38.28,38.28,0,0,1,42.62,34.66" />
  <path
    class="cls-2"
    d="M542.5,153.34a35.59,35.59,0,0,1,29.28,7.43,41.63,41.63,0,0,1,9.64,11.91,51.56,51.56,0,0,1,6.47,24.11"
  />
  <path class="cls-2" d="M651.75,252.65a41.92,41.92,0,0,1-25.12,58.84" />
  <path class="cls-2" d="M656.3,204.06a32.59,32.59,0,0,1,42.11,37.74" />
  <path class="cls-2" d="M700.3,299.25A24.27,24.27,0,0,1,686.18,337" />
  <path class="cls-2" d="M293.25,328.83A30.7,30.7,0,0,0,326,364.64" />
</svg>
