<svg
  id="图层_2"
  data-name="图层 2"
  xmlns="http://www.w3.org/2000/svg"
  viewBox="0 0 1000 1000"
>
  <defs>
    <style>
      .cls-1 {
        fill: none;
        stroke: #000;
        stroke-linecap: round;
        stroke-miterlimit: 10;
        stroke-width: 4px;
      }
      .cls-2 {
        fill: #0f0b0b;
      }
    </style>
  </defs>
  <path
    class="cls-1"
    d="M373,304.81a241.68,241.68,0,0,1,71.57-51.93c10-4.76,43.71-19.87,90.47-22.88a249,249,0,0,1,79.16,7.35,236.85,236.85,0,0,1,68.68,30.76"
  />
  <path
    class="cls-1"
    d="M356,285.08C385.26,249.78,429,218,476,207s101.06-8.31,147,7c27,9,52.65,22.43,68,45"
  />
  <path
    class="cls-1"
    d="M346.84,267.53c21-46.54,75.06-74.36,129-85.38,41.88-8.55,86.26-9,127.31,2.42s78.48,35.29,100.91,68.58"
  />
  <path
    class="cls-2"
    d="M268.38,413.39c-1.07-26.95-1.28-54.19,4.8-80.59s19-52.16,40.71-70.51c5.4-4.56,11.62-8.76,18.88-10,14.89-2.43,28.62,8.53,36,20.55,10,16.31,13,35.35,14.76,54A533.21,533.21,0,0,1,386,382.5c-.12,15.74-1,31.71-6.46,46.63S363.45,458,348,465.1c-21.49,9.85-44.13-3.06-48.24-5.19a61,61,0,0,1-30.06-35.64Q269,418.84,268.38,413.39Z"
  />
  <path
    class="cls-2"
    d="M720.35,425.89c-11.4-3.61-18.92-13.85-22.13-24.43s-2.88-21.74-3.44-32.7c-1.77-34.79-12.59-69-11.59-103.83.12-4.24.49-8.7,3.09-12.22s7.36-5.68,12.1-6.23c16.8-1.95,30,12.68,37.48,26.51a161.23,161.23,0,0,1,4.46,143.53c-1.76,3.81-3.83,7.74-7.55,10.12S723.24,429.18,720.35,425.89Z"
  />
</svg>
