<svg
  id="图层_2"
  data-name="图层 2"
  xmlns="http://www.w3.org/2000/svg"
  viewBox="0 0 1000 1000"
>
  <defs>
    <style>
      .cls-1 {
        fill: {{color[0]}};
        stroke: #000;
        stroke-linecap: round;
        stroke-linejoin: round;
        stroke-width: 4px;
      }
    </style>
  </defs>
  <path
    class="cls-1"
    d="M727,253.68c-6.47-14.5-14.14-28.54-24-40.88-20.18-25.22-48.87-42.35-79.23-52.34S563.22,143,531.34,142c-32.14-1-68.57-1-97.39,7-21.25,5.9-41.52,16.22-59.63,29C318,217.78,281.9,261,268,321c-4.78,20.62-1.85,75.15,3.6,95.59s20.58,59,44.22,79.84c44.47-57.91,58.37-97,62.5-122.43,3.28-20.24,8.15-42.49,17.88-87,3.06-14,2.08-18.12,5-18,70.56,3,123.23,4,163,5,33.56.84,81.7,15.95,124.91,61.6,4,4.24,10.72,13.59,17.92,24.4-.19,13.15-1.42,23.82-6,32-5,9-14,18-14,18s16,2,24-7a45.81,45.81,0,0,0,10.73-19.92c7.88,12.8,14.41,24.21,16.24,28.68C750.3,357,749.76,304.83,727,253.68Z"
  />
</svg>
