<svg
  id="图层_2"
  data-name="图层 2"
  xmlns="http://www.w3.org/2000/svg"
  viewBox="0 0 1000 1000"
>
  <defs>
    <style>
      .cls-1 {
        fill: {{color[0]}};
      }
      .cls-1,
      .cls-2 {
        stroke: #000;
        stroke-miterlimit: 10;
        stroke-width: 4px;
      }
      .cls-2 {
        fill: {{color[0]}};
      }
    </style>
  </defs>
  <path
    class="cls-1"
    d="M297.2,446.56c3.63.2,8.92-.16,12.49,3.26A8.87,8.87,0,0,1,312,454c2.84,9.67,10.52,64.52,11,68,.7,5.64,1.67,11.66,3,18,.92,4.41,1.95,8.61,3,12.57a276.48,276.48,0,0,1,57.2-106.78A170.46,170.46,0,0,1,383,409.33s.42-14.63,3-26.33c7.57-34.18,67.29-58.89,75-62,0,0,94.48-38.09,212,5a138.82,138.82,0,0,1,25.63,12.82A116.21,116.21,0,0,1,714,351c10.23,9.59,17.29,24.22,21,38,2.58,9.6,13-12,13-77-6-46-12.3-81.64-71-122.62-20.1-14-37.89-20.43-52-25.38-59-20.72-111.63-14.35-152.91-8.89-25.83,3.41-40,5.29-59.09,12.89-43,17.16-68.14,46.45-82,63-17.11,20.42-64.34,83.4-59.23,167.4A210.69,210.69,0,0,0,278,438C285.92,444.58,292.49,446.3,297.2,446.56Z"
  />
  <path
    class="cls-2"
    d="M512.93,169.45A234,234,0,0,1,540,305a28.28,28.28,0,0,0,14-2c4.85-2.1,8.56-5.54,20-24,6.16-9.95,9.48-15.31,13.79-23.85a189.35,189.35,0,0,0,10.92-25c3.55-10.25,7.69-22.21,8.29-38.15a106.6,106.6,0,0,0-4-33c-.87-5.52-5.19-9.62-10-10-6-.48-12,4.82-12,12,3-13.41,4.84-25,6-34,3.5-27.14,1.75-37.39-2-46a53.7,53.7,0,0,0-5-9c-4.67-.68-11.16-.8-16,3-8.85,7-7,23-8,23s-.79-12.3-2-26c-1.57-17.83-3.79-22.22-6-25-5-6.26-11.81-8.86-16-10a12.53,12.53,0,0,0-7,5c-3.57,5.82.45,13.62-.83,14.16C522.64,56.82,518.53,45,508,36c-3.51-3-11-9.4-19-8-8.26,1.45-15,10.81-17,23q1.42,12.53,2.84,25c-.72-10-7.8-17-14.84-17-6.08,0-10.3,5.11-11,6a58.63,58.63,0,0,0,2.79,23.71,59.5,59.5,0,0,0,19.29,27.36c-7.92-6.42-21.48-12.85-28.78-6-5,4.73-2.09,12,1.61,17.51C459.79,151.08,486.29,169.69,512.93,169.45Z"
  />
</svg>
