<svg
  id="图层_2"
  data-name="图层 2"
  xmlns="http://www.w3.org/2000/svg"
  viewBox="0 0 1000 1000"
>
  <defs>
    <style>
      .cls-1 {
        fill: #6b6b6b;
        stroke: #120d0d;
        stroke-miterlimit: 10;
        stroke-width: 4px;
      }
    </style>
  </defs>
  <path
    class="cls-1"
    d="M784.45,366.06c-.53,0,.78,25.14-2,39.38a144,144,0,0,0-45.76-6.55l-1.89-29.73-4.41,21.2c-.36,1.69-.77,3.5-2,4.72-1.92,1.9-5,1.68-7.69,1.32l-43.14-5.67c4.92-2.24,5.73-8.77,5.7-14.17a327.51,327.51,0,0,0-2.83-41.75,379,379,0,0,1-12.2,56.24,234,234,0,0,0-77.8-3.37c3.89-24.35-2.82-49.12-9.51-72.49a125.41,125.41,0,0,1-8.38,71.46l-98.39,7.86a177.89,177.89,0,0,0-10.67-40,81.75,81.75,0,0,1,3.63,39.9,46.65,46.65,0,0,0-17.86,6.76,158.84,158.84,0,0,1-23.59-83.88,197,197,0,0,0,9.9,84.12l-3,4c-15.64-7.83-21-27.16-24.13-44.37q-6.21-34.2-9.24-68.87l-7.89-.18a215.26,215.26,0,0,1-28.13,112.49,253.6,253.6,0,0,0,3.54,53.83c5.3,29.85,16.59,58.4,33.59,80.91-.76,1.54-1.53,3.08-2.29,4.61a147.83,147.83,0,0,1-16.26-20.53c3.25,8.39,7.15,16.42,10.82,25.28a77.3,77.3,0,0,0-23.84,15.12A148.62,148.62,0,0,1,355.89,542l7,25.7a19.47,19.47,0,0,0-12.09,7.68c-22-37.14-36.22-80.73-41-125.75q-.63-5.86-1-11.78l-43.62,14.61c-16-37.68-17.07-79-8.24-117.24s27.06-73.72,48.56-104a305.76,305.76,0,0,1,360.37-53.74c34.77,18.55,66.2,44.24,88.29,76.87S785.84,343.93,784.45,366.06Z"
  />
</svg>
