<svg
  id="图层_2"
  data-name="图层 2"
  xmlns="http://www.w3.org/2000/svg"
  viewBox="0 0 1000 1000"
>
  <defs>
    <style>
      .cls-1 {
        fill:{{color[0]}};
      }
    </style>
  </defs>
  <path
    d="M322.51,190c-37.6,36.15-61.36,84.37-70.64,135.7-2.32,12.85-2,28.88,9.21,35.54,5.72,3.4,12.87,3.27,19.42,2.08,23.67-4.3,44.46-21.93,52.56-44.58a49.53,49.53,0,0,0,.4,27.83c.83,2.67,2,5.42,4.3,7,5.68,3.93,13.06-1.59,17.48-6.91A211.13,211.13,0,0,0,384,301.23c-1.51,7-3,14.3-1.16,21.2s8.23,13.16,15.33,12.32c4.87-.58,8.79-4.21,12-7.95a78.58,78.58,0,0,0,17.95-40.31,109.11,109.11,0,0,0-1.46,29.2c.23,2.7.9,5.87,3.4,6.93,2.23.94,4.73-.34,6.76-1.65,26.85-17.31,44.57-48,45-80-2.87,17.17-5.69,35.14-.33,51.71,1.14,3.55,2.73,7.09,5.5,9.58s6.94,3.72,10.33,2.16c5.54-2.55,5.92-10.16,5.45-16.25.16,4.05.37,8.29,2.48,11.75s6.79,5.7,10.33,3.74,4.16-7,4.21-11.19a118.43,118.43,0,0,0-.53-16,74.06,74.06,0,0,0,19.09,30c2,1.9,4.34,3.78,7.09,3.83s5-1.65,6.93-3.48c9.42-9.05,12.86-23,11.74-36s-6.27-25.31-11.91-37.09a117.57,117.57,0,0,0,35.89,59.72c1.83,1.63,3.93,3.28,6.37,3.29,3.58,0,6.16-3.43,7.56-6.73a34,34,0,0,0-1.63-29.53,85.18,85.18,0,0,0,22.54,37.23c2.24,2.15,4.72,4.26,7.75,5,8.57,2,15.23-7.4,18.27-15.66a132.8,132.8,0,0,0,8.16-43.29,252.24,252.24,0,0,0,2.54,52.74c.86,5.6,2.8,12.21,8.25,13.77a12.93,12.93,0,0,0,7.34-.58,38.9,38.9,0,0,0,25.89-28.76,45.43,45.43,0,0,0,2.29,27c1.48,3.59,3.76,7.27,7.46,8.44,5,1.58,10.19-2.21,13.48-6.36a43.29,43.29,0,0,0,8.73-33,69.22,69.22,0,0,0,5.6,23.26c1.3,3,6.39,13.43,9.07,15.28,8.28,5.7,15.67-10.79,19.47-20.1,3.4-8.3,4.64-17.37,4.6-26.35-.18-39.21-24.79-75.42-57.05-97.71s-71.36-32.49-110.12-38.41c-74.48-11.39-155.4-11.66-222.48,22.63C387.26,153.52,342.66,170.62,322.51,190Z"
  />
  <path
    d="M335.38,219.06c-14.43,3.41-25,15.5-33.65,27.54-35.43,49.27-56,111.17-47.16,171.21a213.13,213.13,0,0,0,8.57,35.64c1,3,2.21,6.25,4.81,8.11,4.13,3,10.26,1.13,13.67-2.62s4.8-8.89,6.07-13.81a94.63,94.63,0,0,0,5.7,27c1.31,3.54,4,7.67,7.68,7,2.1-.38,3.57-2.25,4.77-4A97.88,97.88,0,0,0,317.42,452c1.7,7,1.21,14.61,4,21.3s10.88,12.2,17.14,8.56a15.61,15.61,0,0,0,4.91-5.27,69.47,69.47,0,0,0,9.22-21.86l.48-17.2c-.21,5.16,6,8.93,11,7.5s8.18-6.52,8.92-11.64-.51-10.3-1.83-15.3c-8-30.24-18.76-60.6-16.88-91.82,1.18-19.8,7.46-39.14,7.44-59S353.13,225.41,335.38,219.06Z"
  />
  <path
    d="M764.9,284.52c0,32.06,4.87,64.13,2.19,96.07s-14.48,65.18-40.49,83.91c-18.37-44.32,15.22-98.12-4.56-141.83-5.94-13.13-16.69-26.16-13.07-40.1,3.07-11.8,16.61-18.9,28.67-17.12S759.79,276.22,764.9,284.52Z"
  />
  <path
    class="cls-1"
    d="M417.48,199.53a98.75,98.75,0,0,0-30.54,45.7c-.83,2.64-1.28,6.13,1.05,7.64,2.08,1.34,4.83,0,6.76-1.55,8.47-6.86,13-18.43,22.88-23l-2.27,12.3c-.36,1.95-.13,4.74,1.85,4.9a3.32,3.32,0,0,0,2.09-.78c8.86-6,14.19-16.5,23.61-21.6,1.35,2.51,1.08,5.55,1.63,8.35s2.68,5.83,5.51,5.45c1.63-.21,2.88-1.49,3.95-2.73a68.9,68.9,0,0,0,12.56-21.44,4.44,4.44,0,0,0,.39-2c-.18-1.65-2.07-2.61-3.73-2.6-6.2,0-10.69,8.67-16.62,6.9-1.65-.5-2.94-1.74-4.41-2.61-6.88-4.08-15.48.43-22.14,4.83-1.91-1.59-1.51-4.66-.39-6.88s2.83-4.24,3.11-6.71-2-5.38-4.31-4.48C418.46,199,418.38,198.78,417.48,199.53Z"
  />
</svg>
