<svg
  id="图层_2"
  data-name="图层 2"
  xmlns="http://www.w3.org/2000/svg"
  viewBox="0 0 1000 1000"
>
  <defs>
    <style>
      .cls-1 {
        fill: {{color[0]}};
        stroke: #000;
        stroke-miterlimit: 10;
        stroke-width: 4px;
      }
      .cls-2 {
        fill: #fff;
      }
    </style>
  </defs>
  <path
    class="cls-1"
    d="M306.43,462.77a527.48,527.48,0,0,0,39.15-158c.65,28,5.43,55.92,4.92,84s-7,57.25-25.82,78.55c14.95-9,32.89-12.5,48.09-21.16,28.8-16.39,43.34-48.34,56.09-78.24,4.88,26.54-5.11,55.2-25.6,73.45,19-2.2,38.3-4.49,55.67-12.19,14.75-6.53,27.49-16.73,38.72-28.05,37.37-37.66,59.28-89.33,60-141.55,4.37,17.4,8.76,34.9,10.09,52.76,3.84,51.84-20.16,104.88-62.11,137.29,8.92-4.23,19.44-2.72,29.34-3.53,27.86-2.28,50.28-23,66.73-44.94,19.86-26.44,35.14-58.48,31-90.93,1,3.62,2,7.24,3.82,14.07a333.8,333.8,0,0,1-5,65.74c-2.8,15.89-7,32-17.61,45.72a35.11,35.11,0,0,1-11.57,9.54c26.75-2.37,52.34-15.27,71.68-36.12A177.24,177.24,0,0,0,705,300.85c7.56,14.51,10.48,30.87,11.86,47.07,1.52,17.79,1.2,36.23-5.8,52.74s-21.78,30.82-40,33.39a44.47,44.47,0,0,0,35-5.44A22.84,22.84,0,0,1,699,439.78c11.66-5.82,26.63-4.25,37.11-11.9a41.59,41.59,0,0,0,8.45-9c28.94-38.68,37.42-91,20.31-136.58A44.43,44.43,0,0,0,800,297c-4.74-.63-8-4.83-10.59-8.7-24.6-36.23-45.89-75-76-107s-71.65-57.39-118.82-55.5c-15.31-.84-30.74.17-52.53,2.76C470.07,118.7,393.64,138.85,339,185.17s-85.7,118.63-77.68,188.56c2.81,24.5,9,52.81-8.19,71a21.3,21.3,0,0,0,19.4-11.06,101.69,101.69,0,0,0,18.46,42.75l5-18.48a46.56,46.56,0,0,1,4.16,13.3l6.14-9.26C306.48,462,306.71,462,306.43,462.77Z"
  />
  <path
    class="cls-2"
    d="M419.07,313.12a306.85,306.85,0,0,0,31.81-44.48c.49,1.59,1,3.18,2.33,7.39l1.56,20.91a139.55,139.55,0,0,0,37.83-38.3l5.06,19.17c.45,1.69,1.07,3.6,2.71,4.31,2.1.92,4.41-.65,6.08-2.18A86.5,86.5,0,0,0,527,251.53c-4.51,32.78-15.27,66.81-41.07,88.47a90.19,90.19,0,0,0,8.41-34l-23.53,17.83c-.17-7.75-8.8-13.41-16.8-13.05s-15,5.15-20.78,10.57-10.65,11.69-17.11,16.27A82.46,82.46,0,0,0,419.07,313.12Z"
  />
  <path
    class="cls-2"
    d="M664.39,281.29a42.7,42.7,0,0,0,10.19-31.64c2.2,4.18,4.64,8.4,8.44,11.3s9.31,4.18,13.55,1.92c3-1.59,4.85-4.6,6.55-7.47l8.33-14a228.64,228.64,0,0,1,25,60.09c-2.12-7.19-7.77-13.06-14.42-16.85s-14.26-5.71-21.87-7c-2.2-.37-4.57-.67-6.58.27-3.39,1.6-4.2,5.83-4.59,9.46L686.19,313c-3-13.65-12.59-25.79-25.19-32.58C661,280.58,661,280.78,664.39,281.29Z"
  />
</svg>
