<svg
  id="图层_2"
  data-name="图层 2"
  xmlns="http://www.w3.org/2000/svg"
  viewBox="0 0 1000 1000"
>
  <defs>
    <style>
      .cls-1 {
        fill: {{color[0]}};
        stroke: #120d0d;
        stroke-miterlimit: 10;
        stroke-width: 4px;
      }
    </style>
  </defs>
  <path
    class="cls-1"
    d="M474.17,263.28c1.3,7.69,9.8,11.9,17.5,13.09,22.54,3.5,44.77-7.93,67.57-8.29,16.64-.27,32.85,5.37,49.48,6.17s35.7-5.25,41.94-20.68c4.08-10.06,1.5-21.94-4.59-30.91s-15.29-15.4-24.89-20.45c-28.29-14.87-62.27-19.06-93-10.33-24.86,7.05-48.07,23.38-58.42,47.05-2,4.61-3.55,9.63-2.89,14.61S470.85,263.42,474.17,263.28Z"
  />
  <path
    class="cls-1"
    d="M659.53,404c-5.27-8.14-5.59-18.76-2.78-28s8.42-17.44,14.46-25a45.19,45.19,0,0,0,13.38,62.4c6.42,4.16,13.77,6.62,21,9,10,3.26,20,6.46,30.42,8l-3.78-1c-8.88-9.94-8.34-26,.24-36.06C728,410.67,744.2,430,762,428.52c-9.27-2.75-13.5-14.11-12-23.67s7-17.92,11.4-26.5c23.88-46,17.37-104.72-11.36-147.9S678.74,145.38,627.74,136c-26.46-4.86-58.58-2.9-83,8.31-19.81-14.86-51.32-17.78-76.7-16.17-48.62,3.08-95.78,27.7-137.19,53.35s-74.28,67.83-80.7,116.12c-4.37,32.91,3.45,66.35.81,99.45-.42,5.29-1.26,10.91-4.79,14.87s-10.63,5.1-13.93.95c7.77,18.76,26.61,32.42,46.86,34s40.95-9.07,51.5-26.42c0,6.76-6.71,12-13.43,12.71s-13.3-1.94-19.46-4.72c17.84,18.29,48.37,22.56,70.54,9.86,12.31-7,21.57-18.28,30.54-29.26,4.19-5.13,8.58-10.73,9-17.35a36.71,36.71,0,0,1-47.44,42.25c33,21.5,81.44,14.69,107.24-15.07,5.76-6.64,10.52-14.41,12.21-23,1.15-5.84.85-11.86.38-17.8a321.61,321.61,0,0,0-7.34-47.41c10.12,14.81,17.9,32.72,14.58,50.35s-21.56,33-38.73,27.83c14.27,5.92,31.83,1.58,42.63-9.47s14.81-27.89,11.45-43c-3.16-14.14-12.07-26.37-16-40.31-8.05-28.44,6.24-59.24,27.42-79.85,6-5.86,11.38-5.47,19.77-5.34s16.7,18.92,16.44,27.83c1.59-9,5.4-26.41,11.39-33.29,6.31-7.26,18.6-10.39,28.13-9.14s14.29,4.5,20.94,11.44C624.36,241.81,629.49,258.51,628,278s-24.54,44-26.27,53C599,345.45,586.29,376.19,615,397c11.86,8.6,26.88,13.65,41,9.62-8.34.81-15.18-10-10.86-17.2a20.56,20.56,0,0,0,17.74,14.79C662.7,404.24,662.54,404.24,659.53,404Z"
  />
  <path class="cls-1" d="M559.67,259.26c1.76-20.09,14.38-38.09,30.33-43.26" />
  <path
    class="cls-1"
    d="M574.73,260.68c-1.34-3.66-.44-7.86,1.62-11.17a27.51,27.51,0,0,1,8.39-8,64.23,64.23,0,0,1,21.77-9.31"
  />
  <path
    class="cls-1"
    d="M589.6,261.71c.65-4.06,4.41-7.29,8.65-8.66s8.89-1.19,13.35-.64,8.9,1.44,13.4,1.42"
  />
  <path
    class="cls-1"
    d="M507,246.73c4.87-1.63,10.08-2.47,14.91-.65a16.48,16.48,0,0,1,10,13.24"
  />
  <path class="cls-1" d="M495,263.65c6.55-4.63,15.07-3.61,20.92,2.51" />
</svg>
