<svg
  id="图层_2"
  data-name="图层 2"
  xmlns="http://www.w3.org/2000/svg"
  viewBox="0 0 1000 1000"
>
  <defs>
    <style>
      .cls-1,
      .cls-2 {
        fill: #8e806e;
      }
      .cls-1,
      .cls-3 {
        stroke: #000;
        stroke-linecap: round;
        stroke-linejoin: round;
        stroke-width: 4px;
      }
      .cls-3 {
        fill: none;
      }
    </style>
  </defs>
  <path
    class="cls-1"
    d="M521.37,298.09c1.29,7.69,9.8,11.89,17.5,13.09,22.53,3.5,44.77-7.93,67.57-8.3,16.64-.26,32.85,5.38,49.48,6.18s35.7-5.26,41.94-20.68c4.07-10.06,1.5-21.94-4.6-30.91S678,242.07,668.38,237c-28.29-14.87-62.27-19.06-93-10.33-24.86,7.05-48.07,23.38-58.42,47.05-2,4.61-3.55,9.63-2.89,14.61S518.05,298.22,521.37,298.09Z"
  />
  <path class="cls-1" d="M606.87,294.07C608.63,274,621.25,256,637.2,250.81" />
  <path
    class="cls-1"
    d="M621.93,295.49c-1.34-3.66-.44-7.86,1.62-11.17a27.4,27.4,0,0,1,8.39-8A64.23,64.23,0,0,1,653.71,267"
  />
  <path
    class="cls-1"
    d="M636.8,296.52c.65-4.06,4.41-7.29,8.65-8.66s8.89-1.19,13.35-.64,8.9,1.43,13.4,1.42"
  />
  <path
    class="cls-1"
    d="M554.2,281.54c4.87-1.63,10.08-2.48,14.91-.65a16.46,16.46,0,0,1,10,13.24"
  />
  <path class="cls-1" d="M542.2,298.46c6.55-4.63,15.07-3.61,20.91,2.51" />
  <path
    class="cls-2"
    d="M316.27,373a24.76,24.76,0,0,0-7.32,1.43A33.88,33.88,0,0,0,316.27,373ZM693.81,172.16c17.37-2.86,34.28,8.6,44.82,22.73s16.73,31.19,26.09,46.22S788.35,270,806,271.37a47.3,47.3,0,0,1-35.93-1.53c4.8,28.2,10.8,58.67,32.12,77.75a23.08,23.08,0,0,1-22.7-14.26A117.41,117.41,0,0,1,788,372.41l-.51,0a175.92,175.92,0,0,0-11.39-22.3,121.32,121.32,0,0,1-18.22,75.64A66.14,66.14,0,0,0,752,398c-2.13,17.63-4.22,35.81.61,52.89C739.49,445,733.38,429.84,731,415.68A125.2,125.2,0,0,1,731,374a62.81,62.81,0,0,0,2-9.55q-1.19,4.74-2,9.55c-5.88,20.41-21.71,38.55-41.91,47.57,9-7.21,14.26-18.31,16.4-29.65s1.45-23,.37-34.48c-4,20.24-10.9,40.46-24.28,56.15s-34.15,26.15-54.54,23.1c21.75-4.79,38-24.33,44.6-45.59s5.31-44.13,2.84-66.27c-1-9.25-2.3-18.68-6.39-27-4.76-9.73-13-17.31-21.7-23.73-5.64-4.15-11.93-8.05-18.93-8.35-6.27-.28-13.07,3.37-14.95,9.15l-.53-.17c1.38-4.7-2.86-10.08-7.85-11.17-5.38-1.18-10.88,1.07-15.78,3.57A134,134,0,0,0,520.87,425a67.27,67.27,0,0,1-42.16-44.41A64.43,64.43,0,0,0,498,423.45a257.39,257.39,0,0,1-29.64-18c-6-4.22-11.91-8.8-16.08-14.82-4.64-6.71-6.83-14.8-8.12-22.86-6.17,5.38-8.09,16.16-8.86,24.3A80.31,80.31,0,0,1,415,438a57.35,57.35,0,0,0,.3-35.5c2.73,30.68-16,61.82-43.7,74.82-.16-1.11-.35-2.21-.58-3.32,7.44-8.83,10.07-21.84,5.69-32.62a96.91,96.91,0,0,1-8.72,21,85.76,85.76,0,0,0-10.32-23.74,17.91,17.91,0,0,0-1.68,4.64,60.83,60.83,0,0,1,11.66,19.23A70,70,0,0,1,371,474a29.44,29.44,0,0,1-7.92,6.64,67.42,67.42,0,0,0,8.5-3.32,59.12,59.12,0,0,1,.19,17.65c-2.62,17.63-10.45,34-18.28,50a95.76,95.76,0,0,0-17.45-37.67q-3.93,8.69-7.85,17.35c-1.4-21.37-3.74-44.87-19.23-59.64-6.28-6-14.19-9.93-22.19-13.29-13.7-5.75-29.48-10-43.22-4.77A34.7,34.7,0,0,0,256,437.41a34.86,34.86,0,0,0-17.62-.71,35,35,0,0,0,14.72-13.05,232.6,232.6,0,0,0-33.14-13.42,149.34,149.34,0,0,0,44.26-21.74l0-.13c-13.17-2.14-26.44-10.81-39.86-8.53A43.44,43.44,0,0,0,257,356.2a139.5,139.5,0,0,1-54.47-4.14c14.27-5.25,41.65-17.79,61.49-46.06a119.65,119.65,0,0,0,13-24l-.05-.13C251.1,293.22,226.42,289.58,218,288c25.35-4.16,40.14-13.83,49-22,5.5-5.07,7.25-8.22,19-23,0,0,9-11.34,31-37,45.33-52.9,112-72,112-72,40.43-11.58,77.29-9.13,104-4,28.67-15.09,49.66-15.29,63.69-12.52,15.65,3.09,24.1,7.24,44.77,14.81,14.81,5.42,31.52,8.84,46.1,2.86a22.45,22.45,0,0,1-18.44,11.78,82.63,82.63,0,0,0,42,6.43Z"
  />
  <path
    class="cls-2"
    d="M733,364.44a62.81,62.81,0,0,1-2,9.55Q731.77,369.17,733,364.44Z"
  />
  <path
    class="cls-2"
    d="M376.73,441.36c4.38,10.78,1.75,23.79-5.69,32.62a70,70,0,0,0-3.37-11.49l.34-.13A96.91,96.91,0,0,0,376.73,441.36Z"
  />
  <path
    class="cls-2"
    d="M371,474c.23,1.11.42,2.21.58,3.32a67.42,67.42,0,0,1-8.5,3.32A29.44,29.44,0,0,0,371,474Z"
  />
  <path
    class="cls-2"
    d="M368,462.36l-.34.13A60.83,60.83,0,0,0,356,443.26a17.91,17.91,0,0,1,1.68-4.64A85.76,85.76,0,0,1,368,462.36Z"
  />
  <path
    class="cls-2"
    d="M316.27,373a33.88,33.88,0,0,1-7.32,1.43A24.76,24.76,0,0,1,316.27,373Z"
  />
  <path
    class="cls-2"
    d="M243.59,446.93c-.68.31-1.38.59-2.08.86C242.2,447.48,242.89,447.19,243.59,446.93Z"
  />
  <path
    class="cls-3"
    d="M611.52,275.76a6,6,0,0,0,.42-1.08c1.38-4.7-2.86-10.08-7.85-11.17-5.38-1.18-10.88,1.07-15.78,3.57A134,134,0,0,0,520.87,425a67.27,67.27,0,0,1-42.16-44.41A64.43,64.43,0,0,0,498,423.45a257.39,257.39,0,0,1-29.64-18c-6-4.22-11.91-8.8-16.08-14.82-4.64-6.71-6.83-14.8-8.12-22.86-.05-.24-.08-.48-.12-.72-5.83-37.78,6.1-77.93,31.94-106.12"
  />
  <path
    class="cls-3"
    d="M316.27,373c4.1-.24,8.31.18,12.44.2,6.64,0,14.12-1.54,17.67-7.16-8.7,14.15-14.1,30.73-12.89,47.29s9.65,33,23.8,41.66A18.6,18.6,0,0,1,356,443.26a17.91,17.91,0,0,1,1.68-4.64A85.76,85.76,0,0,1,368,462.36a96.91,96.91,0,0,0,8.72-21c4.38,10.78,1.75,23.79-5.69,32.62a29.44,29.44,0,0,1-7.92,6.64,67.42,67.42,0,0,0,8.5-3.32c27.72-13,46.43-44.14,43.7-74.82A57.35,57.35,0,0,1,415,438a80.31,80.31,0,0,0,20.26-45.87c.77-8.14,2.69-18.92,8.86-24.3l.36-.31"
  />
  <path
    class="cls-3"
    d="M316.27,373a33.88,33.88,0,0,1-7.32,1.43A24.76,24.76,0,0,1,316.27,373Z"
  />
  <path
    class="cls-3"
    d="M401.54,249.26c-20.41,12.51-33,34.69-41,57.25-5.07,14.26-8.73,29.18-16.33,42.27-6.33,10.9-16.14,20.61-28,24.25"
  />
  <path
    class="cls-3"
    d="M277,282a119.65,119.65,0,0,1-13,24c-19.84,28.27-47.22,40.81-61.49,46.06A139.5,139.5,0,0,0,257,356.2a43.44,43.44,0,0,1-32.65,23.63c13.42-2.28,26.69,6.39,39.86,8.53a28.47,28.47,0,0,0,12.25-.41c9-2.46,15.55-10,21.52-17.17q-1.05,5.49-2.09,11l15.88-28"
  />
  <path
    class="cls-3"
    d="M243.59,446.93c13.74-5.19,29.52-1,43.22,4.77,8,3.36,15.91,7.31,22.19,13.29,15.49,14.77,17.83,38.27,19.23,59.64q3.91-8.67,7.85-17.35A95.76,95.76,0,0,1,353.53,545c7.83-16,15.66-32.37,18.28-50a59.12,59.12,0,0,0-.19-17.65c-.16-1.11-.35-2.21-.58-3.32a70,70,0,0,0-3.37-11.49A60.83,60.83,0,0,0,356,443.26a3.33,3.33,0,0,0-.25-.28"
  />
  <path
    class="cls-3"
    d="M243.59,446.93c-.68.31-1.38.59-2.08.86C242.2,447.48,242.89,447.19,243.59,446.93Z"
  />
  <path
    class="cls-3"
    d="M264.17,388.49a149.34,149.34,0,0,1-44.26,21.74,232.6,232.6,0,0,1,33.14,13.42,35,35,0,0,1-14.72,13.05,34.86,34.86,0,0,1,17.62.71,34.7,34.7,0,0,1-12.36,9.52"
  />
  <path
    class="cls-3"
    d="M313,253.41a92.84,92.84,0,0,1-25.93,23.25,88.19,88.19,0,0,1-10.1,5.21C251.1,293.22,226.42,289.58,218,288c25.35-4.16,40.14-13.83,49-22,5.5-5.07,7.25-8.22,19-23,0,0,9-11.34,31-37,45.33-52.9,112-72,112-72,40.43-11.58,77.29-9.13,104-4,28.67-15.09,49.66-15.29,63.69-12.52,15.65,3.09,24.1,7.24,44.77,14.81,14.81,5.42,31.52,8.84,46.1,2.86a22.45,22.45,0,0,1-18.44,11.78,82.63,82.63,0,0,0,42,6.43l-17.27,18.8-.31.34"
  />
  <path
    class="cls-3"
    d="M731,374a125.2,125.2,0,0,0,0,41.69c2.4,14.16,8.51,29.32,21.59,35.24-4.83-17.08-2.74-35.26-.61-52.89a66.14,66.14,0,0,1,5.9,27.74,121.32,121.32,0,0,0,18.22-75.64,175.92,175.92,0,0,1,11.39,22.3"
  />
  <path
    class="cls-3"
    d="M731,374a62.81,62.81,0,0,0,2-9.55Q731.76,369.18,731,374Z"
  />
  <path
    class="cls-3"
    d="M612,276.92a9.43,9.43,0,0,1,.46-2.07c1.88-5.78,8.68-9.43,14.95-9.15,7,.3,13.29,4.2,18.93,8.35,8.71,6.42,16.94,14,21.7,23.73,4.09,8.36,5.36,17.79,6.39,27,2.47,22.14,3.81,45-2.84,66.27s-22.85,40.8-44.6,45.59c20.39,3.05,41.16-7.41,54.54-23.1s20.31-35.91,24.28-56.15c1.08,11.49,1.77,23.15-.37,34.48s-7.4,22.44-16.4,29.65c20.2-9,36-27.16,41.91-47.57"
  />
  <path
    class="cls-3"
    d="M693.56,172.2l.25,0c17.37-2.86,34.28,8.6,44.82,22.73s16.73,31.19,26.09,46.22S788.35,270,806,271.37a47.3,47.3,0,0,1-35.93-1.53c4.8,28.2,10.8,58.67,32.12,77.75a23.08,23.08,0,0,1-22.7-14.26A117.41,117.41,0,0,1,788,372.41c.06,1.34.1,2.68.11,4-.42-1.35-.84-2.7-1.25-4.05"
  />
</svg>
