<svg
  id="图层_2"
  data-name="图层 2"
  xmlns="http://www.w3.org/2000/svg"
  viewBox="0 0 1000 1000"
>
  <defs>
    <style>
      .cls-1 {
        fill:{{color[0]}};
        stroke: #000;
        stroke-linejoin: round;
        stroke-width: 4px;
      }
    </style>
  </defs>
  <path
    class="cls-1"
    d="M270,308a123.86,123.86,0,0,0-8.6,44.41c0,10.78,1.58,20.11,5.6,38.59,2.56,11.77,7.73,33.91,14,44,4,6.41,8.93,12.28,13.57,18.17,14.11,17.91,25.1,31.22,30.43,53.83,12.52-69.21,24.3-132.26,12.86-201.68a2102.19,2102.19,0,0,1,295.79-28.83c22.59-.6,45.37-.82,67.57,3.62,4.12.83,8.4,1.91,11.55,4.82,4.79,4.43,5.74,11.8,6.37,18.49C723.6,350.63,734,385,735,441c33-56,33.6-104.18,25.87-163.22,16.09-5.32,30.45-20,31.11-37.83s-17-35.13-32.84-29.19c10.51-12.85,21.51-26.84,23.17-43.73s-11.1-36.26-27-33.66c-7.63,1.25-13.81,7-19.51,12.48,10.17-12.79,7.84-33.89-3.75-45.26-12.77-12.53-32.44-11.94-44.26-5.14-19.51,11.24-23.7,40.2-25.8,39.55s10.85-27.37,0-42c-7.64-10.29-25-11.77-37-8-16.74,5.24-28.79,22.34-30,43,6-17.4.12-35.68-13-44-17.46-11.08-38,1.7-40,3-19.45,12.55-20,36-20,38,.13-1.9,1.24-23.68-16-37-2-1.55-14.45-10.85-31-8-17.79,3.06-26.73,17.83-28,20-8.35,14.31-4.74,29.22-9,30-2.74.5-5.15-5.5-9-11-9.76-14-30-26.44-49-24-21.51,2.75-33.41,23.5-36.12,28.23-11.3,19.7-8,39.33-6.88,44.77-11.3-23.16-35.65-36.05-59-32-18.15,3.15-35.17,16.45-41,36-6.27,21,1.85,44.38,20.46,57.92-4.26-.36-17.71-.94-28.29,8.15C213.07,251.92,218,275.88,219,281c1.41,6.91,3.72,18.25,13.88,25.43C248.59,317.53,268.72,308.59,270,308Z"
  />
</svg>
