<svg id="图层_1" data-name="图层 1" xmlns="http://www.w3.org/2000/svg" viewBox="0 0 1000 1000"><defs><style>.cls-1{fill:#ffedb9;}.cls-1,.cls-2{stroke:#000;stroke-linecap:round;stroke-miterlimit:10;stroke-width:4px;}.cls-2{fill:#fff;}</style></defs><path class="cls-1" d="M527,57c-111,0-201,33.35-201,74.5S416,206,527,206s201-33.35,201-74.5S638.07,57,527,57Zm0,108.54c-67,0-121.3-17.68-121.3-39.5s54.31-39.5,121.3-39.5S648.35,104.22,648.35,126,594,165.54,527,165.54Z"/><path class="cls-2" d="M746,801.41l94.49-79.88c4.16-3.51,9.52-7.23,15.75-5.32S866,725.1,865,730.38s-5.17,9.17-9.33,12.67C838,757.8,817.85,770,796.9,781.18a125.63,125.63,0,0,1,38.74-14.42c2.8-.56,6.51-.73,8.46,1.59A5.36,5.36,0,0,1,845,773c-1.15,5.68-5.57,10-10.3,13.5-14.06,10.57-32.2,17.07-51.82,18.56a92.7,92.7,0,0,1,42,6,6.11,6.11,0,0,1,2.41,1.4c1.58,1.77,0,3.91-1.69,5.09-12.09,8.48-30.93,9.46-47.07,2.45A98.77,98.77,0,0,1,803.79,834c2,1.53,4.19,3.74,3.5,5.69-.42,1.17-1.77,1.75-3.06,2.17-10.45,3.39-23.72,1.57-34.39-4.71,2.66,1.21,5.42,2.48,7.42,4.52s3,5.05,1.55,6.91c-1.94,2.47-6.53,1.58-10.2.49-8.48-2.5-17.21-5.13-24.49-10.22s-12.81-13.35-11.24-20.46c1.71-7.76,10.86-11.61,14.14-18.75Z"/><path class="cls-2" d="M297,798.11q-57.6-40.92-111.69-85.73c-3.09-2.56-6.65-5.27-11.13-4.79-5.61.6-10.21,6.38-10.67,11.65s2.21,9.88,5.46,13.66c5,5.77,11.39,10.23,17.76,14.64l47.47,32.87a225.47,225.47,0,0,0-46.4-12.19c-4.42-.67-9.87-.88-13.17,2.62,16.84,19.77,43.55,31.47,72.41,31.71-16-1.6-33.49,2.75-48.12,11.94,5.79,5.91,15.16,7.6,24.11,8.69a352,352,0,0,0,35.91,2.5,133.74,133.74,0,0,0-25.1,6.37c-1.75.63-3.64,1.41-4.64,2.93-2.29,3.47,1.9,6.62,5.65,7.59,13.48,3.49,29.07,2,43.07-4.1a1.58,1.58,0,0,0-.24,2.85c1.1.52,2.56,0,3.83-.44a141.31,141.31,0,0,0,21.06-10.19c2.66-1.57,5.35-3.31,7.13-5.74a14.1,14.1,0,0,0,2-11.26C310.15,806.13,302.93,802.36,297,798.11Z"/></svg>