<svg id="图层_1" data-name="图层 1" xmlns="http://www.w3.org/2000/svg" viewBox="0 0 1000 1000"><defs><style>.cls-1{fill:#3f3f3f;}.cls-1,.cls-2,.cls-3,.cls-5{stroke:#000;stroke-width:4px;}.cls-1,.cls-5{stroke-miterlimit:10;}.cls-2,.cls-3{fill:#666;stroke-linejoin:round;}.cls-2{stroke-linecap:round;}.cls-4{fill:#fdebcf;}.cls-5{fill:none;}</style></defs><path class="cls-1" d="M363.33,892.53l49.47-9.73s-1.49,7.83-.95,12.49,4.52,20.64,4.52,20.64-23.07,22.79-28.68,39.15,2.91,53,3.18,55.31-1.57,5-1.57,5S344,994.29,342.7,992.13s-2.37-2-1.59-4.49S363.33,892.53,363.33,892.53Z"/><path class="cls-1" d="M748.13,737.38c3.11-1,27.29-4.9,27.29-4.9a15,15,0,0,1,1.72,5.66l.67,5.83-28.38,4.64Z"/><polygon class="cls-1" points="775.15 732.97 798.19 728.55 800.92 748.3 777.88 752.71 775.15 732.97"/><polygon class="cls-1" points="754.35 754.51 923.41 725.33 925.13 739.3 756.07 768.49 754.35 754.51"/><polygon class="cls-1" points="767.32 707.05 784.08 703.84 788.73 737.52 771.97 740.73 767.32 707.05"/><polygon class="cls-1" points="802.58 759.9 815.15 757.5 817.88 777.24 805.31 779.64 802.58 759.9"/><path class="cls-1" d="M923,721.41l44.15-7.22a64.3,64.3,0,0,1,2.4,11.49,66,66,0,0,1,.29,11.83l-44.15,7.22a62.57,62.57,0,0,1-2.26-10.32A64.49,64.49,0,0,1,923,721.41Z"/><path class="cls-1" d="M472,868.82,535.84,856s4.33,46.81,10.83,65.94,28.19,67.86,28.46,70.19.27,2.33-1.7,3.84-50.14,29.58-52.24,29.93-4.21.69-5.53-1.47-26.57-53.87-31.09-74.51S472,868.82,472,868.82Z"/><path class="cls-1" d="M85.33,905.92l200.48-44.66L324,820.57l228.87-49.31-1-8.16,194.86-37.81s7.68,20.13,9.29,34.12l3,25.65-20,3.27-3.85-14.82L587.35,801.25l1.75,15.16L563,821.87l-20.54,35.44L363.33,892.53s-14.61-5.92-21.05-6.06-51.64,7.26-82,22.91-80.62,80.9-96.1,95.31-60.4,24.14-60.4,24.14Z"/><polygon class="cls-2" points="369 876 524 847 540 821 364 855 369 876"/><polygon class="cls-3" points="309 862.18 328.76 838.29 346.06 835 353.47 869.59 310.65 877 309 862.18"/><rect class="cls-2" x="358.99" y="813.41" width="129.76" height="17.44" transform="translate(-153.17 99.23) rotate(-11.32)"/><path class="cls-4" d="M538.9,994.32l.21-.07c13.07-9.45,17.24-28.36,11.72-43.51s-19.24-26.38-34.5-31.62c-.19-.06-.39-.14-.58-.19,9.75-2,20.28-3.92,29.28.3,5.25,2.46,11,7,16.11,4.25,4.54-2.41,4.78-8.86,3.51-13.85-5.75-22.44-29.14-36.76-52.17-39.19-29.18-3.08-59.55,10.15-77,33.58a167.33,167.33,0,0,0-89.43,89.78c-5.79,14.09-9.5,30.52-2.84,44.22-38.77,37.13-91.37,109.14-113.54,134.41,18.13,20.69,47.83,32.71,63.79,55.12,48.21-62.49,44.11-74.74,85.88-128.73,5.05,3.89,9.64,8.57,15.57,10.91,7.9,3.11,17.09,1.46,24.54-2.63s13.44-10.37,18.94-16.85c6.64-7.83,12.84-16.21,16.69-25.72s5.22-20.33,2.48-30l14.91-3.73c1.48-.38,3.12-.73,4.47,0,2,1.09,2.22,3.87,2.53,6.15a21.1,21.1,0,0,0,7.43,13.4c-5.26,3.53-7.95,10.12-7.78,16.45s2.93,12.36,6.7,17.44c1.78,2.4,3.92,4.71,6.75,5.64,6.17,2,12.24-3.26,15.92-8.6a65.54,65.54,0,0,0,11.07-30.82l.36,0a27.64,27.64,0,0,0,21.33-17.65c2-5.66,2.09-11.84,1.63-17.83A90.54,90.54,0,0,0,538.9,994.32Z"/><path class="cls-5" d="M378.35,1098.06c.34.25.67.51,1,.76,5.05,3.89,9.64,8.57,15.57,10.91,7.9,3.11,17.09,1.46,24.54-2.63s13.44-10.37,18.94-16.85c6.64-7.83,12.84-16.21,16.69-25.72s5.22-20.33,2.48-30l14.91-3.73c1.48-.38,3.12-.73,4.47,0,2,1.09,2.22,3.87,2.53,6.15a21.1,21.1,0,0,0,7.43,13.4c-5.26,3.53-7.95,10.12-7.78,16.45s2.93,12.36,6.7,17.44c1.78,2.4,3.92,4.71,6.75,5.64,6.17,2,12.24-3.26,15.92-8.6a65.54,65.54,0,0,0,11.07-30.82,66.21,66.21,0,0,0-6.72-36.58c-4.16-8.11-10.47-15.66-19.08-18.65-8.31-2.88-17.43-1.14-26.05.62"/><path class="cls-5" d="M520,1050.47a27.64,27.64,0,0,0,21.33-17.65c2-5.66,2.09-11.84,1.63-17.83a90.54,90.54,0,0,0-4-20.67c-3.68-11.6-9.83-22.32-18.67-30.6-14-13.08-35.15-19.05-53-12.31"/><path class="cls-5" d="M539.11,994.25c13.07-9.45,17.24-28.36,11.72-43.51s-19.24-26.38-34.5-31.62c-.19-.06-.39-.14-.58-.19a50.27,50.27,0,0,0-16-2.82c-14.56.07-27.76,8-40.11,15.75"/><path class="cls-5" d="M515.43,919l.32-.07c9.75-2,20.28-3.92,29.28.3,5.25,2.46,11,7,16.11,4.25,4.54-2.41,4.78-8.86,3.51-13.85-5.75-22.44-29.14-36.76-52.17-39.19-29.18-3.08-59.55,10.15-77,33.58a167.33,167.33,0,0,0-89.43,89.78c-5.79,14.09-9.5,30.52-2.84,44.22-38.77,37.13-91.37,109.14-113.54,134.41,18.13,20.69,47.83,32.71,63.79,55.12,48.21-62.49,44.11-74.74,85.88-128.73l.72-.94,1-.67"/></svg>