<svg
  id="图层_1"
  data-name="图层 1"
  xmlns="http://www.w3.org/2000/svg"
  viewBox="0 0 1000 1000"
>
  <defs>
    <style>
      .cls-1 {
        fill: #fff;
      }
      .cls-1,
      .cls-2,
      .cls-4 {
        stroke: #000;
        stroke-miterlimit: 10;
        stroke-width: 4px;
      }
      .cls-2 {
        fill: #c5d46a;
      }
      .cls-3 {
        fill: #fdebcf;
      }
      .cls-4 {
        fill: none;
      }
    </style>
  </defs>
  <path
    class="cls-1"
    d="M757.79,786.71a38.52,38.52,0,0,0,15.34-8.63c7.62-6.85,13.7-17,13.22-24s-1.82-14-9.74-13.31-13.92,6.42-13.92,6.42l1.6-9s9.07-8.74,21.06-9.72,14,9.46,14.74,20.15-8.48,26-20,36.37-23.22,13.07-23.22,13.07Z"
  />
  <path
    class="cls-1"
    d="M765.1,703.1,591.92,736.75l48.85,94.66h0c2.87,13.84,30.6,20.09,62.1,14s54.87-22.3,52.36-36.21h0Z"
  />
  <ellipse
    class="cls-1"
    cx="678.51"
    cy="719.93"
    rx="88.21"
    ry="34.89"
    transform="translate(-124.85 142.63) rotate(-11)"
  />
  <ellipse
    class="cls-1"
    cx="678.53"
    cy="720.01"
    rx="78.06"
    ry="27.65"
    transform="translate(-124.87 142.63) rotate(-11)"
  />
  <path
    class="cls-2"
    d="M750.4,716.73a35.79,35.79,0,0,1-2.8,2.89c-11.56,10.78-35.43,21.19-64.05,26.75s-54.64,4.85-69.4-.82a36.14,36.14,0,0,1-3.47-1.54,255.8,255.8,0,0,1,69.46-24.56A224.64,224.64,0,0,1,750.4,716.73Z"
  />
  <path
    class="cls-3"
    d="M889,988.16c-6,2.09-11.88,5.06-18.23,5.4-8.49.45-16.68-4-22.44-10.29s-9.46-14.1-12.62-22c-3.8-9.53-7-19.44-7.65-29.69s1.51-20.93,7.19-29.25l-13-8.27c-1.29-.83-2.74-1.69-4.25-1.43-2.28.39-3.33,3-4.34,5A21.09,21.09,0,0,1,802.37,908c3.87,5,4.33,12.13,2.15,18.07s-6.71,10.79-11.89,14.42c-2.44,1.7-5.21,3.21-8.19,3.19-6.48,0-10.57-7-12.36-13.2a66,66,0,0,1-.72-32.74l-.36-.08a27.67,27.67,0,0,1-14.6-23.5c-.12-6,1.77-11.91,4.12-17.45a91.75,91.75,0,0,1,10.35-18.33l-.17-.12c-9.4-13.1-7.34-32.37,2.71-45s26.63-18.89,42.76-19h.59c-8.59-5-18-10.16-27.85-9-5.75.67-12.62,3.13-16.61-1.08-3.55-3.74-1.73-9.93,1.07-14.25,12.56-19.45,39.3-25.6,61.91-20.59,28.65,6.35,53.24,28.54,62.31,56.3a167.27,167.27,0,0,1,56.29,113.53c1,15.19-.68,32-11.35,42.83,25,47.52,52,132.52,65,163.52-23.77,13.85-55.74,15.82-78,32C903.65,1062.94,911.41,1052.62,889,988.16Z"
  />
  <path
    class="cls-4"
    d="M890.17,987.76l-1.2.4c-6,2.09-11.88,5.06-18.23,5.4-8.49.45-16.68-4-22.44-10.29s-9.46-14.1-12.62-22c-3.8-9.53-7-19.44-7.65-29.69s1.51-20.93,7.19-29.25l-13-8.27c-1.29-.83-2.74-1.69-4.25-1.43-2.28.39-3.33,3-4.34,5A21.09,21.09,0,0,1,802.37,908c3.87,5,4.33,12.13,2.15,18.07s-6.71,10.79-11.89,14.42c-2.44,1.7-5.21,3.21-8.19,3.19-6.48,0-10.57-7-12.36-13.2a67.18,67.18,0,0,1,17.28-65.31c6.52-6.37,14.9-11.51,24-11.61,8.8-.1,16.89,4.45,24.51,8.86"
  />
  <path
    class="cls-4"
    d="M771,897.66a27.67,27.67,0,0,1-14.6-23.5c-.12-6,1.77-11.91,4.12-17.45a91.75,91.75,0,0,1,10.35-18.33c7.18-9.82,16.42-18,27.44-23.07,17.39-8,39.38-6.9,54.2,5.17"
  />
  <path
    class="cls-4"
    d="M770.7,838.26c-9.4-13.1-7.34-32.37,2.71-45s26.63-18.89,42.76-19h.59a50,50,0,0,1,16.12,2.42c13.8,4.7,23.78,16.44,33,27.69"
  />
  <path
    class="cls-4"
    d="M817.05,774.43l-.29-.17c-8.59-5-18-10.16-27.85-9-5.75.67-12.62,3.13-16.61-1.08-3.55-3.74-1.73-9.93,1.07-14.25,12.56-19.45,39.3-25.6,61.91-20.59,28.65,6.35,53.24,28.54,62.31,56.3a167.27,167.27,0,0,1,56.29,113.53c1,15.19-.68,32-11.35,42.83,25,47.52,52,132.52,65,163.52-23.77,13.85-55.74,15.82-78,32-25.85-74.56-18.09-84.88-40.53-149.34l-.4-1.13-.71-.94"
  />
</svg>
