<svg
  id="图层_1"
  data-name="图层 1"
  xmlns="http://www.w3.org/2000/svg"
  viewBox="0 0 1000 1000"
>
  <defs>
    <style>
      .cls-1 {
        fill: #e6eaf4;
      }
      .cls-1,
      .cls-2,
      .cls-3,
      .cls-4,
      .cls-5,
      .cls-6,
      .cls-8 {
        stroke: #000;
        stroke-width: 4px;
      }
      .cls-1,
      .cls-3,
      .cls-4,
      .cls-5,
      .cls-6,
      .cls-8 {
        stroke-miterlimit: 10;
      }
      .cls-2,
      .cls-5 {
        fill: #e9ba87;
      }
      .cls-2 {
        stroke-linecap: round;
        stroke-linejoin: round;
      }
      .cls-3 {
        fill: #ffdab6;
      }
      .cls-4 {
        fill: #fff;
      }
      .cls-6 {
        fill: #af8d68;
      }
      .cls-7 {
        fill: #ffedd1;
      }
      .cls-8 {
        fill: none;
      }
    </style>
  </defs>
  <path
    class="cls-1"
    d="M829,902.82h0l0,.15c1.36,10.08-36.92,32.93-85.31,39.47s-88.56-5.71-89.92-15.79a.68.68,0,0,1,0-.15h0l-59.15-216.7L828.5,678.2Z"
  />
  <path
    class="cls-2"
    d="M815.94,891.59h0s0,.08,0,.12c1.19,8.82-32.33,29.46-74.69,35.18s-77.53-5.63-78.72-14.44a.57.57,0,0,1,0-.13h0l-28-102.58,181.22-24.5Z"
  />
  <ellipse
    class="cls-3"
    cx="711.59"
    cy="694.18"
    rx="118"
    ry="24.58"
    transform="translate(-86.57 101.57) rotate(-7.7)"
  />
  <path
    class="cls-4"
    d="M774.41,676.19a1,1,0,0,1,0,.24,3,3,0,0,1,.09.43c1.1,8.14-26.8,18.62-62.31,23.42s-65.18,2.1-66.28-6a3.25,3.25,0,0,1,0-.44.86.86,0,0,1-.06-.23l-2.28-16.82a.93.93,0,0,1,.74-1.07l126.86-17.14a.92.92,0,0,1,1,.83Z"
  />
  <ellipse
    class="cls-4"
    cx="707.75"
    cy="667.39"
    rx="64.88"
    ry="14.86"
    transform="translate(-83.02 100.82) rotate(-7.7)"
  />
  <ellipse
    class="cls-5"
    cx="725.12"
    cy="797.49"
    rx="91.43"
    ry="23.65"
    transform="translate(-100.29 104.32) rotate(-7.7)"
  />
  <circle class="cls-6" cx="705.47" cy="865.99" r="20.12" />
  <circle class="cls-6" cx="693.86" cy="898.02" r="20.12" />
  <path
    class="cls-4"
    d="M707.74,553.75l14.74,109c.37,2.73-5.1,5.73-12.21,6.69s-13.19-.48-13.56-3.21L682,557.23Z"
  />
  <path
    class="cls-4"
    d="M728.8,724.47l9.91,73.33c.37,2.73-5.09,5.73-12.21,6.7S713.32,804,713,801.28L703,728Z"
  />
  <circle class="cls-6" cx="748.06" cy="855.19" r="20.12" />
  <circle class="cls-6" cx="788.21" cy="874.68" r="20.12" />
  <circle class="cls-6" cx="741.16" cy="894.22" r="20.12" />
  <path
    class="cls-7"
    d="M844.48,737.29c-5.63-8.22-11.92-16.87-21.33-20-5.5-1.86-12.76-2.57-14.57-8.08-1.61-4.89,2.67-9.71,7-12.43,19.66-12.22,46.47-6.37,64.78,7.81,23.19,18,36,48.53,32.33,77.5a167.29,167.29,0,0,1,2.45,126.7c-5.58,14.17-14.27,28.61-28.55,33.88,13.15,45.33,26.3,90.64,40.11,135.78L945.26,1137a817.65,817.65,0,0,0-81.72,11.28c-24.5-59.3-38.75-122.83-44.8-186.74-6.42-.71-13.07-.49-19-2.92-7.87-3.22-13.36-10.77-15.91-18.88s-2.52-16.79-2-25.27c.61-10.25,2-20.59,5.75-30.13s10.29-18.29,19-23.38q-4.1-6.51-8.18-13c-.82-1.29-1.77-2.69-3.24-3.11-2.22-.62-4.27,1.26-6.07,2.7a21.15,21.15,0,0,1-14.63,4.54c1.34,6.18-1.26,12.8-5.78,17.24s-10.66,6.91-16.91,8c-2.93.5-6.08.69-8.76-.61-5.85-2.81-6.58-10.82-5.54-17.21a65.66,65.66,0,0,1,13.32-29.91l-.29-.22a27.67,27.67,0,0,1-3.18-27.5c2.46-5.49,6.68-10,11.17-14a91.72,91.72,0,0,1,17.19-12.15l-.1-.18c-2.91-15.87,7.17-32.41,21.65-39.54s32.14-5.71,46.77,1Z"
  />
  <path
    class="cls-8"
    d="M819.75,961.69l-1-.13c-6.42-.71-13.07-.49-19-2.92-7.87-3.22-13.36-10.77-15.91-18.88s-2.52-16.79-2-25.27c.61-10.25,2-20.59,5.75-30.13s10.29-18.29,19-23.38q-4.1-6.51-8.18-13c-.82-1.29-1.77-2.69-3.24-3.11-2.22-.62-4.27,1.26-6.07,2.7a21.15,21.15,0,0,1-14.63,4.54c1.34,6.18-1.26,12.8-5.78,17.24s-10.66,6.91-16.91,8c-2.93.5-6.08.69-8.76-.61-5.85-2.81-6.58-10.82-5.54-17.21a67.18,67.18,0,0,1,43.49-51.68c8.62-3,18.39-4.06,26.67-.26,8,3.66,13.38,11.24,18.39,18.47"
  />
  <path
    class="cls-8"
    d="M750.44,829.36a27.67,27.67,0,0,1-3.18-27.5c2.46-5.49,6.68-10,11.17-14a91.72,91.72,0,0,1,17.19-12.15c10.68-5.81,22.54-9.3,34.66-9.16,19.12.21,38.54,10.56,46.81,27.81"
  />
  <path
    class="cls-8"
    d="M775.52,775.51c-2.91-15.87,7.17-32.41,21.65-39.54s32.14-5.71,46.77,1l.54.27A50,50,0,0,1,858,746.36c10.46,10.12,14.47,25,18.06,39.12"
  />
  <path
    class="cls-8"
    d="M844.67,737.56l-.19-.27c-5.63-8.22-11.92-16.87-21.33-20-5.5-1.86-12.76-2.57-14.57-8.08-1.61-4.89,2.67-9.71,7-12.43,19.66-12.22,46.47-6.37,64.78,7.81,23.19,18,36,48.53,32.33,77.5a167.29,167.29,0,0,1,2.45,126.7c-5.58,14.17-14.27,28.61-28.55,33.88,13.15,45.33,26.3,90.64,40.11,135.78L945.26,1137a817.65,817.65,0,0,0-81.72,11.28c-24.5-59.3-38.75-122.83-44.8-186.74,0-.39-.09-.8-.12-1.21l-.24-1.16"
  />
</svg>
