<svg
  id="图层_1"
  data-name="图层 1"
  xmlns="http://www.w3.org/2000/svg"
  viewBox="0 0 1000 1000"
>
  <defs>
    <style>
      .cls-1 {
        fill: #feffeb;
      }
      .cls-1,
      .cls-2,
      .cls-3,
      .cls-4,
      .cls-6 {
        stroke: #000;
      }
      .cls-1,
      .cls-2,
      .cls-3,
      .cls-4 {
        stroke-linejoin: round;
      }
      .cls-1,
      .cls-2,
      .cls-3,
      .cls-6 {
        stroke-width: 4px;
      }
      .cls-2,
      .cls-4 {
        fill: #fff6c0;
        stroke-linecap: round;
      }
      .cls-3 {
        fill: #ffc878;
      }
      .cls-4 {
        stroke-width: 2px;
      }
      .cls-5 {
        fill: {{color[0]}};
      }
      .cls-6 {
        fill: none;
        stroke-miterlimit: 10;
      }
    </style>
  </defs>
  <path
    class="cls-1"
    d="M858.1,895.39h0l0,.15c1.36,10.08-36.92,32.93-85.3,39.47s-88.57-5.7-89.93-15.79a.33.33,0,0,1,0-.14h0L623.72,702.39l233.87-31.62Z"
  />
  <path
    class="cls-2"
    d="M845,884.16h0s0,.09,0,.13c1.19,8.81-32.33,29.45-74.69,35.17s-77.53-5.63-78.72-14.44c0,0,0-.09,0-.13h0l-28-102.58,181.22-24.49Z"
  />
  <ellipse
    class="cls-1"
    cx="740.68"
    cy="686.75"
    rx="118"
    ry="24.58"
    transform="translate(-85.32 105.4) rotate(-7.7)"
  />
  <ellipse
    class="cls-2"
    cx="754.21"
    cy="790.06"
    rx="91.43"
    ry="23.65"
    transform="translate(-99.03 108.15) rotate(-7.7)"
  />
  <path
    class="cls-3"
    d="M738.12,569.4,754.9,693.57c.42,3.12-5,6.43-12.12,7.39s-13.22-.79-13.64-3.91L712.35,572.88Z"
  />
  <path
    class="cls-3"
    d="M757.89,717l9.92,73.33c.36,2.74-5.1,5.74-12.22,6.7s-13.18-.48-13.55-3.22l-9.91-73.33Z"
  />
  <path
    class="cls-3"
    d="M684.11,686.72c.18,1.32.32,2.64.41,3.95a64.11,64.11,0,0,1-2.17,21.94c-33.54.48-57.31-3.68-60.87-11.73l-.42-1.58s0,0,0,0h0l0,0a.48.48,0,0,0,0,.12,5.52,5.52,0,0,0,.42,1.46L637,757.64a64.53,64.53,0,1,1,47.14-70.92Z"
  />
  <path
    class="cls-4"
    d="M633.09,645a45.71,45.71,0,0,0-22.31-.21l-.34.1,10.65,44.27Z"
  />
  <path
    class="cls-4"
    d="M590.51,651.83a45.72,45.72,0,0,0-14.67,16.82l-.15.32,40.55,20.7Z"
  />
  <path
    class="cls-4"
    d="M570.24,686.67A45.78,45.78,0,0,0,571.3,709c0,.11.08.22.11.33L615,696.16Z"
  />
  <path
    class="cls-4"
    d="M575.26,721.6a54.48,54.48,0,0,0,17.19,16.65l.33.19,22.76-37Z"
  />
  <path
    class="cls-4"
    d="M607.05,746.46a45.72,45.72,0,0,0,22.31.68l.34-.08L620,702.56Z"
  />
  <path
    class="cls-4"
    d="M665.64,672.51a45.75,45.75,0,0,0-14.58-16.89l-.29-.19-26.22,37.23Z"
  />
  <path
    class="cls-4"
    d="M671.18,704.56a44.32,44.32,0,0,0-2.27-21.5c0-.1-.09-.21-.13-.32l-41.43,15.15Z"
  />
  <path
    class="cls-5"
    d="M844.49,737.29c-5.62-8.21-11.92-16.86-21.35-20-5.49-1.85-12.75-2.56-14.56-8.07-1.61-4.89,2.67-9.71,7-12.43,19.68-12.23,46.48-6.38,64.78,7.8,23.21,18,36,48.54,32.34,77.51a167.26,167.26,0,0,1,2.44,126.69c-5.56,14.18-14.26,28.61-28.54,33.9,13.14,45.31,26.29,90.63,40.11,135.76q9.25,29.32,18.52,58.62a814.94,814.94,0,0,0-81.73,11.28C839,1089,824.79,1025.47,818.74,961.57c-6.42-.72-13.07-.49-19-2.93-7.87-3.22-13.36-10.77-15.92-18.88s-2.52-16.79-2-25.28c.62-10.24,2-20.58,5.75-30.12s10.29-18.29,19-23.39q-4.08-6.5-8.17-13c-.82-1.3-1.77-2.7-3.24-3.1-2.22-.62-4.26,1.25-6.07,2.7a21.07,21.07,0,0,1-14.63,4.52c1.34,6.18-1.26,12.81-5.77,17.25s-10.67,6.9-16.91,8c-2.94.5-6.09.69-8.77-.61-5.85-2.81-6.58-10.81-5.55-17.21a65.87,65.87,0,0,1,13.33-29.92l-.29-.22a27.61,27.61,0,0,1-3.18-27.49c2.46-5.5,6.67-10,11.16-14a91.57,91.57,0,0,1,17.2-12.17l-.1-.18c-2.91-15.86,7.17-32.41,21.64-39.52s32.15-5.72,46.78,1Z"
  />
  <path
    class="cls-6"
    d="M819.75,961.69l-1-.12c-6.42-.72-13.07-.49-19-2.93-7.87-3.22-13.36-10.77-15.92-18.88s-2.52-16.79-2-25.28c.62-10.24,2-20.58,5.75-30.12s10.29-18.29,19-23.39q-4.08-6.5-8.17-13c-.82-1.3-1.77-2.7-3.24-3.1-2.22-.62-4.26,1.25-6.07,2.7a21.07,21.07,0,0,1-14.63,4.52c1.34,6.18-1.26,12.81-5.77,17.25s-10.67,6.9-16.91,8c-2.94.5-6.09.69-8.77-.61-5.85-2.81-6.58-10.81-5.55-17.21a67.21,67.21,0,0,1,43.5-51.69c8.62-3,18.38-4,26.67-.25,8,3.67,13.38,11.23,18.38,18.47"
  />
  <path
    class="cls-6"
    d="M750.44,829.35a27.61,27.61,0,0,1-3.18-27.49c2.46-5.5,6.67-10,11.16-14a91.57,91.57,0,0,1,17.2-12.17c10.69-5.81,22.54-9.29,34.66-9.15,19.11.21,38.55,10.57,46.8,27.81"
  />
  <path
    class="cls-6"
    d="M775.52,775.5c-2.91-15.86,7.17-32.41,21.64-39.52s32.15-5.72,46.78,1l.55.27A49.89,49.89,0,0,1,858,746.35c10.47,10.13,14.49,25,18.06,39.14"
  />
  <path
    class="cls-6"
    d="M844.67,737.55l-.18-.26c-5.62-8.21-11.92-16.86-21.35-20-5.49-1.85-12.75-2.56-14.56-8.07-1.61-4.89,2.67-9.71,7-12.43,19.68-12.23,46.48-6.38,64.78,7.8,23.21,18,36,48.54,32.34,77.51a167.26,167.26,0,0,1,2.44,126.69c-5.56,14.18-14.26,28.61-28.54,33.9,13.14,45.31,26.29,90.63,40.11,135.76q9.25,29.32,18.52,58.62a814.94,814.94,0,0,0-81.73,11.28C839,1089,824.79,1025.47,818.74,961.57c0-.41-.09-.81-.12-1.22l-.24-1.16"
  />
</svg>
