<svg
  id="图层_1"
  data-name="图层 1"
  xmlns="http://www.w3.org/2000/svg"
  viewBox="0 0 1000 1000"
>
  <defs>
    <style>
      .cls-1 {
        fill: #a8a8a8;
      }
      .cls-1,
      .cls-2,
      .cls-3,
      .cls-4,
      .cls-5,
      .cls-6,
      .cls-7,
      .cls-9 {
        stroke: #000;
        stroke-miterlimit: 10;
        stroke-width: 4px;
      }
      .cls-2 {
        fill: #858585;
      }
      .cls-2,
      .cls-7 {
        stroke-linecap: round;
      }
      .cls-3 {
        fill: #f6d46b;
      }
      .cls-4 {
        fill: #c5d46a;
      }
      .cls-5 {
        fill: #c56607;
      }
      .cls-6 {
        fill: #cdd6ee;
      }
      .cls-7 {
        fill: #e8e8e8;
      }
      .cls-8 {
        fill: {{color[0]}};
      }
      .cls-9 {
        fill: none;
      }
    </style>
  </defs>
  <path
    class="cls-1"
    d="M877.56,928.52c-14.65,11.24-30.81,6-42.42-1.91l-71.58-48.43s-5.19-4-12.46-10.21c-15.17,1.41-47.93,4.6-71.79,8-23.55,5.8-55.42,15.09-69.9,19.4-4.42,8.44-7.74,14.07-7.74,14.07L553.23,981c-7.85,11.61-20.88,22.53-38.66,17.55S492,977.64,492.15,960.8s23.52-122.28,23.52-122.28,12-42.67,24.36-56.84a70.7,70.7,0,0,1,10.07-9.61,55.09,55.09,0,0,1,5.55-3.76l.15-.08c1.64-.84,3.59-1.82,5.8-2.92,18.18-9,54.68-25.74,89.88-33.72,36.32-5.79,77.26-3.64,97.1-2l3.48.28.19,0a52.66,52.66,0,0,1,8.39,1.73,71.23,71.23,0,0,1,12.64,5.1c16.79,8.53,43.75,43.7,43.75,43.7S878,869.57,884.34,885.17,892.21,917.29,877.56,928.52Z"
  />
  <circle class="cls-2" cx="605.03" cy="824.5" r="52.57" />
  <circle class="cls-3" cx="729.63" cy="771.38" r="17.52" />
  <circle class="cls-4" cx="740.69" cy="828.74" r="17.52" />
  <circle class="cls-5" cx="769.7" cy="794.06" r="17.52" />
  <circle class="cls-6" cx="699.6" cy="807.58" r="17.52" />
  <path
    class="cls-7"
    d="M639.27,806.66l3.93,20.39a2.6,2.6,0,0,1-2.06,3L620.75,834l4.18,21.67a2.61,2.61,0,0,1-2.06,3l-20.39,3.94a2.61,2.61,0,0,1-3-2.06l-4.18-21.67-21.67,4.18a2.61,2.61,0,0,1-3-2.06l-3.93-20.39a2.6,2.6,0,0,1,2.06-3l21.66-4.18-3.93-20.4a2.61,2.61,0,0,1,2.06-3l20.39-3.93a2.61,2.61,0,0,1,3,2.06l3.93,20.39,20.4-3.93A2.6,2.6,0,0,1,639.27,806.66Z"
  />
  <path
    class="cls-8"
    d="M831.1,772.37a57.64,57.64,0,0,0-26.45,7c-3.27,1.49-5.31,2.33-6.73,1.26-3.8-2.84-.48-17.4,7.44-26.87,15.54-18.57,46.32-14.72,50.25-14.17,40.22,5.58,60.48,46.84,63,52.09a167.27,167.27,0,0,1,45.1,118.41c-.44,15.23-3.75,31.75-15.41,41.54,18.58,46.33,18.89,88.35,31,140.56,4.53,28.07,5.86,39.11,18.27,55.41a818.87,818.87,0,0,0-73.12,38.23c-21.58-60.54-29.49-127.23-34.13-193.32-6.14,1.49-12.18,3.84-18.47,3.56-8.5-.37-16.22-5.62-21.35-12.39s-8-15-10.43-23.11c-2.88-9.86-5.12-20-4.77-30.29s3.51-20.69,10-28.43l-12.08-9.47c-1.21-.95-2.57-1.95-4.09-1.84-2.31.17-3.6,2.63-4.82,4.59A21,21,0,0,1,812,904.39c.47.43,8.54,7.93,6.55,18.66-1.79,9.65-10.22,13.87-12.25,14.8-6.39,2.91-16,.73-16,.73s-8.28-10.82-10.6-14.74c-4.93-8.32-3.85-20.89,1.28-33.32a27.66,27.66,0,0,1-11.47-24.24c.46-6,2.91-11.67,5.78-17a90.75,90.75,0,0,1,12.07-17.25l-.16-.14c-8.1-13.95-4.19-32.93,7-44.52a45.86,45.86,0,0,1,10.42-8,90.46,90.46,0,0,1,8.36-3.49A65.56,65.56,0,0,1,831.1,772.37Z"
  />
  <path
    class="cls-8"
    d="M831.1,772.37A65.56,65.56,0,0,0,813,775.93a90.46,90.46,0,0,0-8.36,3.49A57.64,57.64,0,0,1,831.1,772.37Z"
  />
  <path
    class="cls-9"
    d="M891.74,992.22c-.48.1-1,.21-1.43.34-6.14,1.49-12.18,3.84-18.47,3.56-8.5-.37-16.22-5.62-21.35-12.39s-8-15-10.43-23.11c-2.88-9.86-5.12-20-4.77-30.29s3.51-20.69,10-28.43l-12.08-9.47c-1.21-.95-2.57-1.95-4.09-1.84-2.31.17-3.6,2.63-4.82,4.59A21,21,0,0,1,812,904.39c.47.43,8.54,7.93,6.55,18.66-1.79,9.65-10.22,13.87-12.25,14.8-6.39,2.91-16,.73-16,.73s-8.28-10.82-10.6-14.74c-4.93-8.32-3.85-20.89,1.28-33.32a77.3,77.3,0,0,1,22.2-30c7.1-5.71,15.94-10,25-9.25,8.78.75,16.4,6,23.55,11.17"
  />
  <path
    class="cls-9"
    d="M781.79,891.08c-.28-.18-.55-.36-.81-.56a27.66,27.66,0,0,1-11.47-24.24c.46-6,2.91-11.67,5.78-17a90.75,90.75,0,0,1,12.07-17.25c8.09-9.09,18.07-16.37,29.52-20.34,18.08-6.25,39.86-3.08,53.46,10.37"
  />
  <path
    class="cls-9"
    d="M787.2,831.93c-8.1-13.95-4.19-32.93,7-44.52a45.86,45.86,0,0,1,10.42-8,57.64,57.64,0,0,1,26.45-7,64.83,64.83,0,0,1,7.51.22,50.72,50.72,0,0,1,16.41,4c13.27,6,22.08,18.66,30.21,30.73"
  />
  <path
    class="cls-9"
    d="M839.07,772.37a72.89,72.89,0,0,0-8,0A65.56,65.56,0,0,0,813,775.93a90.46,90.46,0,0,0-8.36,3.49c-3.27,1.49-5.31,2.33-6.73,1.26-3.8-2.84-.48-17.4,7.44-26.87,15.54-18.57,46.32-14.72,50.25-14.17,40.22,5.58,60.48,46.84,63,52.09a167.27,167.27,0,0,1,45.1,118.41c-.44,15.23-3.75,31.75-15.41,41.54,18.58,46.33,18.89,88.35,31,140.56,4.53,28.07,5.86,39.11,18.27,55.41a818.87,818.87,0,0,0-73.12,38.23c-21.58-60.54-29.49-127.23-34.13-193.32,0-.41-.07-.81-.09-1.22l-.62-1"
  />
</svg>
