<svg id="图层_2" data-name="图层 2" xmlns="http://www.w3.org/2000/svg" viewBox="0 0 1000 1000"><defs><style>.cls-1{fill:#fff;}.cls-1,.cls-2{stroke:#000;stroke-miterlimit:10;stroke-width:4px;}.cls-2{fill:none;}</style></defs><path class="cls-1" d="M297.17,548.22c7.44-.23,13.87-5.84,17.24-12.49a21.23,21.23,0,0,0,2.55-11A19.86,19.86,0,0,0,311,512.47c-8.08-8.22-21-10-32.24-7.25a20.47,20.47,0,0,0-9,4.27c-4.56,4.16-5.53,10.85-5.82,17.6a32.22,32.22,0,0,0,43.23,35.23,15.56,15.56,0,0,0,2.86-7.4,23.61,23.61,0,0,1-10-1.77,5.59,5.59,0,0,1-3.09-2.38C296.4,549.58,296.89,547.81,297.17,548.22Z"/><path class="cls-2" d="M266.06,515.42c9.92-3.62,21.35-6,30.72-1.16a22.26,22.26,0,0,1,10.9,13.17,20.87,20.87,0,0,1-2.08,16.88"/><path d="M284.37,552.06A17.84,17.84,0,0,1,274.15,538a4.39,4.39,0,0,1,.67-3.34,3.27,3.27,0,0,1,4.33-.14,7.09,7.09,0,0,1,2.26,4.1,30.29,30.29,0,0,0,1.15,4.62c.81,2,2.35,3.56,3.33,5.45a3.31,3.31,0,0,1,.45,2.45A1.54,1.54,0,0,1,284.37,552.06Z"/></svg>