<svg
  id="图层_2"
  data-name="图层 2"
  xmlns="http://www.w3.org/2000/svg"
  viewBox="0 0 1000 1000"
>
  <defs>
    <style>
      .cls-1 {
        fill: #ffd15c;
        stroke: #000;
        stroke-miterlimit: 10;
        stroke-width: 4px;
      }
    </style>
  </defs>
  <path
    class="cls-1"
    d="M315.2,578.69c2,5.11-1.73,10.72-6.05,14.12a25.64,25.64,0,0,1-8.2,4.48c-9.28,2.86-20-2-24.87-10.39s-3.9-19.52,1.47-27.59,14.7-13.13,25.49-13.75c-.86-4.8-5.34-8.39-10.13-9.28s-9.75.48-14.11,2.67c-12,6-20.25,18-23.93,30.85-2.44,8.56-3,17.93.15,26.25,2.88,7.57,8.67,13.81,15.48,18.18,12.88,8.28,30.64,9.81,43.35,1.28s17.67-27.91,9.32-40.73C323.06,574.79,323,574.81,315.2,578.69Z"
  />
</svg>
