<svg
  id="图层_2"
  data-name="图层 2"
  xmlns="http://www.w3.org/2000/svg"
  viewBox="0 0 1000 1000"
>
  <defs>
    <style>
      .cls-1 {
        fill: #ffb6b6;
        stroke: #000;
        stroke-miterlimit: 10;
        stroke-width: 4px;
      }
    </style>
  </defs>
  <path
    class="cls-1"
    d="M293.63,648.06c-8.53,1.25-17.63-.73-24.42-6s-11-14-10.11-22.62a23.64,23.64,0,0,1,6.52-14c5.19-5.32,13.35-7.92,20.42-5.59s12.24,10,10.84,17.31a22.1,22.1,0,0,1,6.67-15.78,17.35,17.35,0,0,1,16.29-4.18c9,2.62,13.74,13.42,11.93,22.6s-8.71,16.61-16.49,21.8C308.74,645.93,301.08,649.12,293.63,648.06Z"
  />
  <circle class="cls-1" cx="299.78" cy="562.62" r="9.57" />
  <circle class="cls-1" cx="295.53" cy="588.13" r="9.57" />
</svg>
