<svg id="图层_2" data-name="图层 2" xmlns="http://www.w3.org/2000/svg" viewBox="0 0 1000 1000"><defs><style>.cls-1{fill:#ffd15c;stroke-width:4px;}.cls-1,.cls-2,.cls-3{stroke:#000;stroke-miterlimit:10;}.cls-2{fill:#ffa617;}.cls-2,.cls-3{stroke-width:2px;}.cls-3{fill:none;stroke-linecap:round;}</style></defs><path class="cls-1" d="M276.39,607.73c-7.86,1.29-14.57-6.77-15.53-14.68a24.85,24.85,0,1,1,49.19,1A41.78,41.78,0,0,0,334.5,582c6.51,16.8-.1,37.7-15.09,47.69-8.91,6-20.83,8-30.55,3.52S272.79,616.87,276.39,607.73Z"/><path class="cls-2" d="M268.83,594a18.71,18.71,0,0,0-5.37,4.75c-1.34,2-1.82,4.78-.51,6.8,2.26,3.53,8,2.37,10.88-.68s4.22-7.27,6.78-10.75A80,80,0,0,0,268.83,594Z"/><path class="cls-3" d="M312.71,599.09l12.34-6.81a9.32,9.32,0,0,1-1.18,7.41,21.38,21.38,0,0,1-5.29,5.57,9,9,0,0,1,3.61-2.53c1.43-.4,3.24.14,3.74,1.54.43,1.2-.24,2.52-1,3.53a14.49,14.49,0,0,1-8,5.21l1.51.28c.42,2.3-1.2,4.58-3.26,5.69a16.72,16.72,0,0,1-6.8,1.48"/><path class="cls-3" d="M280.77,585.4l.86,5.52C281.54,590.68,281.45,590.45,280.77,585.4Z"/><path class="cls-3" d="M266.55,587.57l.88,4.24c0,.17.11.37.28.38S267.81,591.83,266.55,587.57Z"/></svg>