<svg
  id="图层_1"
  data-name="图层 1"
  xmlns="http://www.w3.org/2000/svg"
  viewBox="0 0 1000 1000"
>
  <defs>
    <style>
      .cls-1 {
        fill: #fffbf1;
      }
      .cls-1,
      .cls-2,
      .cls-3,
      .cls-4 {
        stroke: #000;
        stroke-width: 4px;
      }
      .cls-1,
      .cls-2,
      .cls-3 {
        stroke-linecap: round;
      }
      .cls-1,
      .cls-2,
      .cls-4 {
        stroke-miterlimit: 10;
      }
      .cls-2,
      .cls-3 {
        fill: none;
      }
      .cls-3 {
        stroke-linejoin: round;
      }
      .cls-4 {
        fill: #f9ccd3;
      }
    </style>
  </defs>
  <path
    class="cls-1"
    d="M388.15,139c22.33-30.39,28.67-76.19,21.68-113.25-5.78-30.64-16.44-60.93-35.45-86.59s-42.48-52.27-75.11-59.87c-24.81-5.79-66.7-9.73-91.88-5.49-98.95,16.67-177.3,79.6-248.21,145.5-39.57,36.78-74.6,79.34-91.7,128.74s-14.19,106.51,17.27,149.46c17,23.14,41.37,41.2,68.55,53.47C11,377,84.19,375.5,136.48,341.07a1297.81,1297.81,0,0,0,106,85.26c5.45,3.94,13.25-.6,11.8-6.85-9.81-42.2-21.83-80.94-30.92-124.27,0,0,34.23-22.21,49.52-36.84,18.6-17.8,37.58-40.71,42.46-39.1,48.5,15.93,96.22,35.67,144.12,53.43,5.48,2,10.65-3.44,7.76-8.19C440.3,220.47,411.33,181.77,388.15,139Z"
  />
  <path
    class="cls-2"
    d="M124.07,29.05C106.19,27.34,88.84,43.1,90.4,59.65c.9,9.58,6.93,18,12.78,26C95.5,75.45,80.42,70.11,67.8,74.31s-20.65,18.46-15.75,30"
  />
  <path class="cls-3" d="M75.6,191.38q10-27.8,21.64-55L40.43,162.5" />
  <path
    class="cls-3"
    d="M222.05,51.84a329.49,329.49,0,0,1-54,20.45A280.9,280.9,0,0,0,182.67,28.6"
  />
  <ellipse
    class="cls-4"
    cx="109.36"
    cy="88.82"
    rx="17.55"
    ry="9.27"
    transform="translate(-31.5 86.5) rotate(-38.14)"
  />
  <path
    class="cls-1"
    d="M416.29-85c19.33,7.79,41,4.79,61.89,4.89,18.64.08,37.69,2.92,54.09,11.79S562.11-43.87,565-25.46s-6.54,39-23.83,46c-11.62,4.71-24.82,3-37,0a94.69,94.69,0,0,1,41.61,48.86c2.84,7.63,4.69,16,2.81,23.88-1.7,7.15-6.29,13.29-11.51,18.46-11,10.9-26.2,18.59-41.58,16.94-22.63-2.42-38.26-23-51-41.87,5.46,8.16,9.28,17.7,9.16,27.51s-4.68,19.84-13,25.06c-10.26,6.43-24.28,4.28-34.11-2.78s-16-18.18-20.09-29.58c3.9,11.37-5.28,24.53-17.06,26.86s-24.13-4.58-30.48-14.78c-4.86-7.79-6.67-17-9.35-25.81-13.07-43-47-75.85-79.57-106.72q47.56-60.06,91.4-122.94C364.42-115.7,389.33-95.91,416.29-85Z"
  />
  <path
    class="cls-4"
    d="M402.85-32.24c7.07-5.7,18.88-4.12,24.48,3.29a10.84,10.84,0,0,1,2.5,7.3c-.58,6.25-8.18,9.16-10.7,14.86-2.29,5.15.05,11.12,1.29,16.68,1.42,6.43,1.24,13.44-1.93,19.11s-9.76,9.58-16.19,8.32c-7.1-1.39-13.82-8.51-20.37-5.61-3.53,1.55-5.33,5.58-8.61,7.6-3.46,2.13-8.22,1.6-11.59-.81a15.59,15.59,0,0,1-6-10.51c-1.28-9,4-17.61,10.3-24s13.79-11.77,18.8-19.25c2.58-3.85,4.45-8.2,7.38-11.79S399.6-33.52,402.85-32.24Z"
  />
  <ellipse
    class="cls-4"
    cx="473.3"
    cy="50.57"
    rx="11.79"
    ry="22.55"
    transform="translate(67.79 299.83) rotate(-37.68)"
  />
  <ellipse
    class="cls-4"
    cx="413.72"
    cy="84.93"
    rx="15.37"
    ry="17.42"
    transform="translate(34.36 270.57) rotate(-37.68)"
  />
  <ellipse
    class="cls-4"
    cx="354.8"
    cy="94.16"
    rx="14.35"
    ry="11.27"
    transform="translate(132.93 386.61) rotate(-67.68)"
  />
</svg>
