<svg
  id="图层_1"
  data-name="图层 1"
  xmlns="http://www.w3.org/2000/svg"
  viewBox="0 0 1000 1000"
>
  <defs>
    <style>
      .cls-1,
      .cls-6 {
        fill: #303030;
      }
      .cls-1,
      .cls-2,
      .cls-3,
      .cls-4,
      .cls-7 {
        stroke: #000;
        stroke-miterlimit: 10;
        stroke-width: 4px;
      }
      .cls-2 {
        fill: #fff8e6;
      }
      .cls-3 {
        fill: none;
      }
      .cls-3,
      .cls-4 {
        stroke-linecap: round;
      }
      .cls-4,
      .cls-5 {
        fill: #ffce3e;
      }
      .cls-7 {
        fill: #f9ccd3;
      }
    </style>
  </defs>
  <path
    class="cls-1"
    d="M-7.79,412.75c-28.87-7.44-83.1-47.72-101.55-69.69-2.43-2.88-4.79-5.81-7-8.78-.48-15.77,3-52.53,19.41-82.39,25.75-46.95,75-61.07,83-64C31.61,171,53.89,189.24,93.57,165.65c19.47-11.58,30.76-25.88,36.89-33.8,38.23-49.35,21.44-93.33,43-138.43,12.05-25.28,45-60.46,114.87-83l.1-.16a209,209,0,0,1,44.3,39.22c20.67,24.34,39.25,52.73,47.06,82.92,9.44,36.51,3.54,89-16.73,120.85,26,41.15,58.2,74.85,88,117,3.2,4.53-7.19,15.75-12.79,14.09-49-14.53-91.62-26.95-137-42.95-.64-.23-24,28.72-41.9,47.22a309.12,309.12,0,0,1-43.6,37.25c11.94,42.63,26.51,80.48,39.12,121.93,1.87,6.15-5.62,11.19-11.32,7.63-38.61-24.15-65-41.85-100.54-69.67C84.8,425.12,37.94,424.53-7.79,412.75Z"
  />
  <path
    class="cls-2"
    d="M-116.39,334.28c-29.79-38.95-45.58-84.73-32.8-131.59,13.77-50.42,44.9-101.57,81.93-140.9C-.89-8.69,70.43-72,130.64-99.38c46.93-21.32,87.05-18.76,119.53-8.74a153.76,153.76,0,0,1,38.22,18.37l-.1.16C218.45-67,185.47-31.86,173.42-6.58c-21.52,45.1-4.73,89.08-43,138.43-6.13,7.92-17.42,22.22-36.89,33.8C53.89,189.24,31.61,171-14,187.86c-8,3-57.23,17.08-83,64C-113.36,281.75-116.87,318.51-116.39,334.28Z"
  />
  <path
    class="cls-3"
    d="M106,68.35c-18-.53-34.21,16.36-31.56,32.77,1.54,9.5,7.29,14.53,13.66,22.08-8.35-9.63-23.71-14.36-36-9.33s-18.57,23.18-12.91,34.37"
  />
  <ellipse
    class="cls-4"
    cx="95.28"
    cy="128.96"
    rx="17.55"
    ry="9.27"
    transform="translate(-61.79 96.76) rotate(-41.96)"
  />
  <circle class="cls-5" cx="53.04" cy="224.18" r="22" />
  <circle class="cls-6" cx="53.04" cy="224.18" r="17.49" />
  <circle class="cls-5" cx="192.16" cy="86.12" r="22" />
  <circle class="cls-6" cx="192.16" cy="86.12" r="17.49" />
  <path
    class="cls-1"
    d="M405.79-85.54c19.33,7.79,41,4.79,61.89,4.89,18.64.08,37.69,2.92,54.09,11.79S551.61-44.37,554.53-26s-6.54,39-23.83,46c-11.62,4.71-24.82,3-37,0a94.69,94.69,0,0,1,41.61,48.86c2.84,7.63,4.69,16,2.81,23.88-1.7,7.15-6.29,13.29-11.51,18.46-11,10.9-26.2,18.59-41.58,16.94-22.63-2.42-38.26-23-51-41.87,5.46,8.16,9.28,17.7,9.16,27.51s-4.68,19.84-13,25.06c-10.26,6.43-24.28,4.28-34.11-2.78S380,117.94,376,106.54c3.9,11.37-5.28,24.53-17.06,26.86s-24.13-4.58-30.48-14.78c-4.86-7.79-6.67-17-9.35-25.81C306,49.85,272.11,17,239.5-13.91Q287.06-74,330.9-136.85C353.92-116.2,378.83-96.41,405.79-85.54Z"
  />
  <path
    class="cls-7"
    d="M392.35-32.74c7.07-5.7,18.88-4.12,24.48,3.29a10.84,10.84,0,0,1,2.5,7.3c-.58,6.25-8.18,9.16-10.7,14.86-2.29,5.15.05,11.12,1.29,16.68,1.42,6.43,1.24,13.44-1.93,19.11s-9.76,9.58-16.19,8.32c-7.1-1.39-13.82-8.51-20.37-5.61-3.53,1.55-5.33,5.58-8.61,7.6-3.46,2.13-8.22,1.6-11.59-.81a15.59,15.59,0,0,1-6-10.51c-1.28-9,4-17.61,10.3-24s13.79-11.77,18.8-19.25c2.58-3.85,4.45-8.2,7.38-11.79S389.1-34,392.35-32.74Z"
  />
  <ellipse
    class="cls-7"
    cx="462.8"
    cy="50.07"
    rx="11.79"
    ry="22.55"
    transform="translate(65.9 293.3) rotate(-37.68)"
  />
  <ellipse
    class="cls-7"
    cx="403.22"
    cy="84.43"
    rx="15.37"
    ry="17.42"
    transform="translate(32.48 264.05) rotate(-37.68)"
  />
  <ellipse
    class="cls-7"
    cx="344.3"
    cy="93.66"
    rx="14.35"
    ry="11.27"
    transform="translate(126.88 376.58) rotate(-67.68)"
  />
</svg>
