<svg
  id="图层_1"
  data-name="图层 1"
  xmlns="http://www.w3.org/2000/svg"
  viewBox="0 0 1000 1000"
>
  <defs>
    <style>
      .cls-1 {
        fill: #cfd8f0;
        stroke-miterlimit: 10;
        stroke-width: 4px;
      }
      .cls-1,
      .cls-2 {
        stroke: #000;
      }
      .cls-2 {
        fill: #ffa100;
        stroke-linejoin: round;
        stroke-width: 2px;
      }
    </style>
  </defs>
  <path
    class="cls-1"
    d="M154.11,187.36,152,119.45a637.6,637.6,0,0,1,44.66,74.75c1,2,2,4.12,1.49,6.25a7.34,7.34,0,0,1-2.83,3.84c-6.91,5.37-16.69,4.18-25.32,2.72a12.94,12.94,0,0,1-5.56-1.84,12.12,12.12,0,0,1-3.24-4.14C158.37,196,154.23,191.28,154.11,187.36Z"
  />
  <path
    class="cls-1"
    d="M199.79,202.38c10-3.78,21.77-6.67,31.09-1.36,9.47,5.41,13,17.61,12.29,28.49-1.26,20.59-14.54,39.39-32.23,50-30.1,18-72.62,11.49-95.93-14.73C102.77,251,96,233.36,89.42,216.14Q79,188.77,68.61,161.4C113.19,174.26,157.76,187.12,199.79,202.38Z"
  />
  <path
    class="cls-1"
    d="M124.82,204,39.69,216.65c33.59,6.53,65,22,98.66,28,9.41,1.66,20.6,2,26.84-5.27,7.47-8.67,2.28-23.18-7.36-29.34S135.92,202.32,124.82,204Z"
  />
  <path
    class="cls-2"
    d="M223.84,250.74c.06,1,.48,2.58,6.46,7.14a86.73,86.73,0,0,0,8.06,5.45,28.62,28.62,0,0,0,.18-9c-.34-2.47-.69-4.76-2.36-7.07-.85-1.19-2.24-3.12-4.71-3.53a6.53,6.53,0,0,0-4.71,1.17A6.9,6.9,0,0,0,223.84,250.74Z"
  />
  <circle cx="219.11" cy="236.09" r="5.3" />
  <path
    class="cls-1"
    d="M790.12,769.43a151,151,0,0,0-46.55,5l47.77,27.3c2.72,1.56,5.82,3.17,8.85,2.37s5.08-4,5.47-7.2-.48-6.35-1.35-9.43c-1.16-4.15-2.36-8.37-4.7-12S793.58,768.9,790.12,769.43Z"
  />
  <path
    class="cls-1"
    d="M851.65,752c-2.13-10.15-5-20.86-12.75-27.78-8.51-7.63-21.56-8.86-32.25-4.82a33.94,33.94,0,0,0-12,7.55c-7.4,7.39-10.41,18.9-6.28,31.78,1.81,24.21,4.13,49.88,18.63,69.35a64.35,64.35,0,0,0,91.84,11.77c16.74-13.42,25.67-34.17,32.42-54.54a25,25,0,0,1-27.54,1.78c-6.5-3.85-10.8-10.42-15.89-16C878.12,760.45,864.85,753,851.65,752Z"
  />
  <path
    class="cls-2"
    d="M804.61,752.44l-5.89,14.49a36.93,36.93,0,0,0,14.39-10,5.88,5.88,0,0,0,1.82-3.53c.07-2.39-2.67-4.07-5-3.84S805.14,751.15,804.61,752.44Z"
  />
  <path
    class="cls-1"
    d="M854.87,760.43Q895.6,747,935,730c-.52,7.22-4.59,13.64-8.65,19.64-10.5,15.51-22.34,31.07-39.07,39.47-5,2.53-10.77,4.37-16.26,3.08-7.85-1.85-12.94-9.58-15.42-17.26C854,770.1,853.24,764.63,854.87,760.43Z"
  />
  <circle cx="828.44" cy="747.86" r="5.02" />
  <circle cx="794.96" cy="747.86" r="5.02" />
</svg>
