<svg
  id="图层_1"
  data-name="图层 1"
  xmlns="http://www.w3.org/2000/svg"
  viewBox="0 0 1000 1000"
>
  <defs>
    <style>
      .cls-1,
      .cls-4 {
        fill: #fffbf1;
      }
      .cls-1,
      .cls-2,
      .cls-3 {
        stroke: #000;
        stroke-miterlimit: 10;
        stroke-width: 4px;
      }
      .cls-1,
      .cls-2 {
        stroke-linecap: round;
      }
      .cls-2 {
        fill: none;
      }
      .cls-3 {
        fill: #f9ccd3;
      }
      .cls-7 {
        stroke: #000;
        fill: #000;
      }
    </style>
  </defs>
  <path
    class="cls-1"
    d="M411.38,132.61c20.15-31.89,25.85-84.43,16.27-120.91C419.73-18.45,401-46.77,380.27-71s-50.68-47.52-82.73-57.28c-32.53-9.9-72.65-12.3-119.5,9.19C117.94-91.54,46.85-27.92-19.24,42.81-56.13,82.28-87.06,133.55-100.63,184s6,99.59,40.37,140.21c18.55,21.89,72.93,62,101.83,69.3,45.76,11.6,92.63,12,150.61-27.58,35.69,27.68,62.1,45.29,100.8,69.29,5.72,3.54,13.18-1.54,11.29-7.67-12.76-41.4-27.47-79.2-39.59-121.78,0,0,32.58-24.57,46.8-40.24,17.3-19.06,39-42.22,39.61-42,45.45,15.83,86.92,25.52,136,39.87,5.6,1.64,15.95-9.61,12.72-14.14C469.87,207.25,437.53,173.67,411.38,132.61Z"
  />
  <path
    class="cls-2"
    d="M146.94,47.29c-17.95-.45-34.15,16.49-31.43,32.89,1.57,9.5,7.34,14.5,13.74,22-8.39-9.59-23.77-14.27-36.06-9.19S74.7,116.27,80.4,127.43"
  />
  <ellipse
    class="cls-3"
    cx="136.48"
    cy="107.94"
    rx="17.55"
    ry="9.27"
    transform="translate(-37.14 119.58) rotate(-42.18)"
  />
  <circle class="cls-7" cx="106.62" cy="187.77" r="19.5" />
  <circle class="cls-7" cx="222.59" cy="71.8" r="19.5" />
  <path
    class="cls-1"
    d="M35.91,464.39A369.42,369.42,0,0,1-53.85,467,376.44,376.44,0,0,1-46,397.16c4.87-23.33,12.59-47.24,29.66-63.87a16.66,16.66,0,0,1,5.82-4.08c3-1.09,6.37-.56,9.54,0a455,455,0,0,0,56.47,5.44c4.57,28.3,1.64,57.2-1.29,85.72-1.71,16.6-4.49,35.18-18,44.91C36.35,465.11,36.47,465,35.91,464.39Z"
  />
  <path
    class="cls-4"
    d="M76.89,312.3l.09-.22c-5.25-14.76,3.36-31.73,16.39-40.44,4.95-3.31,10.7-5.75,16.66-5.74,9.78,0,18.45,6.54,24.49,14.24,18.22,23.23,17.59,55,3.15,80.75,1.33,39.5-20.71,78.93-55,98.51C71,466.06,57.23,470.6,44.1,467.7c-13.64-3-24.36-13.49-33-24.48C2.65,432.43-4.77,420.3-7,406.76s1.56-28.68,12.24-37.3,28.55-8.13,36.73,2.88c-4.12-8-7.44-16.75-7.46-25.86a37.81,37.81,0,0,1,12.26-27.71,31.67,31.67,0,0,1,18.47-8.34A25.09,25.09,0,0,1,76.89,312.3Z"
  />
  <path
    class="cls-2"
    d="M137.47,361.26l.2-.37c14.44-25.73,15.07-57.52-3.15-80.75-6-7.7-14.71-14.24-24.49-14.24-6,0-11.71,2.43-16.66,5.74-13,8.71-21.64,25.68-16.39,40.44"
  />
  <path
    class="cls-2"
    d="M92.76,340.45c-1-8.4-2.74-17.31-8.68-23.34a21.68,21.68,0,0,0-7.19-4.81,25.09,25.09,0,0,0-11.65-1.87,31.67,31.67,0,0,0-18.47,8.34,37.81,37.81,0,0,0-12.26,27.71c0,9.11,3.34,17.85,7.46,25.86-8.18-11-26-11.49-36.73-2.88S-9.23,393.23-7,406.76s9.65,25.67,18.12,36.46c8.62,11,19.34,21.46,33,24.48,13.13,2.9,26.85-1.64,38.52-8.3,34.34-19.58,56.38-59,55-98.51v-.09"
  />
</svg>
