<svg
  id="图层_1"
  data-name="图层 1"
  xmlns="http://www.w3.org/2000/svg"
  viewBox="0 0 1000 1000"
>
  <defs>
    <style>
      .cls-1,
      .cls-5 {
        fill: #fffbf1;
      }
      .cls-1,
      .cls-2,
      .cls-3,
      .cls-4 {
        stroke: #303030;
        stroke-width: 4px;
      }
      .cls-1,
      .cls-2,
      .cls-3 {
        stroke: #303030;
        stroke-linecap: round;
      }
      .cls-1,
      .cls-2,
      .cls-4 {
        stroke-miterlimit: 10;
      }
      .cls-2,
      .cls-3 {
        fill: none;
      }
      .cls-3 {
        stroke-linejoin: round;
      }
      .cls-4 {
        fill: #f9ccd3;
      }
    </style>
  </defs>
  <path
    class="cls-1"
    d="M388.15,139c22.33-30.39,28.67-76.19,21.68-113.25-5.78-30.64-16.44-60.93-35.45-86.59s-42.48-52.27-75.11-59.87c-24.81-5.79-66.7-9.73-91.88-5.49-98.95,16.67-177.3,79.6-248.21,145.5-39.57,36.78-74.6,79.34-91.7,128.74s-14.19,106.51,17.27,149.46c17,23.14,41.37,41.2,68.55,53.47C11,377,84.19,375.5,136.48,341.07a1297.81,1297.81,0,0,0,106,85.26c5.45,3.94,13.25-.6,11.8-6.85-9.81-42.2-21.83-80.94-30.92-124.27,0,0,34.23-22.21,49.52-36.84,18.6-17.8,37.58-40.71,42.46-39.1,48.5,15.93,96.22,35.67,144.12,53.43,5.48,2,10.65-3.44,7.76-8.19C440.3,220.47,411.33,181.77,388.15,139Z"
  />
  <path
    class="cls-2"
    d="M124.07,29.05C106.19,27.34,88.84,43.1,90.4,59.65c.9,9.58,6.93,18,12.78,26C95.5,75.45,80.42,70.11,67.8,74.31s-20.65,18.46-15.75,30"
  />
  <path class="cls-3" d="M75.6,191.38q10-27.8,21.64-55L40.43,162.5" />
  <path
    class="cls-3"
    d="M222.05,51.84a329.49,329.49,0,0,1-54,20.45A280.9,280.9,0,0,0,182.67,28.6"
  />
  <ellipse
    class="cls-4"
    cx="109.36"
    cy="88.82"
    rx="17.55"
    ry="9.27"
    transform="translate(-31.5 86.5) rotate(-38.14)"
  />
  <path
    class="cls-1"
    d="M35.91,464.39A369.42,369.42,0,0,1-53.85,467,376.44,376.44,0,0,1-46,397.16c4.87-23.33,12.59-47.24,29.66-63.87a16.66,16.66,0,0,1,5.82-4.08c3-1.09,6.37-.56,9.54,0a455,455,0,0,0,56.47,5.44c4.57,28.3,1.64,57.2-1.29,85.72-1.71,16.6-4.49,35.18-18,44.91C36.35,465.11,36.47,465,35.91,464.39Z"
  />
  <path
    class="cls-5"
    d="M76.9,312.29l.09-.22c-5.26-14.75,3.35-31.73,16.38-40.42,5-3.32,10.7-5.76,16.66-5.76,9.78,0,18.46,6.55,24.49,14.25,18.22,23.23,17.59,55,3.15,80.74,1.33,39.5-20.7,78.94-55,98.53-11.68,6.65-25.39,11.19-38.51,8.28-13.65-3-24.36-13.48-33-24.46C2.65,432.44-4.77,420.3-7,406.77s1.56-28.69,12.24-37.3,28.55-8.14,36.73,2.87c-4.12-8-7.44-16.75-7.46-25.85a37.79,37.79,0,0,1,12.26-27.71,31.6,31.6,0,0,1,18.47-8.35A25.41,25.41,0,0,1,76.9,312.29Z"
  />
  <path
    class="cls-2"
    d="M137.46,361.26l.21-.38c14.44-25.73,15.07-57.51-3.15-80.74-6-7.7-14.71-14.25-24.49-14.25-6,0-11.7,2.44-16.66,5.76-13,8.69-21.64,25.67-16.38,40.42"
  />
  <path
    class="cls-2"
    d="M92.76,340.46c-1-8.4-2.74-17.31-8.68-23.35a21.92,21.92,0,0,0-7.18-4.82,25.41,25.41,0,0,0-11.66-1.86,31.6,31.6,0,0,0-18.47,8.35,37.79,37.79,0,0,0-12.26,27.71c0,9.1,3.34,17.84,7.46,25.85-8.18-11-26-11.48-36.73-2.87S-9.23,393.23-7,406.77s9.65,25.67,18.12,36.46c8.63,11,19.34,21.45,33,24.46,13.12,2.91,26.83-1.63,38.51-8.28,34.35-19.59,56.38-59,55-98.53v-.07"
  />
</svg>
