<svg
  id="图层_1"
  data-name="图层 1"
  xmlns="http://www.w3.org/2000/svg"
  viewBox="0 0 1000 1000"
>
  <defs>
    <style>
      .cls-1 {
        fill: #a8a8a8;
      }
      .cls-1,
      .cls-2,
      .cls-3,
      .cls-4 {
        stroke: #000;
        stroke-width: 4px;
      }
      .cls-1,
      .cls-2,
      .cls-3 {
        stroke-miterlimit: 10;
      }
      .cls-2 {
        fill: #cdd6ee;
      }
      .cls-3 {
        fill: #f7cad1;
      }
      .cls-4 {
        fill: #ffedb9;
        stroke-linejoin: round;
      }
    </style>
  </defs>
  <path
    class="cls-1"
    d="M503.38,278.17c13.91,46.86-61.93,111.36-122.92,139-59.83,27.15-158,42.75-184.71,1-27.42-42.8,24.3-139.89,100.58-176.48C376.33,203.39,488.77,229,503.38,278.17Z"
  />
  <path
    class="cls-2"
    d="M570.41,165.11c23.79,55.47-92.52,168.56-207.79,221.07S85.74,452.25,59.45,397.78C33.25,343.5,142,222.83,260.66,168.07,381.67,112.21,546.54,109.43,570.41,165.11Z"
  />
  <path
    class="cls-1"
    d="M438,143.92c13.91,46.86-61.93,111.36-122.93,139-59.83,27.15-158,42.74-184.7,1C103,241.2,154.69,144.11,231,107.52,311,69.14,423.4,94.7,438,143.92Z"
  />
  <ellipse
    class="cls-2"
    cx="153.51"
    cy="245.43"
    rx="26.84"
    ry="18.29"
    transform="translate(-130.16 303.18) rotate(-69.48)"
  />
  <ellipse
    class="cls-2"
    cx="221.5"
    cy="254.15"
    rx="26.84"
    ry="18.29"
    transform="translate(-63.39 434.42) rotate(-81.25)"
  />
  <ellipse
    class="cls-2"
    cx="298.48"
    cy="234.98"
    rx="18.29"
    ry="26.84"
    transform="translate(-70.54 144.82) rotate(-24.48)"
  />
  <ellipse
    class="cls-2"
    cx="363.33"
    cy="193.81"
    rx="18.29"
    ry="26.84"
    transform="translate(-40.71 273.32) rotate(-39.21)"
  />
  <ellipse
    class="cls-2"
    cx="394.38"
    cy="139.99"
    rx="18.29"
    ry="26.84"
    transform="translate(59.9 391.5) rotate(-56.48)"
  />
  <circle class="cls-3" cx="237.98" cy="104.32" r="35.63" />
  <path
    class="cls-4"
    d="M859,114s-13,29-20,35-31,10-31,10,19,21,26,32,10,30,10,30,7-20,18-30,33-18,33-18-17-8-24-19S859,114,859,114Z"
  />
  <path
    class="cls-4"
    d="M892.31,220.16s.51,27,3.92,33.94,20.5,17.71,20.5,17.71a70,70,0,0,0-11.8,3.72A72.72,72.72,0,0,0,890.16,284a75.63,75.63,0,0,0-19.71,21.85c-.38-1.62-.94-4-1.59-6.92-2.37-10.55-3.11-17.11-4-18.94-5.17-11.38-19.42-24.65-19.42-24.65s15.64-.93,24.59-7.38S892.31,220.16,892.31,220.16Z"
  />
</svg>
