<svg
  id="图层_2"
  data-name="图层 2"
  xmlns="http://www.w3.org/2000/svg"
  viewBox="0 0 1000 1000"
>
  <defs>
    <style>
      .cls-1 {
        fill: none;
      }
      .cls-1,
      .cls-2 {
        stroke: #000;
        stroke-linecap: round;
        stroke-miterlimit: 10;
        stroke-width: 4px;
      }
    </style>
  </defs>
  <ellipse class="cls-1" cx="474.13" cy="499.7" rx="82.98" ry="78.58" />
  <ellipse class="cls-1" cx="674.03" cy="499.7" rx="82.98" ry="78.58" />
  <path
    class="cls-2"
    d="M557,501.21c2.9-5.39,11.29-7.59,17-7.21,10.7.71,10.44,2.53,14,5,1.69,1.18,2.35,3.6,2.87,5.71s-.6,4.81-2.58,5c-1.26.12-2.39-.72-3.47-1.43a22,22,0,0,0-23.51-.36c-1.73,1.07-3.89,2.39-5.51,1.14-1.19-.93-.69-4.57-.71-4.35C555,505.62,557.27,500.77,557,501.21Z"
  />
  <path
    class="cls-2"
    d="M389,494.12A52,52,0,0,0,370,495.27c-3.06.76-6.16,1.87-8.45,4.05s-3.57,5.65-2.41,8.59c1.42,3.59,6.07,5.09,9.77,4s6.6-4,10.34-4.13c3-.07,6.31,1.73,8.86.13,1.52-.95,2.18-2.8,2.6-4.55a11.63,11.63,0,0,0,.09-6.43C390.11,494.86,388.1,493.12,389,494.12Z"
  />
  <path
    class="cls-2"
    d="M761.29,488.32c4-1.57,5.09-1.66,9.44-1.27a11.57,11.57,0,0,1,6.33,2.15,8.3,8.3,0,0,1,3.18,6.84,5.12,5.12,0,0,1-5.73,4.76c-2.56-.37-5.1-2.42-7.59-1.95-2,.37-3.85,2.36-5.83,1.39-1.18-.57-2-2-2.55-3.42a12.42,12.42,0,0,1-1.25-5.37C757.39,489.62,761.67,487.35,761.29,488.32Z"
  />
  <path
    class="cls-1"
    d="M358.8,503.81c-24-14.84-48.08-29.67-71.34-45.78h-5.63"
  />
</svg>
