<svg
  id="图层_2"
  data-name="图层 2"
  xmlns="http://www.w3.org/2000/svg"
  viewBox="0 0 1000 1000"
>
  <defs>
    <style>
      .cls-1 {
        fill: #000000;
        stroke: #000;
        stroke-miterlimit: 10;
      }
      .cls-2 {
        fill: #ffd15c;
      }
    </style>
  </defs>
  <path
    class="cls-1"
    d="M391.61,500.5H520.1a24.11,24.11,0,0,1,24.11,24.11v34.81a68.08,68.08,0,0,1-68.08,68.08H444.39a76.89,76.89,0,0,1-76.89-76.89v-26a24.11,24.11,0,0,1,24.11-24.11Z"
  />
  <path
    class="cls-1"
    d="M608.4,497.5H736.89A24.11,24.11,0,0,1,761,521.61v34.81a68.08,68.08,0,0,1-68.08,68.08H661.17a76.89,76.89,0,0,1-76.89-76.89v-26A24.11,24.11,0,0,1,608.4,497.5Z"
  />
  <path
    class="cls-2"
    d="M412.09,559.32C413.27,558.14,457,534.5,457,534.5v21.27l42.55-21.27-48.46,37.82-5.91-18.91Z"
  />
  <path
    class="cls-2"
    d="M641.09,556.32C642.27,555.14,686,531.5,686,531.5v21.27l42.55-21.27-48.46,37.82-5.91-18.91Z"
  />
  <path
    class="cls-1"
    d="M538.5,520.3c.33-5.78,20-10.28,36.51-7.41,3.52.61,12.37,2.16,13,6.18.33,2.27-2,5.18-4.71,6.17-6.38,2.32-10.3-7.61-18.85-7.41s-11.34,10-18.84,8.64C542.08,525.82,538.35,522.89,538.5,520.3Z"
  />
  <path class="cls-1" d="M296.5,461.5s70,35,79,42,0,16,0,16l-79-51.78Z" />
</svg>
