<svg
  id="图层_2"
  data-name="图层 2"
  xmlns="http://www.w3.org/2000/svg"
  viewBox="0 0 1000 1000"
>
  <defs>
    <style>
      .cls-1 {
        fill: {{color[0]}};
        stroke-miterlimit: 10;
      }
      .cls-1,
      .cls-2 {
        stroke: #120d0d;
        stroke-width: 4px;
      }
      .cls-2 {
        fill: none;
        stroke-linecap: round;
        stroke-linejoin: round;
      }
    </style>
  </defs>
  <path
    class="cls-1"
    d="M772.06,958.53c-16.56-39.62-27.18-65-42.74-85.12-16.91-21.83-37.62-32-43.77-35.35A174.06,174.06,0,0,0,623.26,818c-11.36,11.87-38.69,36.9-80.43,44-23.3,4-41.92.78-51.83-1-39-7-66.49-26.2-80.78-38A242,242,0,0,0,363,836a209.24,209.24,0,0,0-29.17,13.84,190.15,190.15,0,0,0-23.68,16.34c-14.93,12-24.88,23.7-31.75,31.89-32.27,38.45-45.41,79.6-54.32,107.49-1.82,5.71-3.19,10.45-4.08,13.62a469.23,469.23,0,0,0,55.87,32.19c22,10.7,80.28,36.79,203.36,42.29,106.68,4.77,180.5,7,267.77-42.29a417.72,417.72,0,0,0,48-31.72C790,1004.73,782.43,983.35,772.06,958.53Z"
  />
  <path
    class="cls-2"
    d="M361,839c19.51,19.69,50.44,44.59,94,59,61.19,20.25,129.57,7.52,163-17,15-11,37-23,53-50"
  />
</svg>
