<svg
  id="图层_2"
  data-name="图层 2"
  xmlns="http://www.w3.org/2000/svg"
  viewBox="0 0 1000 1000"
>
  <defs>
    <style>
      .cls-1 {
        fill: {{color[0]}};
        stroke: #120d0d;
        stroke-linejoin: round;
        stroke-width: 4px;
      }
    </style>
  </defs>
  <path
    class="cls-1"
    d="M778.06,956.53c-16.56-39.62-27.18-65-42.74-85.12-16.91-21.83-37.62-32-43.77-35.35A174.06,174.06,0,0,0,629.26,816c-11.36,11.87-38.69,36.9-80.43,44-23.3,4-41.92.78-51.83-1-39-7-66.49-26.2-80.78-38a215.57,215.57,0,0,0-76.39,26.84c-28.89,17-45.42,36.31-55.43,48.23-32.27,38.45-45.41,79.6-54.32,107.49-1.82,5.71-3.19,10.45-4.08,13.62a469.23,469.23,0,0,0,55.87,32.19c22,10.7,80.28,36.79,203.36,42.29,106.68,4.77,180.5,7,267.77-42.29a417.72,417.72,0,0,0,48-31.72C796,1002.73,788.43,981.35,778.06,956.53Z"
  />
  <path
    class="cls-1"
    d="M294.61,870.61c19.65,29.87,32.37,57.3,67.3,73.38C391.75,957.74,435,959.11,461,946.8c33.92-16.06,55.44-50.88,71.64-84.73-52.82-16.83-87.83-34.66-137.75-59.09C394.93,802.73,324.67,850.26,294.61,870.61Z"
  />
  <path
    class="cls-1"
    d="M618.12,812.16c-24.27,20.05-52.18,35.67-82.77,49.37,13.33,25.29,28.09,50.57,49.7,69.3s51.42,30.11,79.2,23.29c14.82-3.64,28.11-12.17,39.22-22.64A126.91,126.91,0,0,0,742,855.21c-38.72-17.69-77.44-35.39-116.59-51.65C622.63,807.05,619.93,810.67,618.12,812.16Z"
  />
</svg>
