<svg id="图层_2" data-name="图层 2" xmlns="http://www.w3.org/2000/svg" viewBox="0 0 1000 1000"><defs><style>.cls-1{fill:#fff;stroke-linecap:round;}.cls-1,.cls-2{stroke:#000;stroke-miterlimit:10;stroke-width:4px;}.cls-2{fill:#dcf8ff;}</style></defs><path class="cls-1" d="M766.06,958.53c-16.56-39.62-27.18-65-42.74-85.12-16.91-21.83-37.62-32-43.77-35.35A174.06,174.06,0,0,0,617.26,818c-11.36,11.87-38.69,36.9-80.43,44-23.3,4-41.92.78-51.83-1-39-7-66.49-26.2-80.78-38a215.57,215.57,0,0,0-76.39,26.84c-28.89,17-45.42,36.31-55.43,48.23-32.27,38.45-45.41,79.6-54.32,107.49-1.82,5.71-3.19,10.45-4.08,13.62a469.23,469.23,0,0,0,55.87,32.19c22,10.7,80.28,36.79,203.36,42.29,106.68,4.77,180.5,7,267.77-42.29a417.72,417.72,0,0,0,48-31.72C784,1004.73,776.43,983.35,766.06,958.53Z"/><path class="cls-2" d="M578.54,907.23q24.13-35.44,45.37-72.74c1.46-2.57,3-5.45,2.32-8.34-.52-2.38-2.39-4.18-4.17-5.84L596.6,796.59c-1.46-1.37-3.23-2.84-5.21-2.56a6.85,6.85,0,0,0-3.21,1.79C584.07,799.24,516.85,836,518,841,521,854,574,900.87,578.54,907.23Z"/><path class="cls-2" d="M390.78,820.66a107.6,107.6,0,0,0,34.81-33,715.29,715.29,0,0,0,91.07,49.95c-1.28,4.44-2.57,8.89-4.66,16.09a319.2,319.2,0,0,1-18.27,55.56c-.67,1.53-1.47,3.2-3,3.88-2.33,1-4.91-.68-6.88-2.31l-75.32-62.32c-4.81-4-9.73-8.09-12.86-13.5C392.88,830.14,391.67,824.42,390.78,820.66Z"/></svg>