<svg id="图层_2" data-name="图层 2" xmlns="http://www.w3.org/2000/svg" viewBox="0 0 1000 1000"><defs><style>.cls-1,.cls-3{fill:#fff;}.cls-1,.cls-4,.cls-5,.cls-6{stroke:#000;}.cls-1,.cls-6{stroke-linecap:round;}.cls-1,.cls-4,.cls-5{stroke-miterlimit:10;}.cls-1,.cls-4{stroke-width:4px;}.cls-2{fill:#ffb6b6;}.cls-4,.cls-5,.cls-6{fill:none;}.cls-5{stroke-width:5px;}.cls-6{stroke-linejoin:round;stroke-width:2px;}</style></defs><path class="cls-1" d="M778.72,958.54c-16.56-39.63-27.17-65-42.74-85.13-16.9-21.83-37.61-31.95-43.76-35.35-24.7-13.63-106,103.84-147.73,111-23.3,4-41.91.78-51.83-1-39-7-122.27-115.73-152.17-98.17-28.89,17-45.42,36.31-55.43,48.24-32.27,38.44-45.41,79.59-54.31,107.49-1.83,5.7-3.2,10.45-4.09,13.62a470,470,0,0,0,55.87,32.19c22,10.69,80.28,36.79,203.36,42.29,106.68,4.76,180.5,7,267.78-42.29a420.12,420.12,0,0,0,48-31.72C796.67,1004.73,789.1,983.36,778.72,958.54Z"/><path class="cls-2" d="M737.5,864.5c.23,2.12,1.34,14.51-7,24.61-4.75,5.73-7.41,4.53-9,8.6-3.45,8.81,8.17,16.55,5,23.79-2.78,6.43-13.06,2.87-18,10-6.31,9.11,4.4,23.65-1,28-4.13,3.32-12.37-3.56-16,0-2.67,2.62.93,7.19,0,17-.41,4.32-1.19,12.54-6,15-6.28,3.22-13.88-6.22-19-3-3.8,2.39-.69,8.27-5.51,17.18-1.79,3.31-4.62,8.54-9.49,9.82-7.82,2-11.73-8.49-23-9-7.21-.33-13,3.66-18.33,7.29-11.47,7.85-11.38,14.55-17.9,15.78-8,1.52-11.45-10.58-21-10.26-10,.34-11.76,13.93-22.57,15.3-10.29,1.3-12.24-10.57-24.42-11.37-11.95-.78-15.67,10.28-37,14.2-5.29,1-9.84,1.17-13.31-1.41-4.95-3.69-3-9.63-6.73-11.68-6.46-3.58-15.72,12.74-27.66,11.22-10.29-1.31-10.31-14.29-22.3-17.13-11.15-2.63-15.91,7.45-26.68,4.47-9.94-2.76-8.44-12.07-19.85-17.45-12.7-6-20.9,2.59-28.67-3.7-7.51-6.06-1-15-9.86-27.22-4.86-6.74-7.81-5.37-16.8-15.4-7.09-7.91-10.71-11.8-11.11-17-.86-11.13,12.34-15.07,11.16-24.67-1.27-10.39-17.59-12.7-16.64-20.57.62-5.08,8.47-12.9,15.64-15.43.81-.28,3-1,3.05-2.15.12-1.56-3.63-2.24-8.15-6.91-.73-.76-1.21-1.3-1.43-1.53-2.56-2.74-5-5.77-6.16-9.47-2.05-6.63.45-13.8,2.92-20.25A65.64,65.64,0,0,0,338.67,853c-2.81,11.06-.78,22.78,6.87,42.89,8.94,32.6,19.8,68,46.25,85.92,15.12,10.22,33.33,13.12,51,14.81,45.3,4.33,91,2.15,136-4.87,10.92-1.71,24.55-4.11,39.76-12.69,5.14-2.9,18.77-10.76,29.88-25.55,22.82-30.36,23.91-74.88,24-82,.15-11.14,5.78-28.43,7.18-32.58L680,838a88.48,88.48,0,0,0,19.5-9.5c12.14-7.91,14.82-16.24,19-15s6,11.27,5,19c-1.34,10-7.26,14.89-5,18,2.4,3.3,9.79-1.2,15,3C736.58,856,737,860,737.5,864.5Z"/><path class="cls-3" d="M679.09,838.66l.59.26c-1.4,4.15-7,21.44-7.18,32.58-.09,7.12-1.18,51.64-24,82-11.11,14.79-24.74,22.65-29.88,25.55-15.21,8.58-28.84,11-39.76,12.69-45,7-90.74,9.2-136,4.87-17.7-1.69-35.91-4.59-51-14.81-26.45-17.87-37.31-53.32-46.25-85.92-7.65-20.11-9.68-31.83-6.87-42.89H339l41.19-20.83c16.12-8.16,32.34-16.37,47.28-27.45a6.86,6.86,0,0,0,.15,1.81c.95,4.15,5.71,5.37,9.59,5.81l70,7.9c-2.37,2-4.59,4.14-6.75,6.26-4.93,4.84-18.13,17.76-20,39-.36,4-2.31,26.2,14,43,3,3.11,14.68,14.73,33,15,4,.06,18.28-.29,30-11,11.23-10.26,13-23.53,14-31,.34-2.58,3.6-30.38-16-52-1.52-1.67-3.5-3.86-5.91-6.11a113.28,113.28,0,0,0,46-27.49C618.15,819.87,649.33,829.72,679.09,838.66Z"/><path d="M549.59,823.39c-2.34.72-4.71,1.35-7.09,1.89-2-3.67-4.11-7.29-6.31-10.83A43.69,43.69,0,0,1,549.59,823.39Z"/><path class="cls-2" d="M542.5,825.28c-.79.18-1.58.36-2.38.52-2.52.52-5.23.92-7.56-.24s-3.95-4.46-1.25-4.66a71.91,71.91,0,0,0-2.72-7h0c0-.44,0-.89,0-1.33a27.17,27.17,0,0,1,7.64,1.88C538.39,818,540.5,821.61,542.5,825.28Z"/><path class="cls-2" d="M535.08,812.65q.57.9,1.11,1.8a27.17,27.17,0,0,0-7.64-1.88c0-.85-.06-1.69-.09-2.54-1.12.07,1-1.58,2.75-1.12S534.08,811.06,535.08,812.65Z"/><path class="cls-2" d="M531.31,820.9c-2.7.2-1.08,3.51,1.25,4.66s5,.76,7.56.24c.8-.16,1.59-.34,2.38-.52a248.54,248.54,0,0,1,20.1,48.13c.46,1.52.88,3.25.17,4.64a5.46,5.46,0,0,1-2.58,2.16l-25.64,13.45q-4.56-39.72-6-79.75A71.91,71.91,0,0,1,531.31,820.9Z"/><path d="M528.55,812.57c0,.44,0,.89,0,1.33-.22-.46-.44-.92-.68-1.38A4.6,4.6,0,0,1,528.55,812.57Z"/><path d="M528.55,812.57a4.6,4.6,0,0,0-.64-.05,31.4,31.4,0,0,0-2.44-4s0-.07,0-.1l0,0A528,528,0,0,1,581,777.1a7.8,7.8,0,0,1,3.73-1.08c1.69.11,3.13,1.31,4.45,2.46l10.63,9.24a2.7,2.7,0,0,1,1.15,1.75,2.75,2.75,0,0,1-1,1.92c-1.42,1.54-2.88,3.05-4.37,4.51a113.28,113.28,0,0,1-46,27.49,43.69,43.69,0,0,0-13.4-8.94q-.54-.9-1.11-1.8c-1-1.59-2.16-3.27-3.87-3.74s-3.87,1.19-2.75,1.12C528.49,810.88,528.51,811.72,528.55,812.57Z"/><path class="cls-2" d="M523.94,822.12c.52-3.21.79-6.47,1.06-9.3,2.69,23.24-.6,51.7-7.84,78.92l-28-7c-1.42-.36-3.12-1-3.37-2.58a4.31,4.31,0,0,1,.5-2.37,309.9,309.9,0,0,1,32.22-58.34Z"/><path d="M525.49,808.46s0,.07,0,.1l-.06-.09,0,0Z"/><path d="M427.47,804.72a15.09,15.09,0,0,1,.5-3,46.72,46.72,0,0,1,10.1-19.31c29.78,3.55,59.44,12.61,87.38,26l0,0,.06.09c-.17,1.15-.3,2.47-.44,3.91l-.53,0c-7,.46-12.44,3.7-17.25,7.74l-70-7.9c-3.88-.44-8.64-1.66-9.59-5.81A6.86,6.86,0,0,1,427.47,804.72Z"/><path d="M507.25,820.24c4.81-4,10.27-7.28,17.25-7.74l.53,0,0,.35,0-.23c-2.22,2.92-4.4,5.9-6.51,8.91Z"/><path class="cls-2" d="M518.46,821.5c2.11-3,4.29-6,6.51-8.91l0,.23c-.27,2.83-.54,6.09-1.06,9.3Z"/><path class="cls-4" d="M525,812.82l0-.23c-2.22,2.92-4.4,5.9-6.51,8.91a309.9,309.9,0,0,0-32.22,58.34,4.31,4.31,0,0,0-.5,2.37c.25,1.57,1.95,2.22,3.37,2.58l28,7C524.4,864.52,527.69,836.06,525,812.82Z"/><path class="cls-4" d="M528.59,813.91q1.38,40,6,79.75l25.64-13.45a5.46,5.46,0,0,0,2.58-2.16c.71-1.39.29-3.12-.17-4.64a248.54,248.54,0,0,0-20.1-48.13c-2-3.67-4.11-7.29-6.31-10.83q-.54-.9-1.11-1.8c-1-1.59-2.16-3.27-3.87-3.74s-3.87,1.19-2.75,1.12c0,.85,0,1.69.09,2.54,0,.44,0,.89,0,1.33"/><path class="cls-4" d="M507.25,820.24c-2.37,2-4.59,4.14-6.75,6.26-4.93,4.84-18.13,17.76-20,39-.36,4-2.31,26.2,14,43,3,3.11,14.68,14.73,33,15,4,.06,18.28-.29,30-11,11.23-10.26,13-23.53,14-31,.34-2.58,3.6-30.38-16-52-1.52-1.67-3.5-3.86-5.91-6.11a43.69,43.69,0,0,0-13.4-8.94,27.17,27.17,0,0,0-7.64-1.88,4.6,4.6,0,0,0-.64-.05,22.94,22.94,0,0,0-2.88,0l-.53,0C517.52,813,512.06,816.2,507.25,820.24Z"/><path class="cls-4" d="M430.54,802.39c-1,.79-2,1.57-3.07,2.33-14.94,11.08-31.16,19.29-47.28,27.45L339,853"/><path class="cls-5" d="M593,793c.86,1,1.73,2,2.62,2.9,22.53,24,53.71,33.82,83.47,42.76"/><path class="cls-4" d="M338.67,853a65.64,65.64,0,0,1-33.94-11.8c-2.47,6.45-5,13.62-2.92,20.25,1.14,3.7,3.6,6.73,6.16,9.47.22.23.7.77,1.43,1.53,4.52,4.67,8.27,5.35,8.15,6.91-.09,1.17-2.24,1.87-3.05,2.15-7.17,2.53-15,10.35-15.64,15.43-.95,7.87,15.37,10.18,16.64,20.57,1.18,9.6-12,13.54-11.16,24.67.4,5.17,4,9.06,11.11,17,9,10,11.94,8.66,16.8,15.4,8.83,12.23,2.35,21.16,9.86,27.22,7.77,6.29,16-2.28,28.67,3.7,11.41,5.38,9.91,14.69,19.85,17.45,10.77,3,15.53-7.1,26.68-4.47,12,2.84,12,15.82,22.3,17.13,11.94,1.52,21.2-14.8,27.66-11.22,3.69,2.05,1.78,8,6.73,11.68,3.47,2.58,8,2.38,13.31,1.41,21.32-3.92,25-15,37-14.2,12.18.8,14.13,12.67,24.42,11.37,10.81-1.37,12.54-15,22.57-15.3,9.53-.32,13,11.78,21,10.26,6.52-1.23,6.43-7.93,17.9-15.78,5.3-3.63,11.12-7.62,18.33-7.29,11.27.51,15.18,11,23,9,4.87-1.28,7.7-6.51,9.49-9.82,4.82-8.91,1.71-14.79,5.51-17.18,5.12-3.22,12.72,6.22,19,3,4.81-2.46,5.59-10.68,6-15,.93-9.81-2.67-14.38,0-17,3.63-3.56,11.87,3.32,16,0,5.4-4.35-5.31-18.89,1-28,4.94-7.13,15.22-3.57,18-10,3.13-7.24-8.49-15-5-23.79,1.59-4.07,4.25-2.87,9-8.6,8.38-10.1,7.27-22.49,7-24.61-.48-4.5-.92-8.51-4-11-5.21-4.2-12.6.3-15-3-2.26-3.11,3.66-8,5-18,1-7.73-.76-17.74-5-19s-6.86,7.09-19,15A88.48,88.48,0,0,1,680,838l-.32.92c-1.4,4.15-7,21.44-7.18,32.58-.09,7.12-1.18,51.64-24,82-11.11,14.79-24.74,22.65-29.88,25.55-15.21,8.58-28.84,11-39.76,12.69-45,7-90.74,9.2-136,4.87-17.7-1.69-35.91-4.59-51-14.81-26.45-17.87-37.31-53.32-46.25-85.92C337.89,875.77,335.86,864.05,338.67,853Z"/><path class="cls-6" d="M340.5,898.5a54.39,54.39,0,0,1-29-3"/><path class="cls-6" d="M346,927a77.09,77.09,0,0,1-24.5,6.5"/><path class="cls-6" d="M349.5,930.5A89,89,0,0,1,335,943c-1.87,1.29-3.71,2.45-5.5,3.5"/><path class="cls-6" d="M677.5,872.5a70,70,0,0,0,44-9"/><path class="cls-6" d="M678.5,902.5a48.88,48.88,0,0,0,27,5"/><path class="cls-6" d="M652.5,959.5A92.85,92.85,0,0,0,661,967a91.11,91.11,0,0,0,9.5,6.5"/><path class="cls-6" d="M361.5,977.5q7.94-6.12,8.5-5.5.75.82-11.5,13.5"/></svg>