<svg
  id="图层_2"
  data-name="图层 2"
  xmlns="http://www.w3.org/2000/svg"
  viewBox="0 0 1000 1000"
>
  <defs>
    <style>
      .cls-1 {
        fill: #f0cdd2;
        stroke: #000;
        stroke-miterlimit: 10;
        stroke-width: 4px;
      }
    </style>
  </defs>
  <path
    class="cls-1"
    d="M766.06,958.53c-16.56-39.62-27.18-65-42.74-85.12-16.91-21.83-37.62-32-43.77-35.35A174.06,174.06,0,0,0,617.26,818c-11.36,11.87-38.69,36.9-80.43,44-23.3,4-41.92.78-51.83-1-39-7-66.49-26.2-80.78-38a215.57,215.57,0,0,0-76.39,26.84c-28.89,17-45.42,36.31-55.43,48.23-32.27,38.45-45.41,79.6-54.32,107.49-1.82,5.71-3.19,10.45-4.08,13.62a469.23,469.23,0,0,0,55.87,32.19c22,10.7,80.28,36.79,203.36,42.29,106.68,4.77,180.5,7,267.77-42.29a417.72,417.72,0,0,0,48-31.72C784,1004.73,776.43,983.35,766.06,958.53Z"
  />
  <path
    class="cls-1"
    d="M522.39,861.59C514,850.67,503,841.8,490.77,835c-13.22-7.38-27.53-12.53-41.75-17.78-7.07-2.61-14.15-5.23-21-8.3-3.67-1.64,16.09-17.75,13-23.92-1-2-23.67-6.39-34-13-8.86-5.67-20-10.32-30.15-7.94-18.68,4.38-37.28,22-36.48,41.48A31.36,31.36,0,0,0,345.81,822c-9.76,3.56-18.59,9.86-22.85,19.08-3,6.5-4.18,13.84-2.08,20.79,2.26,7.51,8,12.84,14.47,17.24a120,120,0,0,0,42.09,17.75C415.89,905,443.88,907,443.88,907c50.22,3.65,75.49,5.23,83.1-6.45C536.05,886.61,524,863.63,522.39,861.59Z"
  />
  <path class="cls-1" d="M349.22,827.66a121.33,121.33,0,0,0,50,39.66" />
  <path
    class="cls-1"
    d="M469,889.75c-.21-1.81-1-3.78-2.81-4.52a5.05,5.05,0,0,0-4.49.41,3.42,3.42,0,0,0-1.55,2.24,1.28,1.28,0,0,0-.8.91,377.15,377.15,0,0,0-11.13,66.32,366.76,366.76,0,0,0,.92,67.58c.5,4.61.76,9.81,3.85,13.55,2.42,2.93,7.15,4.67,10.5,2.22,1-.76.75-1.49.58-2.65-.22-1.45-.43-2.9-.64-4.34q-.63-4.31-1.16-8.62-1-8.33-1.66-16.7a377.06,377.06,0,0,1,.79-67.78q1.72-16.79,5-33.36c.55-2.79,1.12-5.57,1.73-8.34C468.58,894.42,469.24,892.08,469,889.75Z"
  />
  <path
    class="cls-1"
    d="M693.82,823.8c7.73-14.17,4.68-32.9-6.33-45-12.75-14-38.83-18.86-54-13.49C623,769,588.85,770.78,590,780c1,8,8,28,16,35,4.12,3.61-1.93,6.86-6.79,9.22-6.43,3.12-12.84,6.3-19.25,9.44-10.48,5.15-21.24,9.89-30.23,17.62-8.8,7.58-15.68,19-16.42,30.91A21.65,21.65,0,0,0,536.59,895a5.41,5.41,0,0,0,.81,1.26A21.2,21.2,0,0,0,543,901a15.89,15.89,0,0,0,4.52,1.83,23.93,23.93,0,0,0,6.11,2,31,31,0,0,0,4.95,1.59c12.58,4.5,27.91,4.62,39.61,4.63a151.2,151.2,0,0,0,61.37-12.54c17-7.55,36.62-19.46,44-37.93C709,847,705,831.5,693.82,823.8Z"
  />
  <path
    class="cls-1"
    d="M596.87,921.08C595.44,910,593,899.14,590.8,888.2c-.53-2.68-3.71-4.21-6.2-3.53-2.84.78-4,3.51-3.52,6.21,1.57,9.19,2.25,18.48,3.06,27.77.83,9.44,1.64,18.88,2.06,28.36a499.72,499.72,0,0,1-.62,56.88c-.36,5.22-.84,10.42-1.36,15.63-.27,2.76-.58,5.52-.9,8.27-.35,2.9-.82,5.76-.06,8.62,1.14,4.31,6.92,4.77,9.19,1.2,2.57-4,2.67-9.89,3.33-14.55q1.05-7.37,1.82-14.77,1.5-14.41,1.93-28.9A370.13,370.13,0,0,0,596.87,921.08Z"
  />
</svg>
