<svg
  id="图层_2"
  data-name="图层 2"
  xmlns="http://www.w3.org/2000/svg"
  viewBox="0 0 1000 1000"
>
  <path
    d="M661.84,370.76c-5-3.07-10.75-3.79-16.35-4.13-4.86-.29-9.71-.6-14.58-.75-9.7-.31-19.71.22-29.16,5.38-3.18,1.74-1.46,8.2,1.72,6.46,8.78-4.8,18.22-5.08,27.22-4.75,9.58.35,20.09-.36,28.88,4.37C662.55,379,664.75,372.53,661.84,370.76Z"
  />
  <path
    d="M446.53,379.08c4.79-3.44,10.43-4.6,16-5.37,4.82-.67,9.63-1.35,14.47-1.87,9.65-1.06,19.67-1.3,29.49,3.12,3.31,1.49,2.09,8.06-1.22,6.57-9.12-4.11-18.55-3.66-27.5-2.64-9.53,1.08-20.06,1.18-28.45,6.58C446.45,387.31,443.77,381.07,446.53,379.08Z"
  />
</svg>
