<svg
  id="图层_2"
  data-name="图层 2"
  xmlns="http://www.w3.org/2000/svg"
  viewBox="0 0 1000 1000"
>
  <style>
    .cls-1 {
      fill: #000;
      stroke: #000;
      stroke-miterlimit: 10;
      stroke-width: 2px;
    }
  </style>
  <path
    class="cls-1"
    d="M588.94,385.44c-2.89,4.77-3.21,7.92-5.52,12.83A430.26,430.26,0,0,1,648.94,386c11.15-1.17,21-1.71,33.15.54a100.06,100.06,0,0,1,28.74,10.12,55,55,0,0,0-6.41-23.26,15.61,15.61,0,0,0-4.73-5.86c-2.7-1.79-6.11-2-9.34-2.07C656.57,364.59,619.48,372.17,588.94,385.44Z"
  />
  <path
    class="cls-1"
    d="M518.31,385.44c2.89,4.77,3.21,7.92,5.52,12.83A430.26,430.26,0,0,0,458.31,386c-11.16-1.17-21-1.71-33.15.54a100,100,0,0,0-28.74,10.12,55,55,0,0,1,6.41-23.26,15.61,15.61,0,0,1,4.73-5.86c2.7-1.79,6.11-2,9.34-2.07C450.68,364.59,487.77,372.17,518.31,385.44Z"
  />
</svg>
