<svg id="图层_2" data-name="图层 2" xmlns="http://www.w3.org/2000/svg" viewBox="0 0 1000 1000"><path d="M640.08,355.1a62.89,62.89,0,0,0-30.81,9c-2,1.22-4.08,2.71-4.83,4.94a6.94,6.94,0,0,0,2.17,7,12.87,12.87,0,0,0,7.06,2.94c9.46,1.31,18.77-3.2,28.32-3.46A32.29,32.29,0,0,1,662.08,382a19.55,19.55,0,0,0,4.84,3.15c4.17,1.52,9.13-1.2,10.85-5.3s.61-9-2-12.58-6.54-6-10.62-7.8C657,356,647.91,354.91,640.08,355.1Z"/><path d="M455.45,360.83c-7.79.9-15.06,4.33-21.91,8.15-4.29,2.41-8.63,5.12-11.33,9.23s-3.32,10-.19,13.78c3.62,4.4,10.62,4.26,15.76,1.79s9.2-6.7,14-9.79a36.31,36.31,0,0,1,31.05-3.69c2.9,1,6,2.42,8.91,1.46,3.82-1.25,5.33-6.3,3.88-10s-5-6.26-8.71-7.86C477.06,359.58,465.79,359.64,455.45,360.83Z"/></svg>