<svg
  id="图层_2"
  data-name="图层 2"
  xmlns="http://www.w3.org/2000/svg"
  viewBox="0 0 1000 1000"
>
  <style>
    .cls-1 {
      fill: #000;
      stroke: #000;
      stroke-miterlimit: 10;
      stroke-width: 2px;
    }
  </style>
  <path
    class="cls-1"
    d="M638.08,374.1c-21.06.59-25.79,1.68-30.08,4.9-1.84,1.38-5.72,4.39-6,9a10,10,0,0,0,2.61,7.11c2.32,2.39,5.45,2.77,7.06,2.94,11.16,1.18,24.25.18,27.33-.05,12.09-.9,25.94-.37,31-1,4.18-.52,7.11-.88,9-3,2.75-3.09,2.54-9.11,0-13-3.75-5.74-12.2-6.24-25-7C650.21,373.78,646.11,373.88,638.08,374.1Z"
  />
  <path
    class="cls-1"
    d="M476.9,375.1c21.06.59,25.79,1.68,30.08,4.9,1.83,1.38,5.72,4.39,6,9a10,10,0,0,1-2.61,7.11,11.1,11.1,0,0,1-7.06,2.94c-11.16,1.18-24.26.18-27.33-.05-12.09-.9-26-.37-31-1-4.18-.52-7.12-.88-9-3-2.75-3.09-2.54-9.11,0-13,3.75-5.74,12.2-6.24,25-7C464.77,374.78,468.86,374.88,476.9,375.1Z"
  />
</svg>
