<svg
  id="图层_2"
  data-name="图层 2"
  xmlns="http://www.w3.org/2000/svg"
  viewBox="0 0 1000 1000"
>
  <style>
    .cls-1 {
      fill: #000;
      stroke: #000;
      stroke-miterlimit: 10;
      stroke-width: 2px;
    }
  </style>
  <path
    class="cls-1"
    d="M711.52,382.18c-39.43-11.17-81.67-10.91-123.41,1.41A14.2,14.2,0,0,0,584,391a13.72,13.72,0,0,0,.08,5.65A453.81,453.81,0,0,1,713.51,392C713.79,390,712.53,382.47,711.52,382.18Z"
  />
  <path
    class="cls-1"
    d="M387.15,393.69c46.7-18.13,75.75-21.53,132.09-10.41A11.36,11.36,0,0,1,524,390a11.2,11.2,0,0,1-.9,7.56c-82.47-8.85-94.87-1.22-141.35,12.44a36.5,36.5,0,0,1,1.25-7A35.68,35.68,0,0,1,387.15,393.69Z"
  />
</svg>
