<svg id="图层_2" data-name="图层 2" xmlns="http://www.w3.org/2000/svg" xmlns:xlink="http://www.w3.org/1999/xlink" viewBox="0 0 1000 1000"><defs><style>.cls-1,.cls-10,.cls-13,.cls-17,.cls-20{fill:none;}.cls-2{clip-path:url(#clip-path);}.cls-3{fill:#f6ebfc;}.cls-4{fill:#fffaff;}.cls-5{clip-path:url(#clip-path-2);}.cls-6,.cls-7{fill:#85c478;}.cls-7{opacity:0.4;font-size:60px;font-family:Krungthep;}.cls-8{fill:#fd8;stroke:#120d0d;}.cls-10,.cls-13,.cls-14,.cls-15,.cls-16,.cls-17,.cls-21,.cls-22,.cls-8,.cls-9{stroke-miterlimit:10;}.cls-13,.cls-14,.cls-15,.cls-20,.cls-21,.cls-22,.cls-8,.cls-9{stroke-width:4px;}.cls-9{fill:#efdabf;}.cls-10,.cls-13,.cls-14,.cls-15,.cls-16,.cls-17,.cls-20,.cls-21,.cls-22,.cls-9{stroke:#000;}.cls-10,.cls-13,.cls-14,.cls-17,.cls-21{stroke-linecap:round;}.cls-10{stroke-width:3px;}.cls-11,.cls-21{fill:#fff;}.cls-12{fill:#f9bca2;}.cls-15{fill:#ffd15c;}.cls-16{fill:#ffa617;}.cls-16,.cls-17{stroke-width:2px;}.cls-18{fill:#a84e45;}.cls-19{fill:#ff8271;}.cls-20{stroke-linejoin:round;}.cls-22{fill:#dcf8ff;}.cls-23{fill:#efacac;}</style><clipPath id="clip-path"><rect class="cls-1" y="-1" width="1000" height="1000"/></clipPath><clipPath id="clip-path-2"><rect class="cls-1" x="-33" y="1431" width="1000" height="1000"/></clipPath></defs><g class="cls-2"><rect class="cls-3" y="-1" width="1000" height="1000"/><rect class="cls-4" x="68" y="-330" width="161" height="899" transform="translate(118.56 -68.75) rotate(42.14)"/><rect class="cls-4" x="267.25" y="-395.48" width="161" height="1416.92" transform="translate(299.88 -152.42) rotate(42.14)"/><rect class="cls-4" x="465.75" y="-196.98" width="161" height="1416.92" transform="translate(484.38 -234.29) rotate(42.14)"/><rect class="cls-4" x="672.25" y="9.52" width="161" height="1416.92" transform="translate(676.3 -319.46) rotate(42.14)"/><rect class="cls-4" x="876.75" y="214.02" width="161" height="1416.92" transform="translate(866.38 -403.81) rotate(42.14)"/></g><g class="cls-5"><path class="cls-6" d="M924.74,891h10.53a9.63,9.63,0,0,1,7.39,3.4,11.65,11.65,0,0,1,3.09,8.11v28.85a11.64,11.64,0,0,1-3.09,8.09,9.62,9.62,0,0,1-7.39,3.42H924.74a9.68,9.68,0,0,1-7.4-3.39,11.68,11.68,0,0,1-3.08-8.12V902.46a11.66,11.66,0,0,1,3.08-8.12A9.68,9.68,0,0,1,924.74,891Zm10.43,10.53q-1.08-4.76-5.17-4.75a4.85,4.85,0,0,0-3.71,1.69,5.72,5.72,0,0,0-1.55,4v19.61ZM924.86,932.2a6.15,6.15,0,0,0,1.69,3.62A4.79,4.79,0,0,0,930,937a4.85,4.85,0,0,0,3.73-1.7,5.8,5.8,0,0,0,1.54-4V911.72Z"/><path class="cls-6" d="M924.74,960.11h10.53a9.64,9.64,0,0,1,7.39,3.41,11.65,11.65,0,0,1,3.09,8.1v28.86a11.66,11.66,0,0,1-3.09,8.09,9.62,9.62,0,0,1-7.39,3.42H924.74a9.68,9.68,0,0,1-7.4-3.39,11.68,11.68,0,0,1-3.08-8.12V971.62a11.65,11.65,0,0,1,3.08-8.11A9.69,9.69,0,0,1,924.74,960.11Zm10.43,10.54q-1.08-4.75-5.17-4.75a4.85,4.85,0,0,0-3.71,1.69,5.72,5.72,0,0,0-1.55,4v19.62Zm-10.31,30.72a6.15,6.15,0,0,0,1.69,3.62,5.18,5.18,0,0,0,7.18-.48,5.8,5.8,0,0,0,1.54-4V980.89Z"/><text class="cls-7" transform="translate(716.99 875.8) scale(0.91 1)">0<tspan x="0" y="60">1</tspan><tspan x="0" y="120">1</tspan><tspan x="0" y="180">1</tspan><tspan x="0" y="240">0</tspan><tspan x="0" y="300">0</tspan><tspan x="0" y="360">0</tspan><tspan x="0" y="420">1</tspan><tspan x="0" y="480">1</tspan><tspan x="0" y="540">0</tspan><tspan x="0" y="600">1</tspan><tspan x="0" y="660">0</tspan><tspan x="0" y="720">1</tspan></text></g><path class="cls-8" d="M583,167c8.29-31.83-10.55-65.85-38.82-85.51S480,54.26,444.81,50.94c-75.46-7.1-155.56,4.62-216.88,46-46.61,31.44-79.28,77.65-104.27,125.77-22.27,42.89-39.43,88.86-41.87,136.39S92.82,456,126,492.34c8.82,9.65,19.33,19,22.23,31.34,5,21.12-20.49,42.68-42.76,36.22,12.37,3.85,25.56,7.54,38.26,4.8s24.08-14.47,20.84-26.17c11.19,27.73,11.34,60.23-4.71,85.82s-49.95,42.06-81,35.1c54.44,21.55,124.33.93,155.29-45.82,15.19-23,21.26-50,24.82-76.77,2.7-20.24,4.07-41.07-1.59-60.79-4.81-16.77-14.52-32-20-48.62s-6.06-36.26,5.86-49.65a49.86,49.86,0,0,0-1.45,32c7.87-27.4,15.84-55.05,29.88-80.24s34.87-48.08,62.52-60.24c11.51-5.06,24.19-8.2,36.93-7.71,20.32.78,38.76,10.49,57.57,17.67,25.21,9.63,53.76,14.89,79.73,7.19,25.71-7.62,45.75-27.23,58-49.51S577.28,189.14,583,167Z"/><path class="cls-9" d="M714.41,881.51c-5.45-14-19-23.32-32.91-28.92s-28.91-8.37-42.78-14.16c-15.22-6.35-29.14-16.56-38.09-30.42a85.47,85.47,0,0,1-11.11-27.53,116.36,116.36,0,0,1,.83-54.78c-20-17.71-46.5-27.19-73.14-27.49A121,121,0,0,0,442.78,723c10.43,25.3,5.43,55.48-9.75,78.25S393.5,839.76,367.56,847c-6.81,6.91-17.13,9.26-24.36,15.73-5.49,4.91-8.75,11.78-10.34,18.48l-11,12.07c19.5,16.39,45.26,23,70.3,27.58a653.9,653.9,0,0,0,231.22,1c20.25-3.56,40.4-8.09,59.72-15.13C696.71,901.71,711.16,894.13,714.41,881.51Z"/><path class="cls-9" d="M735.15,409.44c-.25,40.87-8.58,45.17-7.45,93.15,1.77,74.35,11.79,89.82,2.13,124.21-15.42,54.89-96,98.35-152.56,111.24-23.4,5.33-115.36,1.41-183.93-43.59-55.82-36.63-80-86.71-98.34-168.82-20.72-93-36-161.65,6.38-230.39,47.56-77.11,143.35-114.78,226.45-113.19,23.42.45,101.27,1.94,154.16,55.1C735.87,291.3,735.38,370.47,735.15,409.44Z"/><path class="cls-10" d="M463.78,432.59c10.65-1.73,21.94-1.55,31.79,2.86s18,13.67,18.88,24.42"/><path class="cls-10" d="M587,458a59.85,59.85,0,0,1,70.25-25.48"/><path class="cls-11" d="M512.47,484c1-19.15-12.17-28.48-28.11-36.15s-35.86-7.48-51.78.21a52.28,52.28,0,0,0-29.64,41.31c3.2,9.33,11.43,16.66,20.87,21s19.64,8,30.13,8.68a85.46,85.46,0,0,0,37.55-6.63C503,507.56,512,494.18,512.47,484Z"/><path d="M406.25,486.62c-1.22-9.06,9.69-26.32,21.77-33.47,14.65-8.67,32.61-12.35,49.09-8.09s31,17.05,35.36,33c-1-12.76-8.87-24.47-19.59-31.47s-24-9.52-36.74-8.49a64.26,64.26,0,0,0-33.09,12,52,52,0,0,0-19.65,28.91c-.36,1.48-.86,3.41-.49,4.88s.63,2.93,2.12,3.19C405,487.13,406.1,487.13,406.25,486.62Z"/><path d="M402.42,483.58a89.82,89.82,0,0,0-22.18-2.13,34.75,34.75,0,0,0,23,12.23,2.1,2.1,0,0,0,1.36-.18,2.18,2.18,0,0,0,.74-1.32,11.12,11.12,0,0,0,.56-5.43C405.48,485,403.81,483.32,402.42,483.58Z"/><circle cx="471.32" cy="478.93" r="36.72"/><path class="cls-11" d="M437.79,492.28a137.34,137.34,0,0,1,29.3-7.69L447.26,507.3a2.1,2.1,0,0,1-1,.74,2,2,0,0,1-1.21-.17,18.41,18.41,0,0,1-8.93-7.26,7.93,7.93,0,0,1-1.51-5.26C434.92,493.51,436.56,491.78,437.79,492.28Z"/><path class="cls-11" d="M689.53,470.83c-9.51-19.93-32.21-32.5-54.23-30.94S596.16,459.37,589,473.31c.21,13.83,2.13,18.08,10,28.3,7.18,9.29,32.5,20.61,57.74,16.1,13-2.32,22-11.6,29.56-22.39C687.83,493.12,692.59,477.25,689.53,470.83Z"/><circle cx="651.8" cy="479.43" r="36.72"/><path class="cls-11" d="M618.27,493.34a137.93,137.93,0,0,1,29.3-7.69l-19.83,22.72a2.08,2.08,0,0,1-1,.73,2,2,0,0,1-1.21-.17,18.41,18.41,0,0,1-8.93-7.26,7.92,7.92,0,0,1-1.51-5.25C615.4,494.57,617,492.85,618.27,493.34Z"/><path d="M693,486.94c3.32-12.57-3.84-23.33-11.56-31.7s-18.79-13.57-29.71-15.39-22.2-.46-32.79,2.93c-7.07,2.27-14,5.49-19.66,10.49s-10,11.93-10.35,20c4.35-9.91,12.4-17.72,21.65-22.61s19.65-7,30-7.35a52.62,52.62,0,0,1,12.17,1.29c8.22,1.59,15.85,6.12,22.33,11.69,8.72,7.49,15.18,17.9,14.88,29.77,0,.82.95,1.46,1.56,2s1.8-.34,1.6-1.1C693.16,486.9,693.19,486.86,693,486.94Z"/><path d="M693.94,479l13.9-5.66c.65,1.46-.44,3-1.56,4.3A74.17,74.17,0,0,1,699,485c-2.18,1.92-5.48,4-8.68,3a10.1,10.1,0,0,1,.06-5.32A7.74,7.74,0,0,1,693.94,479Z"/><path class="cls-12" d="M558.4,511.68a155,155,0,0,0-59.27,22.56,8.14,8.14,0,0,0-3.37,3.28c-1.73,4,3.06,7.58,7.16,9,20.45,6.92,42.75,3.94,64.12.89l55.9-8a174.34,174.34,0,0,0-66.68-26.62"/><path class="cls-9" d="M304.78,451.58c-8-6.28-18.14-10-28.16-8.93a42.54,42.54,0,0,0-16,5.34c-24.44,13.47-36.86,45.23-30.36,72.82s30.14,49.51,57.22,55.8c8.36,1.94,17.26,2.51,25.38-.32,7.29-2.53,13.48-7.65,18.82-13.33"/><path class="cls-13" d="M252.9,496.11a219.11,219.11,0,0,1,57.85,15"/><path class="cls-13" d="M282,502.18q-2.55,18.42-3.74,37"/><path d="M640.08,355.1a62.89,62.89,0,0,0-30.81,9c-2,1.22-4.08,2.71-4.83,4.94a6.94,6.94,0,0,0,2.17,7,12.87,12.87,0,0,0,7.06,2.94c9.46,1.31,18.77-3.2,28.32-3.46A32.29,32.29,0,0,1,662.08,382a19.55,19.55,0,0,0,4.84,3.15c4.17,1.52,9.13-1.2,10.85-5.3s.61-9-2-12.58-6.54-6-10.62-7.8C657,356,647.91,354.91,640.08,355.1Z"/><path d="M455.45,360.83c-7.79.9-15.06,4.33-21.91,8.15-4.29,2.41-8.63,5.12-11.33,9.23s-3.32,10-.19,13.78c3.62,4.4,10.62,4.26,15.76,1.79s9.2-6.7,14-9.79a36.31,36.31,0,0,1,31.05-3.69c2.9,1,6,2.42,8.91,1.46,3.82-1.25,5.33-6.3,3.88-10s-5-6.26-8.71-7.86C477.06,359.58,465.79,359.64,455.45,360.83Z"/><ellipse class="cls-13" cx="474.13" cy="499.7" rx="82.98" ry="78.58"/><ellipse class="cls-13" cx="674.03" cy="499.7" rx="82.98" ry="78.58"/><path class="cls-14" d="M557,501.21c2.9-5.39,11.29-7.59,17-7.21,10.7.71,10.44,2.53,14,5,1.69,1.18,2.35,3.6,2.87,5.71s-.6,4.81-2.58,5c-1.26.12-2.39-.72-3.47-1.43a22,22,0,0,0-23.51-.36c-1.73,1.07-3.89,2.39-5.51,1.14-1.19-.93-.69-4.57-.71-4.35C555,505.62,557.27,500.77,557,501.21Z"/><path class="cls-14" d="M389,494.12A52,52,0,0,0,370,495.27c-3.06.76-6.16,1.87-8.45,4.05s-3.57,5.65-2.41,8.59c1.42,3.59,6.07,5.09,9.77,4s6.6-4,10.34-4.13c3-.07,6.31,1.73,8.86.13,1.52-.95,2.18-2.8,2.6-4.55a11.63,11.63,0,0,0,.09-6.43C390.11,494.86,388.1,493.12,389,494.12Z"/><path class="cls-14" d="M761.29,488.32c4-1.57,5.09-1.66,9.44-1.27a11.57,11.57,0,0,1,6.33,2.15,8.3,8.3,0,0,1,3.18,6.84,5.12,5.12,0,0,1-5.73,4.76c-2.56-.37-5.1-2.42-7.59-1.95-2,.37-3.85,2.36-5.83,1.39-1.18-.57-2-2-2.55-3.42a12.42,12.42,0,0,1-1.25-5.37C757.39,489.62,761.67,487.35,761.29,488.32Z"/><path class="cls-13" d="M358.8,503.81c-24-14.84-48.08-29.67-71.34-45.78h-5.63"/><path class="cls-13" d="M573.63,544.73c9.75-.38,20.91.65,26.84,8.4,5.12,6.7,4.32,16.61-.14,23.76s-11.89,11.94-19.56,15.42"/><path class="cls-15" d="M276.39,607.73c-7.86,1.29-14.57-6.77-15.53-14.68a24.85,24.85,0,1,1,49.19,1A41.78,41.78,0,0,0,334.5,582c6.51,16.8-.1,37.7-15.09,47.69-8.91,6-20.83,8-30.55,3.52S272.79,616.87,276.39,607.73Z"/><path class="cls-16" d="M268.83,594a18.71,18.71,0,0,0-5.37,4.75c-1.34,2-1.82,4.78-.51,6.8,2.26,3.53,8,2.37,10.88-.68s4.22-7.27,6.78-10.75A80,80,0,0,0,268.83,594Z"/><path class="cls-17" d="M312.71,599.09l12.34-6.81a9.32,9.32,0,0,1-1.18,7.41,21.38,21.38,0,0,1-5.29,5.57,9,9,0,0,1,3.61-2.53c1.43-.4,3.24.14,3.74,1.54.43,1.2-.24,2.52-1,3.53a14.49,14.49,0,0,1-8,5.21l1.51.28c.42,2.3-1.2,4.58-3.26,5.69a16.72,16.72,0,0,1-6.8,1.48"/><path class="cls-17" d="M280.77,585.4l.86,5.52C281.54,590.68,281.45,590.45,280.77,585.4Z"/><path class="cls-17" d="M266.55,587.57l.88,4.24c0,.17.11.37.28.38S267.81,591.83,266.55,587.57Z"/><path class="cls-18" d="M624.82,623.4a72.37,72.37,0,0,1-17,33l-.91-2c-27.37-13.75-61.52-13.47-88.71.54-4.66-6.08-8.79-13.14-13.57-20.92A1018.45,1018.45,0,0,0,624.82,623.4Z"/><path class="cls-19" d="M606.88,654.36l.91,2a63.67,63.67,0,0,1-20.58,15.17c-19.38,8.86-44.11,6.61-60.24-7.19a61.43,61.43,0,0,1-8.8-9.46C545.36,640.89,579.51,640.61,606.88,654.36Z"/><path class="cls-20" d="M518.17,654.9c-4.66-6.08-8.79-13.14-13.57-20.92A1018.45,1018.45,0,0,0,624.82,623.4a72.37,72.37,0,0,1-17,33,63.67,63.67,0,0,1-20.58,15.17c-19.38,8.86-44.11,6.61-60.24-7.19A61.43,61.43,0,0,1,518.17,654.9Z"/><path class="cls-20" d="M518,655l.21-.11c27.19-14,61.34-14.29,88.71-.54"/><path class="cls-21" d="M766.06,958.53c-16.56-39.62-27.18-65-42.74-85.12-16.91-21.83-37.62-32-43.77-35.35A174.06,174.06,0,0,0,617.26,818c-11.36,11.87-38.69,36.9-80.43,44-23.3,4-41.92.78-51.83-1-39-7-66.49-26.2-80.78-38a215.57,215.57,0,0,0-76.39,26.84c-28.89,17-45.42,36.31-55.43,48.23-32.27,38.45-45.41,79.6-54.32,107.49-1.82,5.71-3.19,10.45-4.08,13.62a469.23,469.23,0,0,0,55.87,32.19c22,10.7,80.28,36.79,203.36,42.29,106.68,4.77,180.5,7,267.77-42.29a417.72,417.72,0,0,0,48-31.72C784,1004.73,776.43,983.35,766.06,958.53Z"/><path class="cls-22" d="M578.54,907.23q24.13-35.44,45.37-72.74c1.46-2.57,3-5.45,2.32-8.34-.52-2.38-2.39-4.18-4.17-5.84L596.6,796.59c-1.46-1.37-3.23-2.84-5.21-2.56a6.85,6.85,0,0,0-3.21,1.79C584.07,799.24,516.85,836,518,841,521,854,574,900.87,578.54,907.23Z"/><path class="cls-22" d="M390.78,820.66a107.6,107.6,0,0,0,34.81-33,715.29,715.29,0,0,0,91.07,49.95c-1.28,4.44-2.57,8.89-4.66,16.09a319.2,319.2,0,0,1-18.27,55.56c-.67,1.53-1.47,3.2-3,3.88-2.33,1-4.91-.68-6.88-2.31l-75.32-62.32c-4.81-4-9.73-8.09-12.86-13.5C392.88,830.14,391.67,824.42,390.78,820.66Z"/><path class="cls-8" d="M468,150c-31.58,8.66-94.61,25.94-147,83-16.35,17.81-53.43,58.19-59,117-1.39,14.69-3.65,42.25,11,72a120.94,120.94,0,0,0,32,40c3.74-20.22,13.36-56.18,41.39-89.71,35.19-42.11,79.72-54.54,114.48-67.44,26.69-9.89,102.46-15.74,130.91-13.44,25.8,2.08,43.59,3.49,61,10.37C655.9,303,675,311.24,690.91,326,737.55,369.1,724.68,438.63,738,440c14.06,1.45,50.62-73.8,28.93-144-9.53-30.83-27.47-51.61-42.57-69.09a258.85,258.85,0,0,0-89.2-66.5c-36-16.21-66-19.72-72.16-20.38C521.87,135.55,490.41,143.85,468,150Z"/><path class="cls-8" d="M365,352.71c-13.82,3.58-30.77,6.39-40.58-3.61-3.53-3.59-5.47-8.35-6.86-13.1-8.82-30.22,4.43-61,6-64.86,10-24.75,25.84-41.65,37.26-51.67"/><path class="cls-8" d="M711.77,340.92c15.87-1.67,28-12.31,32.32-23.81s2.44-23.77-.12-35.57c-3.36-15.5-8.07-31.39-20.41-44.12"/><path class="cls-8" d="M513.25,149.51c-17.18,2.44-35.72,5.22-57.45,15.66A158.35,158.35,0,0,0,392.89,220c-11.78,17.86-21.54,68.26-12.69,88.07,4.28,9.6,12.39,16.55,21.15,21.15,21.66,11.39,47.11,9.78,70.55,4.11s46.12-15.11,69.87-18.83a148.62,148.62,0,0,1,64.13,4.07c12.63,3.65,24.92,9,37.85,11s27.11.19,37.16-9c9-8.19,16.76-10.39,25.61-34.86,6.13-16.93,11.17-56.38-9.21-81.19-5.89-7.17-10.79-11.51-19.24-18-33.69-25.94-73.27-34.11-73.27-34.11A272.23,272.23,0,0,0,513.25,149.51Z"/><ellipse class="cls-23" cx="403" cy="579.5" rx="43" ry="25.5"/><ellipse class="cls-23" cx="711" cy="578.5" rx="43" ry="25.5"/></svg>