<svg id="图层_2" data-name="图层 2" xmlns="http://www.w3.org/2000/svg" xmlns:xlink="http://www.w3.org/1999/xlink" viewBox="0 0 1000 1000"><defs><style>.cls-1,.cls-14,.cls-18,.cls-23{fill:none;}.cls-2{clip-path:url(#clip-path);}.cls-3{fill:#fffaff;}.cls-4{clip-path:url(#clip-path-2);}.cls-5{fill:#2d2d2d;}.cls-6,.cls-7,.cls-8{fill:#85c478;}.cls-7{opacity:0.81;}.cls-7,.cls-8,.cls-9{font-size:60px;font-family:Krungthep;}.cls-10,.cls-8,.cls-9{opacity:0.4;}.cls-9{fill:#68d254;}.cls-11,.cls-13{fill:#fff3dc;}.cls-11,.cls-13,.cls-14,.cls-18,.cls-19,.cls-21,.cls-23{stroke:#000;stroke-width:4px;}.cls-11,.cls-13,.cls-14,.cls-19{stroke-miterlimit:10;}.cls-12{fill:#ffd6c0;}.cls-13,.cls-14,.cls-21,.cls-23{stroke-linecap:round;}.cls-15{fill:#fff;}.cls-16{fill:#a84e45;}.cls-17{fill:#ff8271;}.cls-18,.cls-21,.cls-23{stroke-linejoin:round;}.cls-19{fill:#6686bf;}.cls-20{fill:#0f0b0b;}.cls-21,.cls-22{fill:#8e806e;}</style><clipPath id="clip-path"><rect class="cls-1" x="36" y="-1430" width="1000" height="1000"/></clipPath><clipPath id="clip-path-2"><rect class="cls-1" x="3" y="2" width="1000" height="1000"/></clipPath></defs><g class="cls-2"><rect class="cls-3" x="912.75" y="-1214.98" width="161" height="1416.92" transform="translate(-83.1 -797.35) rotate(42.14)"/></g><g class="cls-4"><rect class="cls-5" x="2" y="2" width="1000" height="1000"/><path class="cls-6" d="M88.74,3.11H99.27a9.63,9.63,0,0,1,7.39,3.41,11.65,11.65,0,0,1,3.09,8.1V43.48a11.66,11.66,0,0,1-3.09,8.09A9.61,9.61,0,0,1,99.27,55H88.74a9.68,9.68,0,0,1-7.4-3.39,11.68,11.68,0,0,1-3.08-8.12V14.62a11.65,11.65,0,0,1,3.08-8.11A9.69,9.69,0,0,1,88.74,3.11ZM99.17,13.65Q98.09,8.9,94,8.9a4.85,4.85,0,0,0-3.71,1.69,5.76,5.76,0,0,0-1.55,4V34.24ZM88.86,44.37A6.15,6.15,0,0,0,90.55,48a5.18,5.18,0,0,0,7.18-.48,5.8,5.8,0,0,0,1.54-4V23.89Z"/><path class="cls-6" d="M88.74,72.28H99.27a9.63,9.63,0,0,1,7.39,3.41,11.65,11.65,0,0,1,3.09,8.1v28.86a11.66,11.66,0,0,1-3.09,8.09,9.61,9.61,0,0,1-7.39,3.42H88.74a9.68,9.68,0,0,1-7.4-3.39,11.68,11.68,0,0,1-3.08-8.12V83.79a11.68,11.68,0,0,1,3.08-8.12A9.68,9.68,0,0,1,88.74,72.28ZM99.17,82.82Q98.09,78.07,94,78.07a4.87,4.87,0,0,0-3.71,1.68,5.8,5.8,0,0,0-1.55,4v19.62ZM88.86,113.54a6.18,6.18,0,0,0,1.69,3.62,5.18,5.18,0,0,0,7.18-.48,5.8,5.8,0,0,0,1.54-4V93.06Z"/><path class="cls-6" d="M88.74,193.33V153H83.47v-5.73L94,141.45h5.24v51.88Z"/><path class="cls-6" d="M88.74,262.5V222.13H83.47V216.4L94,210.62h5.24V262.5Z"/><path class="cls-6" d="M88.74,279.79H99.27a9.62,9.62,0,0,1,7.39,3.4,11.67,11.67,0,0,1,3.09,8.11v28.86a11.67,11.67,0,0,1-3.09,8.09,9.61,9.61,0,0,1-7.39,3.42H88.74a9.65,9.65,0,0,1-7.4-3.4,11.65,11.65,0,0,1-3.08-8.11V291.3a11.68,11.68,0,0,1,3.08-8.12A9.68,9.68,0,0,1,88.74,279.79Zm10.43,10.54q-1.08-4.75-5.17-4.76a4.85,4.85,0,0,0-3.71,1.69,5.79,5.79,0,0,0-1.55,4v19.62ZM88.86,321.05a6.18,6.18,0,0,0,1.69,3.62,5.2,5.2,0,0,0,7.18-.49,5.76,5.76,0,0,0,1.54-4V300.57Z"/><path class="cls-6" d="M88.74,349H99.27a9.62,9.62,0,0,1,7.39,3.4,11.65,11.65,0,0,1,3.09,8.11v28.85a11.68,11.68,0,0,1-3.09,8.1,9.6,9.6,0,0,1-7.39,3.41H88.74a9.68,9.68,0,0,1-7.4-3.39,11.66,11.66,0,0,1-3.08-8.12V360.47a11.68,11.68,0,0,1,3.08-8.12A9.68,9.68,0,0,1,88.74,349ZM99.17,359.5q-1.08-4.75-5.17-4.76a4.85,4.85,0,0,0-3.71,1.69,5.77,5.77,0,0,0-1.55,4v19.61ZM88.86,390.22a6.18,6.18,0,0,0,1.69,3.62,5.2,5.2,0,0,0,7.18-.49,5.79,5.79,0,0,0,1.54-4V369.74Z"/><path class="cls-6" d="M88.74,470V429.64H83.47v-5.73L94,418.13h5.24V470Z"/><path class="cls-6" d="M88.74,487.3H99.27a9.62,9.62,0,0,1,7.39,3.4,11.65,11.65,0,0,1,3.09,8.11v28.85a11.64,11.64,0,0,1-3.09,8.09,9.61,9.61,0,0,1-7.39,3.42H88.74a9.68,9.68,0,0,1-7.4-3.39,11.68,11.68,0,0,1-3.08-8.12V498.81a11.66,11.66,0,0,1,3.08-8.12A9.68,9.68,0,0,1,88.74,487.3Zm10.43,10.53q-1.08-4.75-5.17-4.75a4.85,4.85,0,0,0-3.71,1.69,5.77,5.77,0,0,0-1.55,4v19.61ZM88.86,528.55a6.15,6.15,0,0,0,1.69,3.62,5.18,5.18,0,0,0,7.18-.48,5.8,5.8,0,0,0,1.54-4V508.07Z"/><path class="cls-6" d="M88.74,608.34V568H83.47v-5.72L94,556.46h5.24v51.88Z"/><path class="cls-6" d="M88.74,625.63H99.27a9.63,9.63,0,0,1,7.39,3.41,11.65,11.65,0,0,1,3.09,8.1V666a11.66,11.66,0,0,1-3.09,8.09,9.61,9.61,0,0,1-7.39,3.42H88.74a9.68,9.68,0,0,1-7.4-3.39A11.68,11.68,0,0,1,78.26,666V637.14A11.68,11.68,0,0,1,81.34,629,9.68,9.68,0,0,1,88.74,625.63Zm10.43,10.54q-1.08-4.75-5.17-4.76a4.88,4.88,0,0,0-3.71,1.69,5.8,5.8,0,0,0-1.55,4v19.62ZM88.86,666.89a6.18,6.18,0,0,0,1.69,3.62,5.17,5.17,0,0,0,7.18-.49,5.76,5.76,0,0,0,1.54-4V646.41Z"/><path class="cls-6" d="M88.74,746.68V706.31H83.47v-5.73L94,694.8h5.24v51.88Z"/><path class="cls-6" d="M88.74,815.85V775.48H83.47v-5.73L94,764h5.24v51.88Z"/><path class="cls-6" d="M960.74,67.17V26.81h-5.27V21.08L966,15.3h5.24V67.17Z"/><path class="cls-6" d="M960.74,136.34V96h-5.27V90.25L966,84.46h5.24v51.88Z"/><path class="cls-6" d="M960.74,205.51V165.14h-5.27v-5.73L966,153.63h5.24v51.88Z"/><path class="cls-6" d="M960.74,274.68V234.31h-5.27v-5.73L966,222.8h5.24v51.88Z"/><path class="cls-6" d="M960.74,292h10.53a9.63,9.63,0,0,1,7.39,3.4,11.67,11.67,0,0,1,3.09,8.11v28.86a11.67,11.67,0,0,1-3.09,8.09,9.62,9.62,0,0,1-7.39,3.42H960.74a9.68,9.68,0,0,1-7.4-3.39,11.68,11.68,0,0,1-3.08-8.12V303.48a11.68,11.68,0,0,1,3.08-8.12A9.68,9.68,0,0,1,960.74,292Zm10.43,10.54q-1.08-4.75-5.17-4.76a4.88,4.88,0,0,0-3.71,1.69,5.74,5.74,0,0,0-1.55,4V323.1Zm-10.31,30.72a6.18,6.18,0,0,0,1.69,3.62,5.2,5.2,0,0,0,7.18-.49,5.76,5.76,0,0,0,1.54-4V312.75Z"/><text class="cls-7" transform="translate(179.99 -142.2) scale(0.91 1)">0<tspan x="0" y="60">0</tspan><tspan x="0" y="120">0</tspan><tspan x="0" y="180">1</tspan><tspan x="0" y="240">1</tspan><tspan x="0" y="300">1</tspan><tspan x="0" y="360">1</tspan><tspan x="0" y="420">0</tspan><tspan x="0" y="480">1</tspan><tspan x="0" y="540">0</tspan><tspan x="0" y="600">0</tspan><tspan x="0" y="660">0</tspan><tspan x="0" y="720">1</tspan></text><text class="cls-7" transform="translate(859.99 10.8) scale(0.91 1)">0<tspan x="0" y="60">0</tspan><tspan x="0" y="120">0</tspan><tspan x="0" y="180">1</tspan><tspan x="0" y="240">1</tspan><tspan x="0" y="300">1</tspan><tspan x="0" y="360">1</tspan><tspan x="0" y="420">0</tspan><tspan x="0" y="480">1</tspan><tspan x="0" y="540">0</tspan><tspan x="0" y="600">0</tspan><tspan x="0" y="660">0</tspan><tspan x="0" y="720">1</tspan></text><text class="cls-8" transform="translate(663.99 -214.2) scale(0.91 1)">0<tspan x="0" y="60">1</tspan><tspan x="0" y="120">1</tspan><tspan x="0" y="180">1</tspan><tspan x="0" y="240">0</tspan><tspan x="0" y="300">0</tspan><tspan x="0" y="360">0</tspan><tspan x="0" y="420">1</tspan><tspan x="0" y="480">1</tspan><tspan x="0" y="540">0</tspan><tspan x="0" y="600">1</tspan><tspan x="0" y="660">0</tspan><tspan x="0" y="720">1</tspan></text><text class="cls-8" transform="translate(752.99 -553.2) scale(0.91 1)">0<tspan x="0" y="60">1</tspan><tspan x="0" y="120">1</tspan><tspan x="0" y="180">1</tspan><tspan x="0" y="240">0</tspan><tspan x="0" y="300">0</tspan><tspan x="0" y="360">0</tspan><tspan x="0" y="420">1</tspan><tspan x="0" y="480">1</tspan><tspan x="0" y="540">0</tspan><tspan x="0" y="600">1</tspan><tspan x="0" y="660">0</tspan><tspan x="0" y="720">1</tspan></text><text class="cls-8" transform="translate(277.99 -145.2) scale(0.91 1)">0<tspan x="0" y="60">0</tspan><tspan x="0" y="120">0</tspan><tspan x="0" y="180">0</tspan><tspan x="0" y="240">0</tspan><tspan x="0" y="300">1</tspan><tspan x="0" y="360">1</tspan><tspan x="0" y="420">0</tspan><tspan x="0" y="480">0</tspan><tspan x="0" y="540">0</tspan><tspan x="0" y="600">0</tspan><tspan x="0" y="660">0</tspan><tspan x="0" y="720">0</tspan></text><text class="cls-9" transform="translate(565.99 -55.2) scale(0.91 1)">0<tspan x="0" y="60">0</tspan><tspan x="0" y="120">0</tspan><tspan x="0" y="180">0</tspan><tspan x="0" y="240">0</tspan><tspan x="0" y="300">1</tspan><tspan x="0" y="360">1</tspan><tspan x="0" y="420">0</tspan><tspan x="0" y="480">0</tspan><tspan x="0" y="540">0</tspan><tspan x="0" y="600">0</tspan><tspan x="0" y="660">0</tspan><tspan x="0" y="720">0</tspan></text><g class="cls-10"><path class="cls-6" d="M442.38-9.33h6.95a6.35,6.35,0,0,1,4.88,2.24,7.69,7.69,0,0,1,2,5.35v19a7.68,7.68,0,0,1-2,5.34,6.33,6.33,0,0,1-4.88,2.26h-6.95a6.39,6.39,0,0,1-4.88-2.24,7.67,7.67,0,0,1-2-5.36v-19a7.67,7.67,0,0,1,2-5.36A6.38,6.38,0,0,1,442.38-9.33Zm6.89,7q-.72-3.13-3.41-3.14a3.18,3.18,0,0,0-2.45,1.12,3.77,3.77,0,0,0-1,2.66v13Zm-6.81,20.27a4.1,4.1,0,0,0,1.12,2.39,3.14,3.14,0,0,0,2.28.8A3.2,3.2,0,0,0,448.32,20a3.85,3.85,0,0,0,1-2.66V4.38Z"/><path class="cls-6" d="M442.38,36.31h6.95a6.36,6.36,0,0,1,4.88,2.25,7.67,7.67,0,0,1,2,5.35V63a7.68,7.68,0,0,1-2,5.34,6.36,6.36,0,0,1-4.88,2.25h-6.95a6.38,6.38,0,0,1-4.88-2.23,7.67,7.67,0,0,1-2-5.36v-19a7.67,7.67,0,0,1,2-5.36A6.39,6.39,0,0,1,442.38,36.31Zm6.89,6.95q-.72-3.13-3.41-3.13a3.2,3.2,0,0,0-2.45,1.11,3.77,3.77,0,0,0-1,2.67V56.85Zm-6.81,20.28a4.13,4.13,0,0,0,1.12,2.39,3.18,3.18,0,0,0,2.28.8,3.23,3.23,0,0,0,2.46-1.12,3.87,3.87,0,0,0,1-2.66V50Z"/><path class="cls-6" d="M442.38,82h6.95a6.35,6.35,0,0,1,4.88,2.24,7.69,7.69,0,0,1,2,5.35v19a7.68,7.68,0,0,1-2,5.34,6.33,6.33,0,0,1-4.88,2.26h-6.95A6.39,6.39,0,0,1,437.5,114a7.67,7.67,0,0,1-2-5.36v-19a7.69,7.69,0,0,1,2-5.36A6.38,6.38,0,0,1,442.38,82Zm6.89,7q-.72-3.14-3.41-3.14a3.18,3.18,0,0,0-2.45,1.12,3.77,3.77,0,0,0-1,2.66v13Zm-6.81,20.27a4.1,4.1,0,0,0,1.12,2.39,3.14,3.14,0,0,0,2.28.8,3.2,3.2,0,0,0,2.46-1.12,3.85,3.85,0,0,0,1-2.66V95.67Z"/><path class="cls-6" d="M442.38,161.83V135.2h-3.47v-3.78l6.93-3.82h3.46v34.23Z"/><path class="cls-6" d="M442.38,173.25h6.95a6.38,6.38,0,0,1,4.88,2.24,7.69,7.69,0,0,1,2,5.35v19a7.68,7.68,0,0,1-2,5.34,6.33,6.33,0,0,1-4.88,2.26h-6.95a6.39,6.39,0,0,1-4.88-2.24,7.67,7.67,0,0,1-2-5.36v-19a7.69,7.69,0,0,1,2-5.36A6.38,6.38,0,0,1,442.38,173.25Zm6.89,6.95q-.72-3.13-3.41-3.14a3.18,3.18,0,0,0-2.45,1.12,3.77,3.77,0,0,0-1,2.66v12.95Zm-6.81,20.27a4.1,4.1,0,0,0,1.12,2.39,3.14,3.14,0,0,0,2.28.8,3.2,3.2,0,0,0,2.46-1.12,3.85,3.85,0,0,0,1-2.66V187Z"/><path class="cls-6" d="M442.38,218.89h6.95a6.36,6.36,0,0,1,4.88,2.25,7.69,7.69,0,0,1,2,5.35v19a7.68,7.68,0,0,1-2,5.34,6.37,6.37,0,0,1-4.88,2.26h-6.95a6.39,6.39,0,0,1-4.88-2.24,7.67,7.67,0,0,1-2-5.36v-19a7.67,7.67,0,0,1,2-5.36A6.39,6.39,0,0,1,442.38,218.89Zm6.89,7c-.48-2.1-1.62-3.14-3.41-3.14a3.2,3.2,0,0,0-2.45,1.11,3.77,3.77,0,0,0-1,2.67v12.94Zm-6.81,20.27a4.13,4.13,0,0,0,1.12,2.39,3.43,3.43,0,0,0,4.74-.32,3.87,3.87,0,0,0,1-2.66V232.6Z"/><path class="cls-6" d="M442.38,264.54h6.95a6.38,6.38,0,0,1,4.88,2.24,7.69,7.69,0,0,1,2,5.35v19.05a7.72,7.72,0,0,1-2,5.34,6.36,6.36,0,0,1-4.88,2.25h-6.95a6.36,6.36,0,0,1-4.88-2.24,7.65,7.65,0,0,1-2-5.35V272.13a7.69,7.69,0,0,1,2-5.36A6.38,6.38,0,0,1,442.38,264.54Zm6.89,6.95q-.72-3.14-3.41-3.14a3.18,3.18,0,0,0-2.45,1.12,3.77,3.77,0,0,0-1,2.66v12.95Zm-6.81,20.27a4.1,4.1,0,0,0,1.12,2.39,3.15,3.15,0,0,0,2.28.81,3.21,3.21,0,0,0,2.46-1.13,3.85,3.85,0,0,0,1-2.65V278.25Z"/><path class="cls-6" d="M442.38,344.42V317.78h-3.47V314l6.93-3.82h3.46v34.24Z"/><path class="cls-6" d="M442.38,355.83h6.95a6.38,6.38,0,0,1,4.88,2.24,7.69,7.69,0,0,1,2,5.35v19.05a7.72,7.72,0,0,1-2,5.34,6.36,6.36,0,0,1-4.88,2.25h-6.95a6.36,6.36,0,0,1-4.88-2.24,7.65,7.65,0,0,1-2-5.35V363.42a7.65,7.65,0,0,1,2-5.35A6.36,6.36,0,0,1,442.38,355.83Zm6.89,6.95q-.72-3.13-3.41-3.14a3.18,3.18,0,0,0-2.45,1.12,3.77,3.77,0,0,0-1,2.66v12.95Zm-6.81,20.27a4.1,4.1,0,0,0,1.12,2.39,3.15,3.15,0,0,0,2.28.81,3.21,3.21,0,0,0,2.46-1.13,3.85,3.85,0,0,0,1-2.65V369.54Z"/><path class="cls-6" d="M442.38,401.47h6.95a6.36,6.36,0,0,1,4.88,2.25,7.69,7.69,0,0,1,2,5.35v19a7.68,7.68,0,0,1-2,5.34,6.33,6.33,0,0,1-4.88,2.26h-6.95a6.39,6.39,0,0,1-4.88-2.24,7.67,7.67,0,0,1-2-5.36v-19a7.67,7.67,0,0,1,2-5.36A6.39,6.39,0,0,1,442.38,401.47Zm6.89,7c-.48-2.1-1.62-3.14-3.41-3.14a3.2,3.2,0,0,0-2.45,1.11,3.79,3.79,0,0,0-1,2.67V422Zm-6.81,20.27a4.13,4.13,0,0,0,1.12,2.39,3.43,3.43,0,0,0,4.74-.32,3.87,3.87,0,0,0,1-2.66V415.18Z"/><path class="cls-6" d="M442.38,447.12h6.95a6.38,6.38,0,0,1,4.88,2.24,7.71,7.71,0,0,1,2,5.35v19.05a7.72,7.72,0,0,1-2,5.34,6.36,6.36,0,0,1-4.88,2.25h-6.95a6.36,6.36,0,0,1-4.88-2.24,7.65,7.65,0,0,1-2-5.35V454.71a7.65,7.65,0,0,1,2-5.35A6.36,6.36,0,0,1,442.38,447.12Zm6.89,6.95q-.72-3.13-3.41-3.14a3.21,3.21,0,0,0-2.45,1.12,3.77,3.77,0,0,0-1,2.66v13Zm-6.81,20.27a4.1,4.1,0,0,0,1.12,2.39,3.15,3.15,0,0,0,2.28.81,3.21,3.21,0,0,0,2.46-1.13,3.85,3.85,0,0,0,1-2.65V460.83Z"/><path class="cls-6" d="M442.38,527V500.36h-3.47v-3.78l6.93-3.82h3.46V527Z"/><path class="cls-6" d="M442.38,538.41h6.95a6.36,6.36,0,0,1,4.88,2.25,7.67,7.67,0,0,1,2,5.34v19a7.72,7.72,0,0,1-2,5.34,6.36,6.36,0,0,1-4.88,2.25h-6.95a6.36,6.36,0,0,1-4.88-2.24,7.65,7.65,0,0,1-2-5.35V546a7.65,7.65,0,0,1,2-5.35A6.36,6.36,0,0,1,442.38,538.41Zm6.89,7q-.72-3.14-3.41-3.14a3.21,3.21,0,0,0-2.45,1.12,3.77,3.77,0,0,0-1,2.66v13Zm-6.81,20.28a4.09,4.09,0,0,0,1.12,2.38,3.15,3.15,0,0,0,2.28.81,3.21,3.21,0,0,0,2.46-1.13,3.85,3.85,0,0,0,1-2.65V552.12Z"/></g></g><path class="cls-11" d="M714.41,881.51c-5.45-14-19-23.32-32.91-28.92s-28.91-8.37-42.78-14.16c-15.22-6.35-29.14-16.56-38.09-30.42a85.47,85.47,0,0,1-11.11-27.53,116.36,116.36,0,0,1,.83-54.78c-20-17.71-46.5-27.19-73.14-27.49A121,121,0,0,0,442.78,723c10.43,25.3,5.43,55.48-9.75,78.25S393.5,839.76,367.56,847c-6.81,6.91-17.13,9.26-24.36,15.73-5.49,4.91-8.75,11.78-10.34,18.48l-11,12.07c19.5,16.39,45.26,23,70.3,27.58a653.9,653.9,0,0,0,231.22,1c20.25-3.56,40.4-8.09,59.72-15.13C696.71,901.71,711.16,894.13,714.41,881.51Z"/><path class="cls-11" d="M735.15,414.44c-.18,28.93-4.41,39.54-6.46,60.29a260,260,0,0,0-1,32.86c.87,56.23,1.3,84.35-3.7,104.41-12.3,49.32-52.49,78.85-84,102-27.92,20.52-49.53,36.39-82,40-21.27,2.36-53.77-10-119-34-2.78-1-34.75-13-55-31a241.77,241.77,0,0,1-17.64-17.56c-.08-.11-.21-.26-.36-.44-14.53-17.65-24.2-35.38-34-58-11.12-25.69-24.21-55.9-33-94-17.11-74.14-34.65-150.15,2.38-218.76,46.72-86.59,154.94-114.55,226.45-113.19,23.42.45,101.27,1.94,154.16,55.1C735.87,296.3,735.38,375.47,735.15,414.44Z"/><path class="cls-12" d="M558.4,511.68a155,155,0,0,0-59.27,22.56,8.14,8.14,0,0,0-3.37,3.28c-1.73,4,3.06,7.58,7.16,9,20.45,6.92,42.75,3.94,64.12.89l55.9-8a174.34,174.34,0,0,0-66.68-26.62"/><path class="cls-13" d="M304.78,451.58c-8-6.28-18.14-10-28.16-8.93a42.54,42.54,0,0,0-16,5.34c-24.44,13.47-36.86,45.23-30.36,72.82s30.14,49.51,57.22,55.8c8.36,1.94,17.26,2.51,25.38-.32,7.29-2.53,13.48-7.65,18.82-13.33"/><path class="cls-14" d="M252.9,496.11a219.11,219.11,0,0,1,57.85,15"/><path class="cls-14" d="M282,502.18q-2.55,18.42-3.74,37"/><path class="cls-15" d="M701,483.64c-.94-17.51-32.55-33.88-60-31.64-26.69,2.18-41.5,19.65-45,24a17.27,17.27,0,0,0-2.33,9c.27,8.2,7.18,13.78,11.33,17,21.33,16.74,52.12,12.7,57,12,11-1.59,23.41-3.56,32-14C696.29,497.22,701.4,491,701,483.64Z"/><ellipse cx="663.23" cy="482.39" rx="23.31" ry="24.39" transform="translate(-68.88 112.81) rotate(-9.24)"/><path class="cls-15" d="M637.55,494.26A110.51,110.51,0,0,1,661,488.11l-15.86,18.16a1.57,1.57,0,0,1-.76.59,1.64,1.64,0,0,1-1-.13,14.77,14.77,0,0,1-7.14-5.81,6.37,6.37,0,0,1-1.21-4.2C635.26,495.25,636.57,493.86,637.55,494.26Z"/><path d="M702.74,493.22c3.14-11.58-4.67-21.2-13-28.61s-20-11.82-31.55-13.15-23.28.28-34.28,3.71c-7.36,2.29-14.51,5.45-20.33,10.2S593.38,476.6,593.29,484c4.29-9.19,12.58-14.45,22.14-19.2a74.35,74.35,0,0,1,31.22-7.66,55.35,55.35,0,0,1,10.39.22,44.27,44.27,0,0,1,7,1.65c8.55,2.71,14.35,4.55,19.16,8.92C691,475,699.51,491,699.51,492.53c0,.41.78,1.7,1.69,1.75C701.81,494.32,702.36,493.75,702.74,493.22Z"/><path class="cls-15" d="M517,483.64c-.94-17.51-32.55-33.88-60-31.64-26.69,2.18-41.5,19.65-45,24a17.27,17.27,0,0,0-2.33,9c.27,8.2,7.18,13.78,11.33,17,21.33,16.74,52.12,12.7,57,12,11-1.59,23.41-3.56,32-14C512.29,497.22,517.4,491,517,483.64Z"/><ellipse cx="479.23" cy="482.39" rx="23.31" ry="24.39" transform="translate(-71.27 83.25) rotate(-9.24)"/><path class="cls-15" d="M453.55,494.26A110.51,110.51,0,0,1,477,488.11l-15.86,18.16a1.57,1.57,0,0,1-.76.59,1.64,1.64,0,0,1-1-.13,14.77,14.77,0,0,1-7.14-5.81,6.37,6.37,0,0,1-1.21-4.2C451.26,495.25,452.57,493.86,453.55,494.26Z"/><path d="M518.74,493.22c3.14-11.58-4.67-21.2-13-28.61s-20.05-11.82-31.55-13.15-23.28.28-34.28,3.71c-7.36,2.29-14.51,5.45-20.33,10.2S409.38,476.6,409.29,484c4.29-9.19,12.58-14.45,22.14-19.2a74.35,74.35,0,0,1,31.22-7.66,55.35,55.35,0,0,1,10.39.22,44.27,44.27,0,0,1,7,1.65c8.55,2.71,14.35,4.55,19.16,8.92C507,475,515.51,491,515.51,492.53c0,.41.78,1.7,1.69,1.75C517.81,494.32,518.36,493.75,518.74,493.22Z"/><path class="cls-16" d="M624.82,623.4a72.37,72.37,0,0,1-17,33l-.91-2c-27.37-13.75-61.52-13.47-88.71.54-4.66-6.08-8.79-13.14-13.57-20.92A1018.45,1018.45,0,0,0,624.82,623.4Z"/><path class="cls-17" d="M606.88,654.36l.91,2a63.67,63.67,0,0,1-20.58,15.17c-19.38,8.86-44.11,6.61-60.24-7.19a61.43,61.43,0,0,1-8.8-9.46C545.36,640.89,579.51,640.61,606.88,654.36Z"/><path class="cls-18" d="M518.17,654.9c-4.66-6.08-8.79-13.14-13.57-20.92A1018.45,1018.45,0,0,0,624.82,623.4a72.37,72.37,0,0,1-17,33,63.67,63.67,0,0,1-20.58,15.17c-19.38,8.86-44.11,6.61-60.24-7.19A61.43,61.43,0,0,1,518.17,654.9Z"/><path class="cls-18" d="M518,655l.21-.11c27.19-14,61.34-14.29,88.71-.54"/><path d="M712.52,387.18c-39.43-11.17-81.67-10.91-123.41,1.41a20.56,20.56,0,0,0-5,8.06A453.81,453.81,0,0,1,713.51,392C713.79,390,713.53,387.47,712.52,387.18Z"/><path d="M388.15,398.69c46.7-18.13,75.75-21.53,132.09-10.41,2.48,3.33,2.83,4.1,2.87,9.28-82.48-8.85-94.88-1.22-141.36,12.44C384.48,405.67,386.68,401.34,388.15,398.69Z"/><path class="cls-14" d="M567.44,506.32a321.44,321.44,0,0,1,16.11,31.74c2.79,6.36,5.43,13.27,4.13,20.1-.89,4.73-3.61,8.92-6.7,12.61A63.32,63.32,0,0,1,562.23,586"/><path class="cls-19" d="M779.06,958.53c-16.56-39.62-27.18-65-42.74-85.12-16.91-21.83-37.62-32-43.77-35.35A174.06,174.06,0,0,0,630.26,818c-11.36,11.87-38.69,36.9-80.43,44-23.3,4-41.92.78-51.83-1-39-7-66.49-26.2-80.78-38a215.57,215.57,0,0,0-76.39,26.84c-28.89,17-45.42,36.31-55.43,48.23-32.27,38.45-45.41,79.6-54.32,107.49-1.82,5.71-3.19,10.45-4.08,13.62a469.23,469.23,0,0,0,55.87,32.19c22,10.7,80.28,36.79,203.36,42.29,106.68,4.77,180.5,7,267.77-42.29a417.72,417.72,0,0,0,48-31.72C797,1004.73,789.43,983.35,779.06,958.53Z"/><path class="cls-20" d="M537.28,1097l1.47-211.74c.24-34.82-.75-74-16.79-95,2.45-10.47,10.85-15.36,18.47-17.5,16.67-4.66,34.3-2.21,50,7,5.57,3.25,11,7.47,15,13.94s6.06,14.55,7.87,22.63c5.12,22.82,8.06,46.62,9.08,74.2.43,8.26.85,16.51.88,29.24,4.21,65.42,6.41,131.09,5.54,195.39a177,177,0,0,0-46.81-5.3c-10.26.22-20.49,1.34-30.72,2.24-3.91.34-8.11.56-11.45-2.34S534.77,1099.54,537.28,1097Z"/><path class="cls-20" d="M417,842c-6.2-7.76-6.55-26.28-7-63,0-3.15,0-9.49,4-15a22,22,0,0,1,7-6c5.56-3.31,10.48-3.58,18-4,4.95-.27,6.17.2,7,1,1.85,1.77,1.55,4.89,1,10a56.46,56.46,0,0,1-2,10,111.74,111.74,0,0,0,26.5,10.25c8,2,14.44,2.43,27.34,3.5a253.11,253.11,0,0,0,31.22.65A267.45,267.45,0,0,0,590,780a64.84,64.84,0,0,1-2-8,65.59,65.59,0,0,1-1-15,109.71,109.71,0,0,1,11-1c7.07-.29,11.2-.43,16,1a34,34,0,0,1,11,6c10.86,9.34,10,28.12,8.44,53.46-.62,10.11-1.67,18.3-2.44,23.54a55.66,55.66,0,0,1-14,16c-13.36,10.26-28.17,11.4-38,12-48.94,3-83.85,4.76-130.87-9.71C428,852.09,421.67,847.84,417,842Z"/><path class="cls-20" d="M274,578.13l19.7-24.29a222.14,222.14,0,0,1,19,15.82A144,144,0,0,0,298.12,591,247.86,247.86,0,0,0,274,578.13Z"/><path class="cls-21" d="M521.37,298.09c1.29,7.69,9.8,11.89,17.5,13.09,22.53,3.5,44.77-7.93,67.57-8.3,16.64-.26,32.85,5.38,49.48,6.18s35.7-5.26,41.94-20.68c4.07-10.06,1.5-21.94-4.6-30.91S678,242.07,668.38,237c-28.29-14.87-62.27-19.06-93-10.33-24.86,7.05-48.07,23.38-58.42,47.05-2,4.61-3.55,9.63-2.89,14.61S518.05,298.22,521.37,298.09Z"/><path class="cls-21" d="M606.87,294.07C608.63,274,621.25,256,637.2,250.81"/><path class="cls-21" d="M621.93,295.49c-1.34-3.66-.44-7.86,1.62-11.17a27.4,27.4,0,0,1,8.39-8A64.23,64.23,0,0,1,653.71,267"/><path class="cls-21" d="M636.8,296.52c.65-4.06,4.41-7.29,8.65-8.66s8.89-1.19,13.35-.64,8.9,1.43,13.4,1.42"/><path class="cls-21" d="M554.2,281.54c4.87-1.63,10.08-2.48,14.91-.65a16.46,16.46,0,0,1,10,13.24"/><path class="cls-21" d="M542.2,298.46c6.55-4.63,15.07-3.61,20.91,2.51"/><path class="cls-22" d="M316.27,373a24.76,24.76,0,0,0-7.32,1.43A33.88,33.88,0,0,0,316.27,373Zm127.87-5.22c-6.17,5.38-8.09,16.16-8.86,24.3A80.31,80.31,0,0,1,415,438a57.35,57.35,0,0,0,.3-35.5c2.73,30.68-16,61.82-43.7,74.82-.16-1.11-.35-2.21-.58-3.32,7.44-8.83,10.07-21.84,5.69-32.62a96.91,96.91,0,0,1-8.72,21,85.76,85.76,0,0,0-10.32-23.74,17.91,17.91,0,0,0-1.68,4.64,60.83,60.83,0,0,1,11.66,19.23A70,70,0,0,1,371,474a29.44,29.44,0,0,1-7.92,6.64,67.42,67.42,0,0,0,8.5-3.32,59.12,59.12,0,0,1,.19,17.65c-2.62,17.63-10.45,34-18.28,50a95.76,95.76,0,0,0-17.45-37.67q-3.93,8.69-7.85,17.35c-1.4-21.37-3.74-44.87-19.23-59.64-6.28-6-14.19-9.93-22.19-13.29-13.7-5.75-29.48-10-43.22-4.77A34.7,34.7,0,0,0,256,437.41a34.86,34.86,0,0,0-17.62-.71,35,35,0,0,0,14.72-13.05,232.6,232.6,0,0,0-33.14-13.42,149.34,149.34,0,0,0,44.26-21.74l0-.13c-13.17-2.14-26.44-10.81-39.86-8.53A43.44,43.44,0,0,0,257,356.2a139.5,139.5,0,0,1-54.47-4.14c14.27-5.25,41.65-17.79,61.49-46.06a119.65,119.65,0,0,0,13-24l-.05-.13C251.1,293.22,226.42,289.58,218,288c25.35-4.16,40.14-13.83,49-22,5.5-5.07,7.25-8.22,19-23,0,0,9-11.34,31-37,45.33-52.9,112-72,112-72,40.43-11.58,77.29-9.13,104-4,28.67-15.09,49.66-15.29,63.69-12.52,15.65,3.09,24.1,7.24,44.77,14.81,14.81,5.42,31.52,8.84,46.1,2.86a22.45,22.45,0,0,1-18.44,11.78,82.63,82.63,0,0,0,42,6.43l-17.27,18.8c17.37-2.86,34.28,8.6,44.82,22.73s16.73,31.19,26.09,46.22S788.35,270,806,271.37a47.3,47.3,0,0,1-35.93-1.53c4.8,28.2,10.8,58.67,32.12,77.75a23.08,23.08,0,0,1-22.7-14.26A117.41,117.41,0,0,1,788,372.41l-.51,0a175.92,175.92,0,0,0-11.39-22.3,121.32,121.32,0,0,1-18.22,75.64A66.14,66.14,0,0,0,752,398c-2.13,17.63-4.22,35.81.61,52.89C739.49,445,733.38,429.84,731,415.68A125.2,125.2,0,0,1,731,374a62.81,62.81,0,0,0,2-9.55q-1.19,4.74-2,9.55c-5.88,20.41-21.71,38.55-41.91,47.57,9-7.21,14.26-18.31,16.4-29.65s1.45-23,.37-34.48c-4,20.24-10.9,40.46-24.28,56.15s-34.15,26.15-54.54,23.1c21.75-4.79,38-24.33,44.6-45.59s5.31-44.13,2.84-66.27c-1-9.25-2.3-18.68-6.39-27-4.76-9.73-13-17.31-21.7-23.73-5.64-4.15-11.93-8.05-18.93-8.35-6.27-.28-13.07,3.37-14.95,9.15l-.53-.17c1.38-4.7-2.86-10.08-7.85-11.17-5.38-1.18-10.88,1.07-15.78,3.57A134,134,0,0,0,520.87,425a67.27,67.27,0,0,1-42.16-44.41A64.43,64.43,0,0,0,498,423.45a257.39,257.39,0,0,1-29.64-18c-6-4.22-11.91-8.8-16.08-14.82C447.62,384,445.43,375.87,444.14,367.81Z"/><path class="cls-22" d="M733,364.44a62.81,62.81,0,0,1-2,9.55Q731.77,369.17,733,364.44Z"/><path class="cls-22" d="M376.73,441.36c4.38,10.78,1.75,23.79-5.69,32.62a70,70,0,0,0-3.37-11.49l.34-.13A96.91,96.91,0,0,0,376.73,441.36Z"/><path class="cls-22" d="M371,474c.23,1.11.42,2.21.58,3.32a67.42,67.42,0,0,1-8.5,3.32A29.44,29.44,0,0,0,371,474Z"/><path class="cls-22" d="M368,462.36l-.34.13A60.83,60.83,0,0,0,356,443.26a17.91,17.91,0,0,1,1.68-4.64A85.76,85.76,0,0,1,368,462.36Z"/><path class="cls-22" d="M316.27,373a33.88,33.88,0,0,1-7.32,1.43A24.76,24.76,0,0,1,316.27,373Z"/><path class="cls-22" d="M243.59,446.93c-.68.31-1.38.59-2.08.86C242.2,447.48,242.89,447.19,243.59,446.93Z"/><path class="cls-23" d="M611.52,275.76a6,6,0,0,0,.42-1.08c1.38-4.7-2.86-10.08-7.85-11.17-5.38-1.18-10.88,1.07-15.78,3.57A134,134,0,0,0,520.87,425a67.27,67.27,0,0,1-42.16-44.41A64.43,64.43,0,0,0,498,423.45a257.39,257.39,0,0,1-29.64-18c-6-4.22-11.91-8.8-16.08-14.82-4.64-6.71-6.83-14.8-8.12-22.86-.05-.24-.08-.48-.12-.72-5.83-37.78,6.1-77.93,31.94-106.12"/><path class="cls-23" d="M316.27,373c4.1-.24,8.31.18,12.44.2,6.64,0,14.12-1.54,17.67-7.16-8.7,14.15-14.1,30.73-12.89,47.29s9.65,33,23.8,41.66A18.6,18.6,0,0,1,356,443.26a17.91,17.91,0,0,1,1.68-4.64A85.76,85.76,0,0,1,368,462.36a96.91,96.91,0,0,0,8.72-21c4.38,10.78,1.75,23.79-5.69,32.62a29.44,29.44,0,0,1-7.92,6.64,67.42,67.42,0,0,0,8.5-3.32c27.72-13,46.43-44.14,43.7-74.82A57.35,57.35,0,0,1,415,438a80.31,80.31,0,0,0,20.26-45.87c.77-8.14,2.69-18.92,8.86-24.3l.36-.31"/><path class="cls-23" d="M316.27,373a33.88,33.88,0,0,1-7.32,1.43A24.76,24.76,0,0,1,316.27,373Z"/><path class="cls-23" d="M401.54,249.26c-20.41,12.51-33,34.69-41,57.25-5.07,14.26-8.73,29.18-16.33,42.27-6.33,10.9-16.14,20.61-28,24.25"/><path class="cls-23" d="M277,282a119.65,119.65,0,0,1-13,24c-19.84,28.27-47.22,40.81-61.49,46.06A139.5,139.5,0,0,0,257,356.2a43.44,43.44,0,0,1-32.65,23.63c13.42-2.28,26.69,6.39,39.86,8.53a28.47,28.47,0,0,0,12.25-.41c9-2.46,15.55-10,21.52-17.17q-1.05,5.49-2.09,11l15.88-28"/><path class="cls-23" d="M243.59,446.93c13.74-5.19,29.52-1,43.22,4.77,8,3.36,15.91,7.31,22.19,13.29,15.49,14.77,17.83,38.27,19.23,59.64q3.91-8.67,7.85-17.35A95.76,95.76,0,0,1,353.53,545c7.83-16,15.66-32.37,18.28-50a59.12,59.12,0,0,0-.19-17.65c-.16-1.11-.35-2.21-.58-3.32a70,70,0,0,0-3.37-11.49A60.83,60.83,0,0,0,356,443.26a3.33,3.33,0,0,0-.25-.28"/><path class="cls-23" d="M243.59,446.93c-.68.31-1.38.59-2.08.86C242.2,447.48,242.89,447.19,243.59,446.93Z"/><path class="cls-23" d="M264.17,388.49a149.34,149.34,0,0,1-44.26,21.74,232.6,232.6,0,0,1,33.14,13.42,35,35,0,0,1-14.72,13.05,34.86,34.86,0,0,1,17.62.71,34.7,34.7,0,0,1-12.36,9.52"/><path class="cls-23" d="M313,253.41a92.84,92.84,0,0,1-25.93,23.25,88.19,88.19,0,0,1-10.1,5.21C251.1,293.22,226.42,289.58,218,288c25.35-4.16,40.14-13.83,49-22,5.5-5.07,7.25-8.22,19-23,0,0,9-11.34,31-37,45.33-52.9,112-72,112-72,40.43-11.58,77.29-9.13,104-4,28.67-15.09,49.66-15.29,63.69-12.52,15.65,3.09,24.1,7.24,44.77,14.81,14.81,5.42,31.52,8.84,46.1,2.86a22.45,22.45,0,0,1-18.44,11.78,82.63,82.63,0,0,0,42,6.43l-17.27,18.8-.31.34"/><path class="cls-23" d="M731,374a125.2,125.2,0,0,0,0,41.69c2.4,14.16,8.51,29.32,21.59,35.24-4.83-17.08-2.74-35.26-.61-52.89a66.14,66.14,0,0,1,5.9,27.74,121.32,121.32,0,0,0,18.22-75.64,175.92,175.92,0,0,1,11.39,22.3"/><path class="cls-23" d="M731,374a62.81,62.81,0,0,0,2-9.55Q731.76,369.18,731,374Z"/><path class="cls-23" d="M612,276.92a9.43,9.43,0,0,1,.46-2.07c1.88-5.78,8.68-9.43,14.95-9.15,7,.3,13.29,4.2,18.93,8.35,8.71,6.42,16.94,14,21.7,23.73,4.09,8.36,5.36,17.79,6.39,27,2.47,22.14,3.81,45-2.84,66.27s-22.85,40.8-44.6,45.59c20.39,3.05,41.16-7.41,54.54-23.1s20.31-35.91,24.28-56.15c1.08,11.49,1.77,23.15-.37,34.48s-7.4,22.44-16.4,29.65c20.2-9,36-27.16,41.91-47.57"/><path class="cls-23" d="M693.56,172.2l.25,0c17.37-2.86,34.28,8.6,44.82,22.73s16.73,31.19,26.09,46.22S788.35,270,806,271.37a47.3,47.3,0,0,1-35.93-1.53c4.8,28.2,10.8,58.67,32.12,77.75a23.08,23.08,0,0,1-22.7-14.26A117.41,117.41,0,0,1,788,372.41c.06,1.34.1,2.68.11,4-.42-1.35-.84-2.7-1.25-4.05"/></svg>