<svg id="图层_2" data-name="图层 2" xmlns="http://www.w3.org/2000/svg" viewBox="0 0 1000 1000"><defs><style>.cls-1{fill:#adbfd8;}.cls-2{fill:#ad7150;}.cls-2,.cls-4,.cls-5,.cls-7{stroke:#000;stroke-miterlimit:10;stroke-width:4px;}.cls-3{fill:#e26d44;}.cls-4{fill:none;}.cls-4,.cls-5{stroke-linecap:round;}.cls-5{fill:#fff;}.cls-6{fill:#0f0b0b;}.cls-7{fill:#6686bf;}</style></defs><rect class="cls-1" y="-5" width="1000" height="1000"/><path class="cls-2" d="M714.41,881.51c-5.45-14-19-23.32-32.91-28.92s-28.91-8.37-42.78-14.16c-15.22-6.35-29.14-16.56-38.09-30.42a85.47,85.47,0,0,1-11.11-27.53,116.36,116.36,0,0,1,.83-54.78c-20-17.71-46.5-27.19-73.14-27.49A121,121,0,0,0,442.78,723c10.43,25.3,5.43,55.48-9.75,78.25S393.5,839.76,367.56,847c-6.81,6.91-17.13,9.26-24.36,15.73-5.49,4.91-8.75,11.78-10.34,18.48l-11,12.07c19.5,16.39,45.26,23,70.3,27.58a653.9,653.9,0,0,0,231.22,1c20.25-3.56,40.4-8.09,59.72-15.13C696.71,901.71,711.16,894.13,714.41,881.51Z"/><path class="cls-2" d="M735,409a172.12,172.12,0,0,0,7,87c11.2,34.1,5.75,91.34-12.17,130.8C688.41,718,571.08,734.6,560,736c-82.52,10.43-145.88-27.49-166.66-41.55a220.92,220.92,0,0,1-39.71-34C324.54,627.57,308.22,585,295,525.63c-20.72-93-36-161.65,6.38-230.39,47.56-77.11,143.35-114.78,226.45-113.19,28.93.56,104.26,1.49,154.16,55.1C729.84,288.55,740.55,373.46,735,409Z"/><path class="cls-3" d="M558.4,511.68a155,155,0,0,0-59.27,22.56,8.14,8.14,0,0,0-3.37,3.28c-1.73,4,3.06,7.58,7.16,9,20.45,6.92,42.75,3.94,64.12.89l55.9-8a174.34,174.34,0,0,0-66.68-26.62"/><path class="cls-2" d="M304.78,451.58c-8-6.28-18.14-10-28.16-8.93a42.54,42.54,0,0,0-16,5.34c-24.44,13.47-36.86,45.23-30.36,72.82s30.14,49.51,57.22,55.8c8.36,1.94,17.26,2.51,25.38-.32,7.29-2.53,13.48-7.65,18.82-13.33"/><path class="cls-4" d="M252.9,496.11a219.11,219.11,0,0,1,57.85,15"/><path class="cls-4" d="M282,502.18q-2.55,18.42-3.74,37"/><path d="M640.08,355.1a62.89,62.89,0,0,0-30.81,9c-2,1.22-4.08,2.71-4.83,4.94a6.94,6.94,0,0,0,2.17,7,12.87,12.87,0,0,0,7.06,2.94c9.46,1.31,18.77-3.2,28.32-3.46A32.29,32.29,0,0,1,662.08,382a19.55,19.55,0,0,0,4.84,3.15c4.17,1.52,9.13-1.2,10.85-5.3s.61-9-2-12.58-6.54-6-10.62-7.8C657,356,647.91,354.91,640.08,355.1Z"/><path d="M455.45,360.83c-7.79.9-15.06,4.33-21.91,8.15-4.29,2.41-8.63,5.12-11.33,9.23s-3.32,10-.19,13.78c3.62,4.4,10.62,4.26,15.76,1.79s9.2-6.7,14-9.79a36.31,36.31,0,0,1,31.05-3.69c2.9,1,6,2.42,8.91,1.46,3.82-1.25,5.33-6.3,3.88-10s-5-6.26-8.71-7.86C477.06,359.58,465.79,359.64,455.45,360.83Z"/><path class="cls-4" d="M573.63,544.73c9.75-.38,20.91.65,26.84,8.4,5.12,6.7,4.32,16.61-.14,23.76s-11.89,11.94-19.56,15.42"/><path class="cls-5" d="M764.06,958.53c-16.56-39.62-27.18-65-42.74-85.12-16.91-21.83-37.62-32-43.77-35.35A174.06,174.06,0,0,0,615.26,818c-11.36,11.87-38.69,36.9-80.43,44-23.3,4-41.92.78-51.83-1-39-7-66.49-26.2-80.78-38a215.57,215.57,0,0,0-76.39,26.84c-28.89,17-45.42,36.31-55.43,48.23-32.27,38.45-45.41,79.6-54.32,107.49-1.82,5.71-3.19,10.45-4.08,13.62a469.23,469.23,0,0,0,55.87,32.19c22,10.7,80.28,36.79,203.36,42.29,106.68,4.77,180.5,7,267.77-42.29a417.72,417.72,0,0,0,48-31.72C782,1004.73,774.43,983.35,764.06,958.53Z"/><path d="M614.44,492.2a32.2,32.2,0,0,0,6.58,7.36c9.52,7.77,20.81,7.64,24.62,7.43a64.1,64.1,0,0,0,24.3-4.62,64.78,64.78,0,0,0,26.17-19.53,42.51,42.51,0,0,0,5.8-18.15,3.26,3.26,0,0,0-.08-.9c-.27-.72-1-1-1-1.57-3.66,5.44-14.29,20.5-37.25,28.66A80.43,80.43,0,0,1,614.44,492.2Z"/><path d="M515,485.83a32.14,32.14,0,0,1-4.41,8.84c-7.14,10-18.06,12.86-21.79,13.65a63.8,63.8,0,0,1-55-10,42.38,42.38,0,0,1-10.38-16,3.15,3.15,0,0,1-.17-.89c.07-.77.71-1.18.56-1.78,5,4.29,19.19,16,43.49,17.82A80.35,80.35,0,0,0,515,485.83Z"/><path class="cls-6" d="M292,443c7.36,1.9,9.88,3.21,12,5a23.22,23.22,0,0,1,5.21,7c3.62,7.47,9.2,32.63,14.39,67a105.09,105.09,0,0,0,.61,25.8,272.28,272.28,0,0,1,56.37-105.22,219.34,219.34,0,0,1-.44-71.9C381.28,363.46,383,356,388,350.7s12.18-7.34,19.11-9.14a629.34,629.34,0,0,1,244.41-14.29c13.67,1.9,27.78,4.44,39.13,12.28,14.23,9.82,22.16,26.82,24.8,43.9s.59,34.5-.82,51.94a52.19,52.19,0,0,1,13.66,30.71c12.37-51.7,24.81-104.86,17.5-157.51s-42.16-95-78.64-118.74c-16.88-11-47.67-21.94-67.57-25-38.7-6.06-91.7-14.85-134.34-8.72C402,171.34,365.6,201.37,327.26,238.91c-14.71,14.4-65.73,76-59.46,156.91A178.28,178.28,0,0,0,277,440,137.41,137.41,0,0,1,292,443Z"/><path class="cls-6" d="M435.42,628.65c24.7-14.13,37.91-42.78,61.56-58.62a92.5,92.5,0,0,1,23.37-10.93c9.44-3,19.51-4.92,29.26-3.14s19.14,7.77,23,16.91c4.16,9.93,1,21.88-6,30.11s-17,13.22-27.35,16.29a99.41,99.41,0,0,1-37.38,3.66c-12.78-1.19-28.12-4-36.39,5.87l8.15-10.56C462.44,625.51,448.73,628.86,435.42,628.65Z"/><path class="cls-6" d="M605.68,557.1c-11.5-5.41-26.57,2.17-30.62,14.22s2.08,26.14,12.78,33c11.2,7.16,27.42,8.43,33.39,20.3l-.06-6.12c6.47.42,12.16,4.19,18.22,6.5A42.42,42.42,0,0,0,682,617a39.33,39.33,0,0,1-34.43-19.07c-4.16-7.11-6-15.49-10.79-22.18C629.55,565.67,616.58,562.24,605.68,557.1Z"/><path class="cls-4" d="M518.17,654c25.66-28.84,62-29.46,87.83-1.07"/><path class="cls-7" d="M694.92,245.85a13.52,13.52,0,0,1-5.3,4.32c-6.34,2.64-13.36-1.55-19.11-5.1-42.94-26.55-99-26.8-150.71-21.6-27.83,2.79-55.73,6.93-81.94,15.89-28.2,9.64-56.37,25.06-86.17,21-4.9-.68-10.15-2.15-12.88-5.9-4.5-6.21.25-14.35,4.91-20.46,6.12-8,11-16.3,17.63-22.76-1.45-6.59-1.3-13.47-.59-20.18,3.76-34.9,23.3-67.84,51.92-91.43s65.85-38,104.23-42.38c16.19-1.85,32.7-2,48.77.59a147,147,0,0,1,85.76,46.93,143.18,143.18,0,0,1,35.39,85.5c.21,3.15.11,6.66-1.18,9.5,5.62,6,10.2,12.6,12.63,20C701.14,228.44,700.69,238.45,694.92,245.85Z"/><path class="cls-5" d="M489.18,154a12.6,12.6,0,0,0-13.42-6,14.36,14.36,0,0,0-10.61,10.55,16.8,16.8,0,0,0,3.78,14.72,12.94,12.94,0,0,0,6.62,4.27,8.27,8.27,0,0,0,7.48-1.77c-4.39,5.69-2.27,15,3.9,18.7s14.93,1.58,19.21-4.19,4-14.31-.18-20.16l48.3-20.83c-.65,3.78,2.94,7,6.59,8.21,7.33,2.36,15.45-.46,21.65-5a11.76,11.76,0,0,0,3.87-4.16,10.89,10.89,0,0,0,.81-5.06C587,137.85,585,132.35,580.8,129s-10.67-4-14.88-.71c4.69-3.27,7.87-9.52,5.7-14.81-1.85-4.48-7.09-6.91-11.92-6.54s-9.22,3-12.78,6.34c-2.63,2.44-5,5.58-5,9.17.09,5,4.86,8.59,9.35,9.86L496.49,156a8.23,8.23,0,0,1-4.3,1C490.72,156.79,489.87,155.26,489.18,154Z"/></svg>