<svg id="图层_2" data-name="图层 2" xmlns="http://www.w3.org/2000/svg" xmlns:xlink="http://www.w3.org/1999/xlink" viewBox="0 0 1000 1000"><defs><style>.cls-1,.cls-11,.cls-8{fill:none;}.cls-2{fill:#dcf8ff;}.cls-10,.cls-3{fill:#fff;}.cls-4{clip-path:url(#clip-path);}.cls-5{fill:#fffaff;}.cls-6{fill:#f7e0bf;}.cls-10,.cls-11,.cls-6,.cls-8,.cls-9{stroke:#000;stroke-miterlimit:10;}.cls-10,.cls-6,.cls-8,.cls-9{stroke-width:4px;}.cls-7{fill:#f9bca2;}.cls-10,.cls-11,.cls-8,.cls-9{stroke-linecap:round;}.cls-9{fill:#8fe5d5;}.cls-11{stroke-width:2px;}.cls-12{fill:#0f0b0b;}</style><clipPath id="clip-path"><rect class="cls-1" x="-1085" y="-1411" width="1000" height="1000"/></clipPath></defs><rect class="cls-2" x="1" y="6" width="1000" height="1000"/><polygon class="cls-3" points="319 84 167 170 319 239 319 84"/><polygon class="cls-3" points="49 433 208 383 166 521 49 433"/><polygon class="cls-3" points="429 332 357 432 501 463 429 332"/><polygon class="cls-3" points="839.12 773.29 750.46 800.24 790.8 878.76 839.12 773.29"/><polygon class="cls-3" points="816.72 322.83 702.48 409.98 848.66 468.75 816.72 322.83"/><polygon class="cls-3" points="641 555 557 645 693 661 641 555"/><polygon class="cls-3" points="691 126 679 228 803 150 691 126"/><polygon class="cls-3" points="230 717.75 355.14 695 292.57 852 230 717.75"/><polygon class="cls-3" points="530 821 464 889 603 899 530 821"/><g class="cls-4"><rect class="cls-5" x="-208.25" y="-1195.98" width="161" height="1416.92" transform="translate(-360.12 -40.31) rotate(42.14)"/></g><path class="cls-6" d="M714.41,881.51c-5.45-14-19-23.32-32.91-28.92s-28.91-8.37-42.78-14.16c-15.22-6.35-29.14-16.56-38.09-30.42a85.47,85.47,0,0,1-11.11-27.53,116.36,116.36,0,0,1,.83-54.78c-20-17.71-46.5-27.19-73.14-27.49A121,121,0,0,0,442.78,723c10.43,25.3,5.43,55.48-9.75,78.25S393.5,839.76,367.56,847c-6.81,6.91-17.13,9.26-24.36,15.73-5.49,4.91-8.75,11.78-10.34,18.48l-11,12.07c19.5,16.39,45.26,23,70.3,27.58a653.9,653.9,0,0,0,231.22,1c20.25-3.56,40.4-8.09,59.72-15.13C696.71,901.71,711.16,894.13,714.41,881.51Z"/><path class="cls-6" d="M737,409a172.12,172.12,0,0,0,7,87c11.2,34.1,5.75,91.34-12.17,130.8C690.41,718,573.08,734.6,562,736c-82.52,10.43-145.88-27.49-166.66-41.55a220.92,220.92,0,0,1-39.71-34C326.54,627.57,310.22,585,297,525.63c-20.72-93-36-161.65,6.38-230.39,47.56-77.11,143.35-114.78,226.45-113.19,28.93.56,104.26,1.49,154.16,55.1C731.84,288.55,742.55,373.46,737,409Z"/><path class="cls-7" d="M558.4,511.68a155,155,0,0,0-59.27,22.56,8.14,8.14,0,0,0-3.37,3.28c-1.73,4,3.06,7.58,7.16,9,20.45,6.92,42.75,3.94,64.12.89l55.9-8a174.34,174.34,0,0,0-66.68-26.62"/><path class="cls-6" d="M304.78,451.58c-8-6.28-18.14-10-28.16-8.93a42.54,42.54,0,0,0-16,5.34c-24.44,13.47-36.86,45.23-30.36,72.82s30.14,49.51,57.22,55.8c8.36,1.94,17.26,2.51,25.38-.32,7.29-2.53,13.48-7.65,18.82-13.33"/><path class="cls-8" d="M252.9,496.11a219.11,219.11,0,0,1,57.85,15"/><path class="cls-8" d="M282,502.18q-2.55,18.42-3.74,37"/><path d="M640.08,355.1a62.89,62.89,0,0,0-30.81,9c-2,1.22-4.08,2.71-4.83,4.94a6.94,6.94,0,0,0,2.17,7,12.87,12.87,0,0,0,7.06,2.94c9.46,1.31,18.77-3.2,28.32-3.46A32.29,32.29,0,0,1,662.08,382a19.55,19.55,0,0,0,4.84,3.15c4.17,1.52,9.13-1.2,10.85-5.3s.61-9-2-12.58-6.54-6-10.62-7.8C657,356,647.91,354.91,640.08,355.1Z"/><path d="M455.45,360.83c-7.79.9-15.06,4.33-21.91,8.15-4.29,2.41-8.63,5.12-11.33,9.23s-3.32,10-.19,13.78c3.62,4.4,10.62,4.26,15.76,1.79s9.2-6.7,14-9.79a36.31,36.31,0,0,1,31.05-3.69c2.9,1,6,2.42,8.91,1.46,3.82-1.25,5.33-6.3,3.88-10s-5-6.26-8.71-7.86C477.06,359.58,465.79,359.64,455.45,360.83Z"/><path class="cls-9" d="M764.06,958.53c-16.56-39.62-27.18-65-42.74-85.12-16.91-21.83-37.62-32-43.77-35.35A174.06,174.06,0,0,0,615.26,818c-11.36,11.87-38.69,36.9-80.43,44-23.3,4-41.92.78-51.83-1-39-7-66.49-26.2-80.78-38a215.57,215.57,0,0,0-76.39,26.84c-28.89,17-45.42,36.31-55.43,48.23-32.27,38.45-45.41,79.6-54.32,107.49-1.82,5.71-3.19,10.45-4.08,13.62a469.23,469.23,0,0,0,55.87,32.19c22,10.7,80.28,36.79,203.36,42.29,106.68,4.77,180.5,7,267.77-42.29a417.72,417.72,0,0,0,48-31.72C782,1004.73,774.43,983.35,764.06,958.53Z"/><path d="M614.44,492.2a32.2,32.2,0,0,0,6.58,7.36c9.52,7.77,20.81,7.64,24.62,7.43a64.1,64.1,0,0,0,24.3-4.62,64.78,64.78,0,0,0,26.17-19.53,42.51,42.51,0,0,0,5.8-18.15,3.26,3.26,0,0,0-.08-.9c-.27-.72-1-1-1-1.57-3.66,5.44-14.29,20.5-37.25,28.66A80.43,80.43,0,0,1,614.44,492.2Z"/><path d="M515,485.83a32.14,32.14,0,0,1-4.41,8.84c-7.14,10-18.06,12.86-21.79,13.65a63.8,63.8,0,0,1-55-10,42.38,42.38,0,0,1-10.38-16,3.15,3.15,0,0,1-.17-.89c.07-.77.71-1.18.56-1.78,5,4.29,19.19,16,43.49,17.82A80.35,80.35,0,0,0,515,485.83Z"/><path class="cls-8" d="M518.17,654c25.66-28.84,62-29.46,87.83-1.07"/><path class="cls-8" d="M525,571s17.67-27,41-29,33,29,33,29"/><path class="cls-10" d="M418.9,597a106.19,106.19,0,0,0-39,27.65c-3.79,4.27-7.29,8.9-11.92,12.24s-10.75,5.25-16.1,3.28c-4.38-1.62-7.58-5.62-9.14-10s-1.68-9.18-1.15-14.28c7.57-14,18.16-26.49,31.41-35.29s29.21-13.77,45.09-12.89c4.68.26,9.81,1.29,12.63,5a12,12,0,0,1,2.16,5.59C434.07,586.8,427.21,593.57,418.9,597Z"/><path class="cls-11" d="M349.12,606.11c6,9.81,12.49,20.12,22.75,25.3"/><path class="cls-11" d="M398.41,569.8a60.75,60.75,0,0,1,17.51,28.47"/><path class="cls-8" d="M370.21,599.21l7.94,10a143.54,143.54,0,0,1,16.38-11.67l-6.48-10a2,2,0,0,0-.87-.86,1.89,1.89,0,0,0-1.43.26A48.72,48.72,0,0,0,370.21,599.21Z"/><path class="cls-12" d="M305,452c8.45,25.55,15,43.49,25.72,68.19,9.44-45.24,30.33-88.05,61.06-122.74,3-6.9,2-14.8,1.29-22.31a191.14,191.14,0,0,1,3.35-56.76c1.11-5.21,2.49-10.51,5.52-14.9,3.63-5.22,9.27-8.67,15-11.5,17.18-8.55,36.11-12.86,54.91-16.66C534.28,262.71,599.74,255,661.16,272c15.79,4.37,31.4,10.48,44.23,20.68S734,327,729.3,333.85c-.19.27,20.5-29.17,20.69-49.2s-5.21-39.67-11.22-58.77C733,207.4,726.27,188.6,713.53,174c-13.56-15.52-32.82-24.9-52.28-31.68-29.3-10.21-60.1-15.41-90.93-18.84-38.37-4.28-79.77-5.24-112.61,15.06-3.7,2.29-7.4,4.89-11.7,5.59s-8.62-.6-12.85-1.58c-35.57-8.17-73.69,7-99.81,32.48S291.64,235,281.43,270c-16.5,56.64-20.34,116.93-8.61,175.07C280.56,437.82,301.32,440.88,305,452Z"/></svg>