<svg id="图层_2" data-name="图层 2" xmlns="http://www.w3.org/2000/svg" viewBox="0 0 1000 1000"><defs><style>.cls-1,.cls-6{fill:#fff3dc;}.cls-1,.cls-3,.cls-5,.cls-6,.cls-7,.cls-8,.cls-9{stroke:#000;stroke-miterlimit:10;}.cls-1,.cls-5,.cls-6,.cls-7,.cls-8,.cls-9{stroke-width:4px;}.cls-2,.cls-9{fill:#fff;}.cls-3,.cls-5{fill:none;}.cls-3,.cls-5,.cls-6,.cls-7,.cls-8,.cls-9{stroke-linecap:round;}.cls-3{stroke-width:3px;}.cls-4{fill:#ffd6c0;}.cls-7{fill:#8fe5d5;}.cls-8{fill:#aee8ff;}</style></defs><path class="cls-1" d="M714.41,881.51c-5.45-14-19-23.32-32.91-28.92s-28.91-8.37-42.78-14.16c-15.22-6.35-29.14-16.56-38.09-30.42a85.47,85.47,0,0,1-11.11-27.53,116.36,116.36,0,0,1,.83-54.78c-20-17.71-46.5-27.19-73.14-27.49A121,121,0,0,0,442.78,723c10.43,25.3,5.43,55.48-9.75,78.25S393.5,839.76,367.56,847a85.8,85.8,0,0,0-45.66,46.28c19.5,16.39,45.26,23,70.3,27.58a653.9,653.9,0,0,0,231.22,1c20.25-3.56,40.4-8.09,59.72-15.13C696.71,901.71,711.16,894.13,714.41,881.51Z"/><path class="cls-1" d="M735.15,409.44c-.18,28.93-4.41,39.54-6.46,60.29a273.21,273.21,0,0,0-1,32.86c-.63,98.57-1,147.85-22.7,178.41-26.42,37.13-74.73,43.53-131,51,0,0-81.68,10.84-154-21-25.76-11.34-41.05-24.51-45-28-12.92-11.42-22.58-23.79-32-39-35.14-56.77-48-118.37-48-118.37-18.68-89.42-35.55-162.42,6.38-230.39,47.56-77.11,143.35-114.78,226.45-113.19,23.42.45,101.27,1.94,154.16,55.1C735.87,291.3,735.38,370.47,735.15,409.44Z"/><path class="cls-2" d="M511,477.22c.94-13.4-14.66-25.42-26.64-30.44-1.22-.51-2.11-.83-2.76-1.06-3.67-1.29-26.53-9.36-49,1.23A53,53,0,0,0,405,478.12a39.63,39.63,0,0,0,16,22.6c10.25,6.86,21.06,7,32,7.24,8.8.15,23.89.4,38.49-8.27C497.9,495.88,510.21,488.56,511,477.22Z"/><path d="M404.69,482.21c.06-4,11.26-21.31,23.74-27.75,15.12-7.81,33.27-10.45,49.47-5.26s29.87,18.7,33.57,32c-.25-12.8-7.44-25-17.74-32.55s-23.39-10.88-36.19-10.59a66.81,66.81,0,0,0-33.73,10.1s-17.81,11.22-22,27a10.86,10.86,0,0,0,0,5.59c.49,1.54.92,2.42,1.92,2.44C403.68,483.2,404.51,482.72,404.69,482.21Z"/><ellipse cx="472.5" cy="472.1" rx="27.5" ry="29.9"/><path class="cls-2" d="M437.79,489.28a137.34,137.34,0,0,1,29.3-7.69L447.26,504.3a2.1,2.1,0,0,1-1,.74,2,2,0,0,1-1.21-.17,18.41,18.41,0,0,1-8.93-7.26,7.93,7.93,0,0,1-1.51-5.26C434.92,490.51,436.56,488.78,437.79,489.28Z"/><path class="cls-3" d="M514.45,459.87c-.91-10.75-9-20-18.88-24.42s-24.41-7.68-35.07-5.95"/><path class="cls-3" d="M587,458a59.85,59.85,0,0,1,70.25-25.48"/><path class="cls-2" d="M696,472.64C694.17,454,663.6,439.75,636,442c-26.69,2.18-43.5,19-47,23.38a34.08,34.08,0,0,0,2.06,18.81A41,41,0,0,0,599,495.88c11.54,11.82,35.08,19.53,57.74,14.62,5.33-1.16,22.08-4.79,32.27-18.8C691.64,488.08,696.81,481,696,472.64Z"/><ellipse cx="657.38" cy="474.5" rx="29.15" ry="30.5" transform="translate(-67.69 111.77) rotate(-9.24)"/><path class="cls-2" d="M625.27,489.34a137.93,137.93,0,0,1,29.3-7.69l-19.83,22.72a2.08,2.08,0,0,1-1,.73,2,2,0,0,1-1.21-.17,18.41,18.41,0,0,1-8.93-7.26,7.92,7.92,0,0,1-1.51-5.25C622.4,490.57,624,488.85,625.27,489.34Z"/><path d="M697.74,482.22c3.14-11.58-4.67-21.2-13-28.61s-20-11.82-31.55-13.15-23.28.28-34.28,3.71c-7.36,2.29-14.51,5.45-20.33,10.2S588.38,465.6,588.29,473c4.29-9.19,12.58-14.45,22.14-19.2a74.35,74.35,0,0,1,31.22-7.66,55.35,55.35,0,0,1,10.39.22,44.27,44.27,0,0,1,7,1.65c8.55,2.71,14.35,4.55,19.16,8.92C686,464,694.51,480,694.51,481.53c0,.41.78,1.7,1.69,1.75C696.81,483.32,697.36,482.75,697.74,482.22Z"/><path class="cls-4" d="M558.4,511.68a155,155,0,0,0-59.27,22.56,8.14,8.14,0,0,0-3.37,3.28c-1.73,4,3.06,7.58,7.16,9,20.45,6.92,42.75,3.94,64.12.89l55.9-8a174.34,174.34,0,0,0-66.68-26.62"/><path class="cls-5" d="M556.16,535.45,583.25,537c4.22.24,8.8.63,11.89,3.5,4.59,4.26,3.65,11.83,1.08,17.55a44,44,0,0,1-26,23.46"/><path class="cls-6" d="M304.78,451.58c-8-6.28-18.14-10-28.16-8.93a42.54,42.54,0,0,0-16,5.34c-24.44,13.47-36.86,45.23-30.36,72.82s30.14,49.51,57.22,55.8c8.36,1.94,17.26,2.51,25.38-.32,7.29-2.53,13.48-7.65,18.82-13.33"/><path class="cls-5" d="M252.9,496.11a219.11,219.11,0,0,1,57.85,15"/><path class="cls-5" d="M282,502.18q-2.55,18.42-3.74,37"/><path class="cls-7" d="M770.06,958.53c-16.56-39.62-27.18-65-42.74-85.12-16.91-21.83-37.62-32-43.77-35.35A174.06,174.06,0,0,0,621.26,818c-11.36,11.87-38.69,36.9-80.43,44-23.3,4-41.92.78-51.83-1-39-7-66.49-26.2-80.78-38a215.57,215.57,0,0,0-76.39,26.84c-28.89,17-45.42,36.31-55.43,48.23-32.27,38.45-45.41,79.6-54.32,107.49-1.82,5.71-3.19,10.45-4.08,13.62a469.23,469.23,0,0,0,55.87,32.19c22,10.7,80.28,36.79,203.36,42.29,106.68,4.77,180.5,7,267.77-42.29a417.72,417.72,0,0,0,48-31.72C788,1004.73,780.43,983.35,770.06,958.53Z"/><path d="M588.94,385.44c-2.89,4.77-3.21,7.92-5.52,12.83A430.26,430.26,0,0,1,648.94,386c11.15-1.17,21-1.71,33.15.54a100.06,100.06,0,0,1,28.74,10.12,55,55,0,0,0-6.41-23.26,15.61,15.61,0,0,0-4.73-5.86c-2.7-1.79-6.11-2-9.34-2.07C656.57,364.59,619.48,372.17,588.94,385.44Z"/><path d="M518.31,385.44c2.89,4.77,3.21,7.92,5.52,12.83A430.26,430.26,0,0,0,458.31,386c-11.16-1.17-21-1.71-33.15.54a100,100,0,0,0-28.74,10.12,55,55,0,0,1,6.41-23.26,15.61,15.61,0,0,1,4.73-5.86c2.7-1.79,6.11-2,9.34-2.07C450.68,364.59,487.77,372.17,518.31,385.44Z"/><circle class="cls-8" cx="297.5" cy="557.5" r="10.5"/><path d="M322.51,190c-37.6,36.15-61.36,84.37-70.64,135.7-2.32,12.85-2,28.88,9.21,35.54,5.72,3.4,12.87,3.27,19.42,2.08,23.67-4.3,44.46-21.93,52.56-44.58a49.53,49.53,0,0,0,.4,27.83c.83,2.67,2,5.42,4.3,7,5.68,3.93,13.06-1.59,17.48-6.91A211.13,211.13,0,0,0,384,301.23c-1.51,7-3,14.3-1.16,21.2s8.23,13.16,15.33,12.32c4.87-.58,8.79-4.21,12-7.95a78.58,78.58,0,0,0,17.95-40.31,109.11,109.11,0,0,0-1.46,29.2c.23,2.7.9,5.87,3.4,6.93,2.23.94,4.73-.34,6.76-1.65,26.85-17.31,44.57-48,45-80-2.87,17.17-5.69,35.14-.33,51.71,1.14,3.55,2.73,7.09,5.5,9.58s6.94,3.72,10.33,2.16c5.54-2.55,5.92-10.16,5.45-16.25.16,4.05.37,8.29,2.48,11.75s6.79,5.7,10.33,3.74,4.16-7,4.21-11.19a118.43,118.43,0,0,0-.53-16,74.06,74.06,0,0,0,19.09,30c2,1.9,4.34,3.78,7.09,3.83s5-1.65,6.93-3.48c9.42-9.05,12.86-23,11.74-36s-6.27-25.31-11.91-37.09a117.57,117.57,0,0,0,35.89,59.72c1.83,1.63,3.93,3.28,6.37,3.29,3.58,0,6.16-3.43,7.56-6.73a34,34,0,0,0-1.63-29.53,85.18,85.18,0,0,0,22.54,37.23c2.24,2.15,4.72,4.26,7.75,5,8.57,2,15.23-7.4,18.27-15.66a132.8,132.8,0,0,0,8.16-43.29,252.24,252.24,0,0,0,2.54,52.74c.86,5.6,2.8,12.21,8.25,13.77a12.93,12.93,0,0,0,7.34-.58,38.9,38.9,0,0,0,25.89-28.76,45.43,45.43,0,0,0,2.29,27c1.48,3.59,3.76,7.27,7.46,8.44,5,1.58,10.19-2.21,13.48-6.36a43.29,43.29,0,0,0,8.73-33,69.22,69.22,0,0,0,5.6,23.26c1.3,3,6.39,13.43,9.07,15.28,8.28,5.7,15.67-10.79,19.47-20.1,3.4-8.3,4.64-17.37,4.6-26.35-.18-39.21-24.79-75.42-57.05-97.71s-71.36-32.49-110.12-38.41c-74.48-11.39-155.4-11.66-222.48,22.63C387.26,153.52,342.66,170.62,322.51,190Z"/><path d="M335.38,219.06c-14.43,3.41-25,15.5-33.65,27.54-35.43,49.27-56,111.17-47.16,171.21a213.13,213.13,0,0,0,8.57,35.64c1,3,2.21,6.25,4.81,8.11,4.13,3,10.26,1.13,13.67-2.62s4.8-8.89,6.07-13.81a94.63,94.63,0,0,0,5.7,27c1.31,3.54,4,7.67,7.68,7,2.1-.38,3.57-2.25,4.77-4A97.88,97.88,0,0,0,317.42,452c1.7,7,1.21,14.61,4,21.3s10.88,12.2,17.14,8.56a15.61,15.61,0,0,0,4.91-5.27,69.47,69.47,0,0,0,9.22-21.86l.48-17.2c-.21,5.16,6,8.93,11,7.5s8.18-6.52,8.92-11.64-.51-10.3-1.83-15.3c-8-30.24-18.76-60.6-16.88-91.82,1.18-19.8,7.46-39.14,7.44-59S353.13,225.41,335.38,219.06Z"/><path d="M764.9,284.52c0,32.06,4.87,64.13,2.19,96.07s-14.48,65.18-40.49,83.91c-18.37-44.32,15.22-98.12-4.56-141.83-5.94-13.13-16.69-26.16-13.07-40.1,3.07-11.8,16.61-18.9,28.67-17.12S759.79,276.22,764.9,284.52Z"/><path class="cls-2" d="M417.48,199.53a98.75,98.75,0,0,0-30.54,45.7c-.83,2.64-1.28,6.13,1.05,7.64,2.08,1.34,4.83,0,6.76-1.55,8.47-6.86,13-18.43,22.88-23l-2.27,12.3c-.36,1.95-.13,4.74,1.85,4.9a3.32,3.32,0,0,0,2.09-.78c8.86-6,14.19-16.5,23.61-21.6,1.35,2.51,1.08,5.55,1.63,8.35s2.68,5.83,5.51,5.45c1.63-.21,2.88-1.49,3.95-2.73a68.9,68.9,0,0,0,12.56-21.44,4.44,4.44,0,0,0,.39-2c-.18-1.65-2.07-2.61-3.73-2.6-6.2,0-10.69,8.67-16.62,6.9-1.65-.5-2.94-1.74-4.41-2.61-6.88-4.08-15.48.43-22.14,4.83-1.91-1.59-1.51-4.66-.39-6.88s2.83-4.24,3.11-6.71-2-5.38-4.31-4.48C418.46,199,418.38,198.78,417.48,199.53Z"/><path class="cls-9" d="M616.22,614c-11.76.94-21.2,1.11-27.09,1.12-50,.06-75,.09-89.65-3.12-3-.65-10.56-2.43-15.88,2S478,627.14,478,629c-.24,16.49,14.83,28.18,18.39,31,3.94,3,18.25,14.32,35.36,10.53,11.69-2.6,20.87-10.85,32.55-13.51,8.08-1.85,16.51-.83,24.8-.67s17.35-.81,23.51-5.63c5.27-4.13,7.36-10.26,8.84-16.09,1-4.12,2.25-7.66,1-11.91A16.33,16.33,0,0,0,616.22,614Z"/><path class="cls-5" d="M508,637.78l6.17,6.29a4.68,4.68,0,0,0,2.38,1.57,4.1,4.1,0,0,0,2.44-.42c3.72-1.7,5.93-5.82,10.23-5.92,4.74-.12,8.22,4.9,12.95,4.71a14,14,0,0,0,4.68-1.42c6.42-2.6,13.85-2.94,21.07-3.25l22.94-1"/></svg>