<svg
  id="图层_2"
  data-name="图层 2"
  xmlns="http://www.w3.org/2000/svg"
  viewBox="0 0 1000 1000"
>
  <defs>
    <style>
      .cls-1 {
        fill: #fff;
      }
      .cls-2 {
        fill: rgb(0, 0, 0);
      }
    </style>
  </defs>
  <path
    class="cls-1"
    d="M512.47,484c1-19.15-12.17-28.48-28.11-36.15s-35.86-7.48-51.78.21a52.28,52.28,0,0,0-29.64,41.31c3.2,9.33,11.43,16.66,20.87,21s19.64,8,30.13,8.68a85.46,85.46,0,0,0,37.55-6.63C503,507.56,512,494.18,512.47,484Z"
  />
  <path
    class="cls-2"
    d="M406.25,486.62c-1.22-9.06,9.69-26.32,21.77-33.47,14.65-8.67,32.61-12.35,49.09-8.09s31,17.05,35.36,33c-1-12.76-8.87-24.47-19.59-31.47s-24-9.52-36.74-8.49a64.26,64.26,0,0,0-33.09,12,52,52,0,0,0-19.65,28.91c-.36,1.48-.86,3.41-.49,4.88s.63,2.93,2.12,3.19C405,487.13,406.1,487.13,406.25,486.62Z"
  />
  <path
    class="cls-2"
    d="M402.42,483.58a89.82,89.82,0,0,0-22.18-2.13,34.75,34.75,0,0,0,23,12.23,2.1,2.1,0,0,0,1.36-.18,2.18,2.18,0,0,0,.74-1.32,11.12,11.12,0,0,0,.56-5.43C405.48,485,403.81,483.32,402.42,483.58Z"
  />
  <circle class="cls-2" cx="471.32" cy="478.93" r="36.72" />
  <path
    class="cls-1"
    d="M437.79,492.28a137.34,137.34,0,0,1,29.3-7.69L447.26,507.3a2.1,2.1,0,0,1-1,.74,2,2,0,0,1-1.21-.17,18.41,18.41,0,0,1-8.93-7.26,7.93,7.93,0,0,1-1.51-5.26C434.92,493.51,436.56,491.78,437.79,492.28Z"
  />
  <path
    class="cls-1"
    d="M689.53,470.83c-9.51-19.93-32.21-32.5-54.23-30.94S596.16,459.37,589,473.31c.21,13.83,2.13,18.08,10,28.3,7.18,9.29,32.5,20.61,57.74,16.1,13-2.32,22-11.6,29.56-22.39C687.83,493.12,692.59,477.25,689.53,470.83Z"
  />
  <circle class="cls-2" cx="651.8" cy="479.43" r="36.72" />
  <path
    class="cls-1"
    d="M618.27,493.34a137.93,137.93,0,0,1,29.3-7.69l-19.83,22.72a2.08,2.08,0,0,1-1,.73,2,2,0,0,1-1.21-.17,18.41,18.41,0,0,1-8.93-7.26,7.92,7.92,0,0,1-1.51-5.25C615.4,494.57,617,492.85,618.27,493.34Z"
  />
  <path
    class="cls-2"
    d="M693,486.94c3.32-12.57-3.84-23.33-11.56-31.7s-18.79-13.57-29.71-15.39-22.2-.46-32.79,2.93c-7.07,2.27-14,5.49-19.66,10.49s-10,11.93-10.35,20c4.35-9.91,12.4-17.72,21.65-22.61s19.65-7,30-7.35a52.62,52.62,0,0,1,12.17,1.29c8.22,1.59,15.85,6.12,22.33,11.69,8.72,7.49,15.18,17.9,14.88,29.77,0,.82.95,1.46,1.56,2s1.8-.34,1.6-1.1C693.16,486.9,693.19,486.86,693,486.94Z"
  />
  <path
    class="cls-2"
    d="M693.94,479l13.9-5.66c.65,1.46-.44,3-1.56,4.3A74.17,74.17,0,0,1,699,485c-2.18,1.92-5.48,4-8.68,3a10.1,10.1,0,0,1,.06-5.32A7.74,7.74,0,0,1,693.94,479Z"
  />
</svg>
