<svg id="图层_2" data-name="图层 2" xmlns="http://www.w3.org/2000/svg" viewBox="0 0 1000 1000"><defs><style>.cls-1{fill:#8e806e;stroke:#000;stroke-linecap:round;stroke-linejoin:round;stroke-width:4px;}</style></defs><path class="cls-1" d="M778,727c-3.72,37.18,12.65,43.34,15,82,.93,15.24.65,51.72-21.65,85.88A133.54,133.54,0,0,1,725.5,937.6,156.1,156.1,0,0,0,748,763a124.54,124.54,0,0,1,4.59,42.77c-1.27,18.12-5.87,31.2-11.16,43.36-11.62,26.77-35.19,51.31-31,80.18-16.93-22.56-16.21-53.53-12.34-81.47S714.19,771,705.85,744c5.32,22.47-3.85,66.85-14.74,87.21-7.86,14.69-19.47,27.19-26.72,42.2s-9.2,34.56,1.74,47.13a65.4,65.4,0,0,1-29.11-43,36.4,36.4,0,0,0,6.91,33c-19.62-10.86-31.33-32.53-35.52-54.56s-1.86-44.7.49-67c-11.85,22.75-9.78,50-6.26,75.42,1.34,9.7,2.84,19.65.7,29.2-3.42,15.28-10.84,7.81-26.17,9.75a30,30,0,0,0,6.91-33.48l-4.56,14.59c-9.15,7.14-18.74,16.78-30,23.87a90.45,90.45,0,0,0,3.2-56.21c-6.76,16.09-15.82,31.91-30,42-17.81,12.71-40.88,14.67-62.7,16.2,9.48-6.87,9.67-21.06,6.3-32.27s-9.35-22-9-33.75a173.23,173.23,0,0,1-29.43,68.06,72.28,72.28,0,0,0-14-33.42c-.65,10.47-7.85,19.64-16.64,25.35s-19.1,8.54-29.22,11.29c12.4-9.24,16.58-26.22,15.55-41.64s-6.31-30.21-9.16-45.4-3-31.93,5.43-44.9c-13.64,10.9-15.8,30.76-14.31,48.16s5.45,35.36.07,52a48.88,48.88,0,0,1-29,30.29c-11.57,4.31-25.43,4.55-34.05,13.38a43.25,43.25,0,0,0,9.2-40.36c-4.49-15.3-17.35-27.4-20.29-43.08,5.06,16.61,9.47,34,7.17,51.17s-12.8,34.35-29.31,39.72c10.71-5.51,11-21.42,5.07-31.89s-16.06-17.92-23-27.74c-18.48-26-11.3-61.65-3.24-92.55-9.14,20.26-17.9,41.06-20.69,63.11s1,45.81,14.93,63.17c-23.88-15.06-35-39.71-36.46-64.55s6.29-49.71,19.29-70.93c10.33-16.87,24.13-32.11,29.74-51.08,10.11-34.12-8.71-70.52-4.64-105.87,3-25.72,17.68-48.36,26.75-72.62,17.46-46.66,13.68-98.1,13.49-147.93s4.69-103,35.46-142.22c6.19-7.88,14.4-15.51,24.2-18,15.68-29.89,44.83-51.06,76.39-63s65.64-15.52,99.34-17.3c17.94-.95,36.18-1.39,53.6,3,19.33,4.86,36.72,15.43,53.1,26.8,48.92,34,93.35,78.79,111.21,135.59,7,22.31,9.72,45.78,10.3,69.15a395.78,395.78,0,0,1-5.85,78.29c-3.68,20.93-9.08,41.84-8.25,63.08,1.43,36.81,21.22,70.06,39.75,103.35A198.57,198.57,0,0,1,784,684C783.16,704.8,779.55,711.54,778,727Z"/><path class="cls-1" d="M279,621a107.25,107.25,0,0,1-7.77,36.93C261.8,681,249.5,688.33,237.3,712c-6.54,12.7-11.41,26.78-12.33,40.91a75.67,75.67,0,0,1-22.74,3.62,87.77,87.77,0,0,0,22.61-.54,65,65,0,0,0,1.88,17.59c5.2,20.65,24.21,38.71,45.46,37.4a20.61,20.61,0,0,1-16.1-15.13,25.51,25.51,0,0,0,26.47,12.93c-10.82-9.67-21.77-19.49-29.66-31.67A62.92,62.92,0,0,1,243,751.24a87.34,87.34,0,0,0,15.68-7.77A89.26,89.26,0,0,0,295,698.28l8-35.6m-60.37,82a42.21,42.21,0,0,1,1.05-8.86c6.38-27.67,39.07-42.25,48-69.21A134.39,134.39,0,0,1,242.63,744.63Z"/><path class="cls-1" d="M735,534c5.08,9.43,30.79,28.08,36.37,37.22,6.64,10.89,6.84,24.63,4.2,37.11a92.1,92.1,0,0,1-26.29,47.2c-4.85,4.64-10.46,8.87-17,10.31s-14.24-.52-18-6.12c6,12,22.38,17.51,34.4,11.51a30.56,30.56,0,0,1-25.25,17.51c12.95,2.38,19.56-2.74,23.24-4.45a95.6,95.6,0,0,0,22.79-139.85c-7.22-9.05-26.85-34.32-32.47-44.44"/></svg>