<svg id="图层_2" data-name="图层 2" xmlns="http://www.w3.org/2000/svg" xmlns:xlink="http://www.w3.org/1999/xlink" viewBox="0 0 1000 1000"><defs><style>.cls-1,.cls-10,.cls-13,.cls-17{fill:none;}.cls-2{fill:#bce8e0;}.cls-10,.cls-13,.cls-15,.cls-2,.cls-5,.cls-6,.cls-9{stroke:#000;}.cls-10,.cls-2,.cls-5,.cls-9{stroke-linecap:round;}.cls-10,.cls-15,.cls-16,.cls-17,.cls-2,.cls-6,.cls-9{stroke-miterlimit:10;}.cls-10,.cls-13,.cls-15,.cls-16,.cls-17,.cls-2,.cls-5,.cls-6,.cls-9{stroke-width:4px;}.cls-3{clip-path:url(#clip-path);}.cls-4{fill:#fffaff;}.cls-5{fill:#8e806e;}.cls-13,.cls-5{stroke-linejoin:round;}.cls-6,.cls-9{fill:#fff3dc;}.cls-7{fill:#fff;}.cls-8{fill:#ffd6c0;}.cls-11{fill:#a84e45;}.cls-12{fill:#ff8271;}.cls-14{fill:#dcf8ff;}.cls-15{fill:#ffd15c;}.cls-16{fill:#fd8;}.cls-16,.cls-17{stroke:#120d0d;}</style><clipPath id="clip-path"><rect class="cls-1" x="-1085" y="-1" width="1000" height="1000"/></clipPath></defs><rect class="cls-2" x="1" y="-1" width="1000" height="1000"/><g class="cls-3"><rect class="cls-4" x="-412.75" y="9.52" width="161" height="1416.92" transform="translate(395.84 408.52) rotate(42.14)"/><rect class="cls-4" x="-208.25" y="214.02" width="161" height="1416.92" transform="translate(585.91 324.17) rotate(42.14)"/></g><path class="cls-5" d="M778,727c-3.72,37.18,12.65,43.34,15,82,.93,15.24.65,51.72-21.65,85.88A133.54,133.54,0,0,1,725.5,937.6,156.1,156.1,0,0,0,748,763a124.54,124.54,0,0,1,4.59,42.77c-1.27,18.12-5.87,31.2-11.16,43.36-11.62,26.77-35.19,51.31-31,80.18-16.93-22.56-16.21-53.53-12.34-81.47S714.19,771,705.85,744c5.32,22.47-3.85,66.85-14.74,87.21-7.86,14.69-19.47,27.19-26.72,42.2s-9.2,34.56,1.74,47.13a65.4,65.4,0,0,1-29.11-43,36.4,36.4,0,0,0,6.91,33c-19.62-10.86-31.33-32.53-35.52-54.56s-1.86-44.7.49-67c-11.85,22.75-9.78,50-6.26,75.42,1.34,9.7,2.84,19.65.7,29.2-3.42,15.28-10.84,7.81-26.17,9.75a30,30,0,0,0,6.91-33.48l-4.56,14.59c-9.15,7.14-18.74,16.78-30,23.87a90.45,90.45,0,0,0,3.2-56.21c-6.76,16.09-15.82,31.91-30,42-17.81,12.71-40.88,14.67-62.7,16.2,9.48-6.87,9.67-21.06,6.3-32.27s-9.35-22-9-33.75a173.23,173.23,0,0,1-29.43,68.06,72.28,72.28,0,0,0-14-33.42c-.65,10.47-7.85,19.64-16.64,25.35s-19.1,8.54-29.22,11.29c12.4-9.24,16.58-26.22,15.55-41.64s-6.31-30.21-9.16-45.4-3-31.93,5.43-44.9c-13.64,10.9-15.8,30.76-14.31,48.16s5.45,35.36.07,52a48.88,48.88,0,0,1-29,30.29c-11.57,4.31-25.43,4.55-34.05,13.38a43.25,43.25,0,0,0,9.2-40.36c-4.49-15.3-17.35-27.4-20.29-43.08,5.06,16.61,9.47,34,7.17,51.17s-12.8,34.35-29.31,39.72c10.71-5.51,11-21.42,5.07-31.89s-16.06-17.92-23-27.74c-18.48-26-11.3-61.65-3.24-92.55-9.14,20.26-17.9,41.06-20.69,63.11s1,45.81,14.93,63.17c-23.88-15.06-35-39.71-36.46-64.55s6.29-49.71,19.29-70.93c10.33-16.87,24.13-32.11,29.74-51.08,10.11-34.12-8.71-70.52-4.64-105.87,3-25.72,17.68-48.36,26.75-72.62,17.46-46.66,13.68-98.1,13.49-147.93s4.69-103,35.46-142.22c6.19-7.88,14.4-15.51,24.2-18,15.68-29.89,44.83-51.06,76.39-63s65.64-15.52,99.34-17.3c17.94-.95,36.18-1.39,53.6,3,19.33,4.86,36.72,15.43,53.1,26.8,48.92,34,93.35,78.79,111.21,135.59,7,22.31,9.72,45.78,10.3,69.15a395.78,395.78,0,0,1-5.85,78.29c-3.68,20.93-9.08,41.84-8.25,63.08,1.43,36.81,21.22,70.06,39.75,103.35A198.57,198.57,0,0,1,784,684C783.16,704.8,779.55,711.54,778,727Z"/><path class="cls-5" d="M279,621a107.25,107.25,0,0,1-7.77,36.93C261.8,681,249.5,688.33,237.3,712c-6.54,12.7-11.41,26.78-12.33,40.91a75.67,75.67,0,0,1-22.74,3.62,87.77,87.77,0,0,0,22.61-.54,65,65,0,0,0,1.88,17.59c5.2,20.65,24.21,38.71,45.46,37.4a20.61,20.61,0,0,1-16.1-15.13,25.51,25.51,0,0,0,26.47,12.93c-10.82-9.67-21.77-19.49-29.66-31.67A62.92,62.92,0,0,1,243,751.24a87.34,87.34,0,0,0,15.68-7.77A89.26,89.26,0,0,0,295,698.28l8-35.6m-60.37,82a42.21,42.21,0,0,1,1.05-8.86c6.38-27.67,39.07-42.25,48-69.21A134.39,134.39,0,0,1,242.63,744.63Z"/><path class="cls-5" d="M735,534c5.08,9.43,30.79,28.08,36.37,37.22,6.64,10.89,6.84,24.63,4.2,37.11a92.1,92.1,0,0,1-26.29,47.2c-4.85,4.64-10.46,8.87-17,10.31s-14.24-.52-18-6.12c6,12,22.38,17.51,34.4,11.51a30.56,30.56,0,0,1-25.25,17.51c12.95,2.38,19.56-2.74,23.24-4.45a95.6,95.6,0,0,0,22.79-139.85c-7.22-9.05-26.85-34.32-32.47-44.44"/><path class="cls-6" d="M714.41,881.51c-5.45-14-19-23.32-32.91-28.92s-28.91-8.37-42.78-14.16c-15.22-6.35-29.14-16.56-38.09-30.42a85.47,85.47,0,0,1-11.11-27.53,116.36,116.36,0,0,1,.83-54.78c-20-17.71-46.5-27.19-73.14-27.49A121,121,0,0,0,442.78,723c10.43,25.3,5.43,55.48-9.75,78.25S393.5,839.76,367.56,847c-6.81,6.91-17.13,9.26-24.36,15.73-5.49,4.91-8.75,11.78-10.34,18.48l-11,12.07c19.5,16.39,45.26,23,70.3,27.58a653.9,653.9,0,0,0,231.22,1c20.25-3.56,40.4-8.09,59.72-15.13C696.71,901.71,711.16,894.13,714.41,881.51Z"/><path class="cls-6" d="M735.15,414.44c-.18,28.93-4.41,39.54-6.46,60.29a260,260,0,0,0-1,32.86c.87,56.23,1.3,84.35-3.7,104.41-12.3,49.32-52.49,78.85-84,102-27.92,20.52-49.53,36.39-82,40-21.27,2.36-53.77-10-119-34-2.78-1-34.75-13-55-31a240.73,240.73,0,0,1-17.64-17.57L366,671a310.72,310.72,0,0,1-24-31c-31.11-45.92-41.94-88.63-47-109.37-17.83-73-39.63-155.79,6.38-230.39,47.56-77.11,143.35-114.78,226.45-113.19,23.42.45,101.27,1.94,154.16,55.1C735.87,296.3,735.38,375.47,735.15,414.44Z"/><path class="cls-7" d="M514.47,480.94c1-16.37-12.17-24.35-28.11-30.9s-35.86-6.4-51.78.18-27.49,19.35-29.64,35.31c3.2,8,11.43,14.24,20.87,17.93s19.64,6.83,30.13,7.41a98.25,98.25,0,0,0,37.55-5.66C505,501.07,514,489.63,514.47,480.94Z"/><path d="M408.25,488.66C407,480.36,417.94,464.53,430,458c14.65-7.94,32.61-11.32,49.09-7.42s31,15.63,35.36,30.28c-1-11.7-8.87-22.44-19.59-28.85s-24-8.73-36.74-7.79c-11.85.88-23.54,4.52-33.09,11s-16.83,15.92-19.65,26.51c-.36,1.35-.86,3.11-.49,4.47s.63,2.68,2.12,2.92C407,489.13,408.1,489.13,408.25,488.66Z"/><path d="M406.42,485.58a89.82,89.82,0,0,0-22.18-2.13,34.75,34.75,0,0,0,23,12.23,2.1,2.1,0,0,0,1.36-.18,2.18,2.18,0,0,0,.74-1.32,11.12,11.12,0,0,0,.56-5.43C409.48,487,407.81,485.32,406.42,485.58Z"/><ellipse cx="472.63" cy="479.63" rx="34.63" ry="29.63"/><path class="cls-7" d="M439.79,495.28a137.34,137.34,0,0,1,29.3-7.69L449.26,510.3a2.1,2.1,0,0,1-1,.74,2,2,0,0,1-1.21-.17,18.41,18.41,0,0,1-8.93-7.26,7.93,7.93,0,0,1-1.51-5.26C436.92,496.51,438.56,494.78,439.79,495.28Z"/><path class="cls-7" d="M685.53,471.28c-9.51-17-32.21-27.67-54.23-26.34S592.16,461.52,585,473.39c.21,11.78,2.13,15.39,10,24.1,7.18,7.91,32.5,17.54,57.74,13.7,13-2,22-9.87,29.56-19.06C683.83,490.26,688.59,476.74,685.53,471.28Z"/><ellipse cx="646.5" cy="479.56" rx="33.5" ry="29.5"/><path class="cls-7" d="M616.27,492.41a137.34,137.34,0,0,1,29.3-7.69l-19.83,22.71a2.1,2.1,0,0,1-1,.74,2,2,0,0,1-1.21-.17,18.47,18.47,0,0,1-8.93-7.26,8,8,0,0,1-1.51-5.26C613.4,493.64,615,491.91,616.27,492.41Z"/><path d="M690.09,489.46c2.71-12.71-5-23.13-13.09-31.12s-19.42-12.64-30.42-13.94-22.2.63-32.6,4.53c-7,2.61-13.71,6.16-19.13,11.43s-9.46,12.42-9.37,20.51c3.87-10.12,11.52-18.32,20.53-23.65s19.28-8,29.59-8.8a52.68,52.68,0,0,1,12.21.69c8.29,1.2,16.13,5.35,22.87,10.61,9.07,7.06,16,17.15,16.32,29,0,.82,1,1.42,1.65,1.89s1.77-.43,1.55-1.18C690.23,489.42,690.26,489.38,690.09,489.46Z"/><path d="M689.94,484l13.9-5.65c.65,1.45-.44,3-1.56,4.29a73.21,73.21,0,0,1-7.33,7.42c-2.18,1.92-5.48,3.94-8.68,3a10.1,10.1,0,0,1,.06-5.32A7.72,7.72,0,0,1,689.94,484Z"/><path class="cls-8" d="M558.4,511.68a155,155,0,0,0-59.27,22.56,8.14,8.14,0,0,0-3.37,3.28c-1.73,4,3.06,7.58,7.16,9,20.45,6.92,42.75,3.94,64.12.89l55.9-8a174.34,174.34,0,0,0-66.68-26.62"/><path class="cls-9" d="M304.78,451.58c-8-6.28-18.14-10-28.16-8.93a42.54,42.54,0,0,0-16,5.34c-24.44,13.47-36.86,45.23-30.36,72.82s30.14,49.51,57.22,55.8c8.36,1.94,17.26,2.51,25.38-.32,7.29-2.53,13.48-7.65,18.82-13.33"/><path class="cls-10" d="M252.9,496.11a219.11,219.11,0,0,1,57.85,15"/><path class="cls-10" d="M282,502.18q-2.55,18.42-3.74,37"/><path class="cls-11" d="M624.82,623.4a72.37,72.37,0,0,1-17,33l-.91-2c-27.37-13.75-61.52-13.47-88.71.54-4.66-6.08-8.79-13.14-13.57-20.92A1018.45,1018.45,0,0,0,624.82,623.4Z"/><path class="cls-12" d="M606.88,654.36l.91,2a63.67,63.67,0,0,1-20.58,15.17c-19.38,8.86-44.11,6.61-60.24-7.19a61.43,61.43,0,0,1-8.8-9.46C545.36,640.89,579.51,640.61,606.88,654.36Z"/><path class="cls-13" d="M518.17,654.9c-4.66-6.08-8.79-13.14-13.57-20.92A1018.45,1018.45,0,0,0,624.82,623.4a72.37,72.37,0,0,1-17,33,63.67,63.67,0,0,1-20.58,15.17c-19.38,8.86-44.11,6.61-60.24-7.19A61.43,61.43,0,0,1,518.17,654.9Z"/><path class="cls-13" d="M518,655l.21-.11c27.19-14,61.34-14.29,88.71-.54"/><path class="cls-10" d="M513.88,176.15c18.86,18.16,28.64,43.72,37.85,68.39"/><path d="M712.52,387.18c-39.43-11.17-81.67-10.91-123.41,1.41a20.56,20.56,0,0,0-5,8.06A453.81,453.81,0,0,1,713.51,392C713.79,390,713.53,387.47,712.52,387.18Z"/><path d="M388.15,398.69c46.7-18.13,75.75-21.53,132.09-10.41,2.48,3.33,2.83,4.1,2.87,9.28-82.48-8.85-94.88-1.22-141.36,12.44C384.48,405.67,386.68,401.34,388.15,398.69Z"/><path class="cls-10" d="M567.44,506.32a321.44,321.44,0,0,1,16.11,31.74c2.79,6.36,5.43,13.27,4.13,20.1-.89,4.73-3.61,8.92-6.7,12.61A63.32,63.32,0,0,1,562.23,586"/><path class="cls-14" d="M409.56,707.1c2.45-18,8.35-33.64,12.42-51.37,7.22-39.47,14.79-74.68,13.52-112.23l.1-.27a188.14,188.14,0,0,0,80,11.46c32.29-2.42,44.9-15.91,77.21-13.76,27.21,1.81,89.45,15.29,126,4,0,0,7.32-1.59,8.31,6.52.17,5.25.33,10.5.19,17.67,3.23,36.86,6.12,75.71-10.3,109.18-11.53,23.51-32,42.4-55.68,55S610.9,752.59,584,755.42c-31.76,3.33-64.42,1.42-94.67-8.44-26.13-8.51-53.7-25.61-77.5-39.05l-2.31-.43Z"/><path class="cls-14" d="M435.6,543.23l-.1.27c1.27,37.55-6.3,72.76-13.52,112.23-4.07,17.73-10,33.4-12.42,51.37a197.64,197.64,0,0,1-21.82-15.6h.19q.74-4.61,1.72-9.51c1-4.94,2.15-9.61,3.35-14a467.76,467.76,0,0,0,13.77-67.21,466.81,466.81,0,0,0,3.82-69c6.43,3.42,13,6.59,19.74,9.37Q432.94,542.23,435.6,543.23Z"/><path class="cls-10" d="M309.45,579.91c12.95,17.38,20.75,37.74,31.53,56.43a203,203,0,0,0,46.76,55.16,197.64,197.64,0,0,0,21.82,15.6l.18.12"/><path class="cls-10" d="M311.27,478.42c36.14,11.38,66,35.67,99.32,53.36,6.43,3.42,13,6.59,19.74,9.37q2.61,1.08,5.27,2.08a188.14,188.14,0,0,0,80,11.46c32.29-2.42,44.9-15.91,77.21-13.76,27.21,1.81,89.45,15.29,126,4,0,0,7.32-1.59,8.31,6.52.17,5.25.33,10.5.19,17.67,3.23,36.86,6.12,75.71-10.3,109.18-11.53,23.51-32,42.4-55.68,55S610.9,752.59,584,755.42c-31.76,3.33-64.42,1.42-94.67-8.44-26.13-8.51-53.7-25.61-77.5-39.05"/><path class="cls-10" d="M410.59,531.61v.17a466.81,466.81,0,0,1-3.82,69A467.76,467.76,0,0,1,393,668c-1.2,4.38-2.34,9-3.35,14q-1,4.9-1.72,9.51h-.43"/><path class="cls-10" d="M435.5,543.5c1.27,37.55-6.3,72.76-13.52,112.23-4.07,17.73-10,33.4-12.42,51.37l-.06.4"/><path class="cls-15" d="M315.2,578.69c2,5.11-1.73,10.72-6.05,14.12a25.64,25.64,0,0,1-8.2,4.48c-9.28,2.86-20-2-24.87-10.39s-3.9-19.52,1.47-27.59,14.7-13.13,25.49-13.75c-.86-4.8-5.34-8.39-10.13-9.28s-9.75.48-14.11,2.67c-12,6-20.25,18-23.93,30.85-2.44,8.56-3,17.93.15,26.25,2.88,7.57,8.67,13.81,15.48,18.18,12.88,8.28,30.64,9.81,43.35,1.28s17.67-27.91,9.32-40.73C323.06,574.79,323,574.81,315.2,578.69Z"/><path class="cls-5" d="M316.12,500.43C328.33,470,354.49,405.87,379,378c47.35-53.83,101.67-86.82,164.08-121.41,2.73-1.52,5.57-3,8.68-3.26,2.92-.21,5.79.76,8.55,1.75C640.8,284,704.05,333.59,740.92,415.76c12.41-54.78,11.87-106.93-11.09-158.08-6.5-14.5-14.23-28.54-24.17-40.88-20.3-25.22-49.18-42.35-79.72-52.34S565.08,147,533,146c-32.34-1-69-1-98,7-21.38,5.9-41.78,16.22-60,29-56.72,39.78-93,83-107,143-4.81,20.62-1.87,75.15,3.62,95.59S292.33,479.55,316.12,500.43Z"/><path class="cls-16" d="M772.06,958.53c-16.56-39.62-27.18-65-42.74-85.12-16.91-21.83-37.62-32-43.77-35.35A174.06,174.06,0,0,0,623.26,818c-11.36,11.87-38.69,36.9-80.43,44-23.3,4-41.92.78-51.83-1-39-7-66.49-26.2-80.78-38A242,242,0,0,0,363,836a209.24,209.24,0,0,0-29.17,13.84,190.15,190.15,0,0,0-23.68,16.34c-14.93,12-24.88,23.7-31.75,31.89-32.27,38.45-45.41,79.6-54.32,107.49-1.82,5.71-3.19,10.45-4.08,13.62a469.23,469.23,0,0,0,55.87,32.19c22,10.7,80.28,36.79,203.36,42.29,106.68,4.77,180.5,7,267.77-42.29a417.72,417.72,0,0,0,48-31.72C790,1004.73,782.43,983.35,772.06,958.53Z"/><path class="cls-17" d="M361,839c19.51,19.69,50.44,44.59,94,59,61.19,20.25,129.57,7.52,163-17,15-11,37-23,53-50"/></svg>