<svg id="图层_2" data-name="图层 2" xmlns="http://www.w3.org/2000/svg" viewBox="0 0 1000 1000"><defs><style>.cls-1{fill:#ffeec0;}.cls-1,.cls-10,.cls-11,.cls-12,.cls-3,.cls-4,.cls-6,.cls-7,.cls-8{stroke:#000;}.cls-1,.cls-4,.cls-6{stroke-linecap:round;}.cls-1,.cls-10,.cls-11,.cls-12,.cls-2,.cls-3,.cls-4,.cls-6,.cls-7,.cls-8{stroke-miterlimit:10;}.cls-1,.cls-10,.cls-11,.cls-12,.cls-2,.cls-3,.cls-6,.cls-7{stroke-width:4px;}.cls-2{fill:#898989;stroke:#120d0d;}.cls-3{fill:#ad7150;}.cls-11,.cls-4,.cls-6{fill:none;}.cls-4{stroke-width:3px;}.cls-5{fill:#e26d44;}.cls-7{fill:#efacac;}.cls-9{fill:#ffd15c;}.cls-10{fill:#fff;}.cls-12{fill:#ff8271;}</style></defs><rect class="cls-1" y="2" width="1000" height="1000"/><path class="cls-2" d="M285.54,388.57a368.24,368.24,0,0,1-156.25,149.6,309.26,309.26,0,0,0,44.62,64.05c12.73,14.07,30.94,28,48.94,22a22.41,22.41,0,0,0,33.44,27.21,24.34,24.34,0,0,0,40.19,22.66,19,19,0,0,0,30,21.55c15.82,22.92,44.23,36.52,72,34.48A299.82,299.82,0,0,0,540,751.8a524.17,524.17,0,0,0,171.45-24.31c17.39-5.52,38.11-17.81,34.71-35.73,7,8.44,20.33.33,27.78-7.7l24.39-26.29c8-8.61,16.45-18.33,16.77-30.08,13.82-2,25.29-14.75,25.73-28.7,15,.67,28.19-15.72,24.29-30.25C879.65,565.43,889.2,548,884.16,534c9.46,2.3,19.11-9,15.36-18a168.46,168.46,0,0,1-108.07-66.91c-40.65-56.38-44.68-135.81-94.56-184.21-32.3-31.33-78.67-43.82-123.53-47.29C512.14,212.85,449,223.2,395.25,253s-97.08,79.89-111.66,139.83C283.59,392.3,283.59,391.81,285.54,388.57Z"/><path class="cls-3" d="M714.41,881.51c-5.45-14-19-23.32-32.91-28.92s-28.91-8.37-42.78-14.16c-15.22-6.35-29.14-16.56-38.09-30.42a85.47,85.47,0,0,1-11.11-27.53,116.36,116.36,0,0,1,.83-54.78c-20-17.71-46.5-27.19-73.14-27.49A121,121,0,0,0,442.78,723c10.43,25.3,5.43,55.48-9.75,78.25S393.5,839.76,367.56,847c-6.81,6.91-17.13,9.26-24.36,15.73-5.49,4.91-8.75,11.78-10.34,18.48l-11,12.07c19.5,16.39,45.26,23,70.3,27.58a653.9,653.9,0,0,0,231.22,1c20.25-3.56,40.4-8.09,59.72-15.13C696.71,901.71,711.16,894.13,714.41,881.51Z"/><path class="cls-3" d="M735.15,409.44c-.25,40.87-8.58,45.17-7.45,93.15,1.77,74.35,11.79,89.82,2.13,124.21-15.42,54.89-96,98.35-152.56,111.24-23.4,5.33-115.36,1.41-183.93-43.59-55.82-36.63-80-86.71-98.34-168.82-20.72-93-36-161.65,6.38-230.39,47.56-77.11,143.35-114.78,226.45-113.19,23.42.45,101.27,1.94,154.16,55.1C735.87,291.3,735.38,370.47,735.15,409.44Z"/><path class="cls-4" d="M463.78,432.59c10.65-1.73,21.94-1.55,31.79,2.86s18,13.67,18.88,24.42"/><path class="cls-4" d="M604,447a59.85,59.85,0,0,1,70.25-25.48"/><path class="cls-5" d="M558.4,511.68a155,155,0,0,0-59.27,22.56,8.14,8.14,0,0,0-3.37,3.28c-1.73,4,3.06,7.58,7.16,9,20.45,6.92,42.75,3.94,64.12.89l55.9-8a174.34,174.34,0,0,0-66.68-26.62"/><path class="cls-3" d="M304.78,451.58c-8-6.28-18.14-10-28.16-8.93a42.54,42.54,0,0,0-16,5.34c-24.44,13.47-36.86,45.23-30.36,72.82s30.14,49.51,57.22,55.8c8.36,1.94,17.26,2.51,25.38-.32,7.29-2.53,13.48-7.65,18.82-13.33"/><path class="cls-6" d="M252.9,496.11a219.11,219.11,0,0,1,57.85,15"/><path class="cls-6" d="M282,502.18q-2.55,18.42-3.74,37"/><path d="M640.08,355.1a62.89,62.89,0,0,0-30.81,9c-2,1.22-4.08,2.71-4.83,4.94a6.94,6.94,0,0,0,2.17,7,12.87,12.87,0,0,0,7.06,2.94c9.46,1.31,18.77-3.2,28.32-3.46A32.29,32.29,0,0,1,662.08,382a19.55,19.55,0,0,0,4.84,3.15c4.17,1.52,9.13-1.2,10.85-5.3s.61-9-2-12.58-6.54-6-10.62-7.8C657,356,647.91,354.91,640.08,355.1Z"/><path d="M455.45,360.83c-7.79.9-15.06,4.33-21.91,8.15-4.29,2.41-8.63,5.12-11.33,9.23s-3.32,10-.19,13.78c3.62,4.4,10.62,4.26,15.76,1.79s9.2-6.7,14-9.79a36.31,36.31,0,0,1,31.05-3.69c2.9,1,6,2.42,8.91,1.46,3.82-1.25,5.33-6.3,3.88-10s-5-6.26-8.71-7.86C477.06,359.58,465.79,359.64,455.45,360.83Z"/><path class="cls-6" d="M573.63,544.73c9.75-.38,20.91.65,26.84,8.4,5.12,6.7,4.32,16.61-.14,23.76s-11.89,11.94-19.56,15.42"/><path class="cls-2" d="M474.17,263.28c1.3,7.69,9.8,11.9,17.5,13.09,22.54,3.5,44.77-7.93,67.57-8.29,16.64-.27,32.85,5.37,49.48,6.17s35.7-5.25,41.94-20.68c4.08-10.06,1.5-21.94-4.59-30.91s-15.29-15.4-24.89-20.45c-28.29-14.87-62.27-19.06-93-10.33-24.86,7.05-48.07,23.38-58.42,47.05-2,4.61-3.55,9.63-2.89,14.61S470.85,263.42,474.17,263.28Z"/><path class="cls-2" d="M659.53,404c-5.27-8.14-5.59-18.76-2.78-28s8.42-17.44,14.46-25a45.19,45.19,0,0,0,13.38,62.4c6.42,4.16,13.77,6.62,21,9,10,3.26,20,6.46,30.42,8l-3.78-1c-8.88-9.94-8.34-26,.24-36.06C728,410.67,744.2,430,762,428.52c-9.27-2.75-13.5-14.11-12-23.67s7-17.92,11.4-26.5c23.88-46,17.37-104.72-11.36-147.9S678.74,145.38,627.74,136c-26.46-4.86-58.58-2.9-83,8.31-19.81-14.86-51.32-17.78-76.7-16.17-48.62,3.08-95.78,27.7-137.19,53.35s-74.28,67.83-80.7,116.12c-4.37,32.91,3.45,66.35.81,99.45-.42,5.29-1.26,10.91-4.79,14.87s-10.63,5.1-13.93.95c7.77,18.76,26.61,32.42,46.86,34s40.95-9.07,51.5-26.42c0,6.76-6.71,12-13.43,12.71s-13.3-1.94-19.46-4.72c17.84,18.29,48.37,22.56,70.54,9.86,12.31-7,21.57-18.28,30.54-29.26,4.19-5.13,8.58-10.73,9-17.35a36.71,36.71,0,0,1-47.44,42.25c33,21.5,81.44,14.69,107.24-15.07,5.76-6.64,10.52-14.41,12.21-23,1.15-5.84.85-11.86.38-17.8a321.61,321.61,0,0,0-7.34-47.41c10.12,14.81,17.9,32.72,14.58,50.35s-21.56,33-38.73,27.83c14.27,5.92,31.83,1.58,42.63-9.47s14.81-27.89,11.45-43c-3.16-14.14-12.07-26.37-16-40.31-8.05-28.44,6.24-59.24,27.42-79.85,6-5.86,11.38-5.47,19.77-5.34s16.7,18.92,16.44,27.83c1.59-9,5.4-26.41,11.39-33.29,6.31-7.26,18.6-10.39,28.13-9.14s14.29,4.5,20.94,11.44C624.36,241.81,629.49,258.51,628,278s-24.54,44-26.27,53C599,345.45,586.29,376.19,615,397c11.86,8.6,26.88,13.65,41,9.62-8.34.81-15.18-10-10.86-17.2a20.56,20.56,0,0,0,17.74,14.79C662.7,404.24,662.54,404.24,659.53,404Z"/><path class="cls-2" d="M559.67,259.26c1.76-20.09,14.38-38.09,30.33-43.26"/><path class="cls-2" d="M574.73,260.68c-1.34-3.66-.44-7.86,1.62-11.17a27.51,27.51,0,0,1,8.39-8,64.23,64.23,0,0,1,21.77-9.31"/><path class="cls-2" d="M589.6,261.71c.65-4.06,4.41-7.29,8.65-8.66s8.89-1.19,13.35-.64,8.9,1.44,13.4,1.42"/><path class="cls-2" d="M507,246.73c4.87-1.63,10.08-2.47,14.91-.65a16.48,16.48,0,0,1,10,13.24"/><path class="cls-2" d="M495,263.65c6.55-4.63,15.07-3.61,20.92,2.51"/><path class="cls-7" d="M764.06,958.53c-16.56-39.62-27.18-65-42.74-85.12-16.91-21.83-37.62-32-43.77-35.35A174.06,174.06,0,0,0,615.26,818c-11.36,11.87-38.69,36.9-80.43,44-23.3,4-41.92.78-51.83-1-39-7-66.49-26.2-80.78-38a215.57,215.57,0,0,0-76.39,26.84c-28.89,17-45.42,36.31-55.43,48.23-32.27,38.45-45.41,79.6-54.32,107.49-1.82,5.71-3.19,10.45-4.08,13.62a469.23,469.23,0,0,0,55.87,32.19c22,10.7,80.28,36.79,203.36,42.29,106.68,4.77,180.5,7,267.77-42.29a417.72,417.72,0,0,0,48-31.72C782,1004.73,774.43,983.35,764.06,958.53Z"/><path d="M705,355.74c-4.39-2.4-10.63-3.21-16.13-4-5.16-.78-10.44-1.24-15.69-1.63a217.17,217.17,0,0,0-29.53-.43c-21.56,1.31-40.89,6.68-57.59,15.63-6.15,3.29,2.09,10.36,8.6,7.25,15.06-7.2,32.67-11.25,50.46-11.83a248.82,248.82,0,0,1,27,.78c4.19.32,9.45.9,14.42,1.28s10.62,1.27,15.44.33C706.5,362.21,709,358,705,355.74Z"/><path d="M407.89,354.74c4.4-2.4,10.64-3.21,16.13-4,5.16-.78,10.44-1.24,15.7-1.63a217.17,217.17,0,0,1,29.53-.43c21.56,1.31,40.88,6.68,57.58,15.63,6.16,3.29-2.09,10.36-8.6,7.25-15.06-7.2-32.67-11.25-50.45-11.83a248.68,248.68,0,0,0-27,.78c-4.19.32-9.45.9-14.42,1.28s-10.62,1.27-15.45.33C406.36,361.21,403.84,357,407.89,354.74Z"/><path class="cls-8" d="M391.61,500.5H520.1a24.11,24.11,0,0,1,24.11,24.11v34.81a68.08,68.08,0,0,1-68.08,68.08H444.39a76.89,76.89,0,0,1-76.89-76.89v-26A24.11,24.11,0,0,1,391.61,500.5Z"/><path class="cls-8" d="M608.4,497.5H736.89A24.11,24.11,0,0,1,761,521.61v34.81a68.08,68.08,0,0,1-68.08,68.08H661.17a76.89,76.89,0,0,1-76.89-76.89v-26A24.11,24.11,0,0,1,608.4,497.5Z"/><path class="cls-9" d="M412.09,559.32C413.27,558.14,457,534.5,457,534.5v21.27l42.55-21.27-48.46,37.82-5.91-18.91Z"/><path class="cls-9" d="M641.09,556.32C642.27,555.14,686,531.5,686,531.5v21.27l42.55-21.27-48.46,37.82-5.91-18.91Z"/><path class="cls-8" d="M538.5,520.3c.33-5.78,20-10.28,36.51-7.41,3.52.61,12.37,2.16,13,6.18.33,2.27-2,5.18-4.71,6.17-6.38,2.32-10.3-7.61-18.85-7.41s-11.34,10-18.84,8.64C542.08,525.82,538.35,522.89,538.5,520.3Z"/><path class="cls-8" d="M296.5,461.5s70,35,79,42,0,16,0,16l-79-51.78Z"/><path class="cls-10" d="M297.17,548.22c7.44-.23,13.87-5.84,17.24-12.49a21.23,21.23,0,0,0,2.55-11A19.86,19.86,0,0,0,311,512.47c-8.08-8.22-21-10-32.24-7.25a20.47,20.47,0,0,0-9,4.27c-4.56,4.16-5.53,10.85-5.82,17.6a32.22,32.22,0,0,0,43.23,35.23,15.56,15.56,0,0,0,2.86-7.4,23.61,23.61,0,0,1-10-1.77,5.59,5.59,0,0,1-3.09-2.38C296.4,549.58,296.89,547.81,297.17,548.22Z"/><path class="cls-11" d="M266.06,515.42c9.92-3.62,21.35-6,30.72-1.16a22.26,22.26,0,0,1,10.9,13.17,20.87,20.87,0,0,1-2.08,16.88"/><path d="M284.37,552.06A17.84,17.84,0,0,1,274.15,538a4.39,4.39,0,0,1,.67-3.34,3.27,3.27,0,0,1,4.33-.14,7.09,7.09,0,0,1,2.26,4.1,30.29,30.29,0,0,0,1.15,4.62c.81,2,2.35,3.56,3.33,5.45a3.31,3.31,0,0,1,.45,2.45A1.54,1.54,0,0,1,284.37,552.06Z"/><path d="M614.44,492.2a32.2,32.2,0,0,0,6.58,7.36c9.52,7.77,20.81,7.64,24.62,7.43a64.1,64.1,0,0,0,24.3-4.62,64.78,64.78,0,0,0,26.17-19.53,42.51,42.51,0,0,0,5.8-18.15,3.26,3.26,0,0,0-.08-.9c-.27-.72-1-1-1-1.57-3.66,5.44-14.29,20.5-37.25,28.66A80.43,80.43,0,0,1,614.44,492.2Z"/><path d="M698.44,466.61l2.91-5.23a47.82,47.82,0,0,0,12.75,4.71,16.38,16.38,0,0,1-11.56,3.85,4.39,4.39,0,0,1-3.46-1.46C697.9,466.76,699.32,464.51,698.44,466.61Z"/><path d="M515,485.83a32.14,32.14,0,0,1-4.41,8.84c-7.14,10-18.06,12.86-21.79,13.65a63.8,63.8,0,0,1-55-10,42.38,42.38,0,0,1-10.38-16,3.15,3.15,0,0,1-.17-.89c.07-.77.71-1.18.56-1.78,5,4.29,19.19,16,43.49,17.82A80.35,80.35,0,0,0,515,485.83Z"/><path d="M427.25,483.3,423.07,479A48,48,0,0,1,412,486.93a16.44,16.44,0,0,0,12.16.67,4.38,4.38,0,0,0,2.95-2.33C427.81,483.3,425.86,481.51,427.25,483.3Z"/><path class="cls-12" d="M543.46,677.91c-11.17-4.85-16.27-20.15-10.24-30.73,2.61-4.58,6.81-8.07,11.3-10.84,6.66-4.12,14.38-6.9,22.2-6.52s15.7,4.3,19.61,11.09c4.84,8.4,2.68,19.5-3.07,27.3C574,680.77,556.85,683.73,543.46,677.91Z"/></svg>