<svg id="图层_2" data-name="图层 2" xmlns="http://www.w3.org/2000/svg" viewBox="0 0 1000 1000"><defs><style>.cls-1{fill:#0f0b0b;}</style></defs><path class="cls-1" d="M297.2,446.56c3.63.2,8.92-.16,12.49,3.26A8.87,8.87,0,0,1,312,454c2.84,9.67,10.52,64.52,11,68,.7,5.64,1.67,11.66,3,18,.92,4.41,1.95,8.61,3,12.57a276.48,276.48,0,0,1,57.2-106.78A170.46,170.46,0,0,1,383,409.33s.42-14.63,3-26.33c7.57-34.18,67.29-58.89,75-62,0,0,94.48-38.09,212,5a138.82,138.82,0,0,1,25.63,12.82A116.21,116.21,0,0,1,714,351c10.23,9.59,17.29,24.22,21,38,2.58,9.6,13-12,13-77-6-46-12.3-81.64-71-122.62-20.1-14-37.89-20.43-52-25.38-59-20.72-111.63-14.35-152.91-8.89-25.83,3.41-40,5.29-59.09,12.89-43,17.16-68.14,46.45-82,63-17.11,20.42-64.34,83.4-59.23,167.4A210.69,210.69,0,0,0,278,438C285.92,444.58,292.49,446.3,297.2,446.56Z"/></svg>