<svg id="图层_2" data-name="图层 2" xmlns="http://www.w3.org/2000/svg" xmlns:xlink="http://www.w3.org/1999/xlink" viewBox="0 0 1000 1000"><defs><style>.cls-1,.cls-10,.cls-11,.cls-15,.cls-18,.cls-19,.cls-20{fill:none;}.cls-2{clip-path:url(#clip-path);}.cls-3{fill:#ffe197;}.cls-4{fill:#ffc545;}.cls-5{opacity:0.2;}.cls-6,.cls-7{fill:#fff;}.cls-10,.cls-11,.cls-13,.cls-14,.cls-15,.cls-18,.cls-19,.cls-20,.cls-7,.cls-9{stroke:#000;}.cls-10,.cls-11,.cls-13,.cls-20,.cls-7{stroke-linecap:round;}.cls-10,.cls-11,.cls-13,.cls-14,.cls-15,.cls-18,.cls-19,.cls-7,.cls-8,.cls-9{stroke-miterlimit:10;}.cls-11,.cls-13,.cls-14,.cls-18,.cls-7,.cls-8,.cls-9{stroke-width:4px;}.cls-8{fill:#6b6b6b;stroke:#120d0d;}.cls-13,.cls-9{fill:#fff3dc;}.cls-10{stroke-width:3px;}.cls-12{fill:#ffd6c0;}.cls-14,.cls-17{fill:#f78f8f;}.cls-16{fill:#ffb6b6;}.cls-19{stroke-width:5px;}.cls-20{stroke-linejoin:round;stroke-width:2px;}</style><clipPath id="clip-path"><rect class="cls-1" width="1000" height="1000"/></clipPath></defs><g class="cls-2"><rect class="cls-3" y="-1" width="1000" height="1000"/><circle class="cls-4" cx="157.5" cy="157.5" r="103.5"/><circle class="cls-4" cx="500" cy="157.5" r="103.5"/><circle class="cls-4" cx="842.5" cy="157.5" r="103.5"/><circle class="cls-4" cx="-22.5" cy="500" r="103.5"/><circle class="cls-4" cx="320" cy="500" r="103.5"/><circle class="cls-4" cx="662.5" cy="500" r="103.5"/><circle class="cls-4" cx="999.5" cy="500.5" r="103.5"/><circle class="cls-4" cx="157.5" cy="842.5" r="103.5"/><circle class="cls-4" cx="500" cy="842.5" r="103.5"/><circle class="cls-4" cx="842.5" cy="842.5" r="103.5"/><g class="cls-5"><circle class="cls-6" cx="157.5" cy="157.5" r="103.5"/><circle class="cls-6" cx="500" cy="157.5" r="103.5"/><circle class="cls-6" cx="842.5" cy="157.5" r="103.5"/></g><g class="cls-5"><circle class="cls-6" cx="-22.5" cy="500" r="103.5"/><circle class="cls-6" cx="320" cy="500" r="103.5"/><circle class="cls-6" cx="662.5" cy="500" r="103.5"/><circle class="cls-6" cx="999.5" cy="500.5" r="103.5"/></g><g class="cls-5"><circle class="cls-6" cx="157.5" cy="842.5" r="103.5"/><circle class="cls-6" cx="500" cy="842.5" r="103.5"/><circle class="cls-6" cx="842.5" cy="842.5" r="103.5"/></g></g><path class="cls-7" d="M778.72,958.54c-16.56-39.63-27.17-65-42.74-85.13-16.9-21.83-37.61-31.95-43.76-35.35-24.7-13.63-106,103.84-147.73,111-23.3,4-41.91.78-51.83-1-39-7-122.27-115.73-152.17-98.17-28.89,17-45.42,36.31-55.43,48.24-32.27,38.44-45.41,79.59-54.31,107.49-1.83,5.7-3.2,10.45-4.09,13.62a470,470,0,0,0,55.87,32.19c22,10.69,80.28,36.79,203.36,42.29,106.68,4.76,180.5,7,267.78-42.29a420.12,420.12,0,0,0,48-31.72C796.67,1004.73,789.1,983.36,778.72,958.54Z"/><path class="cls-8" d="M370.22,200c-26.29,20.83-48.82,48.13-56.4,62.8-43.84,84.86-41.65,185.7-30.46,280.56,3.85,32.64,8.62,66,1.62,98.1-9.21,42.3-39.78,79.37-79.56,96.46l81,37.53c2.29,1.06,8.45,4.44,9.16,4.31.2,0,2.48-6.42,3.81-9q6.94-13.2,13.88-26.39c1,10.31-7.27,27.1-12.19,36.21,23,4.3,39.39,7.7,64.57,8.72l10.76-22.49a171,171,0,0,1-4.8,24.2c8.94,3.72,28.87,5.72,42.18,6.57l74,4.69c28.72,1.82,57.55,3.64,86.25,1.5,32.31-2.41,64-9.81,95.58-17.19,2.92-.68,6.1-1.53,7.85-4,1.26-1.73,1.54-4,1.79-6.1l2.92-25.43a71.41,71.41,0,0,0,5.61,32.69,334,334,0,0,1,74.48-25.95l6.35-.16c-4.56-8-9.2-16.34-10.48-25.5A101.92,101.92,0,0,0,777,755.05a171.53,171.53,0,0,1,46.16-24.39,174.62,174.62,0,0,1-39.22-60.35c10.59,16.61,21.89,33.9,39.16,43.37l6.45-7.2c.45-.5.94-1.15.73-1.8s-1.5-.51-.69-.84a218.39,218.39,0,0,1-77.07-116.58c-4.85-18.53-7.21-37.62-8.78-56.71-1.44-17.54-2.21-35.23-.08-52.7,2.78-22.78,10.42-44.63,17-65.14a21.71,21.71,0,0,0,1-5.92c1.83-51.94-7.24-105-32-150.61-25.29-46.52-68-84.67-119.11-98.49-23.48-6.35-48-7.54-72.36-7.56-22.71,0-45.53,1-67.82,5.33C422.29,164.9,407.55,170.39,370.22,200Z"/><path class="cls-9" d="M714.41,881.51c-5.45-14-19-23.32-32.91-28.92s-28.91-8.37-42.78-14.16c-15.22-6.35-29.14-16.56-38.09-30.42a85.47,85.47,0,0,1-11.11-27.53,116.36,116.36,0,0,1,.83-54.78c-20-17.71-46.5-27.19-73.14-27.49A121,121,0,0,0,442.78,723c10.43,25.3,5.43,55.48-9.75,78.25S393.5,839.76,367.56,847a85.8,85.8,0,0,0-45.66,46.28c19.5,16.39,45.26,23,70.3,27.58a653.9,653.9,0,0,0,231.22,1c20.25-3.56,40.4-8.09,59.72-15.13C696.71,901.71,711.16,894.13,714.41,881.51Z"/><path class="cls-9" d="M735.15,409.44c-.25,40.87-8.58,45.17-7.45,93.15,1.77,74.35,11.79,89.82,2.13,124.21-15.42,54.89-96,98.35-152.56,111.24-23.4,5.33-115.36,1.41-183.93-43.59-55.82-36.63-80-86.71-98.34-168.82-20.72-93-36-161.65,6.38-230.39,47.56-77.11,143.35-114.78,226.45-113.19,23.42.45,101.27,1.94,154.16,55.1C735.87,291.3,735.38,370.47,735.15,409.44Z"/><path class="cls-6" d="M512.47,484c1-19.15-12.17-28.48-28.11-36.15s-35.86-7.48-51.78.21a52.28,52.28,0,0,0-29.64,41.31c3.2,9.33,11.43,16.66,20.87,21s19.64,8,30.13,8.68a85.46,85.46,0,0,0,37.55-6.63C503,507.56,512,494.18,512.47,484Z"/><path d="M406.25,486.62c-1.22-9.06,9.69-26.32,21.77-33.47,14.65-8.67,32.61-12.35,49.09-8.09s31,17.05,35.36,33c-1-12.76-8.87-24.47-19.59-31.47s-24-9.52-36.74-8.49a64.26,64.26,0,0,0-33.09,12,52,52,0,0,0-19.65,28.91c-.36,1.48-.86,3.41-.49,4.88s.63,2.93,2.12,3.19C405,487.13,406.1,487.13,406.25,486.62Z"/><path d="M402.42,483.58a89.82,89.82,0,0,0-22.18-2.13,34.75,34.75,0,0,0,23,12.23,2.1,2.1,0,0,0,1.36-.18,2.18,2.18,0,0,0,.74-1.32,11.12,11.12,0,0,0,.56-5.43C405.48,485,403.81,483.32,402.42,483.58Z"/><circle cx="471.32" cy="478.93" r="36.72"/><path class="cls-6" d="M437.79,492.28a137.34,137.34,0,0,1,29.3-7.69L447.26,507.3a2.1,2.1,0,0,1-1,.74,2,2,0,0,1-1.21-.17,18.41,18.41,0,0,1-8.93-7.26,7.93,7.93,0,0,1-1.51-5.26C434.92,493.51,436.56,491.78,437.79,492.28Z"/><path class="cls-10" d="M463.78,432.59c10.65-1.73,21.94-1.55,31.79,2.86s18,13.67,18.88,24.42"/><path class="cls-10" d="M587,458a59.85,59.85,0,0,1,70.25-25.48"/><path class="cls-11" d="M509.26,644.12a166.48,166.48,0,0,0,88.07-2.81"/><path class="cls-6" d="M689.53,470.83c-9.51-19.93-32.21-32.5-54.23-30.94S596.16,459.37,589,473.31c.21,13.83,2.13,18.08,10,28.3,7.18,9.29,32.5,20.61,57.74,16.1,13-2.32,22-11.6,29.56-22.39C687.83,493.12,692.59,477.25,689.53,470.83Z"/><circle cx="651.8" cy="479.43" r="36.72"/><path class="cls-6" d="M618.27,493.34a137.93,137.93,0,0,1,29.3-7.69l-19.83,22.72a2.08,2.08,0,0,1-1,.73,2,2,0,0,1-1.21-.17,18.41,18.41,0,0,1-8.93-7.26,7.92,7.92,0,0,1-1.51-5.25C615.4,494.57,617,492.85,618.27,493.34Z"/><path d="M693,486.94c3.32-12.57-3.84-23.33-11.56-31.7s-18.79-13.57-29.71-15.39-22.2-.46-32.79,2.93c-7.07,2.27-14,5.49-19.66,10.49s-10,11.93-10.35,20c4.35-9.91,12.4-17.72,21.65-22.61s19.65-7,30-7.35a52.62,52.62,0,0,1,12.17,1.29c8.22,1.59,15.85,6.12,22.33,11.69,8.72,7.49,15.18,17.9,14.88,29.77,0,.82.95,1.46,1.56,2s1.8-.34,1.6-1.1C693.16,486.9,693.19,486.86,693,486.94Z"/><path d="M693.94,479l13.9-5.66c.65,1.46-.44,3-1.56,4.3A74.17,74.17,0,0,1,699,485c-2.18,1.92-5.48,4-8.68,3a10.1,10.1,0,0,1,.06-5.32A7.74,7.74,0,0,1,693.94,479Z"/><path class="cls-12" d="M558.4,511.68a155,155,0,0,0-59.27,22.56,8.14,8.14,0,0,0-3.37,3.28c-1.73,4,3.06,7.58,7.16,9,20.45,6.92,42.75,3.94,64.12.89l55.9-8a174.34,174.34,0,0,0-66.68-26.62"/><path class="cls-11" d="M556.16,535.45,583.25,537c4.22.24,8.8.63,11.89,3.5,4.59,4.26,3.65,11.83,1.08,17.55a44,44,0,0,1-26,23.46"/><path class="cls-8" d="M784.45,366.06c-.53,0,.78,25.14-2,39.38a144,144,0,0,0-45.76-6.55l-1.89-29.73-4.41,21.2c-.36,1.69-.77,3.5-2,4.72-1.92,1.9-5,1.68-7.69,1.32l-43.14-5.67c4.92-2.24,5.73-8.77,5.7-14.17a327.51,327.51,0,0,0-2.83-41.75,379,379,0,0,1-12.2,56.24,234,234,0,0,0-77.8-3.37c3.89-24.35-2.82-49.12-9.51-72.49a125.41,125.41,0,0,1-8.38,71.46l-98.39,7.86a177.89,177.89,0,0,0-10.67-40,81.75,81.75,0,0,1,3.63,39.9,46.65,46.65,0,0,0-17.86,6.76,158.84,158.84,0,0,1-23.59-83.88,197,197,0,0,0,9.9,84.12l-3,4c-15.64-7.83-21-27.16-24.13-44.37q-6.21-34.2-9.24-68.87l-7.89-.18a215.26,215.26,0,0,1-28.13,112.49,253.6,253.6,0,0,0,3.54,53.83c5.3,29.85,16.59,58.4,33.59,80.91-.76,1.54-1.53,3.08-2.29,4.61a147.83,147.83,0,0,1-16.26-20.53c3.25,8.39,7.15,16.42,10.82,25.28a77.3,77.3,0,0,0-23.84,15.12A148.62,148.62,0,0,1,355.89,542l7,25.7a19.47,19.47,0,0,0-12.09,7.68c-22-37.14-36.22-80.73-41-125.75q-.63-5.86-1-11.78l-43.62,14.61c-16-37.68-17.07-79-8.24-117.24s27.06-73.72,48.56-104a305.76,305.76,0,0,1,360.37-53.74c34.77,18.55,66.2,44.24,88.29,76.87S785.84,343.93,784.45,366.06Z"/><path class="cls-13" d="M304.78,451.58c-8-6.28-18.14-10-28.16-8.93a42.54,42.54,0,0,0-16,5.34c-24.44,13.47-36.86,45.23-30.36,72.82s30.14,49.51,57.22,55.8c8.36,1.94,17.26,2.51,25.38-.32,7.29-2.53,13.48-7.65,18.82-13.33"/><path class="cls-11" d="M252.9,496.11a219.11,219.11,0,0,1,57.85,15"/><path class="cls-11" d="M282,502.18q-2.55,18.42-3.74,37"/><path class="cls-14" d="M293.63,648.06c-8.53,1.25-17.63-.73-24.42-6s-11-14-10.11-22.62a23.64,23.64,0,0,1,6.52-14c5.19-5.32,13.35-7.92,20.42-5.59s12.24,10,10.84,17.31a22.1,22.1,0,0,1,6.67-15.78,17.35,17.35,0,0,1,16.29-4.18c9,2.62,13.74,13.42,11.93,22.6s-8.71,16.61-16.49,21.8C308.74,645.93,301.08,649.12,293.63,648.06Z"/><circle class="cls-14" cx="299.78" cy="562.62" r="9.57"/><circle class="cls-14" cx="295.53" cy="588.13" r="9.57"/><path class="cls-15" d="M603.08,813.62c21.62,23.45,52.55,32.69,82,41"/><path class="cls-16" d="M737.5,864.5c.23,2.12,1.34,14.51-7,24.61-4.75,5.73-7.41,4.53-9,8.6-3.45,8.81,8.17,16.55,5,23.79-2.78,6.43-13.06,2.87-18,10-6.31,9.11,4.4,23.65-1,28-4.13,3.32-12.37-3.56-16,0-2.67,2.62.93,7.19,0,17-.41,4.32-1.19,12.54-6,15-6.28,3.22-13.88-6.22-19-3-3.8,2.39-.69,8.27-5.51,17.18-1.79,3.31-4.62,8.54-9.49,9.82-7.82,2-11.73-8.49-23-9-7.21-.33-13,3.66-18.33,7.29-11.47,7.85-11.38,14.55-17.9,15.78-8,1.52-11.45-10.58-21-10.26-10,.34-11.76,13.93-22.57,15.3-10.29,1.3-12.24-10.57-24.42-11.37-11.95-.78-15.67,10.28-37,14.2-5.29,1-9.84,1.17-13.31-1.41-4.95-3.69-3-9.63-6.73-11.68-6.46-3.58-15.72,12.74-27.66,11.22-10.29-1.31-10.31-14.29-22.3-17.13-11.15-2.63-15.91,7.45-26.68,4.47-9.94-2.76-8.44-12.07-19.85-17.45-12.7-6-20.9,2.59-28.67-3.7-7.51-6.06-1-15-9.86-27.22-4.86-6.74-7.81-5.37-16.8-15.4-7.09-7.91-10.71-11.8-11.11-17-.86-11.13,12.34-15.07,11.16-24.67-1.27-10.39-17.59-12.7-16.64-20.57.62-5.08,8.47-12.9,15.64-15.43.81-.28,3-1,3.05-2.15.12-1.56-3.63-2.24-8.15-6.91-.73-.76-1.21-1.3-1.43-1.53-2.56-2.74-5-5.77-6.16-9.47-2.05-6.63.45-13.8,2.92-20.25A65.64,65.64,0,0,0,338.67,853c-2.81,11.06-.78,22.78,6.87,42.89,8.94,32.6,19.8,68,46.25,85.92,15.12,10.22,33.33,13.12,51,14.81,45.3,4.33,91,2.15,136-4.87,10.92-1.71,24.55-4.11,39.76-12.69,5.14-2.9,18.77-10.76,29.88-25.55,22.82-30.36,23.91-74.88,24-82,.15-11.14,5.78-28.43,7.18-32.58L680,838a88.48,88.48,0,0,0,19.5-9.5c12.14-7.91,14.82-16.24,19-15s6,11.27,5,19c-1.34,10-7.26,14.89-5,18,2.4,3.3,9.79-1.2,15,3C736.58,856,737,860,737.5,864.5Z"/><path class="cls-6" d="M679.09,838.66l.59.26c-1.4,4.15-7,21.44-7.18,32.58-.09,7.12-1.18,51.64-24,82-11.11,14.79-24.74,22.65-29.88,25.55-15.21,8.58-28.84,11-39.76,12.69-45,7-90.74,9.2-136,4.87-17.7-1.69-35.91-4.59-51-14.81-26.45-17.87-37.31-53.32-46.25-85.92-7.65-20.11-9.68-31.83-6.87-42.89H339l41.19-20.83c16.12-8.16,32.34-16.37,47.28-27.45a6.86,6.86,0,0,0,.15,1.81c.95,4.15,5.71,5.37,9.59,5.81l70,7.9c-2.37,2-4.59,4.14-6.75,6.26-4.93,4.84-18.13,17.76-20,39-.36,4-2.31,26.2,14,43,3,3.11,14.68,14.73,33,15,4,.06,18.28-.29,30-11,11.23-10.26,13-23.53,14-31,.34-2.58,3.6-30.38-16-52-1.52-1.67-3.5-3.86-5.91-6.11a113.28,113.28,0,0,0,46-27.49C618.15,819.87,649.33,829.72,679.09,838.66Z"/><path d="M595.62,795.9a113.28,113.28,0,0,1-46,27.49,43.69,43.69,0,0,0-13.4-8.94q-.54-.9-1.11-1.8c-1-1.59-2.16-3.27-3.87-3.74s-3.87,1.19-2.75,1.12c0,.85,0,1.69.09,2.54a4.48,4.48,0,0,0-.64-.05,30.28,30.28,0,0,0-2.44-4s0-.07,0-.1l0,0A528,528,0,0,1,581,777.1a7.8,7.8,0,0,1,3.73-1.08c1.69.11,3.13,1.31,4.45,2.46l10.63,9.24a2.7,2.7,0,0,1,1.15,1.75,2.75,2.75,0,0,1-1,1.92C598.57,792.93,597.11,794.44,595.62,795.9Z"/><path class="cls-17" d="M562.6,873.41c.46,1.52.88,3.25.17,4.64a5.46,5.46,0,0,1-2.58,2.16l-25.64,13.45q-4.56-39.72-6-79.75a71.91,71.91,0,0,1,2.72,7c-2.7.2-1.08,3.51,1.25,4.66s5,.76,7.56.24c.8-.16,1.59-.34,2.38-.52A248.54,248.54,0,0,1,562.6,873.41Z"/><path d="M549.59,823.39c-2.34.72-4.71,1.35-7.09,1.89-2-3.67-4.11-7.29-6.31-10.83A43.69,43.69,0,0,1,549.59,823.39Z"/><path class="cls-17" d="M542.5,825.28c-.79.18-1.58.36-2.38.52-2.52.52-5.23.92-7.56-.24s-3.95-4.46-1.25-4.66a71.91,71.91,0,0,0-2.72-7h0c0-.44,0-.89,0-1.33a27.17,27.17,0,0,1,7.64,1.88C538.39,818,540.5,821.61,542.5,825.28Z"/><path class="cls-17" d="M535.08,812.65q.57.9,1.11,1.8a27.17,27.17,0,0,0-7.64-1.88c0-.85-.06-1.69-.09-2.54-1.12.07,1-1.58,2.75-1.12S534.08,811.06,535.08,812.65Z"/><path d="M528.55,812.57c0,.44,0,.89,0,1.33-.22-.46-.44-.92-.68-1.38A4.48,4.48,0,0,1,528.55,812.57Z"/><path d="M525.49,808.46s0,.07,0,.1l-.06-.09,0,0Z"/><path d="M427.47,804.72a15.09,15.09,0,0,1,.5-3,46.72,46.72,0,0,1,10.1-19.31c29.78,3.55,59.44,12.61,87.38,26l0,0,.06.09c-.17,1.15-.31,2.47-.44,3.91l-.53,0c-7,.46-12.44,3.7-17.25,7.74l-70-7.9c-3.88-.44-8.64-1.66-9.59-5.81A6.86,6.86,0,0,1,427.47,804.72Z"/><path class="cls-17" d="M525,812.82c2.69,23.24-.6,51.7-7.84,78.92l-28-7c-1.42-.36-3.12-1-3.37-2.58a4.31,4.31,0,0,1,.5-2.37,309.9,309.9,0,0,1,32.22-58.34l5.48.62C524.46,818.91,524.73,815.65,525,812.82Z"/><path d="M524.5,812.5l.53,0,0,.35,0-.23c-2.22,2.92-4.4,5.89-6.51,8.91l-11.21-1.26C512.06,816.2,517.52,813,524.5,812.5Z"/><path class="cls-17" d="M525,812.59l0,.23c-.27,2.83-.54,6.09-1.06,9.3l-5.48-.62C520.57,818.48,522.75,815.51,525,812.59Z"/><path class="cls-18" d="M525,812.82l0-.23c-2.22,2.92-4.4,5.89-6.51,8.91a309.9,309.9,0,0,0-32.22,58.34,4.31,4.31,0,0,0-.5,2.37c.25,1.57,1.95,2.22,3.37,2.58l28,7C524.4,864.52,527.69,836.06,525,812.82Z"/><path class="cls-18" d="M536.19,814.45q-.54-.9-1.11-1.8c-1-1.59-2.16-3.27-3.87-3.74s-3.87,1.19-2.75,1.12c0,.85,0,1.69.09,2.54,0,.44,0,.89,0,1.33h0q1.38,40,6,79.75l25.64-13.45a5.46,5.46,0,0,0,2.58-2.16c.71-1.39.29-3.12-.17-4.64a248.54,248.54,0,0,0-20.1-48.13C540.5,821.61,538.39,818,536.19,814.45Z"/><path class="cls-18" d="M507.25,820.24c-2.37,2-4.59,4.14-6.75,6.26-4.93,4.84-18.13,17.76-20,39-.36,4-2.31,26.2,14,43,3,3.11,14.68,14.73,33,15,4,.06,18.28-.29,30-11,11.23-10.26,13-23.53,14-31,.34-2.58,3.6-30.38-16-52-1.52-1.67-3.5-3.86-5.91-6.11a43.69,43.69,0,0,0-13.4-8.94,27.17,27.17,0,0,0-7.64-1.88,4.48,4.48,0,0,0-.64-.05,22.94,22.94,0,0,0-2.88,0l-.53,0C517.52,813,512.06,816.2,507.25,820.24Z"/><path class="cls-18" d="M430.54,802.39c-1,.79-2,1.57-3.07,2.33-14.94,11.08-31.16,19.29-47.28,27.45L339,853"/><path class="cls-19" d="M593,793c.86,1,1.73,2,2.62,2.9,22.53,24,53.71,33.82,83.47,42.76"/><path class="cls-18" d="M338.67,853a65.64,65.64,0,0,1-33.94-11.8c-2.47,6.45-5,13.62-2.92,20.25,1.14,3.7,3.6,6.73,6.16,9.47.22.23.7.77,1.43,1.53,4.52,4.67,8.27,5.35,8.15,6.91-.09,1.17-2.24,1.87-3.05,2.15-7.17,2.53-15,10.35-15.64,15.43-.95,7.87,15.37,10.18,16.64,20.57,1.18,9.6-12,13.54-11.16,24.67.4,5.17,4,9.06,11.11,17,9,10,11.94,8.66,16.8,15.4,8.83,12.23,2.35,21.16,9.86,27.22,7.77,6.29,16-2.28,28.67,3.7,11.41,5.38,9.91,14.69,19.85,17.45,10.77,3,15.53-7.1,26.68-4.47,12,2.84,12,15.82,22.3,17.13,11.94,1.52,21.2-14.8,27.66-11.22,3.69,2.05,1.78,8,6.73,11.68,3.47,2.58,8,2.38,13.31,1.41,21.32-3.92,25-15,37-14.2,12.18.8,14.13,12.67,24.42,11.37,10.81-1.37,12.54-15,22.57-15.3,9.53-.32,13,11.78,21,10.26,6.52-1.23,6.43-7.93,17.9-15.78,5.3-3.63,11.12-7.62,18.33-7.29,11.27.51,15.18,11,23,9,4.87-1.28,7.7-6.51,9.49-9.82,4.82-8.91,1.71-14.79,5.51-17.18,5.12-3.22,12.72,6.22,19,3,4.81-2.46,5.59-10.68,6-15,.93-9.81-2.67-14.38,0-17,3.63-3.56,11.87,3.32,16,0,5.4-4.35-5.31-18.89,1-28,4.94-7.13,15.22-3.57,18-10,3.13-7.24-8.49-15-5-23.79,1.59-4.07,4.25-2.87,9-8.6,8.38-10.1,7.27-22.49,7-24.61-.48-4.5-.92-8.51-4-11-5.21-4.2-12.6.3-15-3-2.26-3.11,3.66-8,5-18,1-7.73-.76-17.74-5-19s-6.86,7.09-19,15A88.48,88.48,0,0,1,680,838l-.32.92c-1.4,4.15-7,21.44-7.18,32.58-.09,7.12-1.18,51.64-24,82-11.11,14.79-24.74,22.65-29.88,25.55-15.21,8.58-28.84,11-39.76,12.69-45,7-90.74,9.2-136,4.87-17.7-1.69-35.91-4.59-51-14.81-26.45-17.87-37.31-53.32-46.25-85.92C337.89,875.77,335.86,864.05,338.67,853Z"/><path class="cls-20" d="M340.5,898.5a54.39,54.39,0,0,1-29-3"/><path class="cls-20" d="M346,927a77.09,77.09,0,0,1-24.5,6.5"/><path class="cls-20" d="M349.5,930.5A89,89,0,0,1,335,943c-1.87,1.29-3.71,2.45-5.5,3.5"/><path class="cls-20" d="M677.5,872.5a70,70,0,0,0,44-9"/><path class="cls-20" d="M678.5,902.5a48.88,48.88,0,0,0,27,5"/><path class="cls-20" d="M652.5,959.5A92.85,92.85,0,0,0,661,967a91.11,91.11,0,0,0,9.5,6.5"/><path class="cls-20" d="M361.5,977.5q7.94-6.12,8.5-5.5.75.82-11.5,13.5"/><path d="M661.84,370.76c-5-3.07-10.75-3.79-16.35-4.13-4.86-.29-9.71-.6-14.58-.75-9.7-.31-19.71.22-29.16,5.38-3.18,1.74-1.46,8.2,1.72,6.46,8.78-4.8,18.22-5.08,27.22-4.75,9.58.35,20.09-.36,28.88,4.37C662.55,379,664.75,372.53,661.84,370.76Z"/><path d="M446.53,379.08c4.79-3.44,10.43-4.6,16-5.37,4.82-.67,9.63-1.35,14.47-1.87,9.65-1.06,19.67-1.3,29.49,3.12,3.31,1.49,2.09,8.06-1.22,6.57-9.12-4.11-18.55-3.66-27.5-2.64-9.53,1.08-20.06,1.18-28.45,6.58C446.45,387.31,443.77,381.07,446.53,379.08Z"/></svg>