<svg
  id="图层_2"
  data-name="图层 2"
  xmlns="http://www.w3.org/2000/svg"
  viewBox="0 0 1000 1000"
>
  <defs>
    <style>
      .cls-1 {
        fill: #0f0b0b;
        stroke: #000;
        stroke-miterlimit: 10;
        stroke-width: 4px;
      }
    </style>
  </defs>
  <path
    class="cls-1"
    d="M502.54,706l-.72-.23-1.1-.31C500.57,705.41,500.43,705.41,502.54,706Z"
  />
  <path
    class="cls-1"
    d="M657.69,645.58c-1.58-13.67-9.36-22.79-13.45-27.51-10.16-11.72-23.92-20.41-38.66-21-7.49-.29-14.91,1.5-22.38,2.16-18.1,1.6-36.26-3.45-54.37-2-15.59,1.24-31.08,7.56-42.5,19.24-4.55,4.66-20.87,23.09-16.94,46,4.12,24,26.67,35.84,33.61,39.46,11.75,6.12,23.5,7.08,47,9,17.87,1.46,27.65,2.26,41,0s33.23-5.64,49-22C644.09,684.76,660.28,668,657.69,645.58ZM610,676.05c-8.36,6.4-19.18,7.13-29.37,7.16a321.51,321.51,0,0,1-48.88-3.61c-9.32-1.4-19.7-4-24.66-12.75a26,26,0,0,1-2.92-13.7c.45-12.93,7.86-24.92,17.92-31.69s22.44-8.68,34.14-7c8.67,1.23,20.71.72,32.42,3s23.7,8.3,29.5,19.69C624.65,649.89,620.92,667.7,610,676.05Z"
  />
</svg>
