<svg id="图层_2" data-name="图层 2" xmlns="http://www.w3.org/2000/svg" viewBox="0 0 1000 1000"><defs><style>.cls-1{fill:#dcf8ff;}.cls-2{fill:none;stroke:#000;stroke-linecap:round;stroke-miterlimit:10;stroke-width:4px;}</style></defs><path class="cls-1" d="M409.56,707.1c2.45-18,8.35-33.64,12.42-51.37,7.22-39.47,14.79-74.68,13.52-112.23l.1-.27a188.14,188.14,0,0,0,80,11.46c32.29-2.42,44.9-15.91,77.21-13.76,27.21,1.81,89.45,15.29,126,4,0,0,7.32-1.59,8.31,6.52.17,5.25.33,10.5.19,17.67,3.23,36.86,6.12,75.71-10.3,109.18-11.53,23.51-32,42.4-55.68,55S610.9,752.59,584,755.42c-31.76,3.33-64.42,1.42-94.67-8.44-26.13-8.51-53.7-25.61-77.5-39.05l-2.31-.43Z"/><path class="cls-1" d="M435.6,543.23l-.1.27c1.27,37.55-6.3,72.76-13.52,112.23-4.07,17.73-10,33.4-12.42,51.37a197.64,197.64,0,0,1-21.82-15.6h.19q.74-4.61,1.72-9.51c1-4.94,2.15-9.61,3.35-14a467.76,467.76,0,0,0,13.77-67.21,466.81,466.81,0,0,0,3.82-69c6.43,3.42,13,6.59,19.74,9.37Q432.94,542.23,435.6,543.23Z"/><path class="cls-2" d="M309.45,579.91c12.95,17.38,20.75,37.74,31.53,56.43a203,203,0,0,0,46.76,55.16,197.64,197.64,0,0,0,21.82,15.6l.18.12"/><path class="cls-2" d="M311.27,478.42c36.14,11.38,66,35.67,99.32,53.36,6.43,3.42,13,6.59,19.74,9.37q2.61,1.08,5.27,2.08a188.14,188.14,0,0,0,80,11.46c32.29-2.42,44.9-15.91,77.21-13.76,27.21,1.81,89.45,15.29,126,4,0,0,7.32-1.59,8.31,6.52.17,5.25.33,10.5.19,17.67,3.23,36.86,6.12,75.71-10.3,109.18-11.53,23.51-32,42.4-55.68,55S610.9,752.59,584,755.42c-31.76,3.33-64.42,1.42-94.67-8.44-26.13-8.51-53.7-25.61-77.5-39.05"/><path class="cls-2" d="M410.59,531.61v.17a466.81,466.81,0,0,1-3.82,69A467.76,467.76,0,0,1,393,668c-1.2,4.38-2.34,9-3.35,14q-1,4.9-1.72,9.51h-.43"/><path class="cls-2" d="M435.5,543.5c1.27,37.55-6.3,72.76-13.52,112.23-4.07,17.73-10,33.4-12.42,51.37l-.06.4"/></svg>