<svg
  id="图层_2"
  data-name="图层 2"
  xmlns="http://www.w3.org/2000/svg"
  viewBox="0 0 1000 1000"
>
  <defs>
    <style>
      .cls-1 {
        fill: #0f0b0b;
        <!-- fill: {{color[0]}}; -->
        stroke: #000;
        stroke-miterlimit: 10;
        stroke-width: 4px;
      }
    </style>
  </defs>
  <path
    class="cls-1"
    d="M529.68,596a129.57,129.57,0,0,0-24.68,30l24.22-8.77a20.36,20.36,0,0,0,7.28,11.87l9.89-9.58a4.26,4.26,0,0,1,2.71-1.51,4.31,4.31,0,0,1,3,1.59l10.28,10.14a94,94,0,0,1,12-10.61A44.39,44.39,0,0,0,585.94,631a53.56,53.56,0,0,0,8.86-11.63l9.91,10.72L610.37,620A55.38,55.38,0,0,1,623,627l-10.37-21.72c-1.43-3-3-6.13-6-8.1s-8.11-2.16-10.35.46c-2.22-4.25-7.3-7.36-12.82-7.85s-11.27,1.66-14.51,5.42c-4.42-6-16.46-6.27-21.3-.53-3.29-1.08-6.71-2.19-10.25-2.08S530.09,594.42,529.68,596Z"
  />
</svg>
