<svg
  id="图层_2"
  data-name="图层 2"
  xmlns="http://www.w3.org/2000/svg"
  viewBox="0 0 1000 1000"
>
  <defs>
    <style>
      .cls-1 {
        fill: #0f0b0b;
      }
    </style>
  </defs>
  <path
    class="cls-1"
    d="M435.42,628.65c24.7-14.13,37.91-42.78,61.56-58.62a92.5,92.5,0,0,1,23.37-10.93c9.44-3,19.51-4.92,29.26-3.14s19.14,7.77,23,16.91c4.16,9.93,1,21.88-6,30.11s-17,13.22-27.35,16.29a99.41,99.41,0,0,1-37.38,3.66c-12.78-1.19-28.12-4-36.39,5.87l8.15-10.56C462.44,625.51,448.73,628.86,435.42,628.65Z"
  />
  <path
    class="cls-1"
    d="M605.68,557.1c-11.5-5.41-26.57,2.17-30.62,14.22s2.08,26.14,12.78,33c11.2,7.16,27.42,8.43,33.39,20.3l-.06-6.12c6.47.42,12.16,4.19,18.22,6.5A42.42,42.42,0,0,0,682,617a39.33,39.33,0,0,1-34.43-19.07c-4.16-7.11-6-15.49-10.79-22.18C629.55,565.67,616.58,562.24,605.68,557.1Z"
  />
</svg>
