<svg id="图层_1" data-name="图层 1" xmlns="http://www.w3.org/2000/svg" viewBox="0 0 1000 1000"><defs><style>.cls-1{fill:#eaa220;}.cls-1,.cls-2,.cls-3,.cls-5{stroke:#000;stroke-miterlimit:10;stroke-width:4px;}.cls-2{fill:#c7d66a;}.cls-3{fill:#c76607;}.cls-4{fill:#ffedd1;}.cls-5{fill:none;}</style></defs><path class="cls-1" d="M877.49,874.49c-13.52,25.28-37.16,44.09-63.21,56.07s-54.51,17.66-82.91,21.58c-26.74,3.69-54.13,5.88-80.6.58-11.76-2.35-23.43-6.28-32.87-15.21a61.92,61.92,0,0,0-5.38-7.09c-3.65-4.07-4-10.32-2.21-15.47s5.59-9.38,9.55-13.15c14.45-13.76,32.7-23,51.53-29.56s38.42-10.75,57.76-15.64c23.59-6,47.05-13.09,71.29-15.25s49.79,1.07,70.17,14.37c3.25,2.12,6.45,4.61,8.16,8.1S879.23,871.24,877.49,874.49Z"/><path class="cls-2" d="M602.68,898.8c-2.78,3.07-6.76,4.72-10.18,7.08s-6.52,6.09-6,10.2c.46,3.27,3.17,5.81,6.1,7.36a21.74,21.74,0,0,0,24.78-3.61c2-1.94,4-4.48,6.79-4.25,5,.41,4.55,8,7.22,12.22,3.37,5.36,11.35,4.53,17.4,2.67,9-2.77,19.17-8.25,19.71-17.64.07-1.18,0-2.5.79-3.39a4.51,4.51,0,0,1,2.11-1.13c9.59-3.06,20.6-6,29.26-.86,3.45,2,6.13,5.2,9.51,7.35a19.6,19.6,0,0,0,30-14.9,64.19,64.19,0,0,1,39,4.9c2.47,1.16,5,2.51,7.73,2.38,6.53-.3,9.49-8.13,14.45-12.39,4.1-3.53,9.71-4.56,14.86-6.25s10.55-4.76,11.94-10c1.34-5,.06-12.8,5.24-13.46,1.76-.23,3.42.73,5,1.43,11.15,4.83,24-2,32.62-10.55,2.88-2.85,5.63-6.13,6.4-10.11s-1.19-8.73-5.1-9.8c-3-.83-6.48.61-9.25-.84a14.19,14.19,0,0,1-3.18-2.82c-6.06-5.94-16.06-5.6-23.91-2.37S821.6,838.83,814,842.61a9.45,9.45,0,0,1-5.37,1.33c-3.2-.47-5.11-3.66-7.34-6-6.29-6.58-16.91-7-25.52-4s-16,8.55-24,12.82a5.5,5.5,0,0,1-3.89.9c-1.37-.37-2.22-1.69-3.15-2.76-6-6.91-17.43-4.88-25.21-.06S705,856.72,696.14,859c-11.44,3-23.18-2.83-35-3.66a42.35,42.35,0,0,0-28.61,8.7c-2.92,2.28-5.89,5.08-9.6,5.18s-7-2.64-10.49-4a14.89,14.89,0,0,0-18.05,7.31c-1,2.17-1.53,4.61-3,6.53-3.63,4.91-12.45,5.51-13.56,11.51-.66,3.57,2.29,7,5.72,8.21s7.18.7,10.78.2A26.46,26.46,0,0,1,602.68,898.8Z"/><path class="cls-3" d="M586.52,844.3c4.7,10.29,2,24.76,11.41,31.06,2.57,1.73,5.66,2.46,8.69,3.06,18.82,3.76,38.19,3.78,57.37,2.87a595.06,595.06,0,0,0,117.43-17.48c26.23-6.64,53-15.62,72.62-34.23,2.92-2.76,5.73-5.85,7.05-9.65s1-8.07.64-12.13l-2.38-27.41c-.27-3.1-.58-6.33-2.23-9-2.73-4.39-8.27-5.95-13.34-6.94-47.67-9.33-97,.3-143.72,13.49C657.17,790.07,611.9,807.66,586.52,844.3Z"/><path class="cls-2" d="M616.27,790.65a167.59,167.59,0,0,0-45.76,38.53c-1,1.23-2.08,2.65-2,4.25a5.94,5.94,0,0,0,1.92,3.55c7.44,7.89,19.27,10.33,30,8.93s20.74-6.14,30.53-10.8c4.14,5.34-2.54,13.32-.2,19.67,2.44,6.62,11.93,6.21,18.62,4a117.13,117.13,0,0,0,33.35-17.66c8-6.11,18.31-13.67,27.12-8.72,5.27,3,8.45,10,14.48,10.32,3.48.2,6.59-2,9.36-4.14l26.15-19.95c3.08,7.3,11.72,11,19.62,10.54s15.19-4.34,21.89-8.56c9.39-5.92,19.15-14.59,18.61-25.67A50.13,50.13,0,0,0,864.22,769c2-3.68,3.39-8.43.94-11.81a12.75,12.75,0,0,0-4.54-3.38C850.5,748.44,840.15,743,828.85,741c-3.88-.67-8.06-1-11.15-3.44-5-3.93-5.13-11.54-8.92-16.65s-10.58-6.87-16.75-6-11.75,4.05-16.9,7.55A124.86,124.86,0,0,0,747.7,748c-2.76-9.31-15.38-11.24-24.76-8.71s-18.57,7.74-28.16,6.2c-11.84-1.91-21.72-13.87-33.46-11.4-6.91,1.45-11.92,7.86-13.81,14.66s-1.26,14-.61,21c-7.63-3.48-15.56-7-23.95-7s-17.35,4.88-19.41,13S609.87,793.53,616.27,790.65Z"/><path class="cls-1" d="M834.54,749.19a35,35,0,0,0,1.71-16c-1.78-13.16-11.24-21.46-19.5-28.51-9.63-8.21-20.34-13.34-31.47-17.62-17.61-6.76-37-7.38-55.8-6.28-28.44,1.64-61,3.65-94.17,25.67-30.84,20.45-46.65,47.88-54.06,63.74-.7,4.61-2.18,18.37,6.28,27.45,2.89,3.1,9.13,8,33.19,8.14,19.75.12,34.15-3.06,45.68-5.43,33.87-6.93,26.68-3.42,56.25-9.7,34.13-7.25,57.66-12.41,85.5-26.27A246.84,246.84,0,0,0,834.54,749.19Z"/><circle cx="646.13" cy="729.76" r="4.5"/><circle cx="672.88" cy="704.36" r="4.5"/><circle cx="676.96" cy="725.97" r="4.5"/><circle cx="701.13" cy="703.09" r="4.5"/><circle cx="721.42" cy="713.5" r="4.5"/><circle cx="735.76" cy="692.47" r="4.5"/><circle cx="754.7" cy="701.11" r="4.5"/><path class="cls-4" d="M750.73,829.57l-.29-.22a27.63,27.63,0,0,1-3.18-27.49c2.46-5.5,6.67-10,11.16-14a91.57,91.57,0,0,1,17.2-12.17l-.1-.18c-2.91-15.86,7.17-32.41,21.64-39.52s32.15-5.72,46.78,1l.55.27c-5.63-8.22-11.94-16.87-21.35-20-5.49-1.85-12.75-2.56-14.56-8.07-1.61-4.89,2.67-9.71,7-12.43,19.68-12.22,46.48-6.37,64.78,7.8,23.21,18,36,48.54,32.34,77.52a167.24,167.24,0,0,1,2.44,126.68c-5.56,14.18-14.26,28.62-28.54,33.9,13.14,45.31,26.29,90.63,40.1,135.77L945.27,1137a814.94,814.94,0,0,0-81.73,11.28C839,1089,824.79,1025.48,818.74,961.57c-6.42-.72-13.07-.49-19-2.93-7.87-3.22-13.36-10.77-15.92-18.88s-2.52-16.79-2-25.28c.62-10.24,2-20.58,5.75-30.12s10.29-18.29,19-23.38l-8.17-13c-.82-1.3-1.76-2.69-3.24-3.1-2.22-.63-4.26,1.25-6.07,2.7a21.18,21.18,0,0,1-14.63,4.53c1.34,6.17-1.26,12.8-5.77,17.24s-10.67,6.9-16.91,8c-2.94.5-6.09.68-8.78-.61-5.84-2.81-6.57-10.82-5.54-17.21A65.87,65.87,0,0,1,750.73,829.57Z"/><path class="cls-5" d="M819.75,961.69l-1-.12c-6.42-.72-13.07-.49-19-2.93-7.87-3.22-13.36-10.77-15.92-18.88s-2.52-16.79-2-25.28c.62-10.24,2-20.58,5.75-30.12s10.29-18.29,19-23.38l-8.17-13c-.82-1.3-1.76-2.69-3.24-3.1-2.22-.63-4.26,1.25-6.07,2.7a21.18,21.18,0,0,1-14.63,4.53c1.34,6.17-1.26,12.8-5.77,17.24s-10.67,6.9-16.91,8c-2.94.5-6.09.68-8.78-.61-5.84-2.81-6.57-10.82-5.54-17.21a67.21,67.21,0,0,1,43.5-51.69c8.61-3,18.38-4,26.67-.25,8,3.67,13.38,11.23,18.38,18.47"/><path class="cls-5" d="M750.44,829.35a27.63,27.63,0,0,1-3.18-27.49c2.46-5.5,6.67-10,11.16-14a91.57,91.57,0,0,1,17.2-12.17c10.69-5.81,22.54-9.29,34.66-9.15,19.11.21,38.55,10.57,46.8,27.81"/><path class="cls-5" d="M775.52,775.5c-2.91-15.86,7.17-32.41,21.64-39.52s32.15-5.72,46.78,1l.55.27A50.12,50.12,0,0,1,858,746.35c10.47,10.13,14.49,25,18.06,39.14"/><path class="cls-5" d="M844.68,737.56l-.19-.27c-5.63-8.22-11.94-16.87-21.35-20-5.49-1.85-12.75-2.56-14.56-8.07-1.61-4.89,2.67-9.71,7-12.43,19.68-12.22,46.48-6.37,64.78,7.8,23.21,18,36,48.54,32.34,77.52a167.24,167.24,0,0,1,2.44,126.68c-5.56,14.18-14.26,28.62-28.54,33.9,13.14,45.31,26.29,90.63,40.1,135.77L945.27,1137a814.94,814.94,0,0,0-81.73,11.28C839,1089,824.79,1025.48,818.74,961.57c0-.41-.09-.81-.12-1.22l-.24-1.16"/></svg>