<svg id="图层_1" data-name="图层 1" xmlns="http://www.w3.org/2000/svg" viewBox="0 0 1000 1000"><defs><style>.cls-1{fill:#fffbf1;}.cls-1,.cls-2,.cls-3{stroke:#000;stroke-miterlimit:10;stroke-width:4px;}.cls-1,.cls-2{stroke-linecap:round;}.cls-2{fill:none;}.cls-3{fill:#f9ccd3;}</style></defs><path class="cls-1" d="M411.38,132.61c20.15-31.89,25.85-84.43,16.27-120.91C419.73-18.45,401-46.77,380.27-71s-50.68-47.52-82.73-57.28c-32.53-9.9-72.65-12.3-119.5,9.19C117.94-91.54,46.85-27.92-19.24,42.81-56.13,82.28-87.06,133.55-100.63,184s6,99.59,40.37,140.21c18.55,21.89,72.93,62,101.83,69.3,45.76,11.6,92.63,12,150.61-27.58,35.69,27.68,62.1,45.29,100.8,69.29,5.72,3.54,13.18-1.54,11.29-7.67-12.76-41.4-27.47-79.2-39.59-121.78,0,0,32.58-24.57,46.8-40.24,17.3-19.06,39-42.22,39.61-42,45.45,15.83,86.92,25.52,136,39.87,5.6,1.64,15.95-9.61,12.72-14.14C469.87,207.25,437.53,173.67,411.38,132.61Z"/><path class="cls-2" d="M146.94,47.29c-17.95-.45-34.15,16.49-31.43,32.89,1.57,9.5,7.34,14.5,13.74,22-8.39-9.59-23.77-14.27-36.06-9.19S74.7,116.27,80.4,127.43"/><ellipse class="cls-3" cx="136.48" cy="107.94" rx="17.55" ry="9.27" transform="translate(-37.14 119.58) rotate(-42.18)"/><circle cx="106.62" cy="187.77" r="19.5"/><circle cx="222.59" cy="71.8" r="19.5"/><path class="cls-1" d="M416.29-85c19.33,7.79,41,4.79,61.89,4.89,18.64.08,37.69,2.92,54.09,11.79S562.11-43.87,565-25.46s-6.54,39-23.83,46c-11.62,4.71-24.82,3-37,0a94.69,94.69,0,0,1,41.61,48.86c2.84,7.63,4.69,16,2.81,23.88-1.7,7.15-6.29,13.29-11.51,18.46-11,10.9-26.2,18.59-41.58,16.94-22.63-2.42-38.26-23-51-41.87,5.46,8.16,9.28,17.7,9.16,27.51s-4.68,19.84-13,25.06c-10.26,6.43-24.28,4.28-34.11-2.78s-16-18.18-20.09-29.58c3.9,11.37-5.28,24.53-17.06,26.86s-24.13-4.58-30.48-14.78c-4.86-7.79-6.67-17-9.35-25.81-13.07-43-47-75.85-79.57-106.72q47.56-60.06,91.4-122.94C364.42-115.7,389.33-95.91,416.29-85Z"/><path class="cls-3" d="M402.85-32.24c7.07-5.7,18.88-4.12,24.48,3.29a10.84,10.84,0,0,1,2.5,7.3c-.58,6.25-8.18,9.16-10.7,14.86-2.29,5.15.05,11.12,1.29,16.68,1.42,6.43,1.24,13.44-1.93,19.11s-9.76,9.58-16.19,8.32c-7.1-1.39-13.82-8.51-20.37-5.61-3.53,1.55-5.33,5.58-8.61,7.6-3.46,2.13-8.22,1.6-11.59-.81a15.59,15.59,0,0,1-6-10.51c-1.28-9,4-17.61,10.3-24s13.79-11.77,18.8-19.25c2.58-3.85,4.45-8.2,7.38-11.79S399.6-33.52,402.85-32.24Z"/><ellipse class="cls-3" cx="473.3" cy="50.57" rx="11.79" ry="22.55" transform="translate(67.79 299.83) rotate(-37.68)"/><ellipse class="cls-3" cx="413.72" cy="84.93" rx="15.37" ry="17.42" transform="translate(34.36 270.57) rotate(-37.68)"/><ellipse class="cls-3" cx="354.8" cy="94.16" rx="14.35" ry="11.27" transform="translate(132.93 386.61) rotate(-67.68)"/></svg>