<svg id="图层_1" data-name="图层 1" xmlns="http://www.w3.org/2000/svg" viewBox="0 0 1000 1000"><defs><style>.cls-1,.cls-7{fill:#ffedb9;}.cls-1,.cls-2,.cls-3,.cls-4{stroke:#000;stroke-linecap:round;}.cls-1,.cls-2,.cls-4,.cls-5{stroke-miterlimit:10;}.cls-1,.cls-2,.cls-3,.cls-4,.cls-5,.cls-6{stroke-width:4px;}.cls-2,.cls-3{fill:none;}.cls-3,.cls-6{stroke-linejoin:round;}.cls-4{fill:#ffce3e;}.cls-5,.cls-6{fill:#ffdb7a;stroke:#130d0d;}</style></defs><path class="cls-1" d="M412.15,147c22.33-30.39,28.67-76.19,21.68-113.25-5.78-30.64-16.44-60.93-35.45-86.59s-42.48-52.27-75.11-59.87c-24.81-5.79-66.7-9.73-91.88-5.49-98.95,16.67-177.3,79.6-248.21,145.5-39.57,36.78-74.6,79.34-91.7,128.74s-14.19,106.51,17.27,149.46c17,23.14,41.37,41.2,68.55,53.47C35,385,108.19,383.5,160.48,349.07a1297.81,1297.81,0,0,0,106,85.26c5.45,3.94,13.25-.6,11.8-6.85-9.81-42.2-21.83-80.94-30.92-124.27,0,0,34.23-22.21,49.52-36.84,18.6-17.8,37.58-40.71,42.46-39.1,48.5,15.93,96.22,35.67,144.12,53.43,5.48,2,10.65-3.44,7.76-8.19C464.3,228.47,435.33,189.77,412.15,147Z"/><path class="cls-2" d="M148.07,37.05c-17.88-1.71-35.23,14.05-33.67,30.6.9,9.58,6.93,18,12.78,26-7.68-10.16-22.76-15.5-35.38-11.3s-20.65,18.46-15.75,30"/><path class="cls-3" d="M99.6,199.38q10-27.8,21.64-55L64.43,170.5"/><path class="cls-3" d="M246.05,59.84a329.49,329.49,0,0,1-54,20.45A280.9,280.9,0,0,0,206.67,36.6"/><ellipse class="cls-4" cx="133.36" cy="96.82" rx="17.55" ry="9.27" transform="translate(-31.32 103.03) rotate(-38.14)"/><path class="cls-5" d="M320.64,241.52s-34.31-44-41.26-51.28-10.76-4.2-14.55-1.11,1.89,11.42,1.89,11.42l43.64,51.61Z"/><path class="cls-6" d="M299.28,262.6S263.81,218,256.85,210.74s-10.75-4.2-14.55-1.11,1.89,11.42,1.89,11.42l44.41,52.41Z"/><path class="cls-6" d="M280.7,279.89s-36.63-45.78-43.59-53.08-10.75-4.2-14.55-1.11,1.9,11.42,1.9,11.42l41.92,52.27Z"/><path class="cls-1" d="M59.91,472.39A369.42,369.42,0,0,1-29.85,475,376.44,376.44,0,0,1-22,405.16c4.87-23.33,12.59-47.24,29.66-63.87a16.66,16.66,0,0,1,5.82-4.08c3-1.09,6.37-.56,9.54,0a455,455,0,0,0,56.47,5.44c4.57,28.3,1.64,57.2-1.29,85.72-1.71,16.6-4.49,35.18-18,44.91C60.35,473.11,60.47,473,59.91,472.39Z"/><path class="cls-7" d="M100.9,320.3l.09-.22c-5.26-14.76,3.36-31.74,16.38-40.44,5-3.31,10.7-5.75,16.66-5.75,9.78,0,18.46,6.55,24.49,14.25,18.21,23.23,17.58,55,3.15,80.75,1.33,39.51-20.71,78.93-55,98.52-11.67,6.65-25.4,11.19-38.51,8.28-13.65-3-24.36-13.48-33-24.47C26.64,440.43,19.23,428.3,17,414.76s1.56-28.68,12.24-37.3,28.54-8.13,36.73,2.88c-4.12-8-7.44-16.75-7.46-25.86a37.81,37.81,0,0,1,12.26-27.71,31.48,31.48,0,0,1,18.47-8.33A25.15,25.15,0,0,1,100.9,320.3Z"/><path class="cls-2" d="M161.47,369.26l.2-.37c14.43-25.73,15.06-57.52-3.15-80.75-6-7.7-14.71-14.25-24.49-14.25-6,0-11.7,2.44-16.66,5.75-13,8.7-21.64,25.68-16.38,40.44"/><path class="cls-2" d="M116.76,348.46c-1-8.4-2.74-17.31-8.67-23.34a21.91,21.91,0,0,0-7.19-4.82,25.15,25.15,0,0,0-11.66-1.86,31.48,31.48,0,0,0-18.47,8.33,37.81,37.81,0,0,0-12.26,27.71c0,9.11,3.34,17.85,7.46,25.86-8.19-11-26.06-11.49-36.73-2.88S14.76,401.23,17,414.76s9.64,25.67,18.11,36.46c8.64,11,19.35,21.46,33,24.47,13.11,2.91,26.84-1.63,38.51-8.28,34.34-19.59,56.38-59,55-98.52v-.09"/></svg>