<svg
  id="图层_2"
  data-name="图层 2"
  xmlns="http://www.w3.org/2000/svg"
  viewBox="0 0 1000 1000"
>
  <defs>
    <style>
      .cls-1 {
        fill: {{color[0]}};
        stroke: #000;
        stroke-miterlimit: 10;
        stroke-width: 4px;
      }
    </style>
  </defs>
  <path
    class="cls-1"
    d="M181.29,276.37c-18.14-7.33-30.55-25.32-34.72-44.43s-1-39.17,5.06-57.77c4.14-12.66,9.77-25.12,18.76-35s21.75-16.82,35.07-16.54c1.72-16.12,13.47-29.9,27.69-37.68S263.81,74.58,280,73.33c14.06-1.08,28.29-1.2,42.19,1.19,41.11,7.06,76.68,36.68,95,74.15,9.06,18.52,14.18,40.6,6.34,59.67,13.1.68,21,15.47,21.57,28.58,1,24.57-16.43,48.69-40.06,55.48-.43,17.55-9.48,34.19-22.28,46.2s-29.09,19.77-45.86,24.95c-48,14.79-103.67,8.12-142.73-23.39-10.13-8.16-19.35-18.38-22.59-31s1.07-27.8,12.28-34.49C182.93,274.53,182,274.36,181.29,276.37Z"
  />
</svg>
