<svg
  id="图层_2"
  data-name="图层 2"
  xmlns="http://www.w3.org/2000/svg"
  viewBox="0 0 1000 1000"
>
  <defs>
    <style>
      .cls-1 {
        fill: #898989;
        stroke: #120d0d;
        stroke-miterlimit: 10;
        stroke-width: 4px;
      }
    </style>
  </defs>
  <path
    class="cls-1"
    d="M370.22,200c-26.29,20.83-48.82,48.13-56.4,62.8-43.84,84.86-41.65,185.7-30.46,280.56,3.85,32.64,8.62,66,1.62,98.1-9.21,42.3-39.78,79.37-79.56,96.46l81,37.53c2.29,1.06,8.45,4.44,9.16,4.31.2,0,2.48-6.42,3.81-9q6.94-13.2,13.88-26.39c1,10.31-7.27,27.1-12.19,36.21,23,4.3,39.39,7.7,64.57,8.72l10.76-22.49a171,171,0,0,1-4.8,24.2c8.94,3.72,28.87,5.72,42.18,6.57l74,4.69c28.72,1.82,57.55,3.64,86.25,1.5,32.31-2.41,64-9.81,95.58-17.19,2.92-.68,6.1-1.53,7.85-4,1.26-1.73,1.54-4,1.79-6.1l2.92-25.43a71.41,71.41,0,0,0,5.61,32.69,334,334,0,0,1,74.48-25.95l6.35-.16c-4.56-8-9.2-16.34-10.48-25.5A101.92,101.92,0,0,0,777,755.05a171.53,171.53,0,0,1,46.16-24.39,174.62,174.62,0,0,1-39.22-60.35c10.59,16.61,21.89,33.9,39.16,43.37l6.45-7.2c.45-.5.94-1.15.73-1.8s-1.5-.51-.69-.84a218.39,218.39,0,0,1-77.07-116.58c-4.85-18.53-7.21-37.62-8.78-56.71-1.44-17.54-2.21-35.23-.08-52.7,2.78-22.78,10.42-44.63,17-65.14a21.71,21.71,0,0,0,1-5.92c1.83-51.94-7.24-105-32-150.61-25.29-46.52-68-84.67-119.11-98.49-23.48-6.35-48-7.54-72.36-7.56-22.71,0-45.53,1-67.82,5.33C422.29,164.9,407.55,170.39,370.22,200Z"
  />
</svg>
