<svg
  id="图层_2"
  data-name="图层 2"
  xmlns="http://www.w3.org/2000/svg"
  viewBox="0 0 1000 1000"
>
  <defs>
    <style>
      .cls-1 {
        fill: {{color[0]}};
        stroke: #000;
        stroke-miterlimit: 10;
        stroke-width: 4px;
      }
    </style>
  </defs>
  <path
    class="cls-1"
    d="M460.33,137.54c-24.82-15.86-57.25.6-80.57,18.59-55.09,42.47-103.87,98.58-118.19,166.65-7.31,34.76-5.27,70.8-9.92,106s-17.78,71.94-47,92.15a29.06,29.06,0,0,0,24-8.08C224,576.78,251,642.27,299.43,684.26a52,52,0,0,1-3.85-32.13,194.29,194.29,0,0,1,11.63,57.45,53.62,53.62,0,0,0,17.67-30.43c36.4,56.68,105.19,82.83,170.83,98l-.28-15.8L516,780a82,82,0,0,1,21.27-19.55l1.94,17.7a133.23,133.23,0,0,0,80.84-38.68,41.72,41.72,0,0,1-26.36,35.27,233.29,233.29,0,0,0,90.84-62c3.79,12.28-2.31,26.84-13.72,32.76,52.5-22.47,91.11-74.54,97.36-131.31-3.94,9.57,4,21.88,14.33,22.26-19-51.92-25.43-108.4-16.31-163.22a56.06,56.06,0,0,1,2.4,36.67c33-61.95,32.47-140.55-1.38-202L792,323.38c-2.28-30.86-18-59.49-38.54-82.62s-45.82-41.48-70.87-59.63a63.3,63.3,0,0,0,26.93-20.77c-33.15,10.31-67.3-8.63-99.59-21.36a289.47,289.47,0,0,0-113.52-20C480.46,119.44,461.07,123.94,460.33,137.54Z"
  />
</svg>
