<svg
  id="图层_2"
  data-name="图层 2"
  xmlns="http://www.w3.org/2000/svg"
  viewBox="0 0 1000 1000"
>
  <defs>
    <style>
      .cls-1 {
        fill: {{color[0]}};
        stroke: #000;
        stroke-miterlimit: 10;
        stroke-width: 4px;
      }
    </style>
  </defs>
  <path
    class="cls-1"
    d="M856.27,1030h1c-108.65-15.31-218.57-20.47-328.48-20.36-34.62,0-69.24.59-103.86,1.15L288.79,1013l-123.25,2c-13.89-9.72-22.21-24.08-21.5-37.7s9.09-26.11,20.07-34.75c4.53-3.55,9.83-7,11.45-12.39,2.44-8.11-4.47-15.69-8.48-23.2-7.77-14.57-4-34,8.66-44.89,8.34-7.17,19.43-10.54,28.81-16.4s17.53-16.33,14.5-26.68c-2.82-9.61-13.86-14.76-18.72-23.58-8.29-15,4.12-32.69,16.49-44.87s26.62-27.34,22-43.79C235,693,218.82,684.21,217,670.07c-1.55-11.78,7.41-22.07,14.25-32,26.88-38.81,25.54-88.85,26.06-135.48.61-54.17,6.89-139.49,33.82-202.2C307.31,262.7,341.28,211,422,164.28c23.69-9.06,72.77-24.05,133.86-14.66,24,3.69,74.81,11.67,118.36,50.92,50.37,45.39,66.94,115.41,72.93,181.55a823.07,823.07,0,0,1,2.26,116.66c-1.26,24.32-3.56,49.07,2.43,72.73,4.95,19.53,15.52,39.34,9.88,58.69-4.45,15.29-18.65,30.63-11.15,44.77,6.19,11.67,25.64,17.25,23.64,30.21-1.71,11.09-18.81,15-20.75,26.07-3.25,18.58,37.07,22.77,34.06,41.39-.87,5.38-5.46,9.36-8.67,13.84-9.46,13.25-5.59,33.56,8.14,42.72,6,4,14.28,7.36,14.63,14.33.38,7.71-9.6,12.13-12.06,19.48-6.61,19.76,41.3,27.68,33.49,47-2,5.06-7.63,8.06-10.06,13-6.27,12.63,10.71,23.36,22.46,31.61C859.63,971.56,869.09,1005.44,856.27,1030Z"
  />
</svg>
