<svg
  id="图层_2"
  data-name="图层 2"
  xmlns="http://www.w3.org/2000/svg"
  viewBox="0 0 1000 1000"
>
  <defs>
    <style>
      .cls-1 {
        fill: {{color[0]}};
        stroke: #000;
        stroke-miterlimit: 10;
        stroke-width: 4px;
      }
    </style>
  </defs>
  <path
    class="cls-1"
    d="M318.43,863.06c14.29-9.09,35.3-5.3,45.51,8.2,2.67,3.53,4.9,7.8,8.94,9.59,6.18,2.73,13-1.57,18.69-5.18a114,114,0,0,1,97.7-10.83c14.22,5.07,29.07,13.15,43.52,8.8,7.72-2.33,14-7.93,21.28-11.35,23.62-11.08,51.94,2.56,77.4-3.12,5.63-1.25,11.4-3.46,17-2,4.54,1.15,8.13,4.5,11.86,7.33a63.39,63.39,0,0,0,56.76,9.76C689,859.49,674.4,823.17,684.5,793.13c-6.06,29.94,11.32,62.72,38.72,76.39s62.18,8.93,86.85-9.2,39.31-48.17,41.65-78.69c1.37-18-2-37.78-15.45-49.81s-38.68-10.77-46.13,5.64c15.16-4,25.87,20.1,15.18,31.55s-31,8.12-41.87-3.18-14.32-27.71-15.76-43.3c-4-42.94,3.71-86,9.43-128.69,10.65-79.67,14.45-160.59,5.35-240.45-3.51-30.85-9.2-62.21-24.61-89.17-13.68-24-34.45-43.25-57.29-58.73-95.33-64.61-232.25-59.93-323,11S229.51,419.21,270,531.46c28.22,46.89,33.79,104.64,26.31,158.85-1.57,11.32-3.91,23.13-11.22,31.92S264,735.47,254.57,729s-7.48-24.75,3.85-26.34c-.41-9-10.17-15.37-19.19-15s-17.07,5.59-24,11.33c-23,19-39.85,46.86-41.13,76.71s15,60.92,42.43,72.89,64.07.46,76.19-26.86c-5,13.8-19,23.84-33.78,24.15C288.85,860.58,323.3,866,318.43,863.06Z"
  />
</svg>
