<svg
  id="图层_2"
  data-name="图层 2"
  xmlns="http://www.w3.org/2000/svg"
  viewBox="0 0 1000 1000"
>
  <defs>
    <style>
      .cls-1 {
        fill: {{color[0]}};
      }
      .cls-1,
      .cls-2 {
        stroke: #000;
        stroke-miterlimit: 10;
        stroke-width: 4px;
      }
      .cls-2 {
        fill: none;
      }
    </style>
  </defs>
  <path
    class="cls-1"
    d="M385,188c-13.44,7.76-83.25,49.55-118,133-28.45,68.32-23.45,140.66-20.72,180.22,4.89,70.7,18.73,101.47-1.16,142.33-11.48,23.58-31.64,41.94-47.4,63.07s-27.41,48.42-18.38,73c5.47,14.87,17.72,26.37,30.24,36.47,16.06,12.93,34.19,24.89,54.9,27.44s44.3-7.11,51.2-26.21a25.34,25.34,0,0,1-10.91,25.09,1374.57,1374.57,0,0,1,317.66,8.35c23.68,3.39,47.9,7.4,71.39,2.88s46.5-19.75,52.15-42.3A20.38,20.38,0,0,1,739.6,834c33.48,6.41,70.29-10.49,86.38-39.66s10.16-68.22-13.92-91.66c-17.37-16.91-43.39-27-52.54-49.15-3.92-9.49-4.09-20-4.13-30.23-.23-61.74,4-123.44,8-185.06,3.63-56,8.91-137.43-39.38-201.2-39.55-52.23-97-68.88-122.2-76.17C491.06,128.75,398.88,180,385,188Z"
  />
  <path
    class="cls-2"
    d="M301.21,824.07a145.49,145.49,0,0,0,30.05-103.58c-3.48,11.94-16,20.76-28.82,20.26s-24.56-10.29-27-22.46c-2.42-11.93,3.44-24.07,11.22-33.6s17.57-17.41,25.08-27.14c13.39-17.32,18.67-39.27,21.13-60.78a284.12,284.12,0,0,0-27.11-156.4"
  />
  <path
    class="cls-2"
    d="M654.66,455.92c-8,77.61-15.77,157.62,7.66,232.24,6.61,21.06,16.24,42.19,33.58,56.41,9,7.39,19.75,12.57,29.34,19.26s18.44,15.54,21,26.72-3.29,24.71-16,26.68l.75-.74"
  />
</svg>
