<svg id="图层_2" data-name="图层 2" xmlns="http://www.w3.org/2000/svg" viewBox="0 0 1000 1000"><defs><style>.cls-1{fill:#8e806e;stroke:#000;stroke-linecap:round;stroke-linejoin:round;stroke-width:4px;}</style></defs><path class="cls-1" d="M316.12,500.43C328.33,470,354.49,405.87,379,378c47.35-53.83,101.67-86.82,164.08-121.41,2.73-1.52,5.57-3,8.68-3.26,2.92-.21,5.79.76,8.55,1.75C640.8,284,704.05,333.59,740.92,415.76c12.41-54.78,11.87-106.93-11.09-158.08-6.5-14.5-14.23-28.54-24.17-40.88-20.3-25.22-49.18-42.35-79.72-52.34S565.08,147,533,146c-32.34-1-69-1-98,7-21.38,5.9-41.78,16.22-60,29-56.72,39.78-93,83-107,143-4.81,20.62-1.87,75.15,3.62,95.59S292.33,479.55,316.12,500.43Z"/></svg>