<svg id="图层_2" data-name="图层 2" xmlns="http://www.w3.org/2000/svg" viewBox="0 0 1000 1000"><defs><style>.cls-1{fill:#0f0b0b;}</style></defs><path class="cls-1" d="M305,452c8.45,25.55,15,43.49,25.72,68.19,9.44-45.24,30.33-88.05,61.06-122.74,3-6.9,2-14.8,1.29-22.31a191.14,191.14,0,0,1,3.35-56.76c1.11-5.21,2.49-10.51,5.52-14.9,3.63-5.22,9.27-8.67,15-11.5,17.18-8.55,36.11-12.86,54.91-16.66C534.28,262.71,599.74,255,661.16,272c15.79,4.37,31.4,10.48,44.23,20.68S734,327,729.3,333.85c-.19.27,20.5-29.17,20.69-49.2s-5.21-39.67-11.22-58.77C733,207.4,726.27,188.6,713.53,174c-13.56-15.52-32.82-24.9-52.28-31.68-29.3-10.21-60.1-15.41-90.93-18.84-38.37-4.28-79.77-5.24-112.61,15.06-3.7,2.29-7.4,4.89-11.7,5.59s-8.62-.6-12.85-1.58c-35.57-8.17-73.69,7-99.81,32.48S291.64,235,281.43,270c-16.5,56.64-20.34,116.93-8.61,175.07C280.56,437.82,301.32,440.88,305,452Z"/></svg>