<svg
  id="图层_2"
  data-name="图层 2"
  xmlns="http://www.w3.org/2000/svg"
  viewBox="0 0 1000 1000"
>
  <defs>
    <style>
      .cls-1 {
        fill: {{color[0]}};
        stroke: #000;
        stroke-miterlimit: 10;
        stroke-width: 4px;
      }
    </style>
  </defs>
  <path
    class="cls-1"
    d="M484.12,150.32c-32.33-2.27-63.74,10.21-90.38,26.06C302.12,230.88,272.8,326.83,267,348.82c-17.49,65.79-8.42,124.41-5,143.18,13.81,74.9,46.8,103.94,32,142-7.9,20.32-29.73,44-90.74,58.75a133.57,133.57,0,0,0,86.83-.48c-.81,14.62-17.08,27.3-34.16,26.62,26.83-1,53-11.44,71.23-28.33,3.63,16.9-2,35.08-15,48.21a193.27,193.27,0,0,0,63.22-37.83,209.65,209.65,0,0,1-.66,59.72c25.16-9.42,45.53-27.84,55.14-49.87,8.24,19.92,22.36,38,40.67,52.21A86.12,86.12,0,0,1,493,730.7l20.58,31.16L525,735.71c7.94,11.67,21.09,20.65,36.13,24.68,2.68.72,5.77,1.25,8.17,0s3.24-3.72,3.94-6q6.32-20.6,12.64-41.19c.84,20.76,17.44,40.41,40.2,47.57a262.59,262.59,0,0,1,2.21-48.28c8,16.09,26.31,28.06,46.53,30.36a81.78,81.78,0,0,1-11.68-27.22c12,15.38,33.23,25.17,54.84,25.29q-14.06-17.74-28.09-35.5c17.24,13,42.49,17.7,64.47,12l-27.7-15.35c29.75,8.52,65.51-2.34,82.33-25-4.84,2.19-42.83,18.86-64.8,1.65-15.65-12.26-17.13-37-19.2-71.69a243.07,243.07,0,0,1,0-30,280.36,280.36,0,0,1,21-88c20.31-50.48,22.92-198.14-64-280C611.93,143,513.43,147.79,484.12,150.32Z"
  />
</svg>
