<svg
  id="图层_2"
  data-name="图层 2"
  xmlns="http://www.w3.org/2000/svg"
  viewBox="0 0 1000 1000"
>
  <defs>
    <style>
      .cls-1 {
        fill: {{color[0]}};
        stroke: #000;
        stroke-miterlimit: 10;
        stroke-width: 4px;
      }
    </style>
  </defs>
  <path
    class="cls-1"
    d="M484.12,150.32c-32.33-2.27-63.74,10.21-90.38,26.05C326.81,216.19,280,279.93,267,348.82c-15.34,81.28,14.66,163,32.35,244,4,18.5,7.36,38.08-.16,55.77-13.33,31.33-57,46.21-95.89,44.21a133.57,133.57,0,0,0,86.83-.48c-.81,14.62-17.08,27.3-34.16,26.62,26.83-1,53-11.44,71.23-28.33,3.63,16.9-2,35.08-15,48.21a193.27,193.27,0,0,0,63.22-37.83,209.65,209.65,0,0,1-.66,59.72c25.16-9.42,45.53-27.84,55.14-49.87,8.24,19.92,22.36,38,40.67,52.21A86.12,86.12,0,0,1,493,730.7l20.58,31.16L525,735.71c7.94,11.67,21.09,20.65,36.13,24.68,2.68.72,5.77,1.25,8.17,0s3.24-3.72,3.94-6q6.32-20.6,12.64-41.19c.84,20.76,17.44,40.41,40.2,47.57a262.59,262.59,0,0,1,2.21-48.28c8,16.09,26.31,28.06,46.53,30.36a81.78,81.78,0,0,1-11.68-27.22c12,15.38,33.23,25.17,54.84,25.29l-28.09-35.5c17.24,13,42.49,17.7,64.47,12l-27.7-15.35c29.75,8.52,65.51-2.34,82.33-25-21.41,3.51-43.71,6.37-64.8,1.65s-40.75-18.87-43.32-37.41c-2.11-15.17,7.13-29.58,15.42-43.11,36.52-59.61,60.12-126,59.32-193.33S748.2,269.35,694.73,220,559.81,142.39,484.12,150.32Z"
  />
</svg>
