<svg
  id="图层_2"
  data-name="图层 2"
  xmlns="http://www.w3.org/2000/svg"
  viewBox="0 0 1000 1000"
>
  <defs>
    <style>
      .cls-1 {
        fill: {{color[0]}};
        stroke: #000;
        stroke-miterlimit: 10;
        stroke-width: 4px;
      }
    </style>
  </defs>
  <path
    class="cls-1"
    d="M457.33,177.54c-24.82-15.86-57.25.6-80.57,18.59-55.09,42.47-103.87,98.58-118.19,166.65-7.31,34.76-5.27,70.8-9.92,106s-17.78,71.94-47,92.15a29.06,29.06,0,0,0,24-8.08C221,616.78,248,682.27,296.43,724.26a52,52,0,0,1-3.85-32.13,194.29,194.29,0,0,1,11.63,57.45,53.62,53.62,0,0,0,17.67-30.43c36.4,56.68,105.19,82.83,170.83,98q-.13-7.9-.28-15.8L513,820a82,82,0,0,1,21.27-19.55q1,8.85,1.94,17.7a133.23,133.23,0,0,0,80.84-38.68,41.72,41.72,0,0,1-26.36,35.27,233.29,233.29,0,0,0,90.84-62c3.79,12.28-2.31,26.84-13.72,32.76,52.5-22.47,91.11-74.54,97.36-131.31-3.94,9.57,4,21.88,14.33,22.26-19-51.92-25.43-108.4-16.31-163.22a56.06,56.06,0,0,1,2.4,36.67c33-61.95,32.47-140.55-1.38-202L789,363.38a218.66,218.66,0,0,0-38.54-82.62C727.33,250.39,702.88,235.37,673,217c-40.42-24.84-84.63-52-145-52A209,209,0,0,0,457.33,177.54Z"
  />
</svg>
