<svg
  id="图层_2"
  data-name="图层 2"
  xmlns="http://www.w3.org/2000/svg"
  viewBox="0 0 1000 1000"
>
  <defs>
    <style>
      .cls-1 {
        fill:  {{color[0]}};
        stroke: #000;
        stroke-miterlimit: 10;
        stroke-width: 4px;
      }
    </style>
  </defs>
  <path
    class="cls-1"
    d="M341.52,211.15c23.77-22.88,72.36-50.87,106.36-57.76,37.42-7.58,76.57-4.37,114.22,2.27,56.5,10,114.12,29.28,150.77,69.14,29.19,31.75,42,73.44,45.31,114.49s-2.08,82.2-5.31,123.26a1172.74,1172.74,0,0,0,7,249.26c7.94,58.61,20.81,118,53.09,169.4a30,30,0,0,1-15.13,7.93c-25.35-35.92-40.92-77.35-45-119.71A340.4,340.4,0,0,0,780,897.72a932.79,932.79,0,0,1-238.36,37.53L539.1,876.7a208.92,208.92,0,0,1-3.44,46.87c-1,5.53-2.66,11.55-7.71,14.86-4.78,3.13-11.24,2.9-17.14,2.49a1246.84,1246.84,0,0,1-226.76-36.74,530.43,530.43,0,0,0,3.13-79.68c-3.11,29-18,56.81-40.72,77.42a502.85,502.85,0,0,0-69.32-35.86,620.14,620.14,0,0,0,70.9-121c-18.41,31.86-39,62.65-59.81,93.31-4,5.87-8.37,12.07-15.38,14.81s-17.17-.1-18.29-6.89c1.17,0,2.35,0,4.07,0,50.78-66.27,103.05-135.94,114.18-215.75,5.11-36.62,1.22-73.72-3-110.43-5.22-45.35-18.59-77.89-14.44-133.48.09-1.16,3.58-26.68,4.32-27.62C259.43,359.05,254.78,294.66,341.52,211.15Z"
  />
</svg>
