<svg
  id="图层_2"
  data-name="图层 2"
  xmlns="http://www.w3.org/2000/svg"
  viewBox="0 0 1000 1000"
>
  <defs>
    <style>
      .cls-1 {
        fill: {{color[0]}};
        stroke: #000;
        stroke-miterlimit: 10;
        stroke-width: 4px;
      }
    </style>
  </defs>
  <path
    class="cls-1"
    d="M583,167c8.29-31.83-10.55-65.85-38.82-85.51S480,54.26,444.81,50.94c-75.46-7.1-155.56,4.62-216.88,46-46.61,31.44-79.28,77.65-104.27,125.77-22.27,42.89-39.43,88.86-41.87,136.39S92.82,456,126,492.34c8.82,9.65,19.33,19,22.23,31.34,5,21.12-20.49,42.68-42.76,36.22,12.37,3.85,25.56,7.54,38.26,4.8s24.08-14.47,20.84-26.17c11.19,27.73,11.34,60.23-4.71,85.82s-49.95,42.06-81,35.1c54.44,21.55,124.33.93,155.29-45.82,15.19-23,21.26-50,24.82-76.77,2.7-20.24,4.07-41.07-1.59-60.79-4.81-16.77-14.52-32-20-48.62s-6.06-36.26,5.86-49.65a49.86,49.86,0,0,0-1.45,32c7.87-27.4,15.84-55.05,29.88-80.24s34.87-48.08,62.52-60.24c11.51-5.06,24.19-8.2,36.93-7.71,20.32.78,38.76,10.49,57.57,17.67,25.21,9.63,53.76,14.89,79.73,7.19,25.71-7.62,45.75-27.23,58-49.51S577.28,189.14,583,167Z"
  />
</svg>
