<svg
  id="图层_2"
  data-name="图层 2"
  xmlns="http://www.w3.org/2000/svg"
  xmlns:xlink="http://www.w3.org/1999/xlink"
  viewBox="0 0 1000 1000"
>
  <defs>
    <style>
      .cls-1 {
        fill: none;
      }
      .cls-2 {
        fill: {{color[0]}};
        stroke: #120d0d;
        stroke-miterlimit: 10;
        stroke-width: 4px;
      }
      .cls-3 {
        clip-path: url(#clip-path);
      }
    </style>
    <clipPath id="clip-path">
      <rect class="cls-1" x="1035" y="-1137" width="1000" height="1000" />
    </clipPath>
  </defs>
  <path
    class="cls-2"
    d="M285.54,388.57a368.24,368.24,0,0,1-156.25,149.6,309.26,309.26,0,0,0,44.62,64.05c12.73,14.07,30.94,28,48.94,22a22.41,22.41,0,0,0,33.44,27.21,24.34,24.34,0,0,0,40.19,22.66,19,19,0,0,0,30,21.55c15.82,22.92,44.23,36.52,72,34.48A299.82,299.82,0,0,0,540,751.8a524.17,524.17,0,0,0,171.45-24.31c17.39-5.52,38.11-17.81,34.71-35.73,7,8.44,20.33.33,27.78-7.7l24.39-26.29c8-8.61,16.45-18.33,16.77-30.08,13.82-2,25.29-14.75,25.73-28.7,15,.67,28.19-15.72,24.29-30.25C879.65,565.43,889.2,548,884.16,534c9.46,2.3,19.11-9,15.36-18a168.46,168.46,0,0,1-108.07-66.91c-40.65-56.38-44.68-135.81-94.56-184.21-32.3-31.33-78.67-43.82-123.53-47.29C512.14,212.85,449,223.2,395.25,253s-97.08,79.89-111.66,139.83C283.59,392.3,283.59,391.81,285.54,388.57Z"
  />
</svg>
