<svg id="图层_2" data-name="图层 2" xmlns="http://www.w3.org/2000/svg" viewBox="0 0 1000 1000"><defs><style>.cls-1{fill:#f6ebfc;}.cls-2{fill:#e2ceef;}</style></defs><rect class="cls-1" y="1" width="1000" height="1000"/><polygon class="cls-2" points="318 79 166 165 318 234 318 79"/><polygon class="cls-2" points="48 428 207 378 165 516 48 428"/><polygon class="cls-2" points="428 327 356 427 500 458 428 327"/><polygon class="cls-2" points="838.12 768.29 749.46 795.24 789.8 873.76 838.12 768.29"/><polygon class="cls-2" points="815.72 317.83 701.48 404.98 847.66 463.75 815.72 317.83"/><polygon class="cls-2" points="640 550 556 640 692 656 640 550"/><polygon class="cls-2" points="690 121 678 223 802 145 690 121"/><polygon class="cls-2" points="229 712.75 354.14 690 291.57 847 229 712.75"/><polygon class="cls-2" points="529 816 463 884 602 894 529 816"/></svg>