<svg id="图层_2" data-name="图层 2" xmlns="http://www.w3.org/2000/svg" xmlns:xlink="http://www.w3.org/1999/xlink" viewBox="0 0 1000 1000"><defs><style>.cls-1{fill:none;}.cls-2{clip-path:url(#clip-path);}.cls-3{opacity:0.4;font-size:60px;fill:#85c478;font-family:Krungthep;}.cls-4{fill:#ffeec0;stroke-linecap:round;}.cls-4,.cls-5{stroke:#000;stroke-miterlimit:10;stroke-width:4px;}.cls-5{fill:#d0d7ed;}</style><clipPath id="clip-path"><rect class="cls-1" x="21" y="1565" width="1000" height="1000"/></clipPath></defs><g class="cls-2"><text class="cls-3" transform="translate(770.99 1009.8) scale(0.91 1)">0<tspan x="0" y="60">1</tspan><tspan x="0" y="120">1</tspan><tspan x="0" y="180">1</tspan><tspan x="0" y="240">0</tspan><tspan x="0" y="300">0</tspan><tspan x="0" y="360">0</tspan><tspan x="0" y="420">1</tspan><tspan x="0" y="480">1</tspan><tspan x="0" y="540">0</tspan><tspan x="0" y="600">1</tspan><tspan x="0" y="660">0</tspan><tspan x="0" y="720">1</tspan></text></g><path class="cls-4" d="M285.49,259.73c6.71-48.8,24.14-96.5,53.28-136.22S409,52.39,456.12,37.88c57.23-17.64,119.58-9.76,176.73,8.17,15.67,4.91,31.21,10.61,45.41,18.89,28.76,16.79,50.8,43.69,65.32,73.67s21.88,63,25.8,97.84c-50.93,32.85-112.57,44.82-173,49.37-43.3,3.26-86.78,3.07-130.2,2.59-45.21-.49-90.6-1.3-135.21-8.63-17.53-2.88-36.8-8-46.45-22.9C284.67,256.38,284.84,255.88,285.49,259.73Z"/><path class="cls-5" d="M286.37,250.74c155,40.09,336.71,35.37,460-9.54,2.69-1,22.18-11.79,27.12-10.33,1,.29,39.27,16.13,49.71,19.21,10.65,3.15,21.46,6.36,30.86,12.27s17.4,15,19.47,25.89c2.88,15.2-6.52,30.69-19.38,39.3s-28.59,11.63-43.92,13.75c-69,9.54-139,4.48-208.41-1.24-78.2-6.45-156.91-13.83-232.21-35.88C336.63,294.53,302.32,280.41,286.37,250.74Z"/><path class="cls-5" d="M629.53,84a87,87,0,0,1-45.14,51.9,77.39,77.39,0,0,0,27.26,11.16,63.91,63.91,0,0,1-27.59,16.86,75.43,75.43,0,0,0,23,5.7,89.35,89.35,0,0,1-27.78,27.5,204,204,0,0,0,87.81-1.63,10.12,10.12,0,0,0,2.72-1.53,72.74,72.74,0,0,1-22.68-18.23,31.35,31.35,0,0,0,20.94-12.08,74.77,74.77,0,0,1-28.38-18.19,40.63,40.63,0,0,0,21.85-10.25l1.33-2.53c-10.43-.8-20-7.1-25.95-15.72S628.61,97.61,629.53,84Z"/><path class="cls-5" d="M615.84,208.14l18.6-.2a89.39,89.39,0,0,0-.79,20.8l-17.49,1.95C615.56,222.72,615,214.75,615.84,208.14Z"/></svg>