<svg id="图层_2" data-name="图层 2" xmlns="http://www.w3.org/2000/svg" viewBox="0 0 1000 1000"><defs><style>.cls-1{fill:#bca07b;stroke:#000;stroke-miterlimit:10;stroke-width:4px;}</style></defs><path class="cls-1" d="M285.21,443.34q-2.7-.69-5.43-1.13C285.6,443.77,285.51,443.77,285.21,443.34Z"/><path class="cls-1" d="M809.19,142.52c-2-1.92-5.14-1.79-7.92-1.62-45.18,2.83-89-13.47-133.11-23.72a507.55,507.55,0,0,0-129.29-13c-46.09,1.31-92.41,9.08-134.76,27.33s-80.62,47.41-105.7,86.1c-42.5,65.55-42.46,153-13.31,225.54a.91.91,0,0,0,.11.16,65.87,65.87,0,0,1,43.27,36.09c5.45,12.07,7.1,25.62,12.82,37.57,1.75-54.12,5.75-108.17,12.8-161.88.16-5.92.32-11.84,1.38-17.09,55.07-13,103.71-48.76,159.9-55.51,55.13-6.61,109.1,15.53,163.72,25.53,14.43,2.64,29.38,4.37,43.91,3.13,11.7,26.63,13.75,46.09,14,56.82.11,4.82.06,17-1.06,31.55-.8,10.45-1.49,13.39-1.94,21.45a195.38,195.38,0,0,0,1,33,182.22,182.22,0,0,0,11-20c7.36-15.64,10.31-27.74,13-38,15.2-57.93,26.64-73.77,21-105.32-.4-2.25-.8-4.07-1.06-5.22,8.07-7.15,15.58-15.13,22.91-23a63.87,63.87,0,0,1-21.5-6.24,123.88,123.88,0,0,0,24.81-41L791.06,218a43.4,43.4,0,0,0,16.39-26.95,10.44,10.44,0,0,1-9.74,2.78A108.27,108.27,0,0,0,811,150.41C811.23,147.63,811.22,144.45,809.19,142.52Z"/></svg>