<svg id="图层_2" data-name="图层 2" xmlns="http://www.w3.org/2000/svg" viewBox="0 0 1000 1000"><path d="M507.32,400.6c-2.29-3.67-4.77-7.38-8.62-9.57s-8.77-3.27-13.21-3.94c-8.94-1.36-18.09-.63-26.26,3.46a31.77,31.77,0,0,0-10.48,8.35,3.09,3.09,0,0,0,0,4.24,3,3,0,0,0,4.24,0,29.22,29.22,0,0,1,17.28-10.08c3.9-.78-13.07-.8-9.12-.4s29.1,1.27,32.81,2.73c3.89,1.53,6.05,4.83,8.18,8.24S509.37,403.89,507.32,400.6Z"/><path d="M671.32,400.6c-2.29-3.67-4.77-7.38-8.62-9.57s-8.77-3.27-13.21-3.94c-8.94-1.36-18.09-.63-26.26,3.46a31.77,31.77,0,0,0-10.48,8.35,3.09,3.09,0,0,0,0,4.24,3,3,0,0,0,4.24,0,29.22,29.22,0,0,1,17.28-10.08,40.1,40.1,0,0,1,11.88-.4A45.17,45.17,0,0,1,658,395.39c3.89,1.53,6,4.83,8.18,8.24S673.37,403.89,671.32,400.6Z"/></svg>