<svg id="图层_2" data-name="图层 2" xmlns="http://www.w3.org/2000/svg" viewBox="0 0 1000 1000"><defs><style>.cls-1{fill:#fff;stroke-linecap:round;}.cls-1,.cls-2{stroke:#000;stroke-miterlimit:10;stroke-width:4px;}.cls-2{fill:#d0d7ed;}</style></defs><path class="cls-1" d="M669.4,840.63c6.66-3.74,16.15,1,23.56,5.24,50.55,28.66,104.75,95.71,129,127.39a188.7,188.7,0,0,1-57.23,36.08,191,191,0,0,1-81.91,13.35c-1.5-16.36-4-40.21-7.85-69C665.49,883.58,656,848.14,669.4,840.63Z"/><path class="cls-2" d="M400.69,862.15c12.29,26.55,7.56,33.79,15.2,43.83,7.14,9.39,17.93,11.6,62.82,14.19,58.72,3.39,87.55,2.34,114.5,0,40.07-3.48,47.21-7.79,53.14-13.45,14.1-13.46,12.77-42.22,1-70.8a32.12,32.12,0,0,1,16.81,6.23,24.17,24.17,0,0,1,4.29,4.43,49,49,0,0,1,7.87,16.85,325.63,325.63,0,0,1,8.11,66.87c-.15,16.85.1,41.2,2,71.94-15.14,3.29-27.5,5.64-35.46,7.1,0,0-81.25,14.88-272.57-4.41-2.9-.29-10.08-1-12.81-6-1.37-2.52-1.25-5.56-1.07-8.42,2.51-39.75,9.48-79.88,2.55-119.09-2.25-12.78-6.1-25.55-13.62-36.12a19.51,19.51,0,0,1,8-4.2c8-2,14.6,2,16,2.91C387.87,840.77,395.6,851.15,400.69,862.15Z"/><path class="cls-1" d="M354,837.08c-30.63,1.2-58.11,17.71-81.26,36.37S233.22,941.33,207,956.09a143.23,143.23,0,0,0,39.63,35.47,133.17,133.17,0,0,0,41.51,17.05c8.82,1.93,13.71,2,34.78,3.19,11.44.65,28.8,1.68,50.49,3.2,1.62-12.43,2.66-23,3.35-30.86,7.9-90.46-6.52-120.26-11.13-129A126.71,126.71,0,0,0,354,837.08Z"/></svg>