<svg id="图层_2" data-name="图层 2" xmlns="http://www.w3.org/2000/svg" viewBox="0 0 1000 1000"><path d="M640.24,404.37a69.27,69.27,0,0,0-11.42,2.6c-7.41,2.34-10,4.55-14.4,3.6-.52-.11-7.59-1.74-8.85-7.16-1.34-5.71,4.63-11.93,6.45-13.83,11.56-12.06,28.41-9.77,35.25-8.85,8.19,1.12,18.27,2.48,21.66,10.84a16.24,16.24,0,0,1-.57,13.37,11.69,11.69,0,0,1-12.55,5.82c-2.9-.74-3.38-2.55-7.67-4.46A22.58,22.58,0,0,0,640.24,404.37Z"/><path d="M455.43,396.1a63.37,63.37,0,0,1,39.43-16.49c7.44-.42,15.25.51,21.46,4.51s10.33,11.63,8.39,18.62c-2.08,7.5-11.45,12.2-19,9.48-4.29-1.55-7.67-5-12.05-6.34-4.18-1.25-8.71-.35-12.85,1s-8.18,3.13-12.51,3.72-9.17-.27-12.07-3.45S453.41,398,455.43,396.1Z"/></svg>