<svg id="图层_2" data-name="图层 2" xmlns="http://www.w3.org/2000/svg" viewBox="0 0 1000 1000"><defs><style>.cls-1{fill:#d0d7ed;}.cls-1,.cls-2{stroke:#000;stroke-miterlimit:10;stroke-width:4px;}.cls-2{fill:#fff;stroke-linecap:round;}</style></defs><path class="cls-1" d="M694.92,245.85a13.52,13.52,0,0,1-5.3,4.32c-6.34,2.64-13.36-1.55-19.11-5.1-42.94-26.55-99-26.8-150.71-21.6-27.83,2.79-55.73,6.93-81.94,15.89-28.2,9.64-56.37,25.06-86.17,21-4.9-.68-10.15-2.15-12.88-5.9-4.5-6.21.25-14.35,4.91-20.46,6.12-8,11-16.3,17.63-22.76-1.45-6.59-1.3-13.47-.59-20.18,3.76-34.9,23.3-67.84,51.92-91.43s65.85-38,104.23-42.38c16.19-1.85,32.7-2,48.77.59a147,147,0,0,1,85.76,46.93,143.18,143.18,0,0,1,35.39,85.5c.21,3.15.11,6.66-1.18,9.5,5.62,6,10.2,12.6,12.63,20C701.14,228.44,700.69,238.45,694.92,245.85Z"/><path class="cls-2" d="M489.18,154a12.6,12.6,0,0,0-13.42-6,14.36,14.36,0,0,0-10.61,10.55,16.8,16.8,0,0,0,3.78,14.72,12.94,12.94,0,0,0,6.62,4.27,8.27,8.27,0,0,0,7.48-1.77c-4.39,5.69-2.27,15,3.9,18.7s14.93,1.58,19.21-4.19,4-14.31-.18-20.16l48.3-20.83c-.65,3.78,2.94,7,6.59,8.21,7.33,2.36,15.45-.46,21.65-5a11.76,11.76,0,0,0,3.87-4.16,10.89,10.89,0,0,0,.81-5.06C587,137.85,585,132.35,580.8,129s-10.67-4-14.88-.71c4.69-3.27,7.87-9.52,5.7-14.81-1.85-4.48-7.09-6.91-11.92-6.54s-9.22,3-12.78,6.34c-2.63,2.44-5,5.58-5,9.17.09,5,4.86,8.59,9.35,9.86L496.49,156a8.23,8.23,0,0,1-4.3,1C490.72,156.79,489.87,155.26,489.18,154Z"/></svg>