<svg id="图层_2" data-name="图层 2" xmlns="http://www.w3.org/2000/svg" viewBox="0 0 1000 1000"><defs><style>.cls-1,.cls-4{fill:#bca07b;}.cls-1,.cls-2,.cls-5{stroke:#000;stroke-miterlimit:10;stroke-width:4px;}.cls-2{fill:#fff3dc;}.cls-3{fill:#ffd6c0;}.cls-5{fill:none;}</style></defs><path class="cls-1" d="M780,727c-3.72,37.18,12.65,43.34,15,82,.93,15.24.65,51.72-21.65,85.88A133.54,133.54,0,0,1,727.5,937.6,156.1,156.1,0,0,0,750,763a124.54,124.54,0,0,1,4.59,42.77c-1.27,18.12-5.87,31.2-11.16,43.36-11.62,26.77-35.19,51.31-31,80.18-16.93-22.56-16.21-53.53-12.34-81.47S716.19,771,707.85,744c5.32,22.47-3.85,66.85-14.74,87.21-7.86,14.69-19.47,27.19-26.72,42.2s-9.2,34.56,1.74,47.13a65.4,65.4,0,0,1-29.11-43,36.4,36.4,0,0,0,6.91,33c-19.62-10.86-31.33-32.53-35.52-54.56s-1.86-44.7.49-67c-11.85,22.75-9.78,50-6.26,75.42,1.34,9.7,2.84,19.65.7,29.2-3.42,15.28-10.84,7.81-26.17,9.75a30,30,0,0,0,6.91-33.48l-4.56,14.59c-9.15,7.14-18.74,16.78-30,23.87a90.45,90.45,0,0,0,3.2-56.21c-6.76,16.09-15.82,31.91-30,42-17.81,12.71-40.88,14.67-62.7,16.2,9.48-6.87,9.67-21.06,6.3-32.27s-9.35-22-9-33.75a173.23,173.23,0,0,1-29.43,68.06,72.28,72.28,0,0,0-14-33.42c-.65,10.47-7.85,19.64-16.64,25.35s-19.1,8.54-29.22,11.29c12.4-9.24,16.58-26.22,15.55-41.64s-6.31-30.21-9.16-45.4-3-31.93,5.43-44.9c-13.64,10.9-15.8,30.76-14.31,48.16s5.45,35.36.07,52a48.88,48.88,0,0,1-29,30.29c-11.57,4.31-25.43,4.55-34.05,13.38a43.25,43.25,0,0,0,9.2-40.36c-4.49-15.3-17.35-27.4-20.29-43.08,5.06,16.61,9.47,34,7.17,51.17s-12.8,34.35-29.31,39.72c10.71-5.51,11-21.42,5.07-31.89s-16.06-17.92-23-27.74c-18.48-26-11.3-61.65-3.24-92.55-9.14,20.26-17.9,41.06-20.69,63.11s1,45.81,14.93,63.17c-23.88-15.06-35-39.71-36.46-64.55s6.29-49.71,19.29-70.93c10.33-16.87,24.13-32.11,29.74-51.08,10.11-34.12-8.71-70.52-4.64-105.87,3-25.72,17.68-48.36,26.75-72.62,17.46-46.66,13.68-98.1,13.49-147.93s4.69-103,35.46-142.22c6.19-7.88,14.4-15.51,24.2-18,15.68-29.89,44.83-51.06,76.39-63s65.64-15.52,99.34-17.3c17.94-.95,36.18-1.39,53.6,3,19.33,4.86,36.72,15.43,53.1,26.8,48.92,34,93.35,78.79,111.21,135.59,7,22.31,9.72,45.78,10.3,69.15a395.78,395.78,0,0,1-5.85,78.29c-3.68,20.93-9.08,41.84-8.25,63.08,1.43,36.81,21.22,70.06,39.75,103.35A198.57,198.57,0,0,1,786,684C785.16,704.8,781.55,711.54,780,727Z"/><path class="cls-1" d="M281,621a107.25,107.25,0,0,1-7.77,36.93C263.8,681,251.5,688.33,239.3,712c-6.54,12.7-11.41,26.78-12.33,40.91a75.67,75.67,0,0,1-22.74,3.62,87.77,87.77,0,0,0,22.61-.54,65,65,0,0,0,1.88,17.59c5.2,20.65,24.21,38.71,45.46,37.4a20.61,20.61,0,0,1-16.1-15.13,25.51,25.51,0,0,0,26.47,12.93c-10.82-9.67-21.77-19.49-29.66-31.67A62.92,62.92,0,0,1,245,751.24a87.34,87.34,0,0,0,15.68-7.77A89.26,89.26,0,0,0,297,698.28l8-35.6m-60.37,82a42.21,42.21,0,0,1,1.05-8.86c6.38-27.67,39.07-42.25,48-69.21A134.39,134.39,0,0,1,244.63,744.63Z"/><path class="cls-1" d="M737,534c5.08,9.43,30.79,28.08,36.37,37.22,6.64,10.89,6.84,24.63,4.2,37.11a92.1,92.1,0,0,1-26.29,47.2c-4.85,4.64-10.46,8.87-17,10.31s-14.24-.52-18-6.12c6,12,22.38,17.51,34.4,11.51a30.56,30.56,0,0,1-25.25,17.51c12.95,2.38,19.56-2.74,23.24-4.45a95.6,95.6,0,0,0,22.79-139.85c-7.22-9.05-26.85-34.32-32.47-44.44"/><path class="cls-2" d="M716.41,875.51c-5.45-14-19-23.32-32.91-28.92s-28.91-8.37-42.78-14.16c-15.22-6.35-29.14-16.56-38.09-30.42a85.47,85.47,0,0,1-11.11-27.53,116.36,116.36,0,0,1,.83-54.78c-20-17.71-46.5-27.19-73.14-27.49A121,121,0,0,0,444.78,717c10.43,25.3,5.43,55.48-9.75,78.25S395.5,833.76,369.56,841a85.8,85.8,0,0,0-45.66,46.28c19.5,16.39,45.26,23,70.3,27.58a653.9,653.9,0,0,0,231.22,1c20.25-3.56,40.4-8.09,59.72-15.13C698.71,895.71,713.16,888.13,716.41,875.51Z"/><path class="cls-2" d="M739,403a172.12,172.12,0,0,0,7,87c11.2,34.1,5.75,91.34-12.17,130.8C692.41,712,575.08,728.6,564,730c-82.52,10.43-145.88-27.49-166.66-41.55a220.92,220.92,0,0,1-39.71-34C328.54,621.57,312.22,579,299,519.63c-20.72-93-36-161.65,6.38-230.39,47.56-77.11,143.35-114.78,226.45-113.19,28.93.56,104.26,1.49,154.16,55.1C733.84,282.55,744.55,367.46,739,403Z"/><path class="cls-3" d="M560.4,505.68a155,155,0,0,0-59.27,22.56,8.14,8.14,0,0,0-3.37,3.28c-1.73,4,3.06,7.58,7.16,9,20.45,6.92,42.75,3.94,64.12.89l55.9-8a174.34,174.34,0,0,0-66.68-26.62"/><path class="cls-4" d="M427.46,269.11c1.61,4.48-.13,10-3.38,13.65-3.79,4.29-9.16,6.76-14.26,9.41a159.57,159.57,0,0,0-79.95,100.65,404.72,404.72,0,0,0-17.47,55.76c-1.94,8-3.66,16.46-1.48,24.41,1.71,6.24,5.65,11.58,8.6,17.32,6.38,12.49,7.92,27.37,4.9,42a77.77,77.77,0,0,1-21.61,25.08c13.21-15.44,13-39.8,1.88-56.8-6.26-9.54-15.81-17.92-16.86-29.3h.05c-18-38.25-35.69-78.89-32-121,2.9-33.48,19.17-64.3,37.35-92.56,16.15-25.09,34.69-49.6,59.9-65.57,9.88-6.26,24.09-10.62,32.33-2.29,17.52-22.6,35.52-38.19,56-49.09,37.15-19.74,81.14-23.58,122.83-18.07s81.67,19.81,121,34.8c14.11,5.37,29.71,12.36,34.86,26.55,3.7,3.86,5.2,4.09,5.2,4.09,17.68,15.87,27.56,38.43,36.94,60.24,4.47,10.45,9,21.29,8.93,32.65,0-2.44.87-2.6.87-2.6,11.08,28,11,59.51,4.36,88.89-6.43,28.44-18.72,55.19-32.3,81-1.52,10.8-2.22,21.61-.81,32.41q-4.92-11-9.82-22.09c-5.93-34.83-1.13-69-10.62-100.51-11.25-37.43-41.26-66.37-73.7-88.16-11.52-7.74-23.64-14.88-37-18.64-15.19-4.27-31.21-4-47-4.47-22-.68-44.19-2.91-66.12-.41S455,256.92,438,271.75A13.91,13.91,0,0,1,427.46,269.11Z"/><path class="cls-5" d="M746.15,351.07c9.74,19.66,7.85,43,3.94,64.56-2,10.88-4.38,21.81-6,32.78-1.52,10.8-2.22,21.61-.81,32.41q-4.92-11-9.82-22.09c-5.93-34.83-1.13-69-10.62-100.51-11.25-37.43-41.26-66.37-73.7-88.16-11.52-7.74-23.64-14.88-37-18.64-15.19-4.27-31.21-4-47-4.47-22-.68-44.19-2.91-66.12-.41S455,256.92,438,271.75a13.91,13.91,0,0,1-10.55-2.64,13.53,13.53,0,0,1-5-6.92c-.58-1.92-.74-3.94-1.39-5.85-2.17-6.29-9-9.45-14.38-11.48-1.65-5,.95-10.51,4.59-14.31s8.33-6.44,12.21-10c8.38-7.66,12.6-18.79,19.69-27.65,7.95-9.9,19.22-16.56,30.5-22.42C494,159.91,516.44,151,539.3,153.09"/><path class="cls-5" d="M771.2,281.29v-.2c.11-11.36-4.46-22.2-8.93-32.65-9.38-21.81-19.26-44.37-36.94-60.24,0,0-1.5-.23-5.2-4.09-5.15-14.19-20.75-21.18-34.86-26.55-39.31-15-79.29-29.28-121-34.8s-85.68-1.67-122.83,18.07c-20.53,10.9-38.53,26.49-56,49.09-8.24-8.33-22.45-4-32.33,2.29-25.21,16-43.75,40.48-59.9,65.57C275,286,258.73,316.86,255.83,350.34c-3.64,42.09,14.08,82.73,32,121,.17.34.33.71.5,1.06"/><path class="cls-5" d="M742.81,450.94c.44-.84.89-1.69,1.32-2.53,13.58-25.84,25.87-52.59,32.3-81,6.66-29.38,6.72-60.88-4.36-88.89,0,0-.87.16-.87,2.6"/><path class="cls-5" d="M287.83,471.33c1.05,11.38,10.6,19.76,16.86,29.3,11.15,17,11.33,41.36-1.88,56.8a77.77,77.77,0,0,0,21.61-25.08c3-14.67,1.48-29.55-4.9-42-2.95-5.74-6.89-11.08-8.6-17.32-2.18-7.95-.46-16.4,1.48-24.41a404.72,404.72,0,0,1,17.47-55.76,159.57,159.57,0,0,1,79.95-100.65c5.1-2.65,10.47-5.12,14.26-9.41,3.25-3.69,5-9.17,3.38-13.65a9.46,9.46,0,0,0-1.09-2.15"/><path class="cls-1" d="M375.81,302.4c-19.43,8-32.53,27-38.76,47s-6.64,41.36-7.57,62.34-2.53,42.4-10.9,61.65c-1.49,3.43-3.77,7.2-7.49,7.6,10.05-2.07,17.21-10.83,22.73-19.47A181.29,181.29,0,0,0,360,392.45c2.53-16,3.29-33.34,13.19-46.16,8.55-11.07,22.34-16.58,33-25.58A63.13,63.13,0,0,0,427,286.84c.68-2.94,1.14-6.09.09-8.93-1.89-5.11-8.26-7.43-13.6-6.34s-9.77,4.76-13.61,8.63C390.83,289.31,382.51,299.65,375.81,302.4Z"/><path class="cls-1" d="M435.87,247.74a166.93,166.93,0,0,1,33.39-28.08,171.46,171.46,0,0,1,67.91-24.85c53.59-8.24,97.4,10.21,115.29,19"/><path class="cls-1" d="M341.72,257.76a76.84,76.84,0,0,1,54.47-32.3"/><path class="cls-1" d="M448.13,260.51c-.47-9.68,7.58-18.2,16.79-21.21s19.25-1.7,28.74.28c29.76,6.22,58,18.55,87.84,24.32s63.35,4,87-15.2c-5.58,15.94-24.84,21.58-41.43,24.66-26.1,4.85-53.37,8.85-78.88,1.49-16.55-4.77-31.49-14.13-48.05-18.88-8.56-2.46-18.28-3.51-26,1-4.74,2.79-8.3,7.5-13.42,9.53S448.38,265.45,448.13,260.51Z"/><path class="cls-1" d="M410,217c5.63-16.18,16.73-30.12,30.15-40.76s29.09-18.17,45.25-23.85"/></svg>