<svg id="图层_2" data-name="图层 2" xmlns="http://www.w3.org/2000/svg" viewBox="0 0 1000 1000"><defs><style>.cls-1{fill:#d0d7ed;stroke:#000;stroke-miterlimit:10;stroke-width:4px;}</style></defs><path class="cls-1" d="M766.06,958.53c-16.56-39.62-27.18-65-42.74-85.12-16.91-21.83-37.62-32-43.77-35.35A174.06,174.06,0,0,0,617.26,818c-3,8.17-17.44,44.87-56.26,62-38.54,17-74.54,3-90-3-38-14.77-58.86-42.25-66.78-54a215.57,215.57,0,0,0-76.39,26.84c-28.89,17-45.42,36.31-55.43,48.23-32.27,38.45-45.41,79.6-54.32,107.49-1.82,5.71-3.19,10.45-4.08,13.62a469.23,469.23,0,0,0,55.87,32.19c22,10.7,80.28,36.79,203.36,42.29,106.68,4.77,180.5,7,267.77-42.29a417.72,417.72,0,0,0,48-31.72C784,1004.73,776.43,983.35,766.06,958.53Z"/><path class="cls-1" d="M601.32,792A240.81,240.81,0,0,1,680,849.36q-13.43,9.43-26.81,18.9-16,11.31-32,22.68a257.37,257.37,0,0,1,23.56,11c11.57,6.13,17.38,9.26,18.48,12.79,0,0-6.33,17.93-35.69,39.54A594.11,594.11,0,0,1,563,995.59c.76-14.81,2-30.12,3.72-45.88A771.82,771.82,0,0,1,601.32,792Z"/><path class="cls-1" d="M383.87,802.38C380,806,369.58,815.72,364,822l-32,36c-.79,7.52,16,19,85,40,0,16,1,29,1,37.48,0,12.32,1.52,24.6,2.81,36.86a6.47,6.47,0,0,0,1,3.35,4.91,4.91,0,0,0,3.45,1.45L562,995c-2.53-3.79-6.17-9.2-10.62-15.62C531.71,951,501.8,907.82,460.15,866.11A552.06,552.06,0,0,0,383.87,802.38Z"/></svg>