<svg id="图层_2" data-name="图层 2" xmlns="http://www.w3.org/2000/svg" viewBox="0 0 1000 1000"><defs><style>.cls-1,.cls-3{fill:#bca07b;}.cls-2{fill:none;}.cls-2,.cls-3{stroke:#000;stroke-miterlimit:10;stroke-width:4px;}</style></defs><path class="cls-1" d="M287.88,471.32c-18-38.26-35.69-78.9-32-121,2.9-33.49,19.17-64.3,37.35-92.56,16.15-25.09,34.69-49.6,59.9-65.57,9.88-6.28,24.09-10.64,32.33-2.3,17.52-22.6,35.52-38.18,56-49.1,37.15-19.72,81.14-23.57,122.83-18s81.67,19.81,121,34.78c14.11,5.38,29.71,12.37,34.86,26.57,3.7,3.86,5.2,4.07,5.2,4.07,17.68,15.87,27.56,38.43,36.94,60.26,4.47,10.44,9,21.27,8.93,32.65,0-2.46.87-2.6.87-2.6,11.08,28,11,59.51,4.36,88.87-6.43,28.46-18.72,55.21-32.28,81-1.54,10.8-2.24,21.62-.83,32.43q-4.92-11.06-9.82-22.11c-5.93-34.83-1.13-69-10.62-100.51-11.25-37.41-41.26-66.36-73.7-88.16-11.52-7.72-23.64-14.86-37-18.62-15.19-4.27-31.21-4-47-4.47-22-.68-44.19-2.93-66.12-.41S455,256.91,438,271.75a13.89,13.89,0,0,1-10.55-2.66c1.62,4.47-.13,10-3.38,13.66-3.79,4.29-9.16,6.78-14.26,9.41a159.6,159.6,0,0,0-79.95,100.67,404.16,404.16,0,0,0-17.47,55.75c-1.94,8-3.66,16.47-1.48,24.42,1.71,6.22,5.65,11.56,8.6,17.32,6.37,12.47,7.92,27.35,4.9,42a77.36,77.36,0,0,1-21.61,25.08c13.21-15.44,13-39.8,1.88-56.78-6.26-9.56-15.81-17.94-16.86-29.3Z"/><path class="cls-2" d="M746.15,351.06c9.74,19.68,7.85,43,3.94,64.58-2,10.86-4.38,21.8-5.94,32.76-1.54,10.8-2.24,21.62-.83,32.43q-4.92-11.06-9.82-22.11c-5.93-34.83-1.13-69-10.62-100.51-11.25-37.41-41.26-66.36-73.7-88.16-11.52-7.72-23.64-14.86-37-18.62-15.19-4.27-31.21-4-47-4.47-22-.68-44.19-2.93-66.12-.41S455,256.91,438,271.75a13.89,13.89,0,0,1-10.55-2.66,13.46,13.46,0,0,1-5-6.91c-.58-1.9-.74-3.94-1.39-5.83-2.17-6.31-9-9.47-14.38-11.49-1.65-5,.95-10.51,4.59-14.3s8.33-6.44,12.21-10c8.38-7.64,12.6-18.78,19.69-27.63,7.95-9.92,19.22-16.58,30.5-22.43C494,159.92,516.44,151,539.29,153.1"/><path class="cls-2" d="M771.2,281.29v-.19c.11-11.38-4.46-22.21-8.93-32.65-9.38-21.83-19.26-44.39-36.94-60.26,0,0-1.5-.21-5.2-4.07-5.15-14.2-20.75-21.19-34.86-26.57-39.31-15-79.29-29.28-121-34.78s-85.68-1.67-122.83,18c-20.53,10.92-38.53,26.5-56,49.1-8.24-8.34-22.45-4-32.33,2.3-25.21,16-43.75,40.48-59.9,65.57-18.18,28.26-34.45,59.07-37.35,92.56-3.64,42.07,14.08,82.71,32,121,.17.35.33.72.5,1.06"/><path class="cls-2" d="M742.81,450.94l1.34-2.54c13.56-25.82,25.85-52.57,32.28-81,6.66-29.36,6.72-60.87-4.36-88.87,0,0-.87.14-.87,2.6"/><path class="cls-2" d="M287.83,471.34c1.05,11.36,10.6,19.74,16.86,29.3,11.15,17,11.33,41.34-1.88,56.78a77.36,77.36,0,0,0,21.61-25.08c3-14.67,1.47-29.55-4.9-42-2.95-5.76-6.89-11.1-8.6-17.32-2.18-7.95-.46-16.4,1.48-24.42a404.16,404.16,0,0,1,17.47-55.75,159.6,159.6,0,0,1,79.95-100.67c5.1-2.63,10.47-5.12,14.26-9.41,3.25-3.67,5-9.19,3.38-13.66a9.9,9.9,0,0,0-1.09-2.12"/><path class="cls-3" d="M375.81,302.4c-19.43,8-32.53,27-38.76,47s-6.64,41.36-7.57,62.34-2.53,42.4-10.9,61.65c-1.49,3.43-3.77,7.2-7.49,7.6,10.05-2.07,17.21-10.83,22.73-19.47A181.29,181.29,0,0,0,360,392.45c2.53-16,3.29-33.34,13.19-46.16,8.55-11.07,22.34-16.58,33-25.58A63.13,63.13,0,0,0,427,286.84c.68-2.94,1.14-6.09.09-8.93-1.89-5.11-8.26-7.43-13.6-6.34s-9.77,4.76-13.61,8.63C390.83,289.31,382.51,299.65,375.81,302.4Z"/><path class="cls-3" d="M435.87,247.74a166.93,166.93,0,0,1,33.39-28.08,171.46,171.46,0,0,1,67.91-24.85c53.59-8.24,97.4,10.21,115.29,19"/><path class="cls-3" d="M341.72,257.76a76.84,76.84,0,0,1,54.47-32.3"/><path class="cls-3" d="M448.13,260.51c-.47-9.68,7.58-18.2,16.79-21.21s19.25-1.7,28.74.28c29.76,6.22,58,18.55,87.84,24.32s63.35,4,87-15.2c-5.58,15.94-24.84,21.58-41.43,24.66-26.1,4.85-53.37,8.85-78.88,1.49-16.55-4.77-31.49-14.13-48.05-18.88-8.56-2.46-18.28-3.51-26,1-4.74,2.79-8.3,7.5-13.42,9.53S448.38,265.45,448.13,260.51Z"/><path class="cls-3" d="M410,217c5.63-16.18,16.73-30.12,30.15-40.76s29.09-18.17,45.25-23.85"/></svg>