<svg id="图层_2" data-name="图层 2" xmlns="http://www.w3.org/2000/svg" viewBox="0 0 1000 1000"><defs><style>.cls-1,.cls-3{fill:#0f0b0b;}.cls-2,.cls-4{fill:none;stroke-miterlimit:10;}.cls-2,.cls-3{stroke:#000;}.cls-2,.cls-3,.cls-4{stroke-width:4px;}.cls-3{stroke-linejoin:round;}.cls-4{stroke:#fff;stroke-linecap:round;}</style></defs><path class="cls-1" d="M771.2,281.1c0-2.46.88-2.6.88-2.6,11.06,28,11,59.51,4.36,88.87-6.43,28.44-18.72,55.16-32.29,81-1.54,10.82-2.25,21.65-.84,32.48q-4.89-11.06-9.82-22.11c-5.92-34.83-1.11-69-10.6-100.51-11.27-37.41-41.28-66.36-73.73-88.16-11.49-7.72-23.61-14.86-36.95-18.62-15.19-4.27-31.22-4-47-4.47-22.06-.68-44.21-2.93-66.12-.41S455,256.91,438,271.75a13.9,13.9,0,0,1-10.57-2.68c1.62,4.47-.1,10-3.36,13.68-3.8,4.29-9.18,6.78-14.26,9.41a159.54,159.54,0,0,0-79.95,100.67,402.87,402.87,0,0,0-17.49,55.75c-1.93,8-3.65,16.47-1.48,24.42,1.71,6.22,5.67,11.56,8.61,17.32,6.36,12.47,7.92,27.35,4.89,42a77.21,77.21,0,0,1-21.6,25.08c13.22-15.44,13-39.8,1.89-56.78-6.26-9.56-15.82-17.94-16.86-29.3l.05,0c-18-38.26-35.69-78.9-32-121,2.9-33.49,19.16-64.3,37.35-92.56,16.15-25.09,34.67-49.6,59.87-65.57,9.91-6.28,24.12-10.64,32.35-2.3,17.51-22.6,35.53-38.18,56-49.1,37.14-19.72,81.13-23.57,122.84-18s81.67,19.81,121,34.78c14.11,5.38,29.73,12.37,34.88,26.57,3.69,3.86,5.2,4.07,5.2,4.07,17.67,15.87,27.54,38.43,36.92,60.26C766.75,258.89,771.32,269.72,771.2,281.1Z"/><path class="cls-2" d="M746.16,351.06c9.74,19.68,7.83,43,3.94,64.58-2,10.85-4.39,21.76-6,32.71s-2.25,21.65-.84,32.48q-4.89-11.06-9.82-22.11c-5.92-34.83-1.11-69-10.6-100.51-11.27-37.41-41.28-66.36-73.73-88.16-11.49-7.72-23.61-14.86-36.95-18.62-15.19-4.27-31.22-4-47-4.47-22.06-.68-44.21-2.93-66.12-.41S455,256.91,438,271.75a13.9,13.9,0,0,1-10.57-2.68,13.51,13.51,0,0,1-5-6.89c-.56-1.9-.73-3.94-1.37-5.83-2.19-6.31-9.06-9.47-14.4-11.49-1.64-5,.95-10.51,4.61-14.3s8.31-6.44,12.2-10c8.39-7.64,12.59-18.78,19.7-27.63,7.95-9.92,19.2-16.58,30.47-22.43C494,159.92,516.43,151,539.3,153.1"/><path class="cls-2" d="M771.2,281.29v-.19c.12-11.38-4.45-22.21-8.94-32.65-9.38-21.83-19.25-44.39-36.92-60.26,0,0-1.51-.21-5.2-4.07-5.15-14.2-20.77-21.19-34.88-26.57-39.29-15-79.28-29.28-121-34.78s-85.7-1.67-122.84,18c-20.52,10.92-38.54,26.5-56,49.1-8.23-8.34-22.44-4-32.35,2.3-25.2,16-43.72,40.48-59.87,65.57-18.19,28.26-34.45,59.07-37.35,92.56-3.64,42.07,14.08,82.71,32,121,.16.35.33.72.5,1.06"/><path class="cls-2" d="M742.8,450.94c.44-.87.91-1.73,1.35-2.59,13.57-25.82,25.86-52.54,32.29-81,6.64-29.36,6.7-60.87-4.36-88.87,0,0-.88.14-.88,2.6"/><path class="cls-2" d="M287.84,471.34c1,11.36,10.6,19.74,16.86,29.3,11.15,17,11.33,41.34-1.89,56.78a77.21,77.21,0,0,0,21.6-25.08c3-14.67,1.47-29.55-4.89-42-2.94-5.76-6.9-11.1-8.61-17.32-2.17-7.95-.45-16.4,1.48-24.42a402.87,402.87,0,0,1,17.49-55.75,159.54,159.54,0,0,1,79.95-100.67c5.08-2.63,10.46-5.12,14.26-9.41,3.26-3.67,5-9.21,3.36-13.68a9.29,9.29,0,0,0-1.08-2.1"/><path class="cls-3" d="M389.81,302.4c-19.43,8-32.53,27-38.76,47s-6.64,41.36-7.57,62.34-2.53,42.4-10.9,61.65c-1.49,3.43-3.77,7.2-7.49,7.6,10.05-2.07,17.21-10.83,22.73-19.47A181.29,181.29,0,0,0,374,392.45c2.53-16,3.29-33.34,13.19-46.16,8.55-11.07,22.34-16.58,33-25.58A63.13,63.13,0,0,0,441,286.84c.68-2.94,1.14-6.09.09-8.93-1.89-5.11-8.26-7.43-13.6-6.34s-9.77,4.76-13.61,8.63C404.83,289.31,396.51,299.65,389.81,302.4Z"/><path class="cls-4" d="M435.87,247.74a166.93,166.93,0,0,1,33.39-28.08,171.46,171.46,0,0,1,67.91-24.85c53.59-8.24,97.4,10.21,115.29,19"/><path class="cls-4" d="M341.72,257.76a76.84,76.84,0,0,1,54.47-32.3"/><path class="cls-3" d="M462.13,260.51c-.47-9.68,7.58-18.2,16.79-21.21s19.25-1.7,28.74.28c29.76,6.22,58,18.55,87.84,24.32s63.35,4,87-15.2c-5.58,15.94-24.84,21.58-41.43,24.66-26.1,4.85-53.37,8.85-78.88,1.49-16.55-4.77-31.49-14.13-48-18.88-8.56-2.46-18.28-3.51-26,1-4.74,2.79-8.3,7.5-13.42,9.53S462.38,265.45,462.13,260.51Z"/><path class="cls-4" d="M410,217c5.63-16.18,16.73-30.12,30.15-40.76s29.09-18.17,45.25-23.85"/></svg>