<svg id="图层_2" data-name="图层 2" xmlns="http://www.w3.org/2000/svg" viewBox="0 0 1000 1000"><defs><style>.cls-1{fill:#fff;}</style></defs><path class="cls-1" d="M514.47,480.94c1-16.37-12.17-24.35-28.11-30.9s-35.86-6.4-51.78.18-27.49,19.35-29.64,35.31c3.2,8,11.43,14.24,20.87,17.93s19.64,6.83,30.13,7.41a98.25,98.25,0,0,0,37.55-5.66C505,501.07,514,489.63,514.47,480.94Z"/><path d="M408.25,488.66C407,480.36,417.94,464.53,430,458c14.65-7.94,32.61-11.32,49.09-7.42s31,15.63,35.36,30.28c-1-11.7-8.87-22.44-19.59-28.85s-24-8.73-36.74-7.79c-11.85.88-23.54,4.52-33.09,11s-16.83,15.92-19.65,26.51c-.36,1.35-.86,3.11-.49,4.47s.63,2.68,2.12,2.92C407,489.13,408.1,489.13,408.25,488.66Z"/><path d="M406.42,485.58a89.82,89.82,0,0,0-22.18-2.13,34.75,34.75,0,0,0,23,12.23,2.1,2.1,0,0,0,1.36-.18,2.18,2.18,0,0,0,.74-1.32,11.12,11.12,0,0,0,.56-5.43C409.48,487,407.81,485.32,406.42,485.58Z"/><ellipse cx="472.63" cy="479.63" rx="34.63" ry="29.63"/><path class="cls-1" d="M439.79,495.28a137.34,137.34,0,0,1,29.3-7.69L449.26,510.3a2.1,2.1,0,0,1-1,.74,2,2,0,0,1-1.21-.17,18.41,18.41,0,0,1-8.93-7.26,7.93,7.93,0,0,1-1.51-5.26C436.92,496.51,438.56,494.78,439.79,495.28Z"/><path class="cls-1" d="M685.53,471.28c-9.51-17-32.21-27.67-54.23-26.34S592.16,461.52,585,473.39c.21,11.78,2.13,15.39,10,24.1,7.18,7.91,32.5,17.54,57.74,13.7,13-2,22-9.87,29.56-19.06C683.83,490.26,688.59,476.74,685.53,471.28Z"/><ellipse cx="646.5" cy="479.56" rx="33.5" ry="29.5"/><path class="cls-1" d="M616.27,492.41a137.34,137.34,0,0,1,29.3-7.69l-19.83,22.71a2.1,2.1,0,0,1-1,.74,2,2,0,0,1-1.21-.17,18.47,18.47,0,0,1-8.93-7.26,8,8,0,0,1-1.51-5.26C613.4,493.64,615,491.91,616.27,492.41Z"/><path d="M690.09,489.46c2.71-12.71-5-23.13-13.09-31.12s-19.42-12.64-30.42-13.94-22.2.63-32.6,4.53c-7,2.61-13.71,6.16-19.13,11.43s-9.46,12.42-9.37,20.51c3.87-10.12,11.52-18.32,20.53-23.65s19.28-8,29.59-8.8a52.68,52.68,0,0,1,12.21.69c8.29,1.2,16.13,5.35,22.87,10.61,9.07,7.06,16,17.15,16.32,29,0,.82,1,1.42,1.65,1.89s1.77-.43,1.55-1.18C690.23,489.42,690.26,489.38,690.09,489.46Z"/><path d="M689.94,484l13.9-5.65c.65,1.45-.44,3-1.56,4.29a73.21,73.21,0,0,1-7.33,7.42c-2.18,1.92-5.48,3.94-8.68,3a10.1,10.1,0,0,1,.06-5.32A7.72,7.72,0,0,1,689.94,484Z"/></svg>