<svg id="图层_2" data-name="图层 2" xmlns="http://www.w3.org/2000/svg" viewBox="0 0 1000 1000"><path d="M705,355.74c-4.39-2.4-10.63-3.21-16.13-4-5.16-.78-10.44-1.24-15.69-1.63a217.17,217.17,0,0,0-29.53-.43c-21.56,1.31-40.89,6.68-57.59,15.63-6.15,3.29,2.09,10.36,8.6,7.25,15.06-7.2,32.67-11.25,50.46-11.83a248.82,248.82,0,0,1,27,.78c4.19.32,9.45.9,14.42,1.28s10.62,1.27,15.44.33C706.5,362.21,709,358,705,355.74Z"/><path d="M407.89,354.74c4.4-2.4,10.64-3.21,16.13-4,5.16-.78,10.44-1.24,15.7-1.63a217.17,217.17,0,0,1,29.53-.43c21.56,1.31,40.88,6.68,57.58,15.63,6.16,3.29-2.09,10.36-8.6,7.25-15.06-7.2-32.67-11.25-50.45-11.83a248.68,248.68,0,0,0-27,.78c-4.19.32-9.45.9-14.42,1.28s-10.62,1.27-15.45.33C406.36,361.21,403.84,357,407.89,354.74Z"/></svg>