<svg
  id="图层_2"
  data-name="图层 2"
  xmlns="http://www.w3.org/2000/svg"
  viewBox="0 0 1000 1000"
>
  <defs>
    <style>
      .cls-1 {
        fill: #c9d478;
        stroke: #000;
        stroke-miterlimit: 10;
      }
      .cls-1,
      .cls-2 {
        stroke-width: 4px;
      }
      .cls-2 {
        fill: #fd8;
        stroke: #120d0d;
        stroke-linejoin: round;
      }
    </style>
  </defs>
  <path
    class="cls-1"
    d="M302.75,639c5.68-10,2.13-41.83.44-53.32-1.4.45-8.81.9-9.66,1.28a157.74,157.74,0,0,1-1,50.1C294,637.52,301.42,638.2,302.75,639Z"
  />
  <path
    class="cls-1"
    d="M344.55,576.36c-.39,7.37.28,14.78-.23,22.15s-2.34,14.93-7.05,20.62c-7,8.43-20.09,11-29.54,5.65-2.07-10.91,1.79-22.46,8.92-31S333.9,579.63,344.55,576.36Z"
  />
  <path
    class="cls-1"
    d="M292.47,629.78c3.86-11.73-.84-25-9.06-34.19S264,580.47,252.22,575.47c2.79,12.74,1.06,27.16,8.72,37.71,3.72,5.12,9.22,8.61,14.62,11.93C280.59,628.2,286.28,631.38,292.47,629.78Z"
  />
  <path
    class="cls-2"
    d="M302.79,587.71c8.23,3.27,18.71-1.51,21.63-9.87,2.22-6.34.95-14.26-.42-20.84-1.3-6.25-2.91-11.15-6-16-3.61,3.78-8.36,8.91-11,13.43-3.23-6-5-11.43-9-17.43-4,5-9.76,12.49-11.65,18.13A42.5,42.5,0,0,0,275,543.66a123.24,123.24,0,0,0-.71,29.79c.46,4.76,1.5,10,5.38,12.81a16.82,16.82,0,0,0,5.45,2.28C291.59,590.33,299.5,591.14,302.79,587.71Z"
  />
</svg>
