<svg id="图层_2" data-name="图层 2" xmlns="http://www.w3.org/2000/svg" viewBox="0 0 1000 1000"><path d="M614.44,492.2a32.2,32.2,0,0,0,6.58,7.36c9.52,7.77,20.81,7.64,24.62,7.43a64.1,64.1,0,0,0,24.3-4.62,64.78,64.78,0,0,0,26.17-19.53,42.51,42.51,0,0,0,5.8-18.15,3.26,3.26,0,0,0-.08-.9c-.27-.72-1-1-1-1.57-3.66,5.44-14.29,20.5-37.25,28.66A80.43,80.43,0,0,1,614.44,492.2Z"/><path d="M698.44,466.61l2.91-5.23a47.82,47.82,0,0,0,12.75,4.71,16.38,16.38,0,0,1-11.56,3.85,4.39,4.39,0,0,1-3.46-1.46C697.9,466.76,699.32,464.51,698.44,466.61Z"/><path d="M515,485.83a32.14,32.14,0,0,1-4.41,8.84c-7.14,10-18.06,12.86-21.79,13.65a63.8,63.8,0,0,1-55-10,42.38,42.38,0,0,1-10.38-16,3.15,3.15,0,0,1-.17-.89c.07-.77.71-1.18.56-1.78,5,4.29,19.19,16,43.49,17.82A80.35,80.35,0,0,0,515,485.83Z"/><path d="M427.25,483.3,423.07,479A48,48,0,0,1,412,486.93a16.44,16.44,0,0,0,12.16.67,4.38,4.38,0,0,0,2.95-2.33C427.81,483.3,425.86,481.51,427.25,483.3Z"/></svg>