<svg
  id="图层_2"
  data-name="图层 2"
  xmlns="http://www.w3.org/2000/svg"
  viewBox="0 0 1000 1000"
>
  <defs>
    <style>
      .cls-1 {
        fill: #fff;
      }
      .cls-2 {
        fill: rgb(0, 0, 0);
      }
    </style>
  </defs>
  <path
    class="cls-1"
    d="M701,483.64c-.94-17.51-32.55-33.88-60-31.64-26.69,2.18-41.5,19.65-45,24a17.27,17.27,0,0,0-2.33,9c.27,8.2,7.18,13.78,11.33,17,21.33,16.74,52.12,12.7,57,12,11-1.59,23.41-3.56,32-14C696.29,497.22,701.4,491,701,483.64Z"
  />
  <ellipse
    class="cls-2"
    cx="663.23"
    cy="482.39"
    rx="23.31"
    ry="24.39"
    transform="translate(-68.88 112.81) rotate(-9.24)"
  />
  <path
    class="cls-1"
    d="M637.55,494.26A110.51,110.51,0,0,1,661,488.11l-15.86,18.16a1.57,1.57,0,0,1-.76.59,1.64,1.64,0,0,1-1-.13,14.77,14.77,0,0,1-7.14-5.81,6.37,6.37,0,0,1-1.21-4.2C635.26,495.25,636.57,493.86,637.55,494.26Z"
  />
  <path
    class="cls-2"
    d="M702.74,493.22c3.14-11.58-4.67-21.2-13-28.61s-20-11.82-31.55-13.15-23.28.28-34.28,3.71c-7.36,2.29-14.51,5.45-20.33,10.2S593.38,476.6,593.29,484c4.29-9.19,12.58-14.45,22.14-19.2a74.35,74.35,0,0,1,31.22-7.66,55.35,55.35,0,0,1,10.39.22,44.27,44.27,0,0,1,7,1.65c8.55,2.71,14.35,4.55,19.16,8.92C691,475,699.51,491,699.51,492.53c0,.41.78,1.7,1.69,1.75C701.81,494.32,702.36,493.75,702.74,493.22Z"
  />
  <path
    class="cls-1"
    d="M517,483.64c-.94-17.51-32.55-33.88-60-31.64-26.69,2.18-41.5,19.65-45,24a17.27,17.27,0,0,0-2.33,9c.27,8.2,7.18,13.78,11.33,17,21.33,16.74,52.12,12.7,57,12,11-1.59,23.41-3.56,32-14C512.29,497.22,517.4,491,517,483.64Z"
  />
  <ellipse
    class="cls-2"
    cx="479.23"
    cy="482.39"
    rx="23.31"
    ry="24.39"
    transform="translate(-71.27 83.25) rotate(-9.24)"
  />
  <path
    class="cls-1"
    d="M453.55,494.26A110.51,110.51,0,0,1,477,488.11l-15.86,18.16a1.57,1.57,0,0,1-.76.59,1.64,1.64,0,0,1-1-.13,14.77,14.77,0,0,1-7.14-5.81,6.37,6.37,0,0,1-1.21-4.2C451.26,495.25,452.57,493.86,453.55,494.26Z"
  />
  <path
    class="cls-2"
    d="M518.74,493.22c3.14-11.58-4.67-21.2-13-28.61s-20.05-11.82-31.55-13.15-23.28.28-34.28,3.71c-7.36,2.29-14.51,5.45-20.33,10.2S409.38,476.6,409.29,484c4.29-9.19,12.58-14.45,22.14-19.2a74.35,74.35,0,0,1,31.22-7.66,55.35,55.35,0,0,1,10.39.22,44.27,44.27,0,0,1,7,1.65c8.55,2.71,14.35,4.55,19.16,8.92C507,475,515.51,491,515.51,492.53c0,.41.78,1.7,1.69,1.75C517.81,494.32,518.36,493.75,518.74,493.22Z"
  />
</svg>
