<svg
  id="图层_2"
  data-name="图层 2"
  xmlns="http://www.w3.org/2000/svg"
  viewBox="0 0 1000 1000"
>
  <defs>
    <style>
      .cls-1 {
        fill: #fff;
      }
      .cls-2 {
        fill: rgb(0, 0, 0);
      }
    </style>
  </defs>
  <path
    class="cls-1"
    d="M511,477.22c.94-13.4-14.66-25.42-26.64-30.44-1.22-.51-2.11-.83-2.76-1.06-3.67-1.29-26.53-9.36-49,1.23A53,53,0,0,0,405,478.12a39.63,39.63,0,0,0,16,22.6c10.25,6.86,21.06,7,32,7.24,8.8.15,23.89.4,38.49-8.27C497.9,495.88,510.21,488.56,511,477.22Z"
  />
  <path
    class="cls-2"
    d="M404.69,482.21c.06-4,11.26-21.31,23.74-27.75,15.12-7.81,33.27-10.45,49.47-5.26s29.87,18.7,33.57,32c-.25-12.8-7.44-25-17.74-32.55s-23.39-10.88-36.19-10.59a66.81,66.81,0,0,0-33.73,10.1s-17.81,11.22-22,27a10.86,10.86,0,0,0,0,5.59c.49,1.54.92,2.42,1.92,2.44C403.68,483.2,404.51,482.72,404.69,482.21Z"
  />
  <ellipse class="cls-2" cx="472.5" cy="472.1" rx="27.5" ry="29.9" />
  <path
    class="cls-1"
    d="M437.79,489.28a137.34,137.34,0,0,1,29.3-7.69L447.26,504.3a2.1,2.1,0,0,1-1,.74,2,2,0,0,1-1.21-.17,18.41,18.41,0,0,1-8.93-7.26,7.93,7.93,0,0,1-1.51-5.26C434.92,490.51,436.56,488.78,437.79,489.28Z"
  />
  <path
    class="cls-1"
    d="M696,472.64C694.17,454,663.6,439.75,636,442c-26.69,2.18-43.5,19-47,23.38a34.08,34.08,0,0,0,2.06,18.81A41,41,0,0,0,599,495.88c11.54,11.82,35.08,19.53,57.74,14.62,5.33-1.16,22.08-4.79,32.27-18.8C691.64,488.08,696.81,481,696,472.64Z"
  />
  <ellipse
    class="cls-2"
    cx="657.38"
    cy="474.5"
    rx="29.15"
    ry="30.5"
    transform="translate(-67.69 111.77) rotate(-9.24)"
  />
  <path
    class="cls-1"
    d="M625.27,489.34a137.93,137.93,0,0,1,29.3-7.69l-19.83,22.72a2.08,2.08,0,0,1-1,.73,2,2,0,0,1-1.21-.17,18.41,18.41,0,0,1-8.93-7.26,7.92,7.92,0,0,1-1.51-5.25C622.4,490.57,624,488.85,625.27,489.34Z"
  />
  <path
    class="cls-2"
    d="M697.74,482.22c3.14-11.58-4.67-21.2-13-28.61s-20-11.82-31.55-13.15-23.28.28-34.28,3.71c-7.36,2.29-14.51,5.45-20.33,10.2S588.38,465.6,588.29,473c4.29-9.19,12.58-14.45,22.14-19.2a74.35,74.35,0,0,1,31.22-7.66,55.35,55.35,0,0,1,10.39.22,44.27,44.27,0,0,1,7,1.65c8.55,2.71,14.35,4.55,19.16,8.92C686,464,694.51,480,694.51,481.53c0,.41.78,1.7,1.69,1.75C696.81,483.32,697.36,482.75,697.74,482.22Z"
  />
</svg>
