<svg
  id="图层_2"
  data-name="图层 2"
  xmlns="http://www.w3.org/2000/svg"
  viewBox="0 0 1000 1000"
>
  <defs>
    <style>
      .cls-1 {
        font-size: 12px;
        font-family: AdobeSongStd-Light-GBpc-EUC-H, Adobe Song Std;
      }
      .cls-2 {
        fill: #d0d7ed;
      }
      .cls-3 {
        fill: none;
        stroke: #ffeec0;
        stroke-miterlimit: 10;
        stroke-width: 10px;
      }
    </style>
  </defs>
  <text class="cls-1" transform="translate(500 500)">炬</text>
  <rect class="cls-2" y="1" width="1000" height="1000" />
  <path
    class="cls-3"
    d="M1,67.5c38.44,0,38.44,20,76.88,20s38.44-20,76.88-20,38.44,20,76.88,20,38.44-20,76.89-20,38.44,20,76.88,20,38.44-20,76.88-20,38.45,20,76.89,20,38.44-20,76.88-20,38.45,20,76.89,20,38.44-20,76.88-20,38.45,20,76.89,20,38.44-20,76.89-20,38.44,20,76.89,20"
  />
  <path
    class="cls-3"
    d="M0,177.5c38.44,0,38.44,20,76.88,20s38.44-20,76.88-20,38.44,20,76.88,20,38.44-20,76.89-20,38.44,20,76.88,20,38.44-20,76.88-20,38.45,20,76.89,20,38.44-20,76.88-20,38.45,20,76.89,20,38.44-20,76.88-20,38.45,20,76.89,20,38.44-20,76.89-20,38.44,20,76.89,20"
  />
  <path
    class="cls-3"
    d="M0,287.5c38.44,0,38.44,20,76.88,20s38.44-20,76.88-20,38.44,20,76.88,20,38.44-20,76.89-20,38.44,20,76.88,20,38.44-20,76.88-20,38.45,20,76.89,20,38.44-20,76.88-20,38.45,20,76.89,20,38.44-20,76.88-20,38.45,20,76.89,20,38.44-20,76.89-20,38.44,20,76.89,20"
  />
  <path
    class="cls-3"
    d="M0,397.5c38.44,0,38.44,20,76.88,20s38.44-20,76.88-20,38.44,20,76.88,20,38.44-20,76.89-20,38.44,20,76.88,20,38.44-20,76.88-20,38.45,20,76.89,20,38.44-20,76.88-20,38.45,20,76.89,20,38.44-20,76.88-20,38.45,20,76.89,20,38.44-20,76.89-20,38.44,20,76.89,20"
  />
  <path
    class="cls-3"
    d="M0,507.5c38.44,0,38.44,20,76.88,20s38.44-20,76.88-20,38.44,20,76.88,20,38.44-20,76.89-20,38.44,20,76.88,20,38.44-20,76.88-20,38.45,20,76.89,20,38.44-20,76.88-20,38.45,20,76.89,20,38.44-20,76.88-20,38.45,20,76.89,20,38.44-20,76.89-20,38.44,20,76.89,20"
  />
  <path
    class="cls-3"
    d="M0,617.5c38.44,0,38.44,20,76.88,20s38.44-20,76.88-20,38.44,20,76.88,20,38.44-20,76.89-20,38.44,20,76.88,20,38.44-20,76.88-20,38.45,20,76.89,20,38.44-20,76.88-20,38.45,20,76.89,20,38.44-20,76.88-20,38.45,20,76.89,20,38.44-20,76.89-20,38.44,20,76.89,20"
  />
  <path
    class="cls-3"
    d="M0,727.5c38.44,0,38.44,20,76.88,20s38.44-20,76.88-20,38.44,20,76.88,20,38.44-20,76.89-20,38.44,20,76.88,20,38.44-20,76.88-20,38.45,20,76.89,20,38.44-20,76.88-20,38.45,20,76.89,20,38.44-20,76.88-20,38.45,20,76.89,20,38.44-20,76.89-20,38.44,20,76.89,20"
  />
  <path
    class="cls-3"
    d="M0,837.5c38.44,0,38.44,20,76.88,20s38.44-20,76.88-20,38.44,20,76.88,20,38.44-20,76.89-20,38.44,20,76.88,20,38.44-20,76.88-20,38.45,20,76.89,20,38.44-20,76.88-20,38.45,20,76.89,20,38.44-20,76.88-20,38.45,20,76.89,20,38.44-20,76.89-20,38.44,20,76.89,20"
  />
  <path
    class="cls-3"
    d="M0,947.5c38.44,0,38.44,20,76.88,20s38.44-20,76.88-20,38.44,20,76.88,20,38.44-20,76.89-20,38.44,20,76.88,20,38.44-20,76.88-20,38.45,20,76.89,20,38.44-20,76.88-20,38.45,20,76.89,20,38.44-20,76.88-20,38.45,20,76.89,20,38.44-20,76.89-20,38.44,20,76.89,20"
  />
</svg>
