<svg
  id="图层_2"
  data-name="图层 2"
  xmlns="http://www.w3.org/2000/svg"
  xmlns:xlink="http://www.w3.org/1999/xlink"
  viewBox="0 0 1000 1000"
>
  <defs>
    <style>
      .cls-1 {
        fill: none;
      }
      .cls-2 {
        clip-path: url(#clip-path);
      }
      .cls-3 {
        fill: {{color[0]}};
      }
      .cls-4 {
        fill:{{color[1]}};
      }
      .cls-5 {
        opacity: 0.2;
      }
      .cls-6 {
        fill: #fff;
      }
      .cls-7 {
        clip-path: url(#clip-path-2);
      }
      .cls-8 {
        fill: #ffeec0;
      }
    </style>
    <clipPath id="clip-path">
      <rect class="cls-1" width="1000" height="1000" />
    </clipPath>
    <clipPath id="clip-path-2">
      <rect class="cls-1" x="1020" width="1000" height="1000" />
    </clipPath>
  </defs>
  <g class="cls-2">
    <rect class="cls-3" y="-1" width="1000" height="1000" />
    <circle class="cls-4" cx="157.5" cy="157.5" r="103.5" />
    <circle class="cls-4" cx="500" cy="157.5" r="103.5" />
    <circle class="cls-4" cx="842.5" cy="157.5" r="103.5" />
    <circle class="cls-4" cx="-22.5" cy="500" r="103.5" />
    <circle class="cls-4" cx="320" cy="500" r="103.5" />
    <circle class="cls-4" cx="662.5" cy="500" r="103.5" />
    <circle class="cls-4" cx="999.5" cy="500.5" r="103.5" />
    <circle class="cls-4" cx="157.5" cy="842.5" r="103.5" />
    <circle class="cls-4" cx="500" cy="842.5" r="103.5" />
    <circle class="cls-4" cx="842.5" cy="842.5" r="103.5" />
    <g class="cls-5">
      <circle class="cls-6" cx="157.5" cy="157.5" r="103.5" />
      <circle class="cls-6" cx="500" cy="157.5" r="103.5" />
      <circle class="cls-6" cx="842.5" cy="157.5" r="103.5" />
    </g>
    <g class="cls-5">
      <circle class="cls-6" cx="-22.5" cy="500" r="103.5" />
      <circle class="cls-6" cx="320" cy="500" r="103.5" />
      <circle class="cls-6" cx="662.5" cy="500" r="103.5" />
      <circle class="cls-6" cx="999.5" cy="500.5" r="103.5" />
    </g>
    <g class="cls-5">
      <circle class="cls-6" cx="157.5" cy="842.5" r="103.5" />
      <circle class="cls-6" cx="500" cy="842.5" r="103.5" />
      <circle class="cls-6" cx="842.5" cy="842.5" r="103.5" />
    </g>
  </g>
  <g class="cls-7">
    <rect
      class="cls-8"
      x="1088"
      y="-329"
      width="161"
      height="899"
      transform="translate(382.9 -752.85) rotate(42.14)"
    />
    <rect
      class="cls-8"
      x="1287.25"
      y="-394.48"
      width="161"
      height="1416.92"
      transform="translate(564.22 -836.52) rotate(42.14)"
    />
    <rect
      class="cls-8"
      x="1444.75"
      y="-161.98"
      width="161"
      height="1416.92"
      transform="translate(760.92 -882.1) rotate(42.14)"
    />
  </g>
</svg>
