<svg id="图层_2" data-name="图层 2" xmlns="http://www.w3.org/2000/svg" xmlns:xlink="http://www.w3.org/1999/xlink" viewBox="0 0 1000 1000"><defs><style>.cls-1{fill:none;}.cls-2{clip-path:url(#clip-path);}.cls-3{fill:#ffc545;}.cls-4{opacity:0.2;}.cls-5{fill:#fff;}.cls-6{clip-path:url(#clip-path-2);}.cls-7{fill:#2d2d2d;}.cls-10,.cls-8,.cls-9{fill:#85c478;}.cls-9{opacity:0.81;}.cls-10,.cls-11,.cls-9{font-size:60px;font-family:Krungthep;}.cls-10,.cls-11,.cls-12{opacity:0.4;}.cls-11{fill:#68d254;}</style><clipPath id="clip-path"><rect class="cls-1" x="1020" width="1000" height="1000"/></clipPath><clipPath id="clip-path-2"><rect class="cls-1" x="1" width="1000" height="1000"/></clipPath></defs><g class="cls-2"><circle class="cls-3" cx="997.5" cy="500" r="103.5"/><g class="cls-4"><circle class="cls-5" cx="997.5" cy="500" r="103.5"/></g></g><g class="cls-6"><rect class="cls-7" width="1000" height="1000"/><path class="cls-8" d="M86.74,1.11H97.27a9.63,9.63,0,0,1,7.39,3.41,11.65,11.65,0,0,1,3.09,8.1V41.48a11.66,11.66,0,0,1-3.09,8.09A9.61,9.61,0,0,1,97.27,53H86.74a9.68,9.68,0,0,1-7.4-3.39,11.68,11.68,0,0,1-3.08-8.12V12.62a11.65,11.65,0,0,1,3.08-8.11A9.69,9.69,0,0,1,86.74,1.11ZM97.17,11.65Q96.09,6.9,92,6.9a4.85,4.85,0,0,0-3.71,1.69,5.72,5.72,0,0,0-1.55,4V32.24ZM86.86,42.37A6.15,6.15,0,0,0,88.55,46a5.18,5.18,0,0,0,7.18-.48,5.8,5.8,0,0,0,1.54-4V21.89Z"/><path class="cls-8" d="M86.74,70.28H97.27a9.63,9.63,0,0,1,7.39,3.41,11.65,11.65,0,0,1,3.09,8.1v28.86a11.66,11.66,0,0,1-3.09,8.09,9.61,9.61,0,0,1-7.39,3.42H86.74a9.68,9.68,0,0,1-7.4-3.39,11.68,11.68,0,0,1-3.08-8.12V81.79a11.68,11.68,0,0,1,3.08-8.12A9.68,9.68,0,0,1,86.74,70.28ZM97.17,80.82Q96.09,76.07,92,76.07a4.87,4.87,0,0,0-3.71,1.68,5.76,5.76,0,0,0-1.55,4v19.62ZM86.86,111.54a6.18,6.18,0,0,0,1.69,3.62,5.18,5.18,0,0,0,7.18-.48,5.8,5.8,0,0,0,1.54-4V91.06Z"/><path class="cls-8" d="M86.74,191.33V151H81.47v-5.73L92,139.45h5.24v51.88Z"/><path class="cls-8" d="M86.74,260.5V220.13H81.47V214.4L92,208.62h5.24V260.5Z"/><path class="cls-8" d="M86.74,277.79H97.27a9.62,9.62,0,0,1,7.39,3.4,11.67,11.67,0,0,1,3.09,8.11v28.86a11.67,11.67,0,0,1-3.09,8.09,9.61,9.61,0,0,1-7.39,3.42H86.74a9.65,9.65,0,0,1-7.4-3.4,11.65,11.65,0,0,1-3.08-8.11V289.3a11.68,11.68,0,0,1,3.08-8.12A9.68,9.68,0,0,1,86.74,277.79Zm10.43,10.54q-1.08-4.75-5.17-4.76a4.85,4.85,0,0,0-3.71,1.69,5.74,5.74,0,0,0-1.55,4v19.62ZM86.86,319.05a6.18,6.18,0,0,0,1.69,3.62,5.2,5.2,0,0,0,7.18-.49,5.76,5.76,0,0,0,1.54-4V298.57Z"/><path class="cls-8" d="M86.74,347H97.27a9.62,9.62,0,0,1,7.39,3.4,11.65,11.65,0,0,1,3.09,8.11v28.85a11.68,11.68,0,0,1-3.09,8.1,9.6,9.6,0,0,1-7.39,3.41H86.74a9.68,9.68,0,0,1-7.4-3.39,11.66,11.66,0,0,1-3.08-8.12V358.47a11.68,11.68,0,0,1,3.08-8.12A9.68,9.68,0,0,1,86.74,347ZM97.17,357.5q-1.08-4.75-5.17-4.76a4.85,4.85,0,0,0-3.71,1.69,5.72,5.72,0,0,0-1.55,4v19.61ZM86.86,388.22a6.18,6.18,0,0,0,1.69,3.62,5.2,5.2,0,0,0,7.18-.49,5.79,5.79,0,0,0,1.54-4V367.74Z"/><path class="cls-8" d="M86.74,468V427.64H81.47v-5.73L92,416.13h5.24V468Z"/><path class="cls-8" d="M86.74,485.3H97.27a9.62,9.62,0,0,1,7.39,3.4,11.65,11.65,0,0,1,3.09,8.11v28.85a11.64,11.64,0,0,1-3.09,8.09,9.61,9.61,0,0,1-7.39,3.42H86.74a9.68,9.68,0,0,1-7.4-3.39,11.68,11.68,0,0,1-3.08-8.12V496.81a11.66,11.66,0,0,1,3.08-8.12A9.68,9.68,0,0,1,86.74,485.3Zm10.43,10.53q-1.08-4.75-5.17-4.75a4.85,4.85,0,0,0-3.71,1.69,5.72,5.72,0,0,0-1.55,4v19.61ZM86.86,526.55a6.15,6.15,0,0,0,1.69,3.62,5.18,5.18,0,0,0,7.18-.48,5.8,5.8,0,0,0,1.54-4V506.07Z"/><path class="cls-8" d="M86.74,606.34V566H81.47v-5.72L92,554.46h5.24v51.88Z"/><path class="cls-8" d="M86.74,623.63H97.27a9.63,9.63,0,0,1,7.39,3.41,11.65,11.65,0,0,1,3.09,8.1V664a11.66,11.66,0,0,1-3.09,8.09,9.61,9.61,0,0,1-7.39,3.42H86.74a9.68,9.68,0,0,1-7.4-3.39A11.68,11.68,0,0,1,76.26,664V635.14A11.68,11.68,0,0,1,79.34,627,9.68,9.68,0,0,1,86.74,623.63Zm10.43,10.54q-1.08-4.75-5.17-4.75a4.87,4.87,0,0,0-3.71,1.68,5.76,5.76,0,0,0-1.55,4v19.62ZM86.86,664.89a6.18,6.18,0,0,0,1.69,3.62,5.17,5.17,0,0,0,7.18-.49,5.76,5.76,0,0,0,1.54-4V644.41Z"/><path class="cls-8" d="M86.74,744.68V704.31H81.47v-5.73L92,692.8h5.24v51.88Z"/><path class="cls-8" d="M86.74,813.85V773.48H81.47v-5.73L92,762h5.24v51.88Z"/><path class="cls-8" d="M958.74,65.17V24.81h-5.27V19.08L964,13.3h5.24V65.17Z"/><path class="cls-8" d="M958.74,134.34V94h-5.27V88.25L964,82.46h5.24v51.88Z"/><path class="cls-8" d="M958.74,203.51V163.14h-5.27v-5.73L964,151.63h5.24v51.88Z"/><path class="cls-8" d="M958.74,272.68V232.31h-5.27v-5.73L964,220.8h5.24v51.88Z"/><path class="cls-8" d="M958.74,290h10.53a9.63,9.63,0,0,1,7.39,3.4,11.67,11.67,0,0,1,3.09,8.11v28.86a11.67,11.67,0,0,1-3.09,8.09,9.62,9.62,0,0,1-7.39,3.42H958.74a9.68,9.68,0,0,1-7.4-3.39,11.68,11.68,0,0,1-3.08-8.12V301.48a11.68,11.68,0,0,1,3.08-8.12A9.68,9.68,0,0,1,958.74,290Zm10.43,10.54q-1.08-4.75-5.17-4.76a4.88,4.88,0,0,0-3.71,1.69,5.74,5.74,0,0,0-1.55,4V321.1Zm-10.31,30.72a6.18,6.18,0,0,0,1.69,3.62,5.2,5.2,0,0,0,7.18-.49,5.76,5.76,0,0,0,1.54-4V310.75Z"/><text class="cls-9" transform="translate(177.99 -144.2) scale(0.91 1)">0<tspan x="0" y="60">0</tspan><tspan x="0" y="120">0</tspan><tspan x="0" y="180">1</tspan><tspan x="0" y="240">1</tspan><tspan x="0" y="300">1</tspan><tspan x="0" y="360">1</tspan><tspan x="0" y="420">0</tspan><tspan x="0" y="480">1</tspan><tspan x="0" y="540">0</tspan><tspan x="0" y="600">0</tspan><tspan x="0" y="660">0</tspan><tspan x="0" y="720">1</tspan></text><text class="cls-9" transform="translate(857.99 8.8) scale(0.91 1)">0<tspan x="0" y="60">0</tspan><tspan x="0" y="120">0</tspan><tspan x="0" y="180">1</tspan><tspan x="0" y="240">1</tspan><tspan x="0" y="300">1</tspan><tspan x="0" y="360">1</tspan><tspan x="0" y="420">0</tspan><tspan x="0" y="480">1</tspan><tspan x="0" y="540">0</tspan><tspan x="0" y="600">0</tspan><tspan x="0" y="660">0</tspan><tspan x="0" y="720">1</tspan></text><text class="cls-10" transform="translate(661.99 -216.2) scale(0.91 1)">0<tspan x="0" y="60">1</tspan><tspan x="0" y="120">1</tspan><tspan x="0" y="180">1</tspan><tspan x="0" y="240">0</tspan><tspan x="0" y="300">0</tspan><tspan x="0" y="360">0</tspan><tspan x="0" y="420">1</tspan><tspan x="0" y="480">1</tspan><tspan x="0" y="540">0</tspan><tspan x="0" y="600">1</tspan><tspan x="0" y="660">0</tspan><tspan x="0" y="720">1</tspan></text><text class="cls-10" transform="translate(750.99 -555.2) scale(0.91 1)">0<tspan x="0" y="60">1</tspan><tspan x="0" y="120">1</tspan><tspan x="0" y="180">1</tspan><tspan x="0" y="240">0</tspan><tspan x="0" y="300">0</tspan><tspan x="0" y="360">0</tspan><tspan x="0" y="420">1</tspan><tspan x="0" y="480">1</tspan><tspan x="0" y="540">0</tspan><tspan x="0" y="600">1</tspan><tspan x="0" y="660">0</tspan><tspan x="0" y="720">1</tspan></text><text class="cls-10" transform="translate(275.99 -147.2) scale(0.91 1)">0<tspan x="0" y="60">0</tspan><tspan x="0" y="120">0</tspan><tspan x="0" y="180">0</tspan><tspan x="0" y="240">0</tspan><tspan x="0" y="300">1</tspan><tspan x="0" y="360">1</tspan><tspan x="0" y="420">0</tspan><tspan x="0" y="480">0</tspan><tspan x="0" y="540">0</tspan><tspan x="0" y="600">0</tspan><tspan x="0" y="660">0</tspan><tspan x="0" y="720">0</tspan></text><text class="cls-11" transform="translate(563.99 -57.2) scale(0.91 1)">0<tspan x="0" y="60">0</tspan><tspan x="0" y="120">0</tspan><tspan x="0" y="180">0</tspan><tspan x="0" y="240">0</tspan><tspan x="0" y="300">1</tspan><tspan x="0" y="360">1</tspan><tspan x="0" y="420">0</tspan><tspan x="0" y="480">0</tspan><tspan x="0" y="540">0</tspan><tspan x="0" y="600">0</tspan><tspan x="0" y="660">0</tspan><tspan x="0" y="720">0</tspan></text><g class="cls-12"><path class="cls-8" d="M440.38-11.33h6.95a6.35,6.35,0,0,1,4.88,2.24,7.69,7.69,0,0,1,2,5.35v19a7.68,7.68,0,0,1-2,5.34,6.33,6.33,0,0,1-4.88,2.26h-6.95a6.39,6.39,0,0,1-4.88-2.24,7.67,7.67,0,0,1-2-5.36v-19a7.67,7.67,0,0,1,2-5.36A6.38,6.38,0,0,1,440.38-11.33Zm6.89,7q-.72-3.13-3.41-3.14a3.18,3.18,0,0,0-2.45,1.12,3.77,3.77,0,0,0-1,2.66v13Zm-6.81,20.27a4.1,4.1,0,0,0,1.12,2.39,3.14,3.14,0,0,0,2.28.8A3.2,3.2,0,0,0,446.32,18a3.85,3.85,0,0,0,1-2.66V2.38Z"/><path class="cls-8" d="M440.38,34.31h6.95a6.36,6.36,0,0,1,4.88,2.25,7.67,7.67,0,0,1,2,5.35V61a7.68,7.68,0,0,1-2,5.34,6.36,6.36,0,0,1-4.88,2.25h-6.95a6.38,6.38,0,0,1-4.88-2.23,7.67,7.67,0,0,1-2-5.36v-19a7.67,7.67,0,0,1,2-5.36A6.39,6.39,0,0,1,440.38,34.31Zm6.89,6.95q-.72-3.13-3.41-3.13a3.2,3.2,0,0,0-2.45,1.11,3.77,3.77,0,0,0-1,2.67V54.85Zm-6.81,20.28a4.13,4.13,0,0,0,1.12,2.39,3.18,3.18,0,0,0,2.28.8,3.23,3.23,0,0,0,2.46-1.12,3.87,3.87,0,0,0,1-2.66V48Z"/><path class="cls-8" d="M440.38,80h6.95a6.35,6.35,0,0,1,4.88,2.24,7.69,7.69,0,0,1,2,5.35v19a7.68,7.68,0,0,1-2,5.34,6.33,6.33,0,0,1-4.88,2.26h-6.95A6.39,6.39,0,0,1,435.5,112a7.67,7.67,0,0,1-2-5.36v-19a7.69,7.69,0,0,1,2-5.36A6.38,6.38,0,0,1,440.38,80Zm6.89,7q-.72-3.14-3.41-3.14a3.18,3.18,0,0,0-2.45,1.12,3.77,3.77,0,0,0-1,2.66v13Zm-6.81,20.27a4.1,4.1,0,0,0,1.12,2.39,3.14,3.14,0,0,0,2.28.8,3.2,3.2,0,0,0,2.46-1.12,3.85,3.85,0,0,0,1-2.66V93.67Z"/><path class="cls-8" d="M440.38,159.83V133.2h-3.47v-3.78l6.93-3.82h3.46v34.23Z"/><path class="cls-8" d="M440.38,171.25h6.95a6.38,6.38,0,0,1,4.88,2.24,7.69,7.69,0,0,1,2,5.35v19a7.68,7.68,0,0,1-2,5.34,6.33,6.33,0,0,1-4.88,2.26h-6.95a6.39,6.39,0,0,1-4.88-2.24,7.67,7.67,0,0,1-2-5.36v-19a7.69,7.69,0,0,1,2-5.36A6.38,6.38,0,0,1,440.38,171.25Zm6.89,6.95q-.72-3.13-3.41-3.14a3.18,3.18,0,0,0-2.45,1.12,3.77,3.77,0,0,0-1,2.66v12.95Zm-6.81,20.27a4.1,4.1,0,0,0,1.12,2.39,3.14,3.14,0,0,0,2.28.8,3.2,3.2,0,0,0,2.46-1.12,3.85,3.85,0,0,0,1-2.66V185Z"/><path class="cls-8" d="M440.38,216.89h6.95a6.36,6.36,0,0,1,4.88,2.25,7.69,7.69,0,0,1,2,5.35v19a7.68,7.68,0,0,1-2,5.34,6.37,6.37,0,0,1-4.88,2.26h-6.95a6.39,6.39,0,0,1-4.88-2.24,7.67,7.67,0,0,1-2-5.36v-19a7.67,7.67,0,0,1,2-5.36A6.39,6.39,0,0,1,440.38,216.89Zm6.89,7c-.48-2.1-1.62-3.14-3.41-3.14a3.2,3.2,0,0,0-2.45,1.11,3.77,3.77,0,0,0-1,2.67v12.94Zm-6.81,20.27a4.13,4.13,0,0,0,1.12,2.39,3.43,3.43,0,0,0,4.74-.32,3.87,3.87,0,0,0,1-2.66V230.6Z"/><path class="cls-8" d="M440.38,262.54h6.95a6.38,6.38,0,0,1,4.88,2.24,7.69,7.69,0,0,1,2,5.35v19.05a7.72,7.72,0,0,1-2,5.34,6.36,6.36,0,0,1-4.88,2.25h-6.95a6.36,6.36,0,0,1-4.88-2.24,7.65,7.65,0,0,1-2-5.35V270.13a7.69,7.69,0,0,1,2-5.36A6.38,6.38,0,0,1,440.38,262.54Zm6.89,6.95q-.72-3.14-3.41-3.14a3.18,3.18,0,0,0-2.45,1.12,3.77,3.77,0,0,0-1,2.66v12.95Zm-6.81,20.27a4.1,4.1,0,0,0,1.12,2.39,3.15,3.15,0,0,0,2.28.81,3.21,3.21,0,0,0,2.46-1.13,3.85,3.85,0,0,0,1-2.65V276.25Z"/><path class="cls-8" d="M440.38,342.42V315.78h-3.47V312l6.93-3.82h3.46v34.24Z"/><path class="cls-8" d="M440.38,353.83h6.95a6.38,6.38,0,0,1,4.88,2.24,7.69,7.69,0,0,1,2,5.35v19.05a7.72,7.72,0,0,1-2,5.34,6.36,6.36,0,0,1-4.88,2.25h-6.95a6.36,6.36,0,0,1-4.88-2.24,7.65,7.65,0,0,1-2-5.35V361.42a7.65,7.65,0,0,1,2-5.35A6.36,6.36,0,0,1,440.38,353.83Zm6.89,6.95q-.72-3.13-3.41-3.14a3.18,3.18,0,0,0-2.45,1.12,3.77,3.77,0,0,0-1,2.66v12.95Zm-6.81,20.27a4.1,4.1,0,0,0,1.12,2.39,3.15,3.15,0,0,0,2.28.81,3.21,3.21,0,0,0,2.46-1.13,3.85,3.85,0,0,0,1-2.65V367.54Z"/><path class="cls-8" d="M440.38,399.47h6.95a6.36,6.36,0,0,1,4.88,2.25,7.69,7.69,0,0,1,2,5.35v19a7.68,7.68,0,0,1-2,5.34,6.33,6.33,0,0,1-4.88,2.26h-6.95a6.39,6.39,0,0,1-4.88-2.24,7.67,7.67,0,0,1-2-5.36v-19a7.67,7.67,0,0,1,2-5.36A6.39,6.39,0,0,1,440.38,399.47Zm6.89,7c-.48-2.1-1.62-3.14-3.41-3.14a3.2,3.2,0,0,0-2.45,1.11,3.79,3.79,0,0,0-1,2.67V420Zm-6.81,20.27a4.13,4.13,0,0,0,1.12,2.39,3.43,3.43,0,0,0,4.74-.32,3.87,3.87,0,0,0,1-2.66V413.18Z"/><path class="cls-8" d="M440.38,445.12h6.95a6.38,6.38,0,0,1,4.88,2.24,7.71,7.71,0,0,1,2,5.35v19.05a7.72,7.72,0,0,1-2,5.34,6.36,6.36,0,0,1-4.88,2.25h-6.95a6.36,6.36,0,0,1-4.88-2.24,7.65,7.65,0,0,1-2-5.35V452.71a7.65,7.65,0,0,1,2-5.35A6.36,6.36,0,0,1,440.38,445.12Zm6.89,6.95q-.72-3.13-3.41-3.14a3.21,3.21,0,0,0-2.45,1.12,3.77,3.77,0,0,0-1,2.66v13Zm-6.81,20.27a4.1,4.1,0,0,0,1.12,2.39,3.15,3.15,0,0,0,2.28.81,3.21,3.21,0,0,0,2.46-1.13,3.85,3.85,0,0,0,1-2.65V458.83Z"/><path class="cls-8" d="M440.38,525V498.36h-3.47v-3.78l6.93-3.82h3.46V525Z"/><path class="cls-8" d="M440.38,536.41h6.95a6.36,6.36,0,0,1,4.88,2.25,7.67,7.67,0,0,1,2,5.34v19a7.72,7.72,0,0,1-2,5.34,6.36,6.36,0,0,1-4.88,2.25h-6.95a6.36,6.36,0,0,1-4.88-2.24,7.65,7.65,0,0,1-2-5.35V544a7.65,7.65,0,0,1,2-5.35A6.36,6.36,0,0,1,440.38,536.41Zm6.89,7q-.72-3.14-3.41-3.14a3.21,3.21,0,0,0-2.45,1.12,3.77,3.77,0,0,0-1,2.66v13Zm-6.81,20.28a4.09,4.09,0,0,0,1.12,2.38,3.15,3.15,0,0,0,2.28.81,3.21,3.21,0,0,0,2.46-1.13,3.85,3.85,0,0,0,1-2.65V550.12Z"/></g></g></svg>