<svg
  id="图层_2"
  data-name="图层 2"
  xmlns="http://www.w3.org/2000/svg"
  viewBox="0 0 1000 1000"
>
  <defs>
    <style>
      .cls-1 {
        fill: #ffeec0;
      }
      .cls-2 {
        fill: #f0cdd2;
      }
    </style>
  </defs>
  <rect class="cls-1" y="1" width="1000" height="1000" />
  <path
    class="cls-2"
    d="M42.72,398.62c-2.11-9.69-4-20.56,1.27-28.95,5.17-8.15,17.06-11.15,25.48-6.41s12,16.44,7.75,25.1c8-4.8,17.82-7.31,26.84-4.88s16.74,10.62,16.8,20c.07,13.56-15.31,22.78-28.84,22,11.12-.56,20,12.09,17.55,23S96.14,466.84,85,467.63c-4.65.33-9.53-.4-13.39-3s-6.44-7.4-5.57-12c-2.19,9.61-10.1,17.87-19.77,19.79s-20.48-3.08-24.7-12-.84-20.89,7.73-25.75c-8.42,2.27-17.86-3.6-20.44-11.93s1.29-17.94,8.38-23S34.06,394,42.72,398.62Z"
  />
  <path
    class="cls-2"
    d="M858.56,314.86c2.39-6.23,5.31-13.07,11.4-15.82a12.85,12.85,0,0,1,11.8,22.79c6.29.26,12.73,2.46,16.91,7.16s5.5,12.16,2.08,17.44c-5,7.66-17,7.18-24.35,1.72,6.47,3.8,6.77,14.18,1.4,19.41s-14.36,5.42-20.91,1.76a14.22,14.22,0,0,1-6.42-6.63c-1.21-2.9-.9-6.54,1.28-8.8a17.72,17.72,0,0,1-18.43,3.84c-6.15-2.49-10.39-9.3-9.48-15.87s7.24-12.07,13.86-11.64c-5.57-1.83-8.72-8.62-7.09-14.26s7.34-9.62,13.21-9.86A16.1,16.1,0,0,1,858.56,314.86Z"
  />
  <path
    class="cls-2"
    d="M344.38,600.06c4.16-5.22,9-10.84,15.66-11.62a12.85,12.85,0,0,1,4.33,25.29c5.91,2.16,11.39,6.21,13.95,12S379.87,639,375,642.94c-7.05,5.8-18.4,1.67-23.72-5.74,5,5.58,2.15,15.56-4.56,18.92s-15.33.81-20.46-4.67a14.26,14.26,0,0,1-4.11-8.27c-.27-3.13,1.13-6.5,3.89-8-5.95,2.93-13.62,2.31-18.72-1.93s-7.09-12-4.22-18,10.56-9.31,16.73-6.89c-4.75-3.43-5.69-10.86-2.43-15.74s9.91-6.94,15.57-5.39A16.12,16.12,0,0,1,344.38,600.06Z"
  />
  <path
    class="cls-2"
    d="M924.46,454.65c7.95-4.8,17-9.8,26-7.89,8.76,1.87,14.94,11,13.25,19.66s-11,15.31-19.91,14.35c6.63,5.33,11.77,12.88,12.3,21.29s-4.43,17.52-12.68,20.45c-12,4.27-24.72-5.94-28-17.69,3.8,9.28-4.77,20.7-15.11,22S880,521.15,876,512c-1.67-3.84-2.48-8.21-1.31-12.3s4.63-7.76,8.94-8.44c-9.16,1.12-18.82-3-23.39-10.66a20.47,20.47,0,0,1,3.27-24.7c6.63-6.34,18.24-7.18,25.09-1.4-4.51-6.45-2.12-16.29,4.48-21.06s16.26-4.46,22.85,0S926,445.85,924.46,454.65Z"
  />
  <path
    class="cls-2"
    d="M480.17,506.92c3.69-7,8.09-14.62,15.64-17,7.34-2.33,16.13,1.95,18.83,9.16s-1.1,16.21-8.16,19.3c7.35,1.19,14.63,4.68,18.88,10.8s4.76,15.08,0,20.81c-6.91,8.31-21,6-28.87-1.41,7.07,5.38,6,17.63-1.09,23s-17.66,4.35-24.84-.87a16.89,16.89,0,0,1-6.62-8.71c-1-3.58-.14-7.82,2.74-10.17-6.27,4.74-15.33,5.72-22.21,1.92s-10.92-12.39-8.91-20,10.21-13.18,17.93-11.74c-6.3-2.94-9-11.37-6.34-17.77s10-10.28,16.93-9.73A19,19,0,0,1,480.17,506.92Z"
  />
  <path
    class="cls-2"
    d="M150.85,537.21c-3.67-5.56-7.42-11.27-8.86-17.78s-.08-14.06,5.06-18.3c3.35-2.76,7.83-3.76,12.16-4.05,5.87-.38,12.09.51,16.8,4,9.58,7.16,9.06,22.36,2.81,32.57,7-3.67,15.46-5,23-2.49s13.72,9.27,14.48,17.15c.9,9.23-5.67,17.95-13.93,22.18s-17.86,4.84-27.13,4.78c2.63,5.26,2.11,11.71-.38,17-5.51,11.81-21.79,17.7-32.87,10.84s-12.22-25.72-1.27-32.79c-6.58,2.5-14.11,3.34-20.62.65s-11.55-9.52-10.67-16.51c.8-6.35,6-11.25,11.31-14.77,8.92-5.87,22.17-8.91,29.27-.9C149.7,538.87,149.42,538.87,150.85,537.21Z"
  />
  <path
    class="cls-2"
    d="M861.15,612c1-3.51,2.12-7.1,4.34-10s5.87-5.06,9.46-4.45a11.33,11.33,0,0,1,6,3.58c2.23,2.29,4,5.18,4.22,8.38.37,6.52-6.19,11.74-12.67,12.8a16,16,0,0,1,9.12,8.6A11.59,11.59,0,0,1,879.5,643c-3.56,3.67-9.53,4.06-14.21,2.16s-8.32-5.65-11.56-9.5a11.12,11.12,0,0,1-7.27,5.93c-6.9,1.94-15.1-2.69-16.12-9.72s6.49-14.24,13.31-12.23c-3.37-1.83-6.37-4.64-7.53-8.29s-.07-8.18,3.17-10.31c3-1.94,6.82-1.56,10.18-.6,5.6,1.59,11.54,6,10.67,11.78C860.05,612.1,860,612,861.15,612Z"
  />
  <path
    class="cls-2"
    d="M129,255.34c-.2-4.32-.37-8.76,1-12.86s4.65-7.87,8.92-8.52a13.67,13.67,0,0,1,8.13,1.8c3.4,1.74,6.57,4.32,8,7.85,2.95,7.19-2.41,15.49-9.3,19.1,5.13.29,10.29,2.36,13.63,6.27s4.55,9.74,2.36,14.39c-2.58,5.44-9.16,8.11-15.17,7.72s-11.57-3.27-16.72-6.39a12.9,12.9,0,0,1-5.89,9.37c-7,4.75-18,2.6-21.94-4.92s1.77-18.42,10.23-18.7c-4.5-.81-9-2.85-11.71-6.52s-3.26-9.16-.44-12.76c2.56-3.28,7.07-4.29,11.23-4.46,6.93-.3,15.33,2.43,16.61,9.26C127.82,255.88,127.67,255.79,129,255.34Z"
  />
  <path
    class="cls-2"
    d="M476.75,300.36c-2.92-3.19-5.91-6.47-7.5-10.5s-1.5-9,1.36-12.25a13.68,13.68,0,0,1,7.39-3.85c3.72-.85,7.8-.91,11.18.86,6.89,3.61,8.11,13.42,5.15,20.61,4.12-3.08,9.4-4.81,14.47-4s9.75,4.54,11.06,9.51c1.52,5.83-1.8,12.1-6.66,15.66s-11,4.94-16.92,5.85a12.91,12.91,0,0,1,1.52,11c-2.33,8.14-12.16,13.59-20,10.33s-10.48-15.24-4.18-20.9c-4,2.28-8.7,3.59-13.15,2.53s-8.39-4.92-8.55-9.49c-.14-4.16,2.67-7.83,5.74-10.64,5.12-4.68,13.31-8,18.68-3.58C476.19,301.54,476,301.57,476.75,300.36Z"
  />
  <path
    class="cls-2"
    d="M650.86,367c-.11-6.07-.19-12.29,1.88-18s6.81-10.85,12.83-11.59c3.93-.48,7.86.93,11.33,2.83,4.7,2.57,9,6.3,10.94,11.31,3.86,10.19-4,21.62-13.76,26.41,7.18.61,14.33,3.7,18.87,9.3s6,13.83,2.75,20.26c-3.82,7.54-13.13,11-21.55,10.25s-16.09-5-23.19-9.59c-.54,5.33-4.1,10-8.62,12.92-10,6.38-25.4,2.95-30.56-7.73s3.18-25.75,15.05-25.83c-6.29-1.3-12.48-4.33-16.17-9.57s-4.23-13-.14-17.91c3.72-4.5,10.08-5.74,15.92-5.83,9.73-.15,21.4,4,22.94,13.61C649.17,367.71,649,367.58,650.86,367Z"
  />
  <path
    class="cls-2"
    d="M282.42,367.82c-5.84,1.48-11.82,3-17.83,2.42s-12.14-3.54-14.83-8.93c-4-8,.78-17.48,6.31-24.47s12.34-13.32,21-14.65,18.75,4.8,18.66,13.54c-2.58-7.5,2.61-15.29,7.85-21.24s12.25-12.25,20.28-11.41a18.72,18.72,0,0,1,10.38,5.13c11.5,10.45,12.24,30.54,1.54,41.81,5.26-9,19-11.13,27.12-4.67s9.43,19.69,3.15,28-18.79,10.79-28.08,6.12c7.18,1.71,11.76,9,13.41,16.15a19.93,19.93,0,0,1,.22,9.49,17.82,17.82,0,0,1-7.3,9.72,25,25,0,0,1-38.59-26.57c-.76,9.51-9.61,17.63-19.16,17.68s-18.44-7.88-19.62-17.35S272.34,369.29,282.42,367.82Z"
  />
  <path
    class="cls-2"
    d="M704.5,529.75c-4.3-4.22-8.68-8.56-11.34-14s-3.28-12.21-.07-17.31c4.74-7.54,15.34-8.43,24.18-7.33,8.67,1.08,17.8,3.62,23.42,10.32s5.64,18.5-1.87,23c5.06-6.1,14.42-5.72,22.22-4.33,8,1.41,16.83,4.1,20.3,11.39a18.74,18.74,0,0,1,1,11.54c-3,15.25-19.73,26.33-34.92,23,10.4-.16,19.37,10.43,18.09,20.74s-11.92,18.29-22.26,17.24-19-10.45-19.82-20.81c2.27,7-1.55,14.7-6.83,19.85a20,20,0,0,1-8,5.11A17.77,17.77,0,0,1,696.5,607a25,25,0,0,1,2.66-46.78c-8.53,4.3-20.06,1-25.07-7.18s-2.86-19.85,4.63-25.78S698,521.91,704.5,529.75Z"
  />
</svg>
